G04 #@! TF.GenerationSoftware,KiCad,Pcbnew,9.0.4*
G04 #@! TF.CreationDate,2026-01-11T08:54:10-05:00*
G04 #@! TF.ProjectId,SignalStreamer,5369676e-616c-4537-9472-65616d65722e,rev?*
G04 #@! TF.SameCoordinates,Original*
G04 #@! TF.FileFunction,Legend,Bot*
G04 #@! TF.FilePolarity,Positive*
%FSLAX46Y46*%
G04 Gerber Fmt 4.6, Leading zero omitted, Abs format (unit mm)*
G04 Created by KiCad (PCBNEW 9.0.4) date 2026-01-11 08:54:10*
%MOMM*%
%LPD*%
G01*
G04 APERTURE LIST*
G04 Aperture macros list*
%AMRoundRect*
0 Rectangle with rounded corners*
0 $1 Rounding radius*
0 $2 $3 $4 $5 $6 $7 $8 $9 X,Y pos of 4 corners*
0 Add a 4 corners polygon primitive as box body*
4,1,4,$2,$3,$4,$5,$6,$7,$8,$9,$2,$3,0*
0 Add four circle primitives for the rounded corners*
1,1,$1+$1,$2,$3*
1,1,$1+$1,$4,$5*
1,1,$1+$1,$6,$7*
1,1,$1+$1,$8,$9*
0 Add four rect primitives between the rounded corners*
20,1,$1+$1,$2,$3,$4,$5,0*
20,1,$1+$1,$4,$5,$6,$7,0*
20,1,$1+$1,$6,$7,$8,$9,0*
20,1,$1+$1,$8,$9,$2,$3,0*%
G04 Aperture macros list end*
%ADD10C,0.160000*%
%ADD11C,0.400000*%
%ADD12C,0.300000*%
%ADD13C,0.200000*%
%ADD14C,0.120000*%
%ADD15C,3.000000*%
%ADD16C,2.600000*%
%ADD17R,5.000000X1.524000*%
%ADD18C,2.500000*%
%ADD19R,1.524000X5.000000*%
%ADD20C,5.000000*%
%ADD21RoundRect,0.250000X-0.550000X0.550000X-0.550000X-0.550000X0.550000X-0.550000X0.550000X0.550000X0*%
%ADD22C,1.600000*%
%ADD23R,1.800000X1.800000*%
%ADD24C,1.800000*%
%ADD25O,2.500000X1.600000*%
%ADD26C,3.500000*%
%ADD27RoundRect,0.250000X-1.000000X0.550000X-1.000000X-0.550000X1.000000X-0.550000X1.000000X0.550000X0*%
%ADD28RoundRect,0.250000X0.550000X0.550000X-0.550000X0.550000X-0.550000X-0.550000X0.550000X-0.550000X0*%
%ADD29C,7.000000*%
%ADD30RoundRect,0.250000X-0.550000X-0.550000X0.550000X-0.550000X0.550000X0.550000X-0.550000X0.550000X0*%
%ADD31C,1.440000*%
G04 APERTURE END LIST*
D10*
X81940475Y-114774299D02*
X81940475Y-113774299D01*
X81940475Y-113774299D02*
X81702380Y-113774299D01*
X81702380Y-113774299D02*
X81559523Y-113821918D01*
X81559523Y-113821918D02*
X81464285Y-113917156D01*
X81464285Y-113917156D02*
X81416666Y-114012394D01*
X81416666Y-114012394D02*
X81369047Y-114202870D01*
X81369047Y-114202870D02*
X81369047Y-114345727D01*
X81369047Y-114345727D02*
X81416666Y-114536203D01*
X81416666Y-114536203D02*
X81464285Y-114631441D01*
X81464285Y-114631441D02*
X81559523Y-114726680D01*
X81559523Y-114726680D02*
X81702380Y-114774299D01*
X81702380Y-114774299D02*
X81940475Y-114774299D01*
X80416666Y-114774299D02*
X80988094Y-114774299D01*
X80702380Y-114774299D02*
X80702380Y-113774299D01*
X80702380Y-113774299D02*
X80797618Y-113917156D01*
X80797618Y-113917156D02*
X80892856Y-114012394D01*
X80892856Y-114012394D02*
X80988094Y-114060013D01*
X79797618Y-113774299D02*
X79702380Y-113774299D01*
X79702380Y-113774299D02*
X79607142Y-113821918D01*
X79607142Y-113821918D02*
X79559523Y-113869537D01*
X79559523Y-113869537D02*
X79511904Y-113964775D01*
X79511904Y-113964775D02*
X79464285Y-114155251D01*
X79464285Y-114155251D02*
X79464285Y-114393346D01*
X79464285Y-114393346D02*
X79511904Y-114583822D01*
X79511904Y-114583822D02*
X79559523Y-114679060D01*
X79559523Y-114679060D02*
X79607142Y-114726680D01*
X79607142Y-114726680D02*
X79702380Y-114774299D01*
X79702380Y-114774299D02*
X79797618Y-114774299D01*
X79797618Y-114774299D02*
X79892856Y-114726680D01*
X79892856Y-114726680D02*
X79940475Y-114679060D01*
X79940475Y-114679060D02*
X79988094Y-114583822D01*
X79988094Y-114583822D02*
X80035713Y-114393346D01*
X80035713Y-114393346D02*
X80035713Y-114155251D01*
X80035713Y-114155251D02*
X79988094Y-113964775D01*
X79988094Y-113964775D02*
X79940475Y-113869537D01*
X79940475Y-113869537D02*
X79892856Y-113821918D01*
X79892856Y-113821918D02*
X79797618Y-113774299D01*
X78559523Y-113774299D02*
X79035713Y-113774299D01*
X79035713Y-113774299D02*
X79083332Y-114250489D01*
X79083332Y-114250489D02*
X79035713Y-114202870D01*
X79035713Y-114202870D02*
X78940475Y-114155251D01*
X78940475Y-114155251D02*
X78702380Y-114155251D01*
X78702380Y-114155251D02*
X78607142Y-114202870D01*
X78607142Y-114202870D02*
X78559523Y-114250489D01*
X78559523Y-114250489D02*
X78511904Y-114345727D01*
X78511904Y-114345727D02*
X78511904Y-114583822D01*
X78511904Y-114583822D02*
X78559523Y-114679060D01*
X78559523Y-114679060D02*
X78607142Y-114726680D01*
X78607142Y-114726680D02*
X78702380Y-114774299D01*
X78702380Y-114774299D02*
X78940475Y-114774299D01*
X78940475Y-114774299D02*
X79035713Y-114726680D01*
X79035713Y-114726680D02*
X79083332Y-114679060D01*
D11*
X122724938Y-113724438D02*
X122724938Y-114200628D01*
X123201128Y-114010152D02*
X122724938Y-114200628D01*
X122724938Y-114200628D02*
X122248747Y-114010152D01*
X123010652Y-114581580D02*
X122724938Y-114200628D01*
X122724938Y-114200628D02*
X122439223Y-114581580D01*
D12*
X75541679Y-76264624D02*
X75255965Y-76359862D01*
X75255965Y-76359862D02*
X74779774Y-76359862D01*
X74779774Y-76359862D02*
X74589298Y-76264624D01*
X74589298Y-76264624D02*
X74494060Y-76169385D01*
X74494060Y-76169385D02*
X74398822Y-75978909D01*
X74398822Y-75978909D02*
X74398822Y-75788433D01*
X74398822Y-75788433D02*
X74494060Y-75597957D01*
X74494060Y-75597957D02*
X74589298Y-75502719D01*
X74589298Y-75502719D02*
X74779774Y-75407481D01*
X74779774Y-75407481D02*
X75160727Y-75312243D01*
X75160727Y-75312243D02*
X75351203Y-75217004D01*
X75351203Y-75217004D02*
X75446441Y-75121766D01*
X75446441Y-75121766D02*
X75541679Y-74931290D01*
X75541679Y-74931290D02*
X75541679Y-74740814D01*
X75541679Y-74740814D02*
X75446441Y-74550338D01*
X75446441Y-74550338D02*
X75351203Y-74455100D01*
X75351203Y-74455100D02*
X75160727Y-74359862D01*
X75160727Y-74359862D02*
X74684536Y-74359862D01*
X74684536Y-74359862D02*
X74398822Y-74455100D01*
X73541679Y-76359862D02*
X73541679Y-75026528D01*
X73541679Y-74359862D02*
X73636917Y-74455100D01*
X73636917Y-74455100D02*
X73541679Y-74550338D01*
X73541679Y-74550338D02*
X73446441Y-74455100D01*
X73446441Y-74455100D02*
X73541679Y-74359862D01*
X73541679Y-74359862D02*
X73541679Y-74550338D01*
X71732155Y-75026528D02*
X71732155Y-76645576D01*
X71732155Y-76645576D02*
X71827393Y-76836052D01*
X71827393Y-76836052D02*
X71922631Y-76931290D01*
X71922631Y-76931290D02*
X72113108Y-77026528D01*
X72113108Y-77026528D02*
X72398822Y-77026528D01*
X72398822Y-77026528D02*
X72589298Y-76931290D01*
X71732155Y-76264624D02*
X71922631Y-76359862D01*
X71922631Y-76359862D02*
X72303584Y-76359862D01*
X72303584Y-76359862D02*
X72494060Y-76264624D01*
X72494060Y-76264624D02*
X72589298Y-76169385D01*
X72589298Y-76169385D02*
X72684536Y-75978909D01*
X72684536Y-75978909D02*
X72684536Y-75407481D01*
X72684536Y-75407481D02*
X72589298Y-75217004D01*
X72589298Y-75217004D02*
X72494060Y-75121766D01*
X72494060Y-75121766D02*
X72303584Y-75026528D01*
X72303584Y-75026528D02*
X71922631Y-75026528D01*
X71922631Y-75026528D02*
X71732155Y-75121766D01*
X70779774Y-75026528D02*
X70779774Y-76359862D01*
X70779774Y-75217004D02*
X70684536Y-75121766D01*
X70684536Y-75121766D02*
X70494060Y-75026528D01*
X70494060Y-75026528D02*
X70208345Y-75026528D01*
X70208345Y-75026528D02*
X70017869Y-75121766D01*
X70017869Y-75121766D02*
X69922631Y-75312243D01*
X69922631Y-75312243D02*
X69922631Y-76359862D01*
X68113107Y-76359862D02*
X68113107Y-75312243D01*
X68113107Y-75312243D02*
X68208345Y-75121766D01*
X68208345Y-75121766D02*
X68398821Y-75026528D01*
X68398821Y-75026528D02*
X68779774Y-75026528D01*
X68779774Y-75026528D02*
X68970250Y-75121766D01*
X68113107Y-76264624D02*
X68303583Y-76359862D01*
X68303583Y-76359862D02*
X68779774Y-76359862D01*
X68779774Y-76359862D02*
X68970250Y-76264624D01*
X68970250Y-76264624D02*
X69065488Y-76074147D01*
X69065488Y-76074147D02*
X69065488Y-75883671D01*
X69065488Y-75883671D02*
X68970250Y-75693195D01*
X68970250Y-75693195D02*
X68779774Y-75597957D01*
X68779774Y-75597957D02*
X68303583Y-75597957D01*
X68303583Y-75597957D02*
X68113107Y-75502719D01*
X66875012Y-76359862D02*
X67065488Y-76264624D01*
X67065488Y-76264624D02*
X67160726Y-76074147D01*
X67160726Y-76074147D02*
X67160726Y-74359862D01*
X66208345Y-76264624D02*
X65922631Y-76359862D01*
X65922631Y-76359862D02*
X65446440Y-76359862D01*
X65446440Y-76359862D02*
X65255964Y-76264624D01*
X65255964Y-76264624D02*
X65160726Y-76169385D01*
X65160726Y-76169385D02*
X65065488Y-75978909D01*
X65065488Y-75978909D02*
X65065488Y-75788433D01*
X65065488Y-75788433D02*
X65160726Y-75597957D01*
X65160726Y-75597957D02*
X65255964Y-75502719D01*
X65255964Y-75502719D02*
X65446440Y-75407481D01*
X65446440Y-75407481D02*
X65827393Y-75312243D01*
X65827393Y-75312243D02*
X66017869Y-75217004D01*
X66017869Y-75217004D02*
X66113107Y-75121766D01*
X66113107Y-75121766D02*
X66208345Y-74931290D01*
X66208345Y-74931290D02*
X66208345Y-74740814D01*
X66208345Y-74740814D02*
X66113107Y-74550338D01*
X66113107Y-74550338D02*
X66017869Y-74455100D01*
X66017869Y-74455100D02*
X65827393Y-74359862D01*
X65827393Y-74359862D02*
X65351202Y-74359862D01*
X65351202Y-74359862D02*
X65065488Y-74455100D01*
X64494059Y-75026528D02*
X63732155Y-75026528D01*
X64208345Y-74359862D02*
X64208345Y-76074147D01*
X64208345Y-76074147D02*
X64113107Y-76264624D01*
X64113107Y-76264624D02*
X63922631Y-76359862D01*
X63922631Y-76359862D02*
X63732155Y-76359862D01*
X63065488Y-76359862D02*
X63065488Y-75026528D01*
X63065488Y-75407481D02*
X62970250Y-75217004D01*
X62970250Y-75217004D02*
X62875012Y-75121766D01*
X62875012Y-75121766D02*
X62684536Y-75026528D01*
X62684536Y-75026528D02*
X62494059Y-75026528D01*
X61065488Y-76264624D02*
X61255964Y-76359862D01*
X61255964Y-76359862D02*
X61636917Y-76359862D01*
X61636917Y-76359862D02*
X61827393Y-76264624D01*
X61827393Y-76264624D02*
X61922631Y-76074147D01*
X61922631Y-76074147D02*
X61922631Y-75312243D01*
X61922631Y-75312243D02*
X61827393Y-75121766D01*
X61827393Y-75121766D02*
X61636917Y-75026528D01*
X61636917Y-75026528D02*
X61255964Y-75026528D01*
X61255964Y-75026528D02*
X61065488Y-75121766D01*
X61065488Y-75121766D02*
X60970250Y-75312243D01*
X60970250Y-75312243D02*
X60970250Y-75502719D01*
X60970250Y-75502719D02*
X61922631Y-75693195D01*
X59255964Y-76359862D02*
X59255964Y-75312243D01*
X59255964Y-75312243D02*
X59351202Y-75121766D01*
X59351202Y-75121766D02*
X59541678Y-75026528D01*
X59541678Y-75026528D02*
X59922631Y-75026528D01*
X59922631Y-75026528D02*
X60113107Y-75121766D01*
X59255964Y-76264624D02*
X59446440Y-76359862D01*
X59446440Y-76359862D02*
X59922631Y-76359862D01*
X59922631Y-76359862D02*
X60113107Y-76264624D01*
X60113107Y-76264624D02*
X60208345Y-76074147D01*
X60208345Y-76074147D02*
X60208345Y-75883671D01*
X60208345Y-75883671D02*
X60113107Y-75693195D01*
X60113107Y-75693195D02*
X59922631Y-75597957D01*
X59922631Y-75597957D02*
X59446440Y-75597957D01*
X59446440Y-75597957D02*
X59255964Y-75502719D01*
X58303583Y-76359862D02*
X58303583Y-75026528D01*
X58303583Y-75217004D02*
X58208345Y-75121766D01*
X58208345Y-75121766D02*
X58017869Y-75026528D01*
X58017869Y-75026528D02*
X57732154Y-75026528D01*
X57732154Y-75026528D02*
X57541678Y-75121766D01*
X57541678Y-75121766D02*
X57446440Y-75312243D01*
X57446440Y-75312243D02*
X57446440Y-76359862D01*
X57446440Y-75312243D02*
X57351202Y-75121766D01*
X57351202Y-75121766D02*
X57160726Y-75026528D01*
X57160726Y-75026528D02*
X56875012Y-75026528D01*
X56875012Y-75026528D02*
X56684535Y-75121766D01*
X56684535Y-75121766D02*
X56589297Y-75312243D01*
X56589297Y-75312243D02*
X56589297Y-76359862D01*
X54875011Y-76264624D02*
X55065487Y-76359862D01*
X55065487Y-76359862D02*
X55446440Y-76359862D01*
X55446440Y-76359862D02*
X55636916Y-76264624D01*
X55636916Y-76264624D02*
X55732154Y-76074147D01*
X55732154Y-76074147D02*
X55732154Y-75312243D01*
X55732154Y-75312243D02*
X55636916Y-75121766D01*
X55636916Y-75121766D02*
X55446440Y-75026528D01*
X55446440Y-75026528D02*
X55065487Y-75026528D01*
X55065487Y-75026528D02*
X54875011Y-75121766D01*
X54875011Y-75121766D02*
X54779773Y-75312243D01*
X54779773Y-75312243D02*
X54779773Y-75502719D01*
X54779773Y-75502719D02*
X55732154Y-75693195D01*
X53922630Y-76359862D02*
X53922630Y-75026528D01*
X53922630Y-75407481D02*
X53827392Y-75217004D01*
X53827392Y-75217004D02*
X53732154Y-75121766D01*
X53732154Y-75121766D02*
X53541678Y-75026528D01*
X53541678Y-75026528D02*
X53351201Y-75026528D01*
X75732155Y-77579750D02*
X75065489Y-79579750D01*
X75065489Y-79579750D02*
X74398822Y-77579750D01*
X72970250Y-79484512D02*
X73160726Y-79579750D01*
X73160726Y-79579750D02*
X73541679Y-79579750D01*
X73541679Y-79579750D02*
X73732155Y-79484512D01*
X73732155Y-79484512D02*
X73827393Y-79294035D01*
X73827393Y-79294035D02*
X73827393Y-78532131D01*
X73827393Y-78532131D02*
X73732155Y-78341654D01*
X73732155Y-78341654D02*
X73541679Y-78246416D01*
X73541679Y-78246416D02*
X73160726Y-78246416D01*
X73160726Y-78246416D02*
X72970250Y-78341654D01*
X72970250Y-78341654D02*
X72875012Y-78532131D01*
X72875012Y-78532131D02*
X72875012Y-78722607D01*
X72875012Y-78722607D02*
X73827393Y-78913083D01*
X72017869Y-79579750D02*
X72017869Y-78246416D01*
X72017869Y-78627369D02*
X71922631Y-78436892D01*
X71922631Y-78436892D02*
X71827393Y-78341654D01*
X71827393Y-78341654D02*
X71636917Y-78246416D01*
X71636917Y-78246416D02*
X71446440Y-78246416D01*
X68208345Y-79579750D02*
X69351202Y-79579750D01*
X68779774Y-79579750D02*
X68779774Y-77579750D01*
X68779774Y-77579750D02*
X68970250Y-77865464D01*
X68970250Y-77865464D02*
X69160726Y-78055940D01*
X69160726Y-78055940D02*
X69351202Y-78151178D01*
X67351202Y-79389273D02*
X67255964Y-79484512D01*
X67255964Y-79484512D02*
X67351202Y-79579750D01*
X67351202Y-79579750D02*
X67446440Y-79484512D01*
X67446440Y-79484512D02*
X67351202Y-79389273D01*
X67351202Y-79389273D02*
X67351202Y-79579750D01*
X66017869Y-77579750D02*
X65827392Y-77579750D01*
X65827392Y-77579750D02*
X65636916Y-77674988D01*
X65636916Y-77674988D02*
X65541678Y-77770226D01*
X65541678Y-77770226D02*
X65446440Y-77960702D01*
X65446440Y-77960702D02*
X65351202Y-78341654D01*
X65351202Y-78341654D02*
X65351202Y-78817845D01*
X65351202Y-78817845D02*
X65446440Y-79198797D01*
X65446440Y-79198797D02*
X65541678Y-79389273D01*
X65541678Y-79389273D02*
X65636916Y-79484512D01*
X65636916Y-79484512D02*
X65827392Y-79579750D01*
X65827392Y-79579750D02*
X66017869Y-79579750D01*
X66017869Y-79579750D02*
X66208345Y-79484512D01*
X66208345Y-79484512D02*
X66303583Y-79389273D01*
X66303583Y-79389273D02*
X66398821Y-79198797D01*
X66398821Y-79198797D02*
X66494059Y-78817845D01*
X66494059Y-78817845D02*
X66494059Y-78341654D01*
X66494059Y-78341654D02*
X66398821Y-77960702D01*
X66398821Y-77960702D02*
X66303583Y-77770226D01*
X66303583Y-77770226D02*
X66208345Y-77674988D01*
X66208345Y-77674988D02*
X66017869Y-77579750D01*
X74398822Y-82799638D02*
X75541679Y-82799638D01*
X74970251Y-82799638D02*
X74970251Y-80799638D01*
X74970251Y-80799638D02*
X75160727Y-81085352D01*
X75160727Y-81085352D02*
X75351203Y-81275828D01*
X75351203Y-81275828D02*
X75541679Y-81371066D01*
X71446440Y-80799638D02*
X71446440Y-82228209D01*
X71446440Y-82228209D02*
X71541679Y-82513923D01*
X71541679Y-82513923D02*
X71732155Y-82704400D01*
X71732155Y-82704400D02*
X72017869Y-82799638D01*
X72017869Y-82799638D02*
X72208345Y-82799638D01*
X69636916Y-82799638D02*
X69636916Y-81752019D01*
X69636916Y-81752019D02*
X69732154Y-81561542D01*
X69732154Y-81561542D02*
X69922630Y-81466304D01*
X69922630Y-81466304D02*
X70303583Y-81466304D01*
X70303583Y-81466304D02*
X70494059Y-81561542D01*
X69636916Y-82704400D02*
X69827392Y-82799638D01*
X69827392Y-82799638D02*
X70303583Y-82799638D01*
X70303583Y-82799638D02*
X70494059Y-82704400D01*
X70494059Y-82704400D02*
X70589297Y-82513923D01*
X70589297Y-82513923D02*
X70589297Y-82323447D01*
X70589297Y-82323447D02*
X70494059Y-82132971D01*
X70494059Y-82132971D02*
X70303583Y-82037733D01*
X70303583Y-82037733D02*
X69827392Y-82037733D01*
X69827392Y-82037733D02*
X69636916Y-81942495D01*
X68684535Y-81466304D02*
X68684535Y-82799638D01*
X68684535Y-81656780D02*
X68589297Y-81561542D01*
X68589297Y-81561542D02*
X68398821Y-81466304D01*
X68398821Y-81466304D02*
X68113106Y-81466304D01*
X68113106Y-81466304D02*
X67922630Y-81561542D01*
X67922630Y-81561542D02*
X67827392Y-81752019D01*
X67827392Y-81752019D02*
X67827392Y-82799638D01*
X65446439Y-80990114D02*
X65351201Y-80894876D01*
X65351201Y-80894876D02*
X65160725Y-80799638D01*
X65160725Y-80799638D02*
X64684534Y-80799638D01*
X64684534Y-80799638D02*
X64494058Y-80894876D01*
X64494058Y-80894876D02*
X64398820Y-80990114D01*
X64398820Y-80990114D02*
X64303582Y-81180590D01*
X64303582Y-81180590D02*
X64303582Y-81371066D01*
X64303582Y-81371066D02*
X64398820Y-81656780D01*
X64398820Y-81656780D02*
X65541677Y-82799638D01*
X65541677Y-82799638D02*
X64303582Y-82799638D01*
X63065487Y-80799638D02*
X62875010Y-80799638D01*
X62875010Y-80799638D02*
X62684534Y-80894876D01*
X62684534Y-80894876D02*
X62589296Y-80990114D01*
X62589296Y-80990114D02*
X62494058Y-81180590D01*
X62494058Y-81180590D02*
X62398820Y-81561542D01*
X62398820Y-81561542D02*
X62398820Y-82037733D01*
X62398820Y-82037733D02*
X62494058Y-82418685D01*
X62494058Y-82418685D02*
X62589296Y-82609161D01*
X62589296Y-82609161D02*
X62684534Y-82704400D01*
X62684534Y-82704400D02*
X62875010Y-82799638D01*
X62875010Y-82799638D02*
X63065487Y-82799638D01*
X63065487Y-82799638D02*
X63255963Y-82704400D01*
X63255963Y-82704400D02*
X63351201Y-82609161D01*
X63351201Y-82609161D02*
X63446439Y-82418685D01*
X63446439Y-82418685D02*
X63541677Y-82037733D01*
X63541677Y-82037733D02*
X63541677Y-81561542D01*
X63541677Y-81561542D02*
X63446439Y-81180590D01*
X63446439Y-81180590D02*
X63351201Y-80990114D01*
X63351201Y-80990114D02*
X63255963Y-80894876D01*
X63255963Y-80894876D02*
X63065487Y-80799638D01*
X61636915Y-80990114D02*
X61541677Y-80894876D01*
X61541677Y-80894876D02*
X61351201Y-80799638D01*
X61351201Y-80799638D02*
X60875010Y-80799638D01*
X60875010Y-80799638D02*
X60684534Y-80894876D01*
X60684534Y-80894876D02*
X60589296Y-80990114D01*
X60589296Y-80990114D02*
X60494058Y-81180590D01*
X60494058Y-81180590D02*
X60494058Y-81371066D01*
X60494058Y-81371066D02*
X60589296Y-81656780D01*
X60589296Y-81656780D02*
X61732153Y-82799638D01*
X61732153Y-82799638D02*
X60494058Y-82799638D01*
X58779772Y-80799638D02*
X59160725Y-80799638D01*
X59160725Y-80799638D02*
X59351201Y-80894876D01*
X59351201Y-80894876D02*
X59446439Y-80990114D01*
X59446439Y-80990114D02*
X59636915Y-81275828D01*
X59636915Y-81275828D02*
X59732153Y-81656780D01*
X59732153Y-81656780D02*
X59732153Y-82418685D01*
X59732153Y-82418685D02*
X59636915Y-82609161D01*
X59636915Y-82609161D02*
X59541677Y-82704400D01*
X59541677Y-82704400D02*
X59351201Y-82799638D01*
X59351201Y-82799638D02*
X58970248Y-82799638D01*
X58970248Y-82799638D02*
X58779772Y-82704400D01*
X58779772Y-82704400D02*
X58684534Y-82609161D01*
X58684534Y-82609161D02*
X58589296Y-82418685D01*
X58589296Y-82418685D02*
X58589296Y-81942495D01*
X58589296Y-81942495D02*
X58684534Y-81752019D01*
X58684534Y-81752019D02*
X58779772Y-81656780D01*
X58779772Y-81656780D02*
X58970248Y-81561542D01*
X58970248Y-81561542D02*
X59351201Y-81561542D01*
X59351201Y-81561542D02*
X59541677Y-81656780D01*
X59541677Y-81656780D02*
X59636915Y-81752019D01*
X59636915Y-81752019D02*
X59732153Y-81942495D01*
D10*
X68290475Y-114814299D02*
X68290475Y-113814299D01*
X68290475Y-113814299D02*
X68052380Y-113814299D01*
X68052380Y-113814299D02*
X67909523Y-113861918D01*
X67909523Y-113861918D02*
X67814285Y-113957156D01*
X67814285Y-113957156D02*
X67766666Y-114052394D01*
X67766666Y-114052394D02*
X67719047Y-114242870D01*
X67719047Y-114242870D02*
X67719047Y-114385727D01*
X67719047Y-114385727D02*
X67766666Y-114576203D01*
X67766666Y-114576203D02*
X67814285Y-114671441D01*
X67814285Y-114671441D02*
X67909523Y-114766680D01*
X67909523Y-114766680D02*
X68052380Y-114814299D01*
X68052380Y-114814299D02*
X68290475Y-114814299D01*
X66766666Y-114814299D02*
X67338094Y-114814299D01*
X67052380Y-114814299D02*
X67052380Y-113814299D01*
X67052380Y-113814299D02*
X67147618Y-113957156D01*
X67147618Y-113957156D02*
X67242856Y-114052394D01*
X67242856Y-114052394D02*
X67338094Y-114100013D01*
X66147618Y-113814299D02*
X66052380Y-113814299D01*
X66052380Y-113814299D02*
X65957142Y-113861918D01*
X65957142Y-113861918D02*
X65909523Y-113909537D01*
X65909523Y-113909537D02*
X65861904Y-114004775D01*
X65861904Y-114004775D02*
X65814285Y-114195251D01*
X65814285Y-114195251D02*
X65814285Y-114433346D01*
X65814285Y-114433346D02*
X65861904Y-114623822D01*
X65861904Y-114623822D02*
X65909523Y-114719060D01*
X65909523Y-114719060D02*
X65957142Y-114766680D01*
X65957142Y-114766680D02*
X66052380Y-114814299D01*
X66052380Y-114814299D02*
X66147618Y-114814299D01*
X66147618Y-114814299D02*
X66242856Y-114766680D01*
X66242856Y-114766680D02*
X66290475Y-114719060D01*
X66290475Y-114719060D02*
X66338094Y-114623822D01*
X66338094Y-114623822D02*
X66385713Y-114433346D01*
X66385713Y-114433346D02*
X66385713Y-114195251D01*
X66385713Y-114195251D02*
X66338094Y-114004775D01*
X66338094Y-114004775D02*
X66290475Y-113909537D01*
X66290475Y-113909537D02*
X66242856Y-113861918D01*
X66242856Y-113861918D02*
X66147618Y-113814299D01*
X65338094Y-114814299D02*
X65147618Y-114814299D01*
X65147618Y-114814299D02*
X65052380Y-114766680D01*
X65052380Y-114766680D02*
X65004761Y-114719060D01*
X65004761Y-114719060D02*
X64909523Y-114576203D01*
X64909523Y-114576203D02*
X64861904Y-114385727D01*
X64861904Y-114385727D02*
X64861904Y-114004775D01*
X64861904Y-114004775D02*
X64909523Y-113909537D01*
X64909523Y-113909537D02*
X64957142Y-113861918D01*
X64957142Y-113861918D02*
X65052380Y-113814299D01*
X65052380Y-113814299D02*
X65242856Y-113814299D01*
X65242856Y-113814299D02*
X65338094Y-113861918D01*
X65338094Y-113861918D02*
X65385713Y-113909537D01*
X65385713Y-113909537D02*
X65433332Y-114004775D01*
X65433332Y-114004775D02*
X65433332Y-114242870D01*
X65433332Y-114242870D02*
X65385713Y-114338108D01*
X65385713Y-114338108D02*
X65338094Y-114385727D01*
X65338094Y-114385727D02*
X65242856Y-114433346D01*
X65242856Y-114433346D02*
X65052380Y-114433346D01*
X65052380Y-114433346D02*
X64957142Y-114385727D01*
X64957142Y-114385727D02*
X64909523Y-114338108D01*
X64909523Y-114338108D02*
X64861904Y-114242870D01*
X75160475Y-114774299D02*
X75160475Y-113774299D01*
X75160475Y-113774299D02*
X74922380Y-113774299D01*
X74922380Y-113774299D02*
X74779523Y-113821918D01*
X74779523Y-113821918D02*
X74684285Y-113917156D01*
X74684285Y-113917156D02*
X74636666Y-114012394D01*
X74636666Y-114012394D02*
X74589047Y-114202870D01*
X74589047Y-114202870D02*
X74589047Y-114345727D01*
X74589047Y-114345727D02*
X74636666Y-114536203D01*
X74636666Y-114536203D02*
X74684285Y-114631441D01*
X74684285Y-114631441D02*
X74779523Y-114726680D01*
X74779523Y-114726680D02*
X74922380Y-114774299D01*
X74922380Y-114774299D02*
X75160475Y-114774299D01*
X73636666Y-114774299D02*
X74208094Y-114774299D01*
X73922380Y-114774299D02*
X73922380Y-113774299D01*
X73922380Y-113774299D02*
X74017618Y-113917156D01*
X74017618Y-113917156D02*
X74112856Y-114012394D01*
X74112856Y-114012394D02*
X74208094Y-114060013D01*
X73017618Y-113774299D02*
X72922380Y-113774299D01*
X72922380Y-113774299D02*
X72827142Y-113821918D01*
X72827142Y-113821918D02*
X72779523Y-113869537D01*
X72779523Y-113869537D02*
X72731904Y-113964775D01*
X72731904Y-113964775D02*
X72684285Y-114155251D01*
X72684285Y-114155251D02*
X72684285Y-114393346D01*
X72684285Y-114393346D02*
X72731904Y-114583822D01*
X72731904Y-114583822D02*
X72779523Y-114679060D01*
X72779523Y-114679060D02*
X72827142Y-114726680D01*
X72827142Y-114726680D02*
X72922380Y-114774299D01*
X72922380Y-114774299D02*
X73017618Y-114774299D01*
X73017618Y-114774299D02*
X73112856Y-114726680D01*
X73112856Y-114726680D02*
X73160475Y-114679060D01*
X73160475Y-114679060D02*
X73208094Y-114583822D01*
X73208094Y-114583822D02*
X73255713Y-114393346D01*
X73255713Y-114393346D02*
X73255713Y-114155251D01*
X73255713Y-114155251D02*
X73208094Y-113964775D01*
X73208094Y-113964775D02*
X73160475Y-113869537D01*
X73160475Y-113869537D02*
X73112856Y-113821918D01*
X73112856Y-113821918D02*
X73017618Y-113774299D01*
X72350951Y-113774299D02*
X71684285Y-113774299D01*
X71684285Y-113774299D02*
X72112856Y-114774299D01*
X88690475Y-114844299D02*
X88690475Y-113844299D01*
X88690475Y-113844299D02*
X88452380Y-113844299D01*
X88452380Y-113844299D02*
X88309523Y-113891918D01*
X88309523Y-113891918D02*
X88214285Y-113987156D01*
X88214285Y-113987156D02*
X88166666Y-114082394D01*
X88166666Y-114082394D02*
X88119047Y-114272870D01*
X88119047Y-114272870D02*
X88119047Y-114415727D01*
X88119047Y-114415727D02*
X88166666Y-114606203D01*
X88166666Y-114606203D02*
X88214285Y-114701441D01*
X88214285Y-114701441D02*
X88309523Y-114796680D01*
X88309523Y-114796680D02*
X88452380Y-114844299D01*
X88452380Y-114844299D02*
X88690475Y-114844299D01*
X87166666Y-114844299D02*
X87738094Y-114844299D01*
X87452380Y-114844299D02*
X87452380Y-113844299D01*
X87452380Y-113844299D02*
X87547618Y-113987156D01*
X87547618Y-113987156D02*
X87642856Y-114082394D01*
X87642856Y-114082394D02*
X87738094Y-114130013D01*
X86547618Y-113844299D02*
X86452380Y-113844299D01*
X86452380Y-113844299D02*
X86357142Y-113891918D01*
X86357142Y-113891918D02*
X86309523Y-113939537D01*
X86309523Y-113939537D02*
X86261904Y-114034775D01*
X86261904Y-114034775D02*
X86214285Y-114225251D01*
X86214285Y-114225251D02*
X86214285Y-114463346D01*
X86214285Y-114463346D02*
X86261904Y-114653822D01*
X86261904Y-114653822D02*
X86309523Y-114749060D01*
X86309523Y-114749060D02*
X86357142Y-114796680D01*
X86357142Y-114796680D02*
X86452380Y-114844299D01*
X86452380Y-114844299D02*
X86547618Y-114844299D01*
X86547618Y-114844299D02*
X86642856Y-114796680D01*
X86642856Y-114796680D02*
X86690475Y-114749060D01*
X86690475Y-114749060D02*
X86738094Y-114653822D01*
X86738094Y-114653822D02*
X86785713Y-114463346D01*
X86785713Y-114463346D02*
X86785713Y-114225251D01*
X86785713Y-114225251D02*
X86738094Y-114034775D01*
X86738094Y-114034775D02*
X86690475Y-113939537D01*
X86690475Y-113939537D02*
X86642856Y-113891918D01*
X86642856Y-113891918D02*
X86547618Y-113844299D01*
X85880951Y-113844299D02*
X85261904Y-113844299D01*
X85261904Y-113844299D02*
X85595237Y-114225251D01*
X85595237Y-114225251D02*
X85452380Y-114225251D01*
X85452380Y-114225251D02*
X85357142Y-114272870D01*
X85357142Y-114272870D02*
X85309523Y-114320489D01*
X85309523Y-114320489D02*
X85261904Y-114415727D01*
X85261904Y-114415727D02*
X85261904Y-114653822D01*
X85261904Y-114653822D02*
X85309523Y-114749060D01*
X85309523Y-114749060D02*
X85357142Y-114796680D01*
X85357142Y-114796680D02*
X85452380Y-114844299D01*
X85452380Y-114844299D02*
X85738094Y-114844299D01*
X85738094Y-114844299D02*
X85833332Y-114796680D01*
X85833332Y-114796680D02*
X85880951Y-114749060D01*
D13*
X115594473Y-80760625D02*
X115689712Y-80665387D01*
X115689712Y-80665387D02*
X115784950Y-80379673D01*
X115784950Y-80379673D02*
X115784950Y-80189197D01*
X115784950Y-80189197D02*
X115689712Y-79903482D01*
X115689712Y-79903482D02*
X115499235Y-79713006D01*
X115499235Y-79713006D02*
X115308759Y-79617768D01*
X115308759Y-79617768D02*
X114927807Y-79522530D01*
X114927807Y-79522530D02*
X114642092Y-79522530D01*
X114642092Y-79522530D02*
X114261140Y-79617768D01*
X114261140Y-79617768D02*
X114070664Y-79713006D01*
X114070664Y-79713006D02*
X113880188Y-79903482D01*
X113880188Y-79903482D02*
X113784950Y-80189197D01*
X113784950Y-80189197D02*
X113784950Y-80379673D01*
X113784950Y-80379673D02*
X113880188Y-80665387D01*
X113880188Y-80665387D02*
X113975426Y-80760625D01*
X115784950Y-81903482D02*
X115689712Y-81713006D01*
X115689712Y-81713006D02*
X115594473Y-81617768D01*
X115594473Y-81617768D02*
X115403997Y-81522530D01*
X115403997Y-81522530D02*
X114832569Y-81522530D01*
X114832569Y-81522530D02*
X114642092Y-81617768D01*
X114642092Y-81617768D02*
X114546854Y-81713006D01*
X114546854Y-81713006D02*
X114451616Y-81903482D01*
X114451616Y-81903482D02*
X114451616Y-82189197D01*
X114451616Y-82189197D02*
X114546854Y-82379673D01*
X114546854Y-82379673D02*
X114642092Y-82474911D01*
X114642092Y-82474911D02*
X114832569Y-82570149D01*
X114832569Y-82570149D02*
X115403997Y-82570149D01*
X115403997Y-82570149D02*
X115594473Y-82474911D01*
X115594473Y-82474911D02*
X115689712Y-82379673D01*
X115689712Y-82379673D02*
X115784950Y-82189197D01*
X115784950Y-82189197D02*
X115784950Y-81903482D01*
X114451616Y-84284435D02*
X115784950Y-84284435D01*
X114451616Y-83427292D02*
X115499235Y-83427292D01*
X115499235Y-83427292D02*
X115689712Y-83522530D01*
X115689712Y-83522530D02*
X115784950Y-83713006D01*
X115784950Y-83713006D02*
X115784950Y-83998721D01*
X115784950Y-83998721D02*
X115689712Y-84189197D01*
X115689712Y-84189197D02*
X115594473Y-84284435D01*
X114451616Y-85236816D02*
X115784950Y-85236816D01*
X114642092Y-85236816D02*
X114546854Y-85332054D01*
X114546854Y-85332054D02*
X114451616Y-85522530D01*
X114451616Y-85522530D02*
X114451616Y-85808245D01*
X114451616Y-85808245D02*
X114546854Y-85998721D01*
X114546854Y-85998721D02*
X114737331Y-86093959D01*
X114737331Y-86093959D02*
X115784950Y-86093959D01*
X114451616Y-86760626D02*
X114451616Y-87522530D01*
X113784950Y-87046340D02*
X115499235Y-87046340D01*
X115499235Y-87046340D02*
X115689712Y-87141578D01*
X115689712Y-87141578D02*
X115784950Y-87332054D01*
X115784950Y-87332054D02*
X115784950Y-87522530D01*
X115689712Y-88951102D02*
X115784950Y-88760626D01*
X115784950Y-88760626D02*
X115784950Y-88379673D01*
X115784950Y-88379673D02*
X115689712Y-88189197D01*
X115689712Y-88189197D02*
X115499235Y-88093959D01*
X115499235Y-88093959D02*
X114737331Y-88093959D01*
X114737331Y-88093959D02*
X114546854Y-88189197D01*
X114546854Y-88189197D02*
X114451616Y-88379673D01*
X114451616Y-88379673D02*
X114451616Y-88760626D01*
X114451616Y-88760626D02*
X114546854Y-88951102D01*
X114546854Y-88951102D02*
X114737331Y-89046340D01*
X114737331Y-89046340D02*
X114927807Y-89046340D01*
X114927807Y-89046340D02*
X115118283Y-88093959D01*
X115784950Y-89903483D02*
X114451616Y-89903483D01*
X114832569Y-89903483D02*
X114642092Y-89998721D01*
X114642092Y-89998721D02*
X114546854Y-90093959D01*
X114546854Y-90093959D02*
X114451616Y-90284435D01*
X114451616Y-90284435D02*
X114451616Y-90474912D01*
X114451616Y-91141578D02*
X116451616Y-91141578D01*
X114546854Y-91141578D02*
X114451616Y-91332054D01*
X114451616Y-91332054D02*
X114451616Y-91713007D01*
X114451616Y-91713007D02*
X114546854Y-91903483D01*
X114546854Y-91903483D02*
X114642092Y-91998721D01*
X114642092Y-91998721D02*
X114832569Y-92093959D01*
X114832569Y-92093959D02*
X115403997Y-92093959D01*
X115403997Y-92093959D02*
X115594473Y-91998721D01*
X115594473Y-91998721D02*
X115689712Y-91903483D01*
X115689712Y-91903483D02*
X115784950Y-91713007D01*
X115784950Y-91713007D02*
X115784950Y-91332054D01*
X115784950Y-91332054D02*
X115689712Y-91141578D01*
X115784950Y-93236816D02*
X115689712Y-93046340D01*
X115689712Y-93046340D02*
X115594473Y-92951102D01*
X115594473Y-92951102D02*
X115403997Y-92855864D01*
X115403997Y-92855864D02*
X114832569Y-92855864D01*
X114832569Y-92855864D02*
X114642092Y-92951102D01*
X114642092Y-92951102D02*
X114546854Y-93046340D01*
X114546854Y-93046340D02*
X114451616Y-93236816D01*
X114451616Y-93236816D02*
X114451616Y-93522531D01*
X114451616Y-93522531D02*
X114546854Y-93713007D01*
X114546854Y-93713007D02*
X114642092Y-93808245D01*
X114642092Y-93808245D02*
X114832569Y-93903483D01*
X114832569Y-93903483D02*
X115403997Y-93903483D01*
X115403997Y-93903483D02*
X115594473Y-93808245D01*
X115594473Y-93808245D02*
X115689712Y-93713007D01*
X115689712Y-93713007D02*
X115784950Y-93522531D01*
X115784950Y-93522531D02*
X115784950Y-93236816D01*
X115784950Y-94760626D02*
X114451616Y-94760626D01*
X113784950Y-94760626D02*
X113880188Y-94665388D01*
X113880188Y-94665388D02*
X113975426Y-94760626D01*
X113975426Y-94760626D02*
X113880188Y-94855864D01*
X113880188Y-94855864D02*
X113784950Y-94760626D01*
X113784950Y-94760626D02*
X113975426Y-94760626D01*
X115689712Y-95617769D02*
X115784950Y-95808245D01*
X115784950Y-95808245D02*
X115784950Y-96189197D01*
X115784950Y-96189197D02*
X115689712Y-96379674D01*
X115689712Y-96379674D02*
X115499235Y-96474912D01*
X115499235Y-96474912D02*
X115403997Y-96474912D01*
X115403997Y-96474912D02*
X115213521Y-96379674D01*
X115213521Y-96379674D02*
X115118283Y-96189197D01*
X115118283Y-96189197D02*
X115118283Y-95903483D01*
X115118283Y-95903483D02*
X115023045Y-95713007D01*
X115023045Y-95713007D02*
X114832569Y-95617769D01*
X114832569Y-95617769D02*
X114737331Y-95617769D01*
X114737331Y-95617769D02*
X114546854Y-95713007D01*
X114546854Y-95713007D02*
X114451616Y-95903483D01*
X114451616Y-95903483D02*
X114451616Y-96189197D01*
X114451616Y-96189197D02*
X114546854Y-96379674D01*
X115689712Y-98093960D02*
X115784950Y-97903484D01*
X115784950Y-97903484D02*
X115784950Y-97522531D01*
X115784950Y-97522531D02*
X115689712Y-97332055D01*
X115689712Y-97332055D02*
X115499235Y-97236817D01*
X115499235Y-97236817D02*
X114737331Y-97236817D01*
X114737331Y-97236817D02*
X114546854Y-97332055D01*
X114546854Y-97332055D02*
X114451616Y-97522531D01*
X114451616Y-97522531D02*
X114451616Y-97903484D01*
X114451616Y-97903484D02*
X114546854Y-98093960D01*
X114546854Y-98093960D02*
X114737331Y-98189198D01*
X114737331Y-98189198D02*
X114927807Y-98189198D01*
X114927807Y-98189198D02*
X115118283Y-97236817D01*
X117957219Y-79617768D02*
X117957219Y-80284435D01*
X119004838Y-80570149D02*
X119004838Y-79617768D01*
X119004838Y-79617768D02*
X117004838Y-79617768D01*
X117004838Y-79617768D02*
X117004838Y-80570149D01*
X119004838Y-81713006D02*
X118909600Y-81522530D01*
X118909600Y-81522530D02*
X118719123Y-81427292D01*
X118719123Y-81427292D02*
X117004838Y-81427292D01*
X118909600Y-83236816D02*
X119004838Y-83046340D01*
X119004838Y-83046340D02*
X119004838Y-82665387D01*
X119004838Y-82665387D02*
X118909600Y-82474911D01*
X118909600Y-82474911D02*
X118719123Y-82379673D01*
X118719123Y-82379673D02*
X117957219Y-82379673D01*
X117957219Y-82379673D02*
X117766742Y-82474911D01*
X117766742Y-82474911D02*
X117671504Y-82665387D01*
X117671504Y-82665387D02*
X117671504Y-83046340D01*
X117671504Y-83046340D02*
X117766742Y-83236816D01*
X117766742Y-83236816D02*
X117957219Y-83332054D01*
X117957219Y-83332054D02*
X118147695Y-83332054D01*
X118147695Y-83332054D02*
X118338171Y-82379673D01*
X119004838Y-84189197D02*
X117671504Y-84189197D01*
X117861980Y-84189197D02*
X117766742Y-84284435D01*
X117766742Y-84284435D02*
X117671504Y-84474911D01*
X117671504Y-84474911D02*
X117671504Y-84760626D01*
X117671504Y-84760626D02*
X117766742Y-84951102D01*
X117766742Y-84951102D02*
X117957219Y-85046340D01*
X117957219Y-85046340D02*
X119004838Y-85046340D01*
X117957219Y-85046340D02*
X117766742Y-85141578D01*
X117766742Y-85141578D02*
X117671504Y-85332054D01*
X117671504Y-85332054D02*
X117671504Y-85617768D01*
X117671504Y-85617768D02*
X117766742Y-85808245D01*
X117766742Y-85808245D02*
X117957219Y-85903483D01*
X117957219Y-85903483D02*
X119004838Y-85903483D01*
X118909600Y-87617769D02*
X119004838Y-87427293D01*
X119004838Y-87427293D02*
X119004838Y-87046340D01*
X119004838Y-87046340D02*
X118909600Y-86855864D01*
X118909600Y-86855864D02*
X118719123Y-86760626D01*
X118719123Y-86760626D02*
X117957219Y-86760626D01*
X117957219Y-86760626D02*
X117766742Y-86855864D01*
X117766742Y-86855864D02*
X117671504Y-87046340D01*
X117671504Y-87046340D02*
X117671504Y-87427293D01*
X117671504Y-87427293D02*
X117766742Y-87617769D01*
X117766742Y-87617769D02*
X117957219Y-87713007D01*
X117957219Y-87713007D02*
X118147695Y-87713007D01*
X118147695Y-87713007D02*
X118338171Y-86760626D01*
X117671504Y-88570150D02*
X119004838Y-88570150D01*
X117861980Y-88570150D02*
X117766742Y-88665388D01*
X117766742Y-88665388D02*
X117671504Y-88855864D01*
X117671504Y-88855864D02*
X117671504Y-89141579D01*
X117671504Y-89141579D02*
X117766742Y-89332055D01*
X117766742Y-89332055D02*
X117957219Y-89427293D01*
X117957219Y-89427293D02*
X119004838Y-89427293D01*
X117671504Y-90093960D02*
X117671504Y-90855864D01*
X117004838Y-90379674D02*
X118719123Y-90379674D01*
X118719123Y-90379674D02*
X118909600Y-90474912D01*
X118909600Y-90474912D02*
X119004838Y-90665388D01*
X119004838Y-90665388D02*
X119004838Y-90855864D01*
X118909600Y-91427293D02*
X119004838Y-91617769D01*
X119004838Y-91617769D02*
X119004838Y-91998721D01*
X119004838Y-91998721D02*
X118909600Y-92189198D01*
X118909600Y-92189198D02*
X118719123Y-92284436D01*
X118719123Y-92284436D02*
X118623885Y-92284436D01*
X118623885Y-92284436D02*
X118433409Y-92189198D01*
X118433409Y-92189198D02*
X118338171Y-91998721D01*
X118338171Y-91998721D02*
X118338171Y-91713007D01*
X118338171Y-91713007D02*
X118242933Y-91522531D01*
X118242933Y-91522531D02*
X118052457Y-91427293D01*
X118052457Y-91427293D02*
X117957219Y-91427293D01*
X117957219Y-91427293D02*
X117766742Y-91522531D01*
X117766742Y-91522531D02*
X117671504Y-91713007D01*
X117671504Y-91713007D02*
X117671504Y-91998721D01*
X117671504Y-91998721D02*
X117766742Y-92189198D01*
X117004838Y-93427293D02*
X117481028Y-93427293D01*
X117290552Y-92951103D02*
X117481028Y-93427293D01*
X117481028Y-93427293D02*
X117290552Y-93903484D01*
X117861980Y-93141579D02*
X117481028Y-93427293D01*
X117481028Y-93427293D02*
X117861980Y-93713008D01*
D11*
X135874938Y-71484438D02*
X135874938Y-71960628D01*
X136351128Y-71770152D02*
X135874938Y-71960628D01*
X135874938Y-71960628D02*
X135398747Y-71770152D01*
X136160652Y-72341580D02*
X135874938Y-71960628D01*
X135874938Y-71960628D02*
X135589223Y-72341580D01*
X123024938Y-60654438D02*
X123024938Y-61130628D01*
X123501128Y-60940152D02*
X123024938Y-61130628D01*
X123024938Y-61130628D02*
X122548747Y-60940152D01*
X123310652Y-61511580D02*
X123024938Y-61130628D01*
X123024938Y-61130628D02*
X122739223Y-61511580D01*
D10*
X61510475Y-114814299D02*
X61510475Y-113814299D01*
X61510475Y-113814299D02*
X61272380Y-113814299D01*
X61272380Y-113814299D02*
X61129523Y-113861918D01*
X61129523Y-113861918D02*
X61034285Y-113957156D01*
X61034285Y-113957156D02*
X60986666Y-114052394D01*
X60986666Y-114052394D02*
X60939047Y-114242870D01*
X60939047Y-114242870D02*
X60939047Y-114385727D01*
X60939047Y-114385727D02*
X60986666Y-114576203D01*
X60986666Y-114576203D02*
X61034285Y-114671441D01*
X61034285Y-114671441D02*
X61129523Y-114766680D01*
X61129523Y-114766680D02*
X61272380Y-114814299D01*
X61272380Y-114814299D02*
X61510475Y-114814299D01*
X59986666Y-114814299D02*
X60558094Y-114814299D01*
X60272380Y-114814299D02*
X60272380Y-113814299D01*
X60272380Y-113814299D02*
X60367618Y-113957156D01*
X60367618Y-113957156D02*
X60462856Y-114052394D01*
X60462856Y-114052394D02*
X60558094Y-114100013D01*
X59034285Y-114814299D02*
X59605713Y-114814299D01*
X59319999Y-114814299D02*
X59319999Y-113814299D01*
X59319999Y-113814299D02*
X59415237Y-113957156D01*
X59415237Y-113957156D02*
X59510475Y-114052394D01*
X59510475Y-114052394D02*
X59605713Y-114100013D01*
X58081904Y-114814299D02*
X58653332Y-114814299D01*
X58367618Y-114814299D02*
X58367618Y-113814299D01*
X58367618Y-113814299D02*
X58462856Y-113957156D01*
X58462856Y-113957156D02*
X58558094Y-114052394D01*
X58558094Y-114052394D02*
X58653332Y-114100013D01*
D14*
X62265000Y-111825000D02*
X62265000Y-108735000D01*
X56715000Y-110280000D02*
G75*
G02*
X62265000Y-108735170I2990000J0D01*
G01*
X62265000Y-111824830D02*
G75*
G02*
X56715000Y-110280000I-2560000J1544830D01*
G01*
X62205000Y-110280000D02*
G75*
G02*
X57205000Y-110280000I-2500000J0D01*
G01*
X57205000Y-110280000D02*
G75*
G02*
X62205000Y-110280000I2500000J0D01*
G01*
X82840000Y-111895001D02*
X82840000Y-108805001D01*
X77290000Y-110350001D02*
G75*
G02*
X82840000Y-108805171I2990000J0D01*
G01*
X82840000Y-111894831D02*
G75*
G02*
X77290000Y-110350001I-2560000J1544831D01*
G01*
X82780000Y-110350001D02*
G75*
G02*
X77780000Y-110350001I-2500000J0D01*
G01*
X77780000Y-110350001D02*
G75*
G02*
X82780000Y-110350001I2500000J0D01*
G01*
X76025001Y-111905000D02*
X76025001Y-108815000D01*
X70475001Y-110360000D02*
G75*
G02*
X76025001Y-108815170I2990000J0D01*
G01*
X76025001Y-111904830D02*
G75*
G02*
X70475001Y-110360000I-2560000J1544830D01*
G01*
X75965001Y-110360000D02*
G75*
G02*
X70965001Y-110360000I-2500000J0D01*
G01*
X70965001Y-110360000D02*
G75*
G02*
X75965001Y-110360000I2500000J0D01*
G01*
X69165000Y-111865001D02*
X69165000Y-108775001D01*
X63615000Y-110320001D02*
G75*
G02*
X69165000Y-108775171I2990000J0D01*
G01*
X69165000Y-111864831D02*
G75*
G02*
X63615000Y-110320001I-2560000J1544831D01*
G01*
X69105000Y-110320001D02*
G75*
G02*
X64105000Y-110320001I-2500000J0D01*
G01*
X64105000Y-110320001D02*
G75*
G02*
X69105000Y-110320001I2500000J0D01*
G01*
X89625000Y-111895000D02*
X89625000Y-108805000D01*
X84075000Y-110350000D02*
G75*
G02*
X89625000Y-108805170I2990000J0D01*
G01*
X89625000Y-111894830D02*
G75*
G02*
X84075000Y-110350000I-2560000J1544830D01*
G01*
X89565000Y-110350000D02*
G75*
G02*
X84565000Y-110350000I-2500000J0D01*
G01*
X84565000Y-110350000D02*
G75*
G02*
X89565000Y-110350000I2500000J0D01*
G01*
%LPC*%
D15*
X104010000Y-72020000D03*
X104010000Y-99760000D03*
X104010000Y-106310000D03*
X104010000Y-112890000D03*
X118050000Y-72020000D03*
X118050000Y-99760000D03*
X118050000Y-106310000D03*
X118050000Y-112890000D03*
D16*
X101230000Y-79560000D03*
D17*
X102730000Y-79560000D03*
X119100000Y-63370000D03*
D16*
X120660000Y-63370000D03*
D18*
X70290000Y-94590000D03*
X75170000Y-86270000D03*
X87610000Y-75360000D03*
X74880000Y-71620000D03*
X69900000Y-63490000D03*
X96130000Y-71050000D03*
D19*
X88085900Y-81592800D03*
D16*
X88085900Y-83392800D03*
X92015900Y-91242800D03*
D19*
X92025900Y-89302800D03*
D16*
X84115900Y-87362800D03*
D19*
X84115900Y-89162800D03*
X96825900Y-75362800D03*
D16*
X96825900Y-77162800D03*
D20*
X126710000Y-63270000D03*
X134760000Y-101730000D03*
X134400000Y-75470000D03*
D21*
X82280000Y-103014315D03*
D22*
X82280000Y-105554315D03*
D15*
X128460000Y-98850000D03*
D23*
X61065000Y-110280000D03*
D24*
X58525000Y-110280000D03*
D22*
X85390000Y-100695000D03*
X85390000Y-105775000D03*
D21*
X61550000Y-103000000D03*
D22*
X61550000Y-105540000D03*
D25*
X126980000Y-88034900D03*
D26*
X132060000Y-82954900D03*
D27*
X126980000Y-85494900D03*
D26*
X132060000Y-93114900D03*
D28*
X95566369Y-104570000D03*
D22*
X93066369Y-104570000D03*
D20*
X126710000Y-112680000D03*
D29*
X128125000Y-70572400D03*
D21*
X75380000Y-103134315D03*
D22*
X75380000Y-105674315D03*
D26*
X121330000Y-88034900D03*
D21*
X68360000Y-103000000D03*
D22*
X68360000Y-105540000D03*
D15*
X122970000Y-67190000D03*
X128660000Y-76910000D03*
D29*
X51925000Y-105497400D03*
D15*
X53600000Y-88034900D03*
D22*
X71700000Y-100730000D03*
X71700000Y-105810000D03*
D20*
X60790000Y-88034900D03*
D29*
X128125000Y-105497400D03*
D15*
X122650000Y-108300000D03*
D22*
X91010000Y-99000000D03*
X88510000Y-99000000D03*
D23*
X81550000Y-110350000D03*
D24*
X79010000Y-110350000D03*
D30*
X94170000Y-99240000D03*
D22*
X97980000Y-99240000D03*
D29*
X51925000Y-70572400D03*
D22*
X78640000Y-100675000D03*
X78640000Y-105755000D03*
D28*
X98160686Y-96170000D03*
D22*
X94350686Y-96170000D03*
D23*
X74735000Y-110360000D03*
D24*
X72195000Y-110360000D03*
D31*
X98250000Y-110300000D03*
X95710000Y-110300000D03*
X93170000Y-110300000D03*
D22*
X98000000Y-91760000D03*
X95500000Y-91760000D03*
X58040000Y-100745000D03*
X58040000Y-105825000D03*
D15*
X126800000Y-93660000D03*
X136120000Y-93610000D03*
X126850000Y-82390000D03*
D22*
X64770000Y-100730000D03*
X64770000Y-105810000D03*
D15*
X136120000Y-82440000D03*
D23*
X67875000Y-110320000D03*
D24*
X65335000Y-110320000D03*
D23*
X88335000Y-110350000D03*
D24*
X85795000Y-110350000D03*
D15*
X46410000Y-88034900D03*
%LPD*%
M02*
