G04 #@! TF.GenerationSoftware,KiCad,Pcbnew,9.0.4*
G04 #@! TF.CreationDate,2026-01-11T08:54:10-05:00*
G04 #@! TF.ProjectId,SignalStreamer,5369676e-616c-4537-9472-65616d65722e,rev?*
G04 #@! TF.SameCoordinates,Original*
G04 #@! TF.FileFunction,Soldermask,Top*
G04 #@! TF.FilePolarity,Negative*
%FSLAX46Y46*%
G04 Gerber Fmt 4.6, Leading zero omitted, Abs format (unit mm)*
G04 Created by KiCad (PCBNEW 9.0.4) date 2026-01-11 08:54:10*
%MOMM*%
%LPD*%
G01*
G04 APERTURE LIST*
G04 Aperture macros list*
%AMRoundRect*
0 Rectangle with rounded corners*
0 $1 Rounding radius*
0 $2 $3 $4 $5 $6 $7 $8 $9 X,Y pos of 4 corners*
0 Add a 4 corners polygon primitive as box body*
4,1,4,$2,$3,$4,$5,$6,$7,$8,$9,$2,$3,0*
0 Add four circle primitives for the rounded corners*
1,1,$1+$1,$2,$3*
1,1,$1+$1,$4,$5*
1,1,$1+$1,$6,$7*
1,1,$1+$1,$8,$9*
0 Add four rect primitives between the rounded corners*
20,1,$1+$1,$2,$3,$4,$5,0*
20,1,$1+$1,$4,$5,$6,$7,0*
20,1,$1+$1,$6,$7,$8,$9,0*
20,1,$1+$1,$8,$9,$2,$3,0*%
G04 Aperture macros list end*
%ADD10C,3.000000*%
%ADD11C,2.600000*%
%ADD12C,2.500000*%
%ADD13C,5.000000*%
%ADD14RoundRect,0.250000X-0.550000X0.550000X-0.550000X-0.550000X0.550000X-0.550000X0.550000X0.550000X0*%
%ADD15C,1.600000*%
%ADD16R,1.800000X1.800000*%
%ADD17C,1.800000*%
%ADD18O,2.500000X1.600000*%
%ADD19C,3.500000*%
%ADD20RoundRect,0.250000X-1.000000X0.550000X-1.000000X-0.550000X1.000000X-0.550000X1.000000X0.550000X0*%
%ADD21RoundRect,0.250000X0.550000X0.550000X-0.550000X0.550000X-0.550000X-0.550000X0.550000X-0.550000X0*%
%ADD22C,7.000000*%
%ADD23RoundRect,0.250000X-0.550000X-0.550000X0.550000X-0.550000X0.550000X0.550000X-0.550000X0.550000X0*%
%ADD24C,1.440000*%
G04 APERTURE END LIST*
D10*
X104010000Y-72020000D03*
X104010000Y-99760000D03*
X104010000Y-106310000D03*
X104010000Y-112890000D03*
X118050000Y-72020000D03*
X118050000Y-99760000D03*
X118050000Y-106310000D03*
X118050000Y-112890000D03*
D11*
X101230000Y-79560000D03*
X120660000Y-63370000D03*
D12*
X70290000Y-94590000D03*
X75170000Y-86270000D03*
X87610000Y-75360000D03*
X74880000Y-71620000D03*
X69900000Y-63490000D03*
X96130000Y-71050000D03*
D11*
X88085900Y-83392800D03*
X92015900Y-91242800D03*
X84115900Y-87362800D03*
X96825900Y-77162800D03*
D13*
X126710000Y-63270000D03*
X134760000Y-101730000D03*
X134400000Y-75470000D03*
D14*
X82280000Y-103014315D03*
D15*
X82280000Y-105554315D03*
D10*
X128460000Y-98850000D03*
D16*
X61065000Y-110280000D03*
D17*
X58525000Y-110280000D03*
D15*
X85390000Y-100695000D03*
X85390000Y-105775000D03*
D14*
X61550000Y-103000000D03*
D15*
X61550000Y-105540000D03*
D18*
X126980000Y-88034900D03*
D19*
X132060000Y-82954900D03*
D20*
X126980000Y-85494900D03*
D19*
X132060000Y-93114900D03*
D21*
X95566369Y-104570000D03*
D15*
X93066369Y-104570000D03*
D13*
X126710000Y-112680000D03*
D22*
X128125000Y-70572400D03*
D14*
X75380000Y-103134315D03*
D15*
X75380000Y-105674315D03*
D19*
X121330000Y-88034900D03*
D14*
X68360000Y-103000000D03*
D15*
X68360000Y-105540000D03*
D10*
X122970000Y-67190000D03*
X128660000Y-76910000D03*
D22*
X51925000Y-105497400D03*
D10*
X53600000Y-88034900D03*
D15*
X71700000Y-100730000D03*
X71700000Y-105810000D03*
D13*
X60790000Y-88034900D03*
D22*
X128125000Y-105497400D03*
D10*
X122650000Y-108300000D03*
D15*
X91010000Y-99000000D03*
X88510000Y-99000000D03*
D16*
X81550000Y-110350000D03*
D17*
X79010000Y-110350000D03*
D23*
X94170000Y-99240000D03*
D15*
X97980000Y-99240000D03*
D22*
X51925000Y-70572400D03*
D15*
X78640000Y-100675000D03*
X78640000Y-105755000D03*
D21*
X98160686Y-96170000D03*
D15*
X94350686Y-96170000D03*
D16*
X74735000Y-110360000D03*
D17*
X72195000Y-110360000D03*
D24*
X98250000Y-110300000D03*
X95710000Y-110300000D03*
X93170000Y-110300000D03*
D15*
X98000000Y-91760000D03*
X95500000Y-91760000D03*
X58040000Y-100745000D03*
X58040000Y-105825000D03*
D10*
X126800000Y-93660000D03*
X136120000Y-93610000D03*
X126850000Y-82390000D03*
D15*
X64770000Y-100730000D03*
X64770000Y-105810000D03*
D10*
X136120000Y-82440000D03*
D16*
X67875000Y-110320000D03*
D17*
X65335000Y-110320000D03*
D16*
X88335000Y-110350000D03*
D17*
X85795000Y-110350000D03*
D10*
X46410000Y-88034900D03*
M02*
