G04 #@! TF.GenerationSoftware,KiCad,Pcbnew,9.0.4*
G04 #@! TF.CreationDate,2025-12-30T20:19:11-05:00*
G04 #@! TF.ProjectId,SignalStreamer,5369676e-616c-4537-9472-65616d65722e,rev?*
G04 #@! TF.SameCoordinates,Original*
G04 #@! TF.FileFunction,Copper,L1,Top*
G04 #@! TF.FilePolarity,Positive*
%FSLAX46Y46*%
G04 Gerber Fmt 4.6, Leading zero omitted, Abs format (unit mm)*
G04 Created by KiCad (PCBNEW 9.0.4) date 2025-12-30 20:19:11*
%MOMM*%
%LPD*%
G01*
G04 APERTURE LIST*
G04 Aperture macros list*
%AMRoundRect*
0 Rectangle with rounded corners*
0 $1 Rounding radius*
0 $2 $3 $4 $5 $6 $7 $8 $9 X,Y pos of 4 corners*
0 Add a 4 corners polygon primitive as box body*
4,1,4,$2,$3,$4,$5,$6,$7,$8,$9,$2,$3,0*
0 Add four circle primitives for the rounded corners*
1,1,$1+$1,$2,$3*
1,1,$1+$1,$4,$5*
1,1,$1+$1,$6,$7*
1,1,$1+$1,$8,$9*
0 Add four rect primitives between the rounded corners*
20,1,$1+$1,$2,$3,$4,$5,0*
20,1,$1+$1,$4,$5,$6,$7,0*
20,1,$1+$1,$6,$7,$8,$9,0*
20,1,$1+$1,$8,$9,$2,$3,0*%
G04 Aperture macros list end*
G04 #@! TA.AperFunction,ComponentPad*
%ADD10C,2.600000*%
G04 #@! TD*
G04 #@! TA.AperFunction,ComponentPad*
%ADD11C,5.000000*%
G04 #@! TD*
G04 #@! TA.AperFunction,ComponentPad*
%ADD12RoundRect,0.250000X-0.550000X-0.550000X0.550000X-0.550000X0.550000X0.550000X-0.550000X0.550000X0*%
G04 #@! TD*
G04 #@! TA.AperFunction,ComponentPad*
%ADD13C,1.600000*%
G04 #@! TD*
G04 #@! TA.AperFunction,ComponentPad*
%ADD14R,1.800000X1.800000*%
G04 #@! TD*
G04 #@! TA.AperFunction,ComponentPad*
%ADD15C,1.800000*%
G04 #@! TD*
G04 #@! TA.AperFunction,ComponentPad*
%ADD16O,2.500000X1.600000*%
G04 #@! TD*
G04 #@! TA.AperFunction,ComponentPad*
%ADD17C,3.500000*%
G04 #@! TD*
G04 #@! TA.AperFunction,ComponentPad*
%ADD18RoundRect,0.250000X-1.000000X0.550000X-1.000000X-0.550000X1.000000X-0.550000X1.000000X0.550000X0*%
G04 #@! TD*
G04 #@! TA.AperFunction,ComponentPad*
%ADD19C,7.000000*%
G04 #@! TD*
G04 #@! TA.AperFunction,ComponentPad*
%ADD20RoundRect,0.250000X0.550000X-0.550000X0.550000X0.550000X-0.550000X0.550000X-0.550000X-0.550000X0*%
G04 #@! TD*
G04 #@! TA.AperFunction,ComponentPad*
%ADD21RoundRect,0.250000X0.550000X0.550000X-0.550000X0.550000X-0.550000X-0.550000X0.550000X-0.550000X0*%
G04 #@! TD*
G04 #@! TA.AperFunction,ComponentPad*
%ADD22C,1.440000*%
G04 #@! TD*
G04 #@! TA.AperFunction,ViaPad*
%ADD23C,0.600000*%
G04 #@! TD*
G04 #@! TA.AperFunction,Conductor*
%ADD24C,0.500000*%
G04 #@! TD*
G04 #@! TA.AperFunction,Conductor*
%ADD25C,0.350000*%
G04 #@! TD*
G04 APERTURE END LIST*
D10*
X88885900Y-84522800D03*
X96985900Y-95092800D03*
X85495900Y-87342800D03*
X103445900Y-78182800D03*
D11*
X121860000Y-63980000D03*
X123690000Y-98880000D03*
X122150000Y-75800000D03*
D12*
X77314315Y-102790000D03*
D13*
X79854315Y-102790000D03*
D14*
X58495000Y-110270000D03*
D15*
X61035000Y-110270000D03*
D13*
X92100000Y-105410000D03*
X99720000Y-105410000D03*
D10*
X109030000Y-72130000D03*
D16*
X126980000Y-88050000D03*
D17*
X132060000Y-82970000D03*
D18*
X126980000Y-85510000D03*
D17*
X132060000Y-93130000D03*
D11*
X123980000Y-111680000D03*
D19*
X128125000Y-70572400D03*
D12*
X67474315Y-105530000D03*
D13*
X70014315Y-105530000D03*
D20*
X74650000Y-105815686D03*
D13*
X74650000Y-103275686D03*
D17*
X121330000Y-87640000D03*
D10*
X118310000Y-81760000D03*
D19*
X51925000Y-105497400D03*
D21*
X81405686Y-105580000D03*
D13*
X78865686Y-105580000D03*
D11*
X60790000Y-87610000D03*
D19*
X128125000Y-105497400D03*
D13*
X88060000Y-103320000D03*
X88060000Y-105820000D03*
D14*
X79005000Y-110270000D03*
D15*
X81545000Y-110270000D03*
D12*
X93709315Y-101030000D03*
D13*
X97519315Y-101030000D03*
D19*
X51925000Y-70572400D03*
D21*
X89680686Y-100840000D03*
D13*
X85870686Y-100840000D03*
D14*
X72165000Y-110270000D03*
D15*
X74705000Y-110270000D03*
D12*
X61030000Y-105530000D03*
D13*
X63570000Y-105530000D03*
D22*
X99150000Y-111020000D03*
X96610000Y-111020000D03*
X94070000Y-111020000D03*
D13*
X99840000Y-98500000D03*
X99840000Y-96000000D03*
D14*
X65335000Y-110270000D03*
D15*
X67875000Y-110270000D03*
D14*
X85715000Y-110270000D03*
D15*
X88255000Y-110270000D03*
D23*
X118620000Y-59702400D03*
X127570000Y-59642400D03*
X116340000Y-116392400D03*
X54830000Y-116222400D03*
X109490000Y-59632400D03*
X57330000Y-116202400D03*
X112570000Y-59672400D03*
X41150000Y-70240000D03*
X68560000Y-116192400D03*
X130000000Y-62042400D03*
X75140000Y-59560000D03*
X86300000Y-116300000D03*
X64520000Y-59792400D03*
X50180000Y-66732400D03*
X83240000Y-59752400D03*
X60070000Y-116202400D03*
X41200000Y-77860000D03*
X136070000Y-107022400D03*
X41390000Y-107010000D03*
X139090000Y-83482400D03*
X44650000Y-68410000D03*
X124610000Y-59702400D03*
X41160000Y-71990000D03*
X61660000Y-59792400D03*
X41200000Y-86120000D03*
X95340000Y-59662400D03*
X41160000Y-84070000D03*
X50070000Y-116252400D03*
X78130000Y-59670000D03*
X139110000Y-73630000D03*
X90890000Y-116370000D03*
X46610000Y-68410000D03*
X45480000Y-107060000D03*
X79680000Y-116110000D03*
X100224873Y-116521019D03*
X89609787Y-59647208D03*
X50220000Y-59822400D03*
X129980000Y-116392400D03*
X69830000Y-59610000D03*
X126900000Y-116342400D03*
X107220000Y-116512400D03*
X52950000Y-59822400D03*
X119800000Y-116342400D03*
X52320000Y-116252400D03*
X139120000Y-107072400D03*
X55850000Y-59822400D03*
X139010000Y-68842400D03*
X129940000Y-64392400D03*
X41220000Y-98760000D03*
X93070000Y-116450000D03*
X50050000Y-113792400D03*
X62770000Y-116182400D03*
X65680000Y-116192400D03*
X50220000Y-62992400D03*
X50050000Y-111602400D03*
X41180000Y-75980000D03*
X98050000Y-59732400D03*
X41180000Y-88380000D03*
X139080000Y-77760000D03*
X121710000Y-59702400D03*
X139090000Y-93262400D03*
X112870000Y-116452400D03*
X47390000Y-107040000D03*
X84080000Y-116260000D03*
X139070000Y-103782400D03*
X41310000Y-102580000D03*
X103850000Y-59662400D03*
X41180000Y-68430000D03*
X92580000Y-59682400D03*
X123650000Y-116392400D03*
X41350000Y-104720000D03*
X104840000Y-116512400D03*
X50080000Y-109212400D03*
X41220000Y-92420000D03*
X129980000Y-113862400D03*
X139140000Y-71352400D03*
X41220000Y-96720000D03*
X95450000Y-116502400D03*
X139110000Y-75760000D03*
X139020000Y-89742400D03*
X106730000Y-59662400D03*
X41200000Y-90320000D03*
X97850000Y-116502400D03*
X139070000Y-86252400D03*
X71620000Y-116192400D03*
X41270000Y-100640000D03*
X74690000Y-116152400D03*
X86390000Y-59752400D03*
X43330000Y-107040000D03*
X42880000Y-68410000D03*
X135580000Y-68632400D03*
X129970000Y-66602400D03*
X81940000Y-116180000D03*
X67140000Y-59762400D03*
X41220000Y-94540000D03*
X80810000Y-59762900D03*
X115370000Y-59702400D03*
X132680000Y-68632400D03*
X138920000Y-100202400D03*
X133080000Y-106972400D03*
X88590000Y-116370000D03*
X77050000Y-116132400D03*
X129970000Y-59672400D03*
X130030000Y-110672400D03*
X139050000Y-79970000D03*
X139020000Y-96662400D03*
X41160000Y-81930000D03*
X48940000Y-107040000D03*
X72640000Y-59610000D03*
X109670000Y-116482400D03*
X102220000Y-116512400D03*
X58760000Y-59822400D03*
X101070000Y-59653380D03*
X41180000Y-73820000D03*
X41180000Y-79940000D03*
X48610000Y-68420000D03*
D24*
X95679315Y-99190000D02*
X97519315Y-101030000D01*
X97519315Y-101030000D02*
X99140000Y-101030000D01*
X92410000Y-99190000D02*
X95679315Y-99190000D01*
X99840000Y-100330000D02*
X99840000Y-98500000D01*
X99140000Y-101030000D02*
X99840000Y-100330000D01*
X89680686Y-100840000D02*
X90760000Y-100840000D01*
X90760000Y-100840000D02*
X92410000Y-99190000D01*
X97083100Y-95190000D02*
X96985900Y-95092800D01*
X99840000Y-96000000D02*
X99030000Y-95190000D01*
X99030000Y-95190000D02*
X97083100Y-95190000D01*
X92100000Y-105410000D02*
X92100000Y-104070000D01*
X93709315Y-102460685D02*
X93709315Y-101030000D01*
X92100000Y-104070000D02*
X93709315Y-102460685D01*
X90150000Y-105410000D02*
X88060000Y-103320000D01*
X92100000Y-105410000D02*
X90150000Y-105410000D01*
D25*
X43300000Y-107010000D02*
X43330000Y-107040000D01*
X49461200Y-68361200D02*
X49402400Y-68420000D01*
X64990000Y-59792400D02*
X67110000Y-59792400D01*
X42880000Y-68410000D02*
X41200000Y-68410000D01*
X104840000Y-116512400D02*
X102220000Y-116512400D01*
X139010000Y-71222400D02*
X139010000Y-68842400D01*
X67110000Y-59792400D02*
X67140000Y-59762400D01*
X41200000Y-92400000D02*
X41220000Y-92420000D01*
X86390000Y-59752400D02*
X87030000Y-59752400D01*
X119850000Y-116392400D02*
X119800000Y-116342400D01*
X126950000Y-116392400D02*
X126900000Y-116342400D01*
X139080000Y-79940000D02*
X139050000Y-79970000D01*
X41160000Y-81930000D02*
X41160000Y-84070000D01*
X47390000Y-107040000D02*
X47777368Y-107040000D01*
X50180000Y-67642400D02*
X50071200Y-67751200D01*
X93044511Y-116475489D02*
X93070000Y-116450000D01*
X116340000Y-116392400D02*
X112930000Y-116392400D01*
X41200000Y-90320000D02*
X41200000Y-92400000D01*
X50071200Y-67751200D02*
X50071200Y-68718600D01*
X129600000Y-106972400D02*
X128125000Y-105497400D01*
X109490000Y-59632400D02*
X112530000Y-59632400D01*
X52950000Y-59822400D02*
X55850000Y-59822400D01*
X83229500Y-59762900D02*
X83240000Y-59752400D01*
X77072400Y-116110000D02*
X77050000Y-116132400D01*
X115370000Y-59702400D02*
X118620000Y-59702400D01*
X139020000Y-91609900D02*
X139020000Y-93192400D01*
X93044511Y-116526911D02*
X93044511Y-116475489D01*
X112930000Y-116392400D02*
X112870000Y-116452400D01*
X69830000Y-59610000D02*
X72640000Y-59610000D01*
X45500000Y-107040000D02*
X47390000Y-107040000D01*
X50080000Y-109212400D02*
X50080000Y-111572400D01*
X130000000Y-64332400D02*
X129940000Y-64392400D01*
X50071200Y-68718600D02*
X51925000Y-70572400D01*
X52320000Y-116252400D02*
X54800000Y-116252400D01*
X100990980Y-59732400D02*
X101070000Y-59653380D01*
X84120000Y-116300000D02*
X84080000Y-116260000D01*
X41310000Y-102580000D02*
X41310000Y-104680000D01*
X50080000Y-111572400D02*
X50050000Y-111602400D01*
X50050000Y-116232400D02*
X50070000Y-116252400D01*
X75140000Y-59560000D02*
X78020000Y-59560000D01*
X95425489Y-116526911D02*
X93044511Y-116526911D01*
X139110000Y-75760000D02*
X139080000Y-75790000D01*
X61630000Y-59822400D02*
X61660000Y-59792400D01*
X81940000Y-116180000D02*
X81870000Y-116110000D01*
X95340000Y-59662400D02*
X95320000Y-59682400D01*
X62770000Y-116182400D02*
X65670000Y-116182400D01*
X109670000Y-116482400D02*
X107250000Y-116482400D01*
X139120000Y-107072400D02*
X136120000Y-107072400D01*
X41220000Y-100590000D02*
X41270000Y-100640000D01*
X50080000Y-109212400D02*
X49910000Y-109042400D01*
X97874511Y-116526911D02*
X97850000Y-116502400D01*
X74690000Y-116152400D02*
X77030000Y-116152400D01*
X78020000Y-59560000D02*
X78130000Y-59670000D01*
X112530000Y-59632400D02*
X112570000Y-59672400D01*
X41200000Y-77860000D02*
X41200000Y-79920000D01*
X49910000Y-107547574D02*
X49050489Y-106688063D01*
X50050000Y-113792400D02*
X50050000Y-116232400D01*
X50080000Y-107342400D02*
X51925000Y-105497400D01*
X135580000Y-68632400D02*
X132680000Y-68632400D01*
X130000000Y-62042400D02*
X130000000Y-64332400D01*
X136120000Y-107072400D02*
X136070000Y-107022400D01*
X130030000Y-113812400D02*
X129980000Y-113862400D01*
X41200000Y-68410000D02*
X41180000Y-68430000D01*
X129980000Y-116392400D02*
X126950000Y-116392400D01*
X95320000Y-59682400D02*
X92580000Y-59682400D01*
X132680000Y-68632400D02*
X130065000Y-68632400D01*
X50220000Y-62992400D02*
X50220000Y-59822400D01*
X48940000Y-107040000D02*
X49402426Y-107040000D01*
X50180000Y-67642400D02*
X50180000Y-66732400D01*
X127570000Y-59642400D02*
X129940000Y-59642400D01*
X77030000Y-116152400D02*
X77050000Y-116132400D01*
X41200000Y-88360000D02*
X41180000Y-88380000D01*
X49461200Y-68361200D02*
X50180000Y-67642400D01*
X80810000Y-59762900D02*
X83229500Y-59762900D01*
X45480000Y-107060000D02*
X45500000Y-107040000D01*
X86390000Y-59752400D02*
X89504595Y-59752400D01*
X41220000Y-94540000D02*
X41220000Y-96720000D01*
X57330000Y-116202400D02*
X60070000Y-116202400D01*
X130030000Y-107402400D02*
X128125000Y-105497400D01*
X41150000Y-70240000D02*
X41150000Y-71980000D01*
X81870000Y-116110000D02*
X79680000Y-116110000D01*
X41310000Y-104680000D02*
X41350000Y-104720000D01*
X98050000Y-59732400D02*
X100990980Y-59732400D01*
X130030000Y-110672400D02*
X130030000Y-113812400D01*
X89504595Y-59752400D02*
X89609787Y-59647208D01*
X107250000Y-116482400D02*
X107220000Y-116512400D01*
X50080000Y-109212400D02*
X50080000Y-107342400D01*
X121710000Y-59702400D02*
X124610000Y-59702400D01*
X64520000Y-59792400D02*
X64990000Y-59792400D01*
X41200000Y-86120000D02*
X41200000Y-88360000D01*
X68560000Y-116192400D02*
X71620000Y-116192400D01*
X48870000Y-68952400D02*
X49461200Y-68361200D01*
X41200000Y-79920000D02*
X41180000Y-79940000D01*
X49910000Y-109042400D02*
X49910000Y-107547574D01*
X129940000Y-59642400D02*
X129970000Y-59672400D01*
X46610000Y-68410000D02*
X44650000Y-68410000D01*
X90890000Y-116370000D02*
X88590000Y-116370000D01*
X79680000Y-116110000D02*
X77072400Y-116110000D01*
X58760000Y-59822400D02*
X61630000Y-59822400D01*
X41390000Y-107010000D02*
X43300000Y-107010000D01*
X41220000Y-98760000D02*
X41220000Y-100590000D01*
X130065000Y-68632400D02*
X128125000Y-70572400D01*
X129970000Y-68727400D02*
X128125000Y-70572400D01*
X41150000Y-71980000D02*
X41160000Y-71990000D01*
X65670000Y-116182400D02*
X65680000Y-116192400D01*
X103850000Y-59662400D02*
X106730000Y-59662400D01*
X130030000Y-110672400D02*
X130030000Y-107402400D01*
X139080000Y-77760000D02*
X139080000Y-79940000D01*
X139020000Y-89742400D02*
X139020000Y-91609900D01*
X54800000Y-116252400D02*
X54830000Y-116222400D01*
X129970000Y-66602400D02*
X129970000Y-68727400D01*
X123650000Y-116392400D02*
X119850000Y-116392400D01*
X49402400Y-68420000D02*
X48610000Y-68420000D01*
X100224873Y-116521019D02*
X100218981Y-116526911D01*
X138920000Y-100202400D02*
X138920000Y-103632400D01*
X133080000Y-106972400D02*
X129600000Y-106972400D01*
X79680000Y-116110000D02*
X79880000Y-116110000D01*
X139020000Y-93192400D02*
X139090000Y-93262400D01*
X139070000Y-83462400D02*
X139090000Y-83482400D01*
X138920000Y-103632400D02*
X139070000Y-103782400D01*
X100218981Y-116526911D02*
X97874511Y-116526911D01*
X41180000Y-73820000D02*
X41180000Y-75980000D01*
X95450000Y-116502400D02*
X95425489Y-116526911D01*
X104140000Y-59952400D02*
X103850000Y-59662400D01*
X86300000Y-116300000D02*
X84120000Y-116300000D01*
X49402426Y-107040000D02*
X49910000Y-107547574D01*
X139110000Y-73630000D02*
X139110000Y-75760000D01*
D24*
X72165000Y-111775000D02*
X72165000Y-110270000D01*
X85715000Y-111375000D02*
X84140000Y-112950000D01*
X70410000Y-113650000D02*
X66760000Y-113650000D01*
X85715000Y-109225000D02*
X88060000Y-106880000D01*
X65335000Y-110270000D02*
X65335000Y-111895000D01*
X65335000Y-111895000D02*
X63520000Y-113710000D01*
X60050000Y-113710000D02*
X58495000Y-112155000D01*
X79005000Y-110270000D02*
X79005000Y-111275000D01*
X88060000Y-106880000D02*
X88060000Y-105820000D01*
X85870686Y-100840000D02*
X85870686Y-93539314D01*
X58495000Y-112155000D02*
X58495000Y-110270000D01*
X85870686Y-93539314D02*
X88885900Y-90524100D01*
X87421372Y-105820000D02*
X85870686Y-104269314D01*
X88885900Y-90524100D02*
X88885900Y-84522800D01*
X85715000Y-110270000D02*
X85715000Y-109225000D01*
X63520000Y-113710000D02*
X60050000Y-113710000D01*
X79005000Y-111335000D02*
X79005000Y-110270000D01*
X88060000Y-105820000D02*
X87421372Y-105820000D01*
X76820000Y-113460000D02*
X73760000Y-113460000D01*
X85870686Y-104269314D02*
X85870686Y-100840000D01*
X65335000Y-112225000D02*
X65335000Y-110270000D01*
X66760000Y-113650000D02*
X65335000Y-112225000D01*
X73760000Y-113460000D02*
X72120000Y-111820000D01*
X79005000Y-111275000D02*
X76820000Y-113460000D01*
X84140000Y-112950000D02*
X80620000Y-112950000D01*
X72165000Y-110270000D02*
X72165000Y-111895000D01*
X80620000Y-112950000D02*
X79005000Y-111335000D01*
X72120000Y-111820000D02*
X72165000Y-111775000D01*
X72165000Y-111895000D02*
X70410000Y-113650000D01*
X85715000Y-110270000D02*
X85715000Y-111375000D01*
X75754314Y-103275686D02*
X74650000Y-103275686D01*
X77314315Y-102790000D02*
X76240000Y-102790000D01*
X76240000Y-102790000D02*
X75754314Y-103275686D01*
X81545000Y-105719314D02*
X81405686Y-105580000D01*
X81545000Y-110270000D02*
X81545000Y-105719314D01*
X70300001Y-105815686D02*
X70014315Y-105530000D01*
X74650000Y-110215000D02*
X74705000Y-110270000D01*
X74650000Y-105815686D02*
X74650000Y-110215000D01*
X74650000Y-105815686D02*
X70300001Y-105815686D01*
X103445900Y-78182800D02*
X109030000Y-72598700D01*
X109030000Y-72598700D02*
X109030000Y-72130000D01*
X99150000Y-111020000D02*
X99150000Y-108720000D01*
X99150000Y-108720000D02*
X99720000Y-108150000D01*
X99720000Y-108150000D02*
X99720000Y-105410000D01*
X61057200Y-87342800D02*
X60790000Y-87610000D01*
X85495900Y-87342800D02*
X61057200Y-87342800D01*
X79830000Y-104615686D02*
X79830000Y-104150000D01*
X79830000Y-104150000D02*
X79854315Y-104125685D01*
X94070000Y-111020000D02*
X91530000Y-111020000D01*
X91530000Y-111020000D02*
X90780000Y-110270000D01*
X96610000Y-111020000D02*
X94070000Y-111020000D01*
X79854315Y-104125685D02*
X79854315Y-102790000D01*
X78865686Y-105580000D02*
X79830000Y-104615686D01*
X90780000Y-110270000D02*
X88255000Y-110270000D01*
X67875000Y-110270000D02*
X67875000Y-105930685D01*
X67474315Y-105530000D02*
X63570000Y-105530000D01*
X67875000Y-105930685D02*
X67474315Y-105530000D01*
X61035000Y-110270000D02*
X61035000Y-105535000D01*
X61035000Y-105535000D02*
X61030000Y-105530000D01*
X118310000Y-81760000D02*
X121330000Y-84780000D01*
X121330000Y-84780000D02*
X121330000Y-87640000D01*
X126980000Y-88050000D02*
X121740000Y-88050000D01*
X121740000Y-88050000D02*
X121330000Y-87640000D01*
G04 #@! TA.AperFunction,Conductor*
G36*
X130671711Y-58842402D02*
G01*
X130718204Y-58896058D01*
X130729589Y-58948810D01*
X130699999Y-68042399D01*
X130700000Y-68042400D01*
X139564319Y-68111421D01*
X139632281Y-68131953D01*
X139678355Y-68185969D01*
X139689335Y-68238083D01*
X139480671Y-107715345D01*
X139460309Y-107783359D01*
X139406409Y-107829568D01*
X139352955Y-107840667D01*
X130680000Y-107722399D01*
X130680000Y-116726493D01*
X130659998Y-116794614D01*
X130606342Y-116841107D01*
X130554093Y-116852493D01*
X49596508Y-116912306D01*
X49528373Y-116892354D01*
X49481840Y-116838733D01*
X49470416Y-116785893D01*
X49486134Y-112012990D01*
X49494903Y-109350249D01*
X57394500Y-109350249D01*
X57394500Y-109350252D01*
X57394500Y-111189748D01*
X57406133Y-111248231D01*
X57450448Y-111314552D01*
X57516769Y-111358867D01*
X57575252Y-111370500D01*
X57918500Y-111370500D01*
X57986621Y-111390502D01*
X58033114Y-111444158D01*
X58044500Y-111496500D01*
X58044500Y-112214310D01*
X58063256Y-112284305D01*
X58063257Y-112284310D01*
X58075198Y-112328881D01*
X58075201Y-112328887D01*
X58134508Y-112431610D01*
X58134516Y-112431620D01*
X59773379Y-114070483D01*
X59773383Y-114070486D01*
X59773386Y-114070489D01*
X59773387Y-114070490D01*
X59773389Y-114070491D01*
X59783430Y-114076288D01*
X59876113Y-114129799D01*
X59889540Y-114133396D01*
X59900314Y-114136283D01*
X59900318Y-114136284D01*
X59900326Y-114136286D01*
X59990691Y-114160500D01*
X63579309Y-114160500D01*
X63669673Y-114136286D01*
X63693887Y-114129799D01*
X63796614Y-114070489D01*
X65080907Y-112786195D01*
X65143216Y-112752173D01*
X65214031Y-112757237D01*
X65259094Y-112786198D01*
X66483378Y-114010482D01*
X66483381Y-114010484D01*
X66483386Y-114010489D01*
X66542696Y-114044731D01*
X66586114Y-114069799D01*
X66700691Y-114100500D01*
X66700693Y-114100500D01*
X70469309Y-114100500D01*
X70559673Y-114076286D01*
X70583887Y-114069799D01*
X70686614Y-114010489D01*
X72090907Y-112606195D01*
X72153216Y-112572173D01*
X72224031Y-112577237D01*
X72269094Y-112606198D01*
X73483379Y-113820483D01*
X73483383Y-113820486D01*
X73483386Y-113820489D01*
X73586113Y-113879799D01*
X73608853Y-113885892D01*
X73700691Y-113910500D01*
X73700693Y-113910500D01*
X76879307Y-113910500D01*
X76879309Y-113910500D01*
X76971147Y-113885892D01*
X76993887Y-113879799D01*
X77096614Y-113820489D01*
X78885907Y-112031195D01*
X78948216Y-111997173D01*
X79019031Y-112002237D01*
X79064094Y-112031198D01*
X80343379Y-113310483D01*
X80343384Y-113310487D01*
X80343386Y-113310489D01*
X80446113Y-113369799D01*
X80459540Y-113373396D01*
X80470314Y-113376283D01*
X80470318Y-113376284D01*
X80470326Y-113376286D01*
X80560691Y-113400500D01*
X84199309Y-113400500D01*
X84289673Y-113376286D01*
X84313887Y-113369799D01*
X84416614Y-113310489D01*
X84754508Y-112972595D01*
X85011841Y-112715263D01*
X106179500Y-112715263D01*
X106179500Y-112944736D01*
X106209450Y-113172231D01*
X106209452Y-113172238D01*
X106268842Y-113393887D01*
X106356656Y-113605888D01*
X106356657Y-113605889D01*
X106356662Y-113605900D01*
X106471386Y-113804608D01*
X106471391Y-113804615D01*
X106611073Y-113986652D01*
X106611092Y-113986673D01*
X106773326Y-114148907D01*
X106773347Y-114148926D01*
X106955384Y-114288608D01*
X106955391Y-114288613D01*
X107154099Y-114403337D01*
X107154103Y-114403338D01*
X107154112Y-114403344D01*
X107366113Y-114491158D01*
X107587762Y-114550548D01*
X107587766Y-114550548D01*
X107587768Y-114550549D01*
X107646398Y-114558267D01*
X107815266Y-114580500D01*
X107815273Y-114580500D01*
X108044727Y-114580500D01*
X108044734Y-114580500D01*
X108250345Y-114553430D01*
X108272231Y-114550549D01*
X108272231Y-114550548D01*
X108272238Y-114550548D01*
X108493887Y-114491158D01*
X108705888Y-114403344D01*
X108904612Y-114288611D01*
X109086661Y-114148919D01*
X109248919Y-113986661D01*
X109388611Y-113804612D01*
X109503344Y-113605888D01*
X109591158Y-113393887D01*
X109650548Y-113172238D01*
X109680500Y-112944734D01*
X109680500Y-112715266D01*
X109680500Y-112715263D01*
X115719500Y-112715263D01*
X115719500Y-112944736D01*
X115749450Y-113172231D01*
X115749452Y-113172238D01*
X115808842Y-113393887D01*
X115896656Y-113605888D01*
X115896657Y-113605889D01*
X115896662Y-113605900D01*
X116011386Y-113804608D01*
X116011391Y-113804615D01*
X116151073Y-113986652D01*
X116151092Y-113986673D01*
X116313326Y-114148907D01*
X116313347Y-114148926D01*
X116495384Y-114288608D01*
X116495391Y-114288613D01*
X116694099Y-114403337D01*
X116694103Y-114403338D01*
X116694112Y-114403344D01*
X116906113Y-114491158D01*
X117127762Y-114550548D01*
X117127766Y-114550548D01*
X117127768Y-114550549D01*
X117186398Y-114558267D01*
X117355266Y-114580500D01*
X117355273Y-114580500D01*
X117584727Y-114580500D01*
X117584734Y-114580500D01*
X117790345Y-114553430D01*
X117812231Y-114550549D01*
X117812231Y-114550548D01*
X117812238Y-114550548D01*
X118033887Y-114491158D01*
X118245888Y-114403344D01*
X118444612Y-114288611D01*
X118626661Y-114148919D01*
X118788919Y-113986661D01*
X118928611Y-113804612D01*
X119043344Y-113605888D01*
X119131158Y-113393887D01*
X119190548Y-113172238D01*
X119220500Y-112944734D01*
X119220500Y-112715266D01*
X119194411Y-112517103D01*
X119190549Y-112487768D01*
X119190548Y-112487766D01*
X119190548Y-112487762D01*
X119131158Y-112266113D01*
X119043344Y-112054112D01*
X119043338Y-112054103D01*
X119043337Y-112054099D01*
X118928613Y-111855391D01*
X118928608Y-111855384D01*
X118788926Y-111673347D01*
X118788907Y-111673326D01*
X118643923Y-111528342D01*
X121279500Y-111528342D01*
X121279500Y-111831657D01*
X121313460Y-112133067D01*
X121380955Y-112428778D01*
X121481125Y-112715047D01*
X121481136Y-112715074D01*
X121612732Y-112988336D01*
X121612737Y-112988345D01*
X121774108Y-113245164D01*
X121963223Y-113482307D01*
X122177692Y-113696776D01*
X122177696Y-113696779D01*
X122414836Y-113885892D01*
X122671659Y-114047265D01*
X122944935Y-114178868D01*
X122944951Y-114178873D01*
X122944952Y-114178874D01*
X123231221Y-114279044D01*
X123231224Y-114279044D01*
X123231228Y-114279046D01*
X123450095Y-114329001D01*
X123526932Y-114346539D01*
X123526933Y-114346539D01*
X123526937Y-114346540D01*
X123766518Y-114373534D01*
X123828342Y-114380500D01*
X123828343Y-114380500D01*
X124131658Y-114380500D01*
X124182958Y-114374719D01*
X124433063Y-114346540D01*
X124728772Y-114279046D01*
X125015065Y-114178868D01*
X125288341Y-114047265D01*
X125545164Y-113885892D01*
X125782304Y-113696779D01*
X125996779Y-113482304D01*
X126185892Y-113245164D01*
X126347265Y-112988341D01*
X126478868Y-112715065D01*
X126567211Y-112462595D01*
X126579044Y-112428778D01*
X126579044Y-112428777D01*
X126579046Y-112428772D01*
X126646540Y-112133063D01*
X126680500Y-111831657D01*
X126680500Y-111528343D01*
X126680190Y-111525596D01*
X126666083Y-111400385D01*
X126646540Y-111226937D01*
X126642955Y-111211232D01*
X126619716Y-111109414D01*
X126579046Y-110931228D01*
X126578385Y-110929340D01*
X126478874Y-110644952D01*
X126478873Y-110644951D01*
X126478868Y-110644935D01*
X126347265Y-110371659D01*
X126185892Y-110114836D01*
X125996779Y-109877696D01*
X125996776Y-109877692D01*
X125782307Y-109663223D01*
X125545164Y-109474108D01*
X125288345Y-109312737D01*
X125288336Y-109312732D01*
X125015074Y-109181136D01*
X125015067Y-109181133D01*
X125015065Y-109181132D01*
X125015059Y-109181129D01*
X125015047Y-109181125D01*
X124728778Y-109080955D01*
X124433067Y-109013460D01*
X124131658Y-108979500D01*
X124131657Y-108979500D01*
X123828343Y-108979500D01*
X123828342Y-108979500D01*
X123526932Y-109013460D01*
X123231221Y-109080955D01*
X122944952Y-109181125D01*
X122944925Y-109181136D01*
X122671663Y-109312732D01*
X122671654Y-109312737D01*
X122414835Y-109474108D01*
X122177692Y-109663223D01*
X121963223Y-109877692D01*
X121774108Y-110114835D01*
X121612737Y-110371654D01*
X121612732Y-110371663D01*
X121481136Y-110644925D01*
X121481125Y-110644952D01*
X121380955Y-110931221D01*
X121313460Y-111226932D01*
X121279500Y-111528342D01*
X118643923Y-111528342D01*
X118626673Y-111511092D01*
X118626652Y-111511073D01*
X118444615Y-111371391D01*
X118444608Y-111371386D01*
X118245900Y-111256662D01*
X118245892Y-111256658D01*
X118245888Y-111256656D01*
X118033887Y-111168842D01*
X117816758Y-111110663D01*
X117812231Y-111109450D01*
X117584736Y-111079500D01*
X117584734Y-111079500D01*
X117355266Y-111079500D01*
X117355263Y-111079500D01*
X117127768Y-111109450D01*
X116906113Y-111168842D01*
X116855647Y-111189746D01*
X116694110Y-111256657D01*
X116694099Y-111256662D01*
X116495391Y-111371386D01*
X116495384Y-111371391D01*
X116313347Y-111511073D01*
X116313326Y-111511092D01*
X116151092Y-111673326D01*
X116151073Y-111673347D01*
X116011391Y-111855384D01*
X116011386Y-111855391D01*
X115896662Y-112054099D01*
X115896657Y-112054110D01*
X115808842Y-112266113D01*
X115749450Y-112487768D01*
X115719500Y-112715263D01*
X109680500Y-112715263D01*
X109654411Y-112517103D01*
X109650549Y-112487768D01*
X109650548Y-112487766D01*
X109650548Y-112487762D01*
X109591158Y-112266113D01*
X109503344Y-112054112D01*
X109503338Y-112054103D01*
X109503337Y-112054099D01*
X109388613Y-111855391D01*
X109388608Y-111855384D01*
X109248926Y-111673347D01*
X109248907Y-111673326D01*
X109086673Y-111511092D01*
X109086652Y-111511073D01*
X108904615Y-111371391D01*
X108904608Y-111371386D01*
X108705900Y-111256662D01*
X108705892Y-111256658D01*
X108705888Y-111256656D01*
X108493887Y-111168842D01*
X108276758Y-111110663D01*
X108272231Y-111109450D01*
X108044736Y-111079500D01*
X108044734Y-111079500D01*
X107815266Y-111079500D01*
X107815263Y-111079500D01*
X107587768Y-111109450D01*
X107366113Y-111168842D01*
X107315647Y-111189746D01*
X107154110Y-111256657D01*
X107154099Y-111256662D01*
X106955391Y-111371386D01*
X106955384Y-111371391D01*
X106773347Y-111511073D01*
X106773326Y-111511092D01*
X106611092Y-111673326D01*
X106611073Y-111673347D01*
X106471391Y-111855384D01*
X106471386Y-111855391D01*
X106356662Y-112054099D01*
X106356657Y-112054110D01*
X106268842Y-112266113D01*
X106209450Y-112487768D01*
X106179500Y-112715263D01*
X85011841Y-112715263D01*
X85105058Y-112622046D01*
X86075482Y-111651621D01*
X86075489Y-111651614D01*
X86096251Y-111615650D01*
X86104679Y-111601055D01*
X86104679Y-111601053D01*
X86109731Y-111592304D01*
X86134799Y-111548886D01*
X86159236Y-111457686D01*
X86161519Y-111451687D01*
X86179256Y-111428316D01*
X86194526Y-111403266D01*
X86200455Y-111400385D01*
X86204441Y-111395134D01*
X86231998Y-111385062D01*
X86258387Y-111372244D01*
X86269645Y-111371304D01*
X86271124Y-111370764D01*
X86272477Y-111371067D01*
X86279281Y-111370500D01*
X86634747Y-111370500D01*
X86634748Y-111370500D01*
X86693231Y-111358867D01*
X86759552Y-111314552D01*
X86803867Y-111248231D01*
X86815500Y-111189748D01*
X86815500Y-110183389D01*
X87154500Y-110183389D01*
X87154500Y-110356611D01*
X87181598Y-110527701D01*
X87235127Y-110692445D01*
X87235128Y-110692448D01*
X87235130Y-110692452D01*
X87313768Y-110846788D01*
X87415587Y-110986930D01*
X87538069Y-111109412D01*
X87539788Y-111110661D01*
X87678212Y-111211232D01*
X87832555Y-111289873D01*
X87997299Y-111343402D01*
X88168389Y-111370500D01*
X88168392Y-111370500D01*
X88341608Y-111370500D01*
X88341611Y-111370500D01*
X88512701Y-111343402D01*
X88677445Y-111289873D01*
X88831788Y-111211232D01*
X88971928Y-111109414D01*
X89094414Y-110986928D01*
X89196232Y-110846788D01*
X89225524Y-110789297D01*
X89274271Y-110737683D01*
X89337791Y-110720500D01*
X90541207Y-110720500D01*
X90609328Y-110740502D01*
X90630297Y-110757400D01*
X91253386Y-111380489D01*
X91253387Y-111380490D01*
X91253389Y-111380491D01*
X91281492Y-111396716D01*
X91356113Y-111439799D01*
X91373657Y-111444499D01*
X91373661Y-111444502D01*
X91373662Y-111444501D01*
X91470691Y-111470500D01*
X93196590Y-111470500D01*
X93264711Y-111490502D01*
X93301354Y-111526497D01*
X93316314Y-111548886D01*
X93354997Y-111606780D01*
X93355001Y-111606785D01*
X93483215Y-111734999D01*
X93633980Y-111835737D01*
X93801500Y-111905126D01*
X93979339Y-111940500D01*
X93979340Y-111940500D01*
X94160660Y-111940500D01*
X94160661Y-111940500D01*
X94338500Y-111905126D01*
X94506020Y-111835737D01*
X94656785Y-111734999D01*
X94784999Y-111606785D01*
X94838645Y-111526497D01*
X94893122Y-111480970D01*
X94943410Y-111470500D01*
X95736590Y-111470500D01*
X95804711Y-111490502D01*
X95841354Y-111526497D01*
X95856314Y-111548886D01*
X95894997Y-111606780D01*
X95895001Y-111606785D01*
X96023215Y-111734999D01*
X96173980Y-111835737D01*
X96341500Y-111905126D01*
X96519339Y-111940500D01*
X96519340Y-111940500D01*
X96700660Y-111940500D01*
X96700661Y-111940500D01*
X96878500Y-111905126D01*
X97046020Y-111835737D01*
X97196785Y-111734999D01*
X97324999Y-111606785D01*
X97425737Y-111456020D01*
X97495126Y-111288500D01*
X97530500Y-111110661D01*
X97530500Y-110929339D01*
X97530499Y-110929336D01*
X98229500Y-110929336D01*
X98229500Y-111110663D01*
X98252627Y-111226932D01*
X98264874Y-111288500D01*
X98334263Y-111456020D01*
X98435001Y-111606785D01*
X98563215Y-111734999D01*
X98713980Y-111835737D01*
X98881500Y-111905126D01*
X99059339Y-111940500D01*
X99059340Y-111940500D01*
X99240660Y-111940500D01*
X99240661Y-111940500D01*
X99418500Y-111905126D01*
X99586020Y-111835737D01*
X99736785Y-111734999D01*
X99864999Y-111606785D01*
X99965737Y-111456020D01*
X100035126Y-111288500D01*
X100070500Y-111110661D01*
X100070500Y-110929339D01*
X100035126Y-110751500D01*
X99965737Y-110583980D01*
X99864999Y-110433215D01*
X99736785Y-110305001D01*
X99656497Y-110251354D01*
X99610970Y-110196876D01*
X99600500Y-110146589D01*
X99600500Y-108958794D01*
X99620502Y-108890673D01*
X99637405Y-108869698D01*
X100080490Y-108426614D01*
X100139799Y-108323887D01*
X100146286Y-108299673D01*
X100170500Y-108209309D01*
X100170500Y-106379625D01*
X100190502Y-106311504D01*
X100226498Y-106274860D01*
X100235171Y-106269065D01*
X100357782Y-106187139D01*
X100409658Y-106135263D01*
X106179500Y-106135263D01*
X106179500Y-106364736D01*
X106209450Y-106592231D01*
X106209452Y-106592238D01*
X106268842Y-106813887D01*
X106356656Y-107025888D01*
X106356662Y-107025900D01*
X106471386Y-107224608D01*
X106471391Y-107224615D01*
X106611073Y-107406652D01*
X106611092Y-107406673D01*
X106773326Y-107568907D01*
X106773347Y-107568926D01*
X106955384Y-107708608D01*
X106955391Y-107708613D01*
X107154099Y-107823337D01*
X107154103Y-107823338D01*
X107154112Y-107823344D01*
X107366113Y-107911158D01*
X107587762Y-107970548D01*
X107587766Y-107970548D01*
X107587768Y-107970549D01*
X107646398Y-107978267D01*
X107815266Y-108000500D01*
X107815273Y-108000500D01*
X108044727Y-108000500D01*
X108044734Y-108000500D01*
X108250345Y-107973430D01*
X108272231Y-107970549D01*
X108272231Y-107970548D01*
X108272238Y-107970548D01*
X108493887Y-107911158D01*
X108705888Y-107823344D01*
X108904612Y-107708611D01*
X109086661Y-107568919D01*
X109248919Y-107406661D01*
X109388611Y-107224612D01*
X109503344Y-107025888D01*
X109591158Y-106813887D01*
X109650548Y-106592238D01*
X109652094Y-106580499D01*
X109664957Y-106482791D01*
X109680500Y-106364734D01*
X109680500Y-106135266D01*
X109680500Y-106135263D01*
X115719500Y-106135263D01*
X115719500Y-106364736D01*
X115749450Y-106592231D01*
X115749452Y-106592238D01*
X115808842Y-106813887D01*
X115896656Y-107025888D01*
X115896662Y-107025900D01*
X116011386Y-107224608D01*
X116011391Y-107224615D01*
X116151073Y-107406652D01*
X116151092Y-107406673D01*
X116313326Y-107568907D01*
X116313347Y-107568926D01*
X116495384Y-107708608D01*
X116495391Y-107708613D01*
X116694099Y-107823337D01*
X116694103Y-107823338D01*
X116694112Y-107823344D01*
X116906113Y-107911158D01*
X117127762Y-107970548D01*
X117127766Y-107970548D01*
X117127768Y-107970549D01*
X117186398Y-107978267D01*
X117355266Y-108000500D01*
X117355273Y-108000500D01*
X117584727Y-108000500D01*
X117584734Y-108000500D01*
X117790345Y-107973430D01*
X117812231Y-107970549D01*
X117812231Y-107970548D01*
X117812238Y-107970548D01*
X118033887Y-107911158D01*
X118245888Y-107823344D01*
X118444612Y-107708611D01*
X118626661Y-107568919D01*
X118788919Y-107406661D01*
X118928611Y-107224612D01*
X119043344Y-107025888D01*
X119131158Y-106813887D01*
X119190548Y-106592238D01*
X119192094Y-106580499D01*
X119204957Y-106482791D01*
X119220500Y-106364734D01*
X119220500Y-106135266D01*
X119190548Y-105907762D01*
X119131158Y-105686113D01*
X119043344Y-105474112D01*
X119043338Y-105474103D01*
X119043337Y-105474099D01*
X118928613Y-105275391D01*
X118928608Y-105275384D01*
X118788926Y-105093347D01*
X118788907Y-105093326D01*
X118680844Y-104985263D01*
X120379500Y-104985263D01*
X120379500Y-105214736D01*
X120409450Y-105442231D01*
X120419960Y-105481455D01*
X120468842Y-105663887D01*
X120556656Y-105875888D01*
X120556657Y-105875889D01*
X120556662Y-105875900D01*
X120671386Y-106074608D01*
X120671391Y-106074615D01*
X120811073Y-106256652D01*
X120811092Y-106256673D01*
X120973326Y-106418907D01*
X120973347Y-106418926D01*
X121155384Y-106558608D01*
X121155391Y-106558613D01*
X121354099Y-106673337D01*
X121354103Y-106673338D01*
X121354112Y-106673344D01*
X121566113Y-106761158D01*
X121787762Y-106820548D01*
X121787766Y-106820548D01*
X121787768Y-106820549D01*
X121846398Y-106828267D01*
X122015266Y-106850500D01*
X122015273Y-106850500D01*
X122244727Y-106850500D01*
X122244734Y-106850500D01*
X122450345Y-106823430D01*
X122472231Y-106820549D01*
X122472231Y-106820548D01*
X122472238Y-106820548D01*
X122693887Y-106761158D01*
X122905888Y-106673344D01*
X123104612Y-106558611D01*
X123286661Y-106418919D01*
X123448919Y-106256661D01*
X123588611Y-106074612D01*
X123703344Y-105875888D01*
X123791158Y-105663887D01*
X123850548Y-105442238D01*
X123880500Y-105214734D01*
X123880500Y-104985266D01*
X123856485Y-104802858D01*
X123850549Y-104757768D01*
X123850548Y-104757766D01*
X123850548Y-104757762D01*
X123791158Y-104536113D01*
X123703344Y-104324112D01*
X123703338Y-104324103D01*
X123703337Y-104324099D01*
X123588613Y-104125391D01*
X123588608Y-104125384D01*
X123448926Y-103943347D01*
X123448907Y-103943326D01*
X123286673Y-103781092D01*
X123286652Y-103781073D01*
X123104615Y-103641391D01*
X123104608Y-103641386D01*
X122905900Y-103526662D01*
X122905892Y-103526658D01*
X122905888Y-103526656D01*
X122693887Y-103438842D01*
X122472238Y-103379452D01*
X122472231Y-103379450D01*
X122244736Y-103349500D01*
X122244734Y-103349500D01*
X122015266Y-103349500D01*
X122015263Y-103349500D01*
X121787768Y-103379450D01*
X121607390Y-103427782D01*
X121566113Y-103438842D01*
X121390753Y-103511479D01*
X121354110Y-103526657D01*
X121354099Y-103526662D01*
X121155391Y-103641386D01*
X121155384Y-103641391D01*
X120973347Y-103781073D01*
X120973326Y-103781092D01*
X120811092Y-103943326D01*
X120811073Y-103943347D01*
X120671391Y-104125384D01*
X120671386Y-104125391D01*
X120556662Y-104324099D01*
X120556657Y-104324110D01*
X120556656Y-104324112D01*
X120484008Y-104499500D01*
X120468842Y-104536113D01*
X120409450Y-104757768D01*
X120379500Y-104985263D01*
X118680844Y-104985263D01*
X118626673Y-104931092D01*
X118626652Y-104931073D01*
X118444615Y-104791391D01*
X118444608Y-104791386D01*
X118245900Y-104676662D01*
X118245892Y-104676658D01*
X118245888Y-104676656D01*
X118033887Y-104588842D01*
X117847678Y-104538948D01*
X117812231Y-104529450D01*
X117584736Y-104499500D01*
X117584734Y-104499500D01*
X117355266Y-104499500D01*
X117355263Y-104499500D01*
X117127768Y-104529450D01*
X116949536Y-104577207D01*
X116906113Y-104588842D01*
X116799850Y-104632858D01*
X116694110Y-104676657D01*
X116694099Y-104676662D01*
X116495391Y-104791386D01*
X116495384Y-104791391D01*
X116313347Y-104931073D01*
X116313326Y-104931092D01*
X116151092Y-105093326D01*
X116151073Y-105093347D01*
X116011391Y-105275384D01*
X116011386Y-105275391D01*
X115896662Y-105474099D01*
X115896657Y-105474110D01*
X115896656Y-105474112D01*
X115832689Y-105628541D01*
X115808842Y-105686113D01*
X115749450Y-105907768D01*
X115719500Y-106135263D01*
X109680500Y-106135263D01*
X109650548Y-105907762D01*
X109591158Y-105686113D01*
X109503344Y-105474112D01*
X109503338Y-105474103D01*
X109503337Y-105474099D01*
X109388613Y-105275391D01*
X109388608Y-105275384D01*
X109248926Y-105093347D01*
X109248907Y-105093326D01*
X109086673Y-104931092D01*
X109086652Y-104931073D01*
X108904615Y-104791391D01*
X108904608Y-104791386D01*
X108705900Y-104676662D01*
X108705892Y-104676658D01*
X108705888Y-104676656D01*
X108493887Y-104588842D01*
X108307678Y-104538948D01*
X108272231Y-104529450D01*
X108044736Y-104499500D01*
X108044734Y-104499500D01*
X107815266Y-104499500D01*
X107815263Y-104499500D01*
X107587768Y-104529450D01*
X107409536Y-104577207D01*
X107366113Y-104588842D01*
X107259850Y-104632858D01*
X107154110Y-104676657D01*
X107154099Y-104676662D01*
X106955391Y-104791386D01*
X106955384Y-104791391D01*
X106773347Y-104931073D01*
X106773326Y-104931092D01*
X106611092Y-105093326D01*
X106611073Y-105093347D01*
X106471391Y-105275384D01*
X106471386Y-105275391D01*
X106356662Y-105474099D01*
X106356657Y-105474110D01*
X106356656Y-105474112D01*
X106292689Y-105628541D01*
X106268842Y-105686113D01*
X106209450Y-105907768D01*
X106179500Y-106135263D01*
X100409658Y-106135263D01*
X100497139Y-106047782D01*
X100606632Y-105883914D01*
X100682051Y-105701835D01*
X100720500Y-105508541D01*
X100720500Y-105311459D01*
X100682051Y-105118165D01*
X100606632Y-104936086D01*
X100497139Y-104772218D01*
X100357782Y-104632861D01*
X100193914Y-104523368D01*
X100055383Y-104465987D01*
X100011838Y-104447950D01*
X100011835Y-104447949D01*
X99818544Y-104409500D01*
X99818541Y-104409500D01*
X99621459Y-104409500D01*
X99621455Y-104409500D01*
X99428164Y-104447949D01*
X99428161Y-104447950D01*
X99246085Y-104523368D01*
X99082222Y-104632858D01*
X99082215Y-104632863D01*
X98942863Y-104772215D01*
X98942858Y-104772222D01*
X98833368Y-104936085D01*
X98757950Y-105118161D01*
X98757949Y-105118164D01*
X98719500Y-105311455D01*
X98719500Y-105508544D01*
X98753315Y-105678541D01*
X98757949Y-105701835D01*
X98833368Y-105883914D01*
X98942861Y-106047782D01*
X99082218Y-106187139D01*
X99204829Y-106269065D01*
X99213502Y-106274860D01*
X99259030Y-106329337D01*
X99269500Y-106379625D01*
X99269500Y-107911205D01*
X99249498Y-107979326D01*
X99232596Y-108000300D01*
X98789513Y-108443383D01*
X98789508Y-108443389D01*
X98730200Y-108546113D01*
X98730201Y-108546114D01*
X98699500Y-108660692D01*
X98699500Y-110146589D01*
X98679498Y-110214710D01*
X98643503Y-110251354D01*
X98563213Y-110305002D01*
X98434999Y-110433217D01*
X98434998Y-110433219D01*
X98334263Y-110583980D01*
X98264876Y-110751494D01*
X98264874Y-110751499D01*
X98229500Y-110929336D01*
X97530499Y-110929336D01*
X97495126Y-110751500D01*
X97425737Y-110583980D01*
X97324999Y-110433215D01*
X97196785Y-110305001D01*
X97046020Y-110204263D01*
X96878500Y-110134874D01*
X96700663Y-110099500D01*
X96700661Y-110099500D01*
X96519339Y-110099500D01*
X96519336Y-110099500D01*
X96341499Y-110134874D01*
X96341494Y-110134876D01*
X96173980Y-110204263D01*
X96023219Y-110304998D01*
X96023217Y-110304999D01*
X95895000Y-110433215D01*
X95841355Y-110513502D01*
X95786878Y-110559030D01*
X95736590Y-110569500D01*
X94943410Y-110569500D01*
X94875289Y-110549498D01*
X94838645Y-110513502D01*
X94784999Y-110433215D01*
X94723438Y-110371654D01*
X94656785Y-110305001D01*
X94506020Y-110204263D01*
X94338500Y-110134874D01*
X94160663Y-110099500D01*
X94160661Y-110099500D01*
X93979339Y-110099500D01*
X93979336Y-110099500D01*
X93801499Y-110134874D01*
X93801494Y-110134876D01*
X93633980Y-110204263D01*
X93483219Y-110304998D01*
X93483217Y-110304999D01*
X93355000Y-110433215D01*
X93301355Y-110513502D01*
X93246878Y-110559030D01*
X93196590Y-110569500D01*
X91768793Y-110569500D01*
X91700672Y-110549498D01*
X91679702Y-110532599D01*
X91056614Y-109909511D01*
X91056612Y-109909510D01*
X91056610Y-109909508D01*
X90953891Y-109850203D01*
X90953889Y-109850202D01*
X90953887Y-109850201D01*
X90953880Y-109850199D01*
X90929673Y-109843712D01*
X90929673Y-109843713D01*
X90839309Y-109819500D01*
X90839308Y-109819500D01*
X89337791Y-109819500D01*
X89269670Y-109799498D01*
X89225524Y-109750702D01*
X89196232Y-109693212D01*
X89196231Y-109693210D01*
X89094412Y-109553069D01*
X88971930Y-109430587D01*
X88831788Y-109328768D01*
X88677452Y-109250130D01*
X88677448Y-109250128D01*
X88677445Y-109250127D01*
X88512701Y-109196598D01*
X88341611Y-109169500D01*
X88168389Y-109169500D01*
X87997299Y-109196598D01*
X87997296Y-109196598D01*
X87997295Y-109196599D01*
X87939950Y-109215232D01*
X87832555Y-109250127D01*
X87832553Y-109250127D01*
X87832547Y-109250130D01*
X87678211Y-109328768D01*
X87538069Y-109430587D01*
X87415587Y-109553069D01*
X87313768Y-109693211D01*
X87235130Y-109847547D01*
X87235127Y-109847553D01*
X87235127Y-109847555D01*
X87181598Y-110012299D01*
X87154500Y-110183389D01*
X86815500Y-110183389D01*
X86815500Y-109350252D01*
X86803867Y-109291769D01*
X86759552Y-109225448D01*
X86693231Y-109181133D01*
X86693228Y-109181132D01*
X86676486Y-109177802D01*
X86613577Y-109144893D01*
X86578446Y-109083198D01*
X86582247Y-109012303D01*
X86611970Y-108965132D01*
X88420490Y-107156614D01*
X88479799Y-107053887D01*
X88487301Y-107025888D01*
X88510500Y-106939309D01*
X88510500Y-106789625D01*
X88530502Y-106721504D01*
X88566498Y-106684860D01*
X88583736Y-106673342D01*
X88697782Y-106597139D01*
X88837139Y-106457782D01*
X88946632Y-106293914D01*
X89022051Y-106111835D01*
X89060500Y-105918541D01*
X89060500Y-105721459D01*
X89022051Y-105528165D01*
X88946632Y-105346086D01*
X88837139Y-105182218D01*
X88697782Y-105042861D01*
X88533914Y-104933368D01*
X88515481Y-104925733D01*
X88351838Y-104857950D01*
X88351835Y-104857949D01*
X88158544Y-104819500D01*
X88158541Y-104819500D01*
X87961459Y-104819500D01*
X87961455Y-104819500D01*
X87768164Y-104857949D01*
X87768161Y-104857950D01*
X87586087Y-104933367D01*
X87423742Y-105041842D01*
X87355989Y-105063056D01*
X87287523Y-105044273D01*
X87264646Y-105026171D01*
X86358091Y-104119616D01*
X86324065Y-104057304D01*
X86321186Y-104030521D01*
X86321186Y-103221455D01*
X87059500Y-103221455D01*
X87059500Y-103418544D01*
X87097949Y-103611835D01*
X87097950Y-103611838D01*
X87145314Y-103726186D01*
X87173368Y-103793914D01*
X87282861Y-103957782D01*
X87422218Y-104097139D01*
X87586086Y-104206632D01*
X87768165Y-104282051D01*
X87961459Y-104320500D01*
X88158541Y-104320500D01*
X88313400Y-104289696D01*
X88384114Y-104296024D01*
X88427077Y-104324180D01*
X89873386Y-105770489D01*
X89887470Y-105778620D01*
X89887474Y-105778624D01*
X89887475Y-105778623D01*
X89976114Y-105829799D01*
X90090691Y-105860500D01*
X91130375Y-105860500D01*
X91198496Y-105880502D01*
X91235139Y-105916497D01*
X91322861Y-106047782D01*
X91462218Y-106187139D01*
X91626086Y-106296632D01*
X91808165Y-106372051D01*
X92001459Y-106410500D01*
X92198541Y-106410500D01*
X92391835Y-106372051D01*
X92573914Y-106296632D01*
X92737782Y-106187139D01*
X92877139Y-106047782D01*
X92986632Y-105883914D01*
X93062051Y-105701835D01*
X93100500Y-105508541D01*
X93100500Y-105311459D01*
X93062051Y-105118165D01*
X92986632Y-104936086D01*
X92877139Y-104772218D01*
X92737782Y-104632861D01*
X92737778Y-104632858D01*
X92737777Y-104632857D01*
X92606498Y-104545139D01*
X92601324Y-104538948D01*
X92593988Y-104535598D01*
X92578887Y-104512101D01*
X92560970Y-104490662D01*
X92558986Y-104481135D01*
X92555604Y-104475872D01*
X92550500Y-104440374D01*
X92550500Y-104308793D01*
X92570502Y-104240672D01*
X92587405Y-104219698D01*
X94069798Y-102737305D01*
X94069804Y-102737299D01*
X94129114Y-102634572D01*
X94129115Y-102634569D01*
X94138310Y-102600255D01*
X94153687Y-102542863D01*
X94159815Y-102519994D01*
X94159815Y-102156500D01*
X94179817Y-102088379D01*
X94233473Y-102041886D01*
X94285815Y-102030500D01*
X94313579Y-102030500D01*
X94313581Y-102030500D01*
X94344014Y-102027646D01*
X94472197Y-101982793D01*
X94560194Y-101917849D01*
X94581465Y-101902150D01*
X94662106Y-101792885D01*
X94662108Y-101792881D01*
X94662140Y-101792791D01*
X94706961Y-101664699D01*
X94709815Y-101634266D01*
X94709815Y-100425734D01*
X94706961Y-100395301D01*
X94662108Y-100267118D01*
X94662106Y-100267114D01*
X94581465Y-100157849D01*
X94472200Y-100077208D01*
X94472196Y-100077206D01*
X94344019Y-100032355D01*
X94344015Y-100032354D01*
X94313581Y-100029500D01*
X93105049Y-100029500D01*
X93105048Y-100029500D01*
X93074614Y-100032354D01*
X93074610Y-100032355D01*
X92946433Y-100077206D01*
X92946429Y-100077208D01*
X92837164Y-100157849D01*
X92756523Y-100267114D01*
X92756521Y-100267118D01*
X92711670Y-100395295D01*
X92711669Y-100395299D01*
X92708815Y-100425733D01*
X92708815Y-101634266D01*
X92711669Y-101664700D01*
X92711670Y-101664704D01*
X92756521Y-101792881D01*
X92756523Y-101792885D01*
X92837164Y-101902150D01*
X92946429Y-101982791D01*
X92946433Y-101982793D01*
X93073095Y-102027114D01*
X93074616Y-102027646D01*
X93105049Y-102030500D01*
X93132815Y-102030500D01*
X93141640Y-102033091D01*
X93150747Y-102031782D01*
X93175172Y-102042937D01*
X93200936Y-102050502D01*
X93206960Y-102057455D01*
X93215327Y-102061276D01*
X93229841Y-102083861D01*
X93247429Y-102104158D01*
X93249753Y-102114844D01*
X93253711Y-102121002D01*
X93258815Y-102156500D01*
X93258815Y-102221891D01*
X93238813Y-102290012D01*
X93221910Y-102310986D01*
X91739516Y-103793379D01*
X91739508Y-103793389D01*
X91680201Y-103896112D01*
X91680198Y-103896118D01*
X91676795Y-103908823D01*
X91676795Y-103908825D01*
X91656825Y-103983356D01*
X91649500Y-104010692D01*
X91649500Y-104440374D01*
X91629498Y-104508495D01*
X91593502Y-104545139D01*
X91462222Y-104632857D01*
X91462215Y-104632863D01*
X91322863Y-104772215D01*
X91322858Y-104772222D01*
X91235140Y-104903502D01*
X91180663Y-104949030D01*
X91130375Y-104959500D01*
X90388793Y-104959500D01*
X90320672Y-104939498D01*
X90299698Y-104922595D01*
X89064180Y-103687077D01*
X89030154Y-103624765D01*
X89029696Y-103573400D01*
X89030865Y-103567524D01*
X89060500Y-103418541D01*
X89060500Y-103221459D01*
X89022051Y-103028165D01*
X88946632Y-102846086D01*
X88837139Y-102682218D01*
X88697782Y-102542861D01*
X88533914Y-102433368D01*
X88524600Y-102429510D01*
X88351838Y-102357950D01*
X88351835Y-102357949D01*
X88158544Y-102319500D01*
X88158541Y-102319500D01*
X87961459Y-102319500D01*
X87961455Y-102319500D01*
X87768164Y-102357949D01*
X87768161Y-102357950D01*
X87586085Y-102433368D01*
X87422222Y-102542858D01*
X87422215Y-102542863D01*
X87282863Y-102682215D01*
X87282858Y-102682222D01*
X87173368Y-102846085D01*
X87097950Y-103028161D01*
X87097949Y-103028164D01*
X87059500Y-103221455D01*
X86321186Y-103221455D01*
X86321186Y-101809625D01*
X86341188Y-101741504D01*
X86377184Y-101704860D01*
X86508468Y-101617139D01*
X86647825Y-101477782D01*
X86757318Y-101313914D01*
X86832737Y-101131835D01*
X86871186Y-100938541D01*
X86871186Y-100741459D01*
X86832737Y-100548165D01*
X86757318Y-100366086D01*
X86670219Y-100235733D01*
X88680186Y-100235733D01*
X88680186Y-101444266D01*
X88683040Y-101474700D01*
X88683041Y-101474704D01*
X88727892Y-101602881D01*
X88727894Y-101602885D01*
X88808535Y-101712150D01*
X88917800Y-101792791D01*
X88917804Y-101792793D01*
X89044729Y-101837206D01*
X89045987Y-101837646D01*
X89076420Y-101840500D01*
X89076422Y-101840500D01*
X90284950Y-101840500D01*
X90284952Y-101840500D01*
X90315385Y-101837646D01*
X90443568Y-101792793D01*
X90444162Y-101792355D01*
X90552836Y-101712150D01*
X90633477Y-101602885D01*
X90633479Y-101602881D01*
X90641311Y-101580500D01*
X90678332Y-101474699D01*
X90681186Y-101444266D01*
X90681186Y-101416500D01*
X90701188Y-101348379D01*
X90754844Y-101301886D01*
X90781172Y-101293215D01*
X90794038Y-101290500D01*
X90819309Y-101290500D01*
X90909673Y-101266286D01*
X90933887Y-101259799D01*
X91036614Y-101200489D01*
X92559698Y-99677405D01*
X92622010Y-99643380D01*
X92648793Y-99640500D01*
X95440522Y-99640500D01*
X95508643Y-99660502D01*
X95529617Y-99677405D01*
X96515135Y-100662923D01*
X96549161Y-100725235D01*
X96549619Y-100776600D01*
X96518815Y-100931455D01*
X96518815Y-101128544D01*
X96557264Y-101321835D01*
X96557265Y-101321838D01*
X96580890Y-101378874D01*
X96632683Y-101503914D01*
X96742176Y-101667782D01*
X96881533Y-101807139D01*
X97045401Y-101916632D01*
X97227480Y-101992051D01*
X97420774Y-102030500D01*
X97617856Y-102030500D01*
X97811150Y-101992051D01*
X97993229Y-101916632D01*
X98157097Y-101807139D01*
X98296454Y-101667782D01*
X98384175Y-101536497D01*
X98438652Y-101490970D01*
X98488940Y-101480500D01*
X99199309Y-101480500D01*
X99289673Y-101456286D01*
X99313887Y-101449799D01*
X99416614Y-101390489D01*
X100200489Y-100606614D01*
X100234234Y-100548165D01*
X100234731Y-100547305D01*
X100234731Y-100547304D01*
X100248473Y-100523502D01*
X100259799Y-100503886D01*
X100290500Y-100389309D01*
X100290500Y-99585263D01*
X106179500Y-99585263D01*
X106179500Y-99814736D01*
X106209450Y-100042231D01*
X106218822Y-100077207D01*
X106268842Y-100263887D01*
X106356656Y-100475888D01*
X106356657Y-100475889D01*
X106356662Y-100475900D01*
X106471386Y-100674608D01*
X106471391Y-100674615D01*
X106611073Y-100856652D01*
X106611092Y-100856673D01*
X106773326Y-101018907D01*
X106773347Y-101018926D01*
X106955384Y-101158608D01*
X106955391Y-101158613D01*
X107154099Y-101273337D01*
X107154103Y-101273338D01*
X107154112Y-101273344D01*
X107366113Y-101361158D01*
X107587762Y-101420548D01*
X107587766Y-101420548D01*
X107587768Y-101420549D01*
X107646398Y-101428267D01*
X107815266Y-101450500D01*
X107815273Y-101450500D01*
X108044727Y-101450500D01*
X108044734Y-101450500D01*
X108250345Y-101423430D01*
X108272231Y-101420549D01*
X108272231Y-101420548D01*
X108272238Y-101420548D01*
X108493887Y-101361158D01*
X108705888Y-101273344D01*
X108904612Y-101158611D01*
X109086661Y-101018919D01*
X109248919Y-100856661D01*
X109388611Y-100674612D01*
X109503344Y-100475888D01*
X109591158Y-100263887D01*
X109650548Y-100042238D01*
X109680500Y-99814734D01*
X109680500Y-99585266D01*
X109680500Y-99585263D01*
X115719500Y-99585263D01*
X115719500Y-99814736D01*
X115749450Y-100042231D01*
X115758822Y-100077207D01*
X115808842Y-100263887D01*
X115896656Y-100475888D01*
X115896657Y-100475889D01*
X115896662Y-100475900D01*
X116011386Y-100674608D01*
X116011391Y-100674615D01*
X116151073Y-100856652D01*
X116151092Y-100856673D01*
X116313326Y-101018907D01*
X116313347Y-101018926D01*
X116495384Y-101158608D01*
X116495391Y-101158613D01*
X116694099Y-101273337D01*
X116694103Y-101273338D01*
X116694112Y-101273344D01*
X116906113Y-101361158D01*
X117127762Y-101420548D01*
X117127766Y-101420548D01*
X117127768Y-101420549D01*
X117186398Y-101428267D01*
X117355266Y-101450500D01*
X117355273Y-101450500D01*
X117584727Y-101450500D01*
X117584734Y-101450500D01*
X117790345Y-101423430D01*
X117812231Y-101420549D01*
X117812231Y-101420548D01*
X117812238Y-101420548D01*
X118033887Y-101361158D01*
X118245888Y-101273344D01*
X118444612Y-101158611D01*
X118626661Y-101018919D01*
X118788919Y-100856661D01*
X118928611Y-100674612D01*
X119043344Y-100475888D01*
X119131158Y-100263887D01*
X119190548Y-100042238D01*
X119220500Y-99814734D01*
X119220500Y-99585266D01*
X119194349Y-99386632D01*
X119190549Y-99357768D01*
X119190548Y-99357766D01*
X119190548Y-99357762D01*
X119131158Y-99136113D01*
X119043344Y-98924112D01*
X119043338Y-98924103D01*
X119043337Y-98924099D01*
X118964651Y-98787810D01*
X118964650Y-98787809D01*
X118944750Y-98753343D01*
X118930316Y-98728342D01*
X120989500Y-98728342D01*
X120989500Y-99031657D01*
X121023460Y-99333067D01*
X121090955Y-99628778D01*
X121191125Y-99915047D01*
X121191136Y-99915074D01*
X121322732Y-100188336D01*
X121322737Y-100188345D01*
X121484108Y-100445164D01*
X121673223Y-100682307D01*
X121887692Y-100896776D01*
X122002447Y-100988290D01*
X122124836Y-101085892D01*
X122240571Y-101158613D01*
X122381654Y-101247262D01*
X122381663Y-101247267D01*
X122459737Y-101284865D01*
X122654935Y-101378868D01*
X122654951Y-101378873D01*
X122654952Y-101378874D01*
X122941221Y-101479044D01*
X122941224Y-101479044D01*
X122941228Y-101479046D01*
X123160095Y-101529001D01*
X123236932Y-101546539D01*
X123236933Y-101546539D01*
X123236937Y-101546540D01*
X123476518Y-101573534D01*
X123538342Y-101580500D01*
X123538343Y-101580500D01*
X123841658Y-101580500D01*
X123892958Y-101574719D01*
X124143063Y-101546540D01*
X124438772Y-101479046D01*
X124442385Y-101477782D01*
X124605950Y-101420548D01*
X124725065Y-101378868D01*
X124998341Y-101247265D01*
X125255164Y-101085892D01*
X125492304Y-100896779D01*
X125706779Y-100682304D01*
X125895892Y-100445164D01*
X126057265Y-100188341D01*
X126188868Y-99915065D01*
X126277943Y-99660502D01*
X126289044Y-99628778D01*
X126289044Y-99628777D01*
X126289046Y-99628772D01*
X126356540Y-99333063D01*
X126390500Y-99031657D01*
X126390500Y-98728343D01*
X126390500Y-98728341D01*
X126376631Y-98605248D01*
X126375506Y-98595263D01*
X128159500Y-98595263D01*
X128159500Y-98824736D01*
X128189450Y-99052231D01*
X128189452Y-99052238D01*
X128248842Y-99273887D01*
X128336656Y-99485888D01*
X128336657Y-99485889D01*
X128336662Y-99485900D01*
X128451386Y-99684608D01*
X128451391Y-99684615D01*
X128591073Y-99866652D01*
X128591092Y-99866673D01*
X128753326Y-100028907D01*
X128753347Y-100028926D01*
X128935384Y-100168608D01*
X128935391Y-100168613D01*
X129134099Y-100283337D01*
X129134103Y-100283338D01*
X129134112Y-100283344D01*
X129346113Y-100371158D01*
X129567762Y-100430548D01*
X129567766Y-100430548D01*
X129567768Y-100430549D01*
X129626398Y-100438267D01*
X129795266Y-100460500D01*
X129795273Y-100460500D01*
X130024727Y-100460500D01*
X130024734Y-100460500D01*
X130230345Y-100433430D01*
X130252231Y-100430549D01*
X130252231Y-100430548D01*
X130252238Y-100430548D01*
X130473887Y-100371158D01*
X130685888Y-100283344D01*
X130884612Y-100168611D01*
X131062183Y-100032355D01*
X131066652Y-100028926D01*
X131066652Y-100028925D01*
X131066661Y-100028919D01*
X131228919Y-99866661D01*
X131368611Y-99684612D01*
X131483344Y-99485888D01*
X131571158Y-99273887D01*
X131630548Y-99052238D01*
X131660500Y-98824734D01*
X131660500Y-98595266D01*
X131632302Y-98381081D01*
X131630549Y-98367768D01*
X131630548Y-98367766D01*
X131630548Y-98367762D01*
X131571158Y-98146113D01*
X131483344Y-97934112D01*
X131483338Y-97934103D01*
X131483337Y-97934099D01*
X131368613Y-97735391D01*
X131368608Y-97735384D01*
X131228926Y-97553347D01*
X131228907Y-97553326D01*
X131066673Y-97391092D01*
X131066652Y-97391073D01*
X130884615Y-97251391D01*
X130884608Y-97251386D01*
X130685900Y-97136662D01*
X130685892Y-97136658D01*
X130685888Y-97136656D01*
X130473887Y-97048842D01*
X130293470Y-97000500D01*
X130252231Y-96989450D01*
X130024736Y-96959500D01*
X130024734Y-96959500D01*
X129795266Y-96959500D01*
X129795263Y-96959500D01*
X129567768Y-96989450D01*
X129346113Y-97048842D01*
X129134110Y-97136657D01*
X129134099Y-97136662D01*
X128935391Y-97251386D01*
X128935384Y-97251391D01*
X128753347Y-97391073D01*
X128753326Y-97391092D01*
X128591092Y-97553326D01*
X128591073Y-97553347D01*
X128451391Y-97735384D01*
X128451386Y-97735391D01*
X128336662Y-97934099D01*
X128336657Y-97934110D01*
X128336656Y-97934112D01*
X128255008Y-98131228D01*
X128248842Y-98146113D01*
X128189450Y-98367768D01*
X128159500Y-98595263D01*
X126375506Y-98595263D01*
X126356539Y-98426932D01*
X126314190Y-98241391D01*
X126289046Y-98131228D01*
X126287448Y-98126662D01*
X126188874Y-97844952D01*
X126188873Y-97844951D01*
X126188868Y-97844935D01*
X126057265Y-97571659D01*
X125895892Y-97314836D01*
X125706779Y-97077696D01*
X125706776Y-97077692D01*
X125492307Y-96863223D01*
X125255164Y-96674108D01*
X124998345Y-96512737D01*
X124998336Y-96512732D01*
X124725074Y-96381136D01*
X124725069Y-96381134D01*
X124725065Y-96381132D01*
X124725059Y-96381129D01*
X124725047Y-96381125D01*
X124438778Y-96280955D01*
X124143067Y-96213460D01*
X123841658Y-96179500D01*
X123841657Y-96179500D01*
X123538343Y-96179500D01*
X123538342Y-96179500D01*
X123236932Y-96213460D01*
X122941221Y-96280955D01*
X122654952Y-96381125D01*
X122654925Y-96381136D01*
X122381663Y-96512732D01*
X122381654Y-96512737D01*
X122124835Y-96674108D01*
X121887692Y-96863223D01*
X121673223Y-97077692D01*
X121484108Y-97314835D01*
X121322737Y-97571654D01*
X121322732Y-97571663D01*
X121191136Y-97844925D01*
X121191125Y-97844952D01*
X121090955Y-98131221D01*
X121023460Y-98426932D01*
X120989500Y-98728342D01*
X118930316Y-98728342D01*
X118928611Y-98725388D01*
X118831280Y-98598544D01*
X118788926Y-98543347D01*
X118788907Y-98543326D01*
X118626673Y-98381092D01*
X118626652Y-98381073D01*
X118444615Y-98241391D01*
X118444608Y-98241386D01*
X118245900Y-98126662D01*
X118245892Y-98126658D01*
X118245888Y-98126656D01*
X118033887Y-98038842D01*
X117812238Y-97979452D01*
X117812231Y-97979450D01*
X117584736Y-97949500D01*
X117584734Y-97949500D01*
X117355266Y-97949500D01*
X117355263Y-97949500D01*
X117127768Y-97979450D01*
X116906113Y-98038842D01*
X116694110Y-98126657D01*
X116694099Y-98126662D01*
X116495391Y-98241386D01*
X116495384Y-98241391D01*
X116313347Y-98381073D01*
X116313326Y-98381092D01*
X116151092Y-98543326D01*
X116151073Y-98543347D01*
X116011391Y-98725384D01*
X116011386Y-98725391D01*
X115896662Y-98924099D01*
X115896657Y-98924110D01*
X115808842Y-99136113D01*
X115749450Y-99357768D01*
X115719500Y-99585263D01*
X109680500Y-99585263D01*
X109654349Y-99386632D01*
X109650549Y-99357768D01*
X109650548Y-99357766D01*
X109650548Y-99357762D01*
X109591158Y-99136113D01*
X109503344Y-98924112D01*
X109503338Y-98924103D01*
X109503337Y-98924099D01*
X109388613Y-98725391D01*
X109388608Y-98725384D01*
X109248926Y-98543347D01*
X109248907Y-98543326D01*
X109086673Y-98381092D01*
X109086652Y-98381073D01*
X108904615Y-98241391D01*
X108904608Y-98241386D01*
X108705900Y-98126662D01*
X108705892Y-98126658D01*
X108705888Y-98126656D01*
X108493887Y-98038842D01*
X108272238Y-97979452D01*
X108272231Y-97979450D01*
X108044736Y-97949500D01*
X108044734Y-97949500D01*
X107815266Y-97949500D01*
X107815263Y-97949500D01*
X107587768Y-97979450D01*
X107366113Y-98038842D01*
X107154110Y-98126657D01*
X107154099Y-98126662D01*
X106955391Y-98241386D01*
X106955384Y-98241391D01*
X106773347Y-98381073D01*
X106773326Y-98381092D01*
X106611092Y-98543326D01*
X106611073Y-98543347D01*
X106471391Y-98725384D01*
X106471386Y-98725391D01*
X106356662Y-98924099D01*
X106356657Y-98924110D01*
X106268842Y-99136113D01*
X106209450Y-99357768D01*
X106179500Y-99585263D01*
X100290500Y-99585263D01*
X100290500Y-99469625D01*
X100310502Y-99401504D01*
X100346498Y-99364860D01*
X100357121Y-99357762D01*
X100477782Y-99277139D01*
X100617139Y-99137782D01*
X100726632Y-98973914D01*
X100802051Y-98791835D01*
X100840500Y-98598541D01*
X100840500Y-98401459D01*
X100802051Y-98208165D01*
X100726632Y-98026086D01*
X100617139Y-97862218D01*
X100477782Y-97722861D01*
X100313914Y-97613368D01*
X100131838Y-97537950D01*
X100131835Y-97537949D01*
X99938544Y-97499500D01*
X99938541Y-97499500D01*
X99741459Y-97499500D01*
X99741455Y-97499500D01*
X99548164Y-97537949D01*
X99548161Y-97537950D01*
X99366085Y-97613368D01*
X99202222Y-97722858D01*
X99202215Y-97722863D01*
X99062863Y-97862215D01*
X99062858Y-97862222D01*
X98953368Y-98026085D01*
X98877950Y-98208161D01*
X98877949Y-98208164D01*
X98839500Y-98401455D01*
X98839500Y-98598544D01*
X98867539Y-98739500D01*
X98877949Y-98791835D01*
X98953368Y-98973914D01*
X99062861Y-99137782D01*
X99202218Y-99277139D01*
X99322879Y-99357762D01*
X99333502Y-99364860D01*
X99379030Y-99419337D01*
X99389500Y-99469625D01*
X99389500Y-100091207D01*
X99369498Y-100159328D01*
X99352595Y-100180302D01*
X98990302Y-100542595D01*
X98927990Y-100576621D01*
X98901207Y-100579500D01*
X98488940Y-100579500D01*
X98420819Y-100559498D01*
X98384175Y-100523502D01*
X98352360Y-100475888D01*
X98296454Y-100392218D01*
X98157097Y-100252861D01*
X97993229Y-100143368D01*
X97811153Y-100067950D01*
X97811150Y-100067949D01*
X97617859Y-100029500D01*
X97617856Y-100029500D01*
X97420774Y-100029500D01*
X97420770Y-100029500D01*
X97306533Y-100052224D01*
X97265914Y-100060303D01*
X97195201Y-100053976D01*
X97152238Y-100025820D01*
X95955935Y-98829516D01*
X95955925Y-98829508D01*
X95853206Y-98770203D01*
X95853203Y-98770202D01*
X95853202Y-98770201D01*
X95853200Y-98770200D01*
X95853199Y-98770200D01*
X95840117Y-98766695D01*
X95822251Y-98761908D01*
X95822249Y-98761907D01*
X95783438Y-98751507D01*
X95738624Y-98739500D01*
X92350691Y-98739500D01*
X92289291Y-98755952D01*
X92236116Y-98770200D01*
X92236109Y-98770203D01*
X92198643Y-98791835D01*
X92133389Y-98829508D01*
X92133379Y-98829516D01*
X90840672Y-100122224D01*
X90778360Y-100156250D01*
X90707545Y-100151185D01*
X90650709Y-100108638D01*
X90638257Y-100085269D01*
X90637890Y-100085464D01*
X90633477Y-100077114D01*
X90552836Y-99967849D01*
X90443571Y-99887208D01*
X90443567Y-99887206D01*
X90315390Y-99842355D01*
X90315386Y-99842354D01*
X90284952Y-99839500D01*
X89076420Y-99839500D01*
X89076419Y-99839500D01*
X89045985Y-99842354D01*
X89045981Y-99842355D01*
X88917804Y-99887206D01*
X88917800Y-99887208D01*
X88808535Y-99967849D01*
X88727894Y-100077114D01*
X88727892Y-100077118D01*
X88683041Y-100205295D01*
X88683040Y-100205299D01*
X88680186Y-100235733D01*
X86670219Y-100235733D01*
X86647825Y-100202218D01*
X86508468Y-100062861D01*
X86508466Y-100062859D01*
X86508463Y-100062857D01*
X86377184Y-99975139D01*
X86331656Y-99920662D01*
X86321186Y-99870374D01*
X86321186Y-94974786D01*
X95185400Y-94974786D01*
X95185400Y-95210813D01*
X95216205Y-95444807D01*
X95216207Y-95444814D01*
X95277294Y-95672793D01*
X95367616Y-95890849D01*
X95367617Y-95890850D01*
X95367622Y-95890861D01*
X95485624Y-96095246D01*
X95485626Y-96095249D01*
X95485627Y-96095250D01*
X95629308Y-96282499D01*
X95629312Y-96282503D01*
X95629317Y-96282509D01*
X95796190Y-96449382D01*
X95796195Y-96449386D01*
X95796201Y-96449392D01*
X95983450Y-96593073D01*
X95983453Y-96593075D01*
X96187838Y-96711077D01*
X96187842Y-96711078D01*
X96187851Y-96711084D01*
X96405907Y-96801406D01*
X96633886Y-96862493D01*
X96633890Y-96862493D01*
X96633892Y-96862494D01*
X96694200Y-96870433D01*
X96867889Y-96893300D01*
X96867896Y-96893300D01*
X97103904Y-96893300D01*
X97103911Y-96893300D01*
X97315391Y-96865458D01*
X97337907Y-96862494D01*
X97337907Y-96862493D01*
X97337914Y-96862493D01*
X97565893Y-96801406D01*
X97783949Y-96711084D01*
X97988350Y-96593073D01*
X98175599Y-96449392D01*
X98342492Y-96282499D01*
X98486173Y-96095250D01*
X98604177Y-95890861D01*
X98604381Y-95890508D01*
X98655763Y-95841515D01*
X98725477Y-95828079D01*
X98791388Y-95854465D01*
X98832570Y-95912297D01*
X98839500Y-95953508D01*
X98839500Y-96098544D01*
X98855604Y-96179500D01*
X98877949Y-96291835D01*
X98953368Y-96473914D01*
X99062861Y-96637782D01*
X99202218Y-96777139D01*
X99366086Y-96886632D01*
X99548165Y-96962051D01*
X99741459Y-97000500D01*
X99938541Y-97000500D01*
X100131835Y-96962051D01*
X100313914Y-96886632D01*
X100477782Y-96777139D01*
X100617139Y-96637782D01*
X100726632Y-96473914D01*
X100802051Y-96291835D01*
X100840500Y-96098541D01*
X100840500Y-95901459D01*
X100802051Y-95708165D01*
X100726632Y-95526086D01*
X100617139Y-95362218D01*
X100477782Y-95222861D01*
X100313914Y-95113368D01*
X100233356Y-95080000D01*
X100131838Y-95037950D01*
X100131835Y-95037949D01*
X99938544Y-94999500D01*
X99938541Y-94999500D01*
X99741459Y-94999500D01*
X99741455Y-94999500D01*
X99627218Y-95022224D01*
X99586599Y-95030303D01*
X99515886Y-95023976D01*
X99472924Y-94995821D01*
X99306614Y-94829511D01*
X99306612Y-94829510D01*
X99306610Y-94829508D01*
X99203891Y-94770203D01*
X99203889Y-94770202D01*
X99203887Y-94770201D01*
X99203880Y-94770199D01*
X99179673Y-94763712D01*
X99179673Y-94763713D01*
X99089309Y-94739500D01*
X99089308Y-94739500D01*
X98851931Y-94739500D01*
X98783810Y-94719498D01*
X98737317Y-94665842D01*
X98730226Y-94646117D01*
X98694506Y-94512807D01*
X98604184Y-94294751D01*
X98604178Y-94294742D01*
X98604177Y-94294738D01*
X98486175Y-94090353D01*
X98418562Y-94002238D01*
X98342492Y-93903101D01*
X98342486Y-93903095D01*
X98342482Y-93903090D01*
X98175609Y-93736217D01*
X98175599Y-93736208D01*
X98141426Y-93709986D01*
X98051655Y-93641102D01*
X98051654Y-93641101D01*
X97988351Y-93592527D01*
X97906488Y-93545263D01*
X125049500Y-93545263D01*
X125049500Y-93774736D01*
X125079450Y-94002231D01*
X125079452Y-94002238D01*
X125138842Y-94223887D01*
X125226656Y-94435888D01*
X125226657Y-94435889D01*
X125226662Y-94435900D01*
X125341386Y-94634608D01*
X125341391Y-94634615D01*
X125481073Y-94816652D01*
X125481092Y-94816673D01*
X125643326Y-94978907D01*
X125643347Y-94978926D01*
X125825384Y-95118608D01*
X125825391Y-95118613D01*
X126024099Y-95233337D01*
X126024103Y-95233338D01*
X126024112Y-95233344D01*
X126236113Y-95321158D01*
X126457762Y-95380548D01*
X126457766Y-95380548D01*
X126457768Y-95380549D01*
X126516398Y-95388267D01*
X126685266Y-95410500D01*
X126685273Y-95410500D01*
X126914727Y-95410500D01*
X126914734Y-95410500D01*
X127120345Y-95383430D01*
X127142231Y-95380549D01*
X127142231Y-95380548D01*
X127142238Y-95380548D01*
X127363887Y-95321158D01*
X127575888Y-95233344D01*
X127774612Y-95118611D01*
X127956661Y-94978919D01*
X128118919Y-94816661D01*
X128258611Y-94634612D01*
X128287477Y-94584615D01*
X128300227Y-94562532D01*
X128373337Y-94435900D01*
X128373336Y-94435900D01*
X128373344Y-94435888D01*
X128461158Y-94223887D01*
X128520548Y-94002238D01*
X128550500Y-93774734D01*
X128550500Y-93545266D01*
X128521252Y-93323107D01*
X128520549Y-93317768D01*
X128520548Y-93317766D01*
X128520548Y-93317762D01*
X128461158Y-93096113D01*
X128422252Y-93002187D01*
X130110000Y-93002187D01*
X130110000Y-93257812D01*
X130143363Y-93511235D01*
X130209524Y-93758151D01*
X130307349Y-93994319D01*
X130307352Y-93994325D01*
X130435152Y-94215682D01*
X130435156Y-94215688D01*
X130515739Y-94320705D01*
X130515740Y-94320706D01*
X131193821Y-93642625D01*
X131279365Y-93770650D01*
X131419350Y-93910635D01*
X131547373Y-93996177D01*
X130869292Y-94674258D01*
X130869293Y-94674259D01*
X130974311Y-94754843D01*
X130974317Y-94754847D01*
X131195674Y-94882647D01*
X131195680Y-94882650D01*
X131431848Y-94980475D01*
X131678764Y-95046636D01*
X131932187Y-95079999D01*
X131932197Y-95080000D01*
X132187803Y-95080000D01*
X132187812Y-95079999D01*
X132441235Y-95046636D01*
X132688151Y-94980475D01*
X132924319Y-94882650D01*
X132924325Y-94882647D01*
X133145682Y-94754847D01*
X133145688Y-94754843D01*
X133250706Y-94674259D01*
X133250706Y-94674258D01*
X132572625Y-93996177D01*
X132700650Y-93910635D01*
X132840635Y-93770650D01*
X132926177Y-93642625D01*
X133604258Y-94320706D01*
X133604259Y-94320706D01*
X133684843Y-94215688D01*
X133684847Y-94215682D01*
X133812647Y-93994325D01*
X133812650Y-93994319D01*
X133910475Y-93758151D01*
X133976636Y-93511234D01*
X133978739Y-93495263D01*
X134369500Y-93495263D01*
X134369500Y-93724736D01*
X134399450Y-93952231D01*
X134399452Y-93952238D01*
X134458842Y-94173887D01*
X134546656Y-94385888D01*
X134546657Y-94385889D01*
X134546662Y-94385900D01*
X134661386Y-94584608D01*
X134661391Y-94584615D01*
X134801073Y-94766652D01*
X134801092Y-94766673D01*
X134963326Y-94928907D01*
X134963347Y-94928926D01*
X135145384Y-95068608D01*
X135145391Y-95068613D01*
X135344099Y-95183337D01*
X135344103Y-95183338D01*
X135344112Y-95183344D01*
X135556113Y-95271158D01*
X135777762Y-95330548D01*
X135777766Y-95330548D01*
X135777768Y-95330549D01*
X135836398Y-95338267D01*
X136005266Y-95360500D01*
X136005273Y-95360500D01*
X136234727Y-95360500D01*
X136234734Y-95360500D01*
X136440345Y-95333430D01*
X136462231Y-95330549D01*
X136462231Y-95330548D01*
X136462238Y-95330548D01*
X136683887Y-95271158D01*
X136895888Y-95183344D01*
X137094612Y-95068611D01*
X137276661Y-94928919D01*
X137438919Y-94766661D01*
X137578611Y-94584612D01*
X137693344Y-94385888D01*
X137781158Y-94173887D01*
X137840548Y-93952238D01*
X137870500Y-93724734D01*
X137870500Y-93495266D01*
X137840548Y-93267762D01*
X137781158Y-93046113D01*
X137693344Y-92834112D01*
X137693338Y-92834103D01*
X137693337Y-92834099D01*
X137578613Y-92635391D01*
X137578608Y-92635384D01*
X137438926Y-92453347D01*
X137438907Y-92453326D01*
X137276673Y-92291092D01*
X137276652Y-92291073D01*
X137094615Y-92151391D01*
X137094608Y-92151386D01*
X136895900Y-92036662D01*
X136895892Y-92036658D01*
X136895888Y-92036656D01*
X136683887Y-91948842D01*
X136462238Y-91889452D01*
X136462231Y-91889450D01*
X136234736Y-91859500D01*
X136234734Y-91859500D01*
X136005266Y-91859500D01*
X136005263Y-91859500D01*
X135777768Y-91889450D01*
X135556113Y-91948842D01*
X135344110Y-92036657D01*
X135344099Y-92036662D01*
X135145391Y-92151386D01*
X135145384Y-92151391D01*
X134963347Y-92291073D01*
X134963326Y-92291092D01*
X134801092Y-92453326D01*
X134801073Y-92453347D01*
X134661391Y-92635384D01*
X134661386Y-92635391D01*
X134546662Y-92834099D01*
X134546657Y-92834110D01*
X134458842Y-93046113D01*
X134399450Y-93267768D01*
X134369500Y-93495263D01*
X133978739Y-93495263D01*
X133981447Y-93474695D01*
X134009999Y-93257812D01*
X134010000Y-93257803D01*
X134010000Y-93002197D01*
X134009999Y-93002187D01*
X133976636Y-92748764D01*
X133910475Y-92501848D01*
X133812650Y-92265680D01*
X133812647Y-92265674D01*
X133684847Y-92044317D01*
X133684843Y-92044311D01*
X133604259Y-91939293D01*
X133604258Y-91939292D01*
X132926177Y-92617373D01*
X132840635Y-92489350D01*
X132700650Y-92349365D01*
X132572625Y-92263821D01*
X133250706Y-91585740D01*
X133250705Y-91585739D01*
X133145688Y-91505156D01*
X133145682Y-91505152D01*
X132924325Y-91377352D01*
X132924319Y-91377349D01*
X132688151Y-91279524D01*
X132441235Y-91213363D01*
X132187812Y-91180000D01*
X131932187Y-91180000D01*
X131678764Y-91213363D01*
X131431848Y-91279524D01*
X131195680Y-91377349D01*
X131195674Y-91377352D01*
X130974317Y-91505152D01*
X130869292Y-91585740D01*
X131547374Y-92263821D01*
X131419350Y-92349365D01*
X131279365Y-92489350D01*
X131193822Y-92617374D01*
X130515740Y-91939292D01*
X130435152Y-92044317D01*
X130307352Y-92265674D01*
X130307349Y-92265680D01*
X130209524Y-92501848D01*
X130143363Y-92748764D01*
X130110000Y-93002187D01*
X128422252Y-93002187D01*
X128373344Y-92884112D01*
X128373338Y-92884103D01*
X128373337Y-92884099D01*
X128258613Y-92685391D01*
X128258608Y-92685384D01*
X128118926Y-92503347D01*
X128118907Y-92503326D01*
X127956673Y-92341092D01*
X127956652Y-92341073D01*
X127774615Y-92201391D01*
X127774608Y-92201386D01*
X127575900Y-92086662D01*
X127575892Y-92086658D01*
X127575888Y-92086656D01*
X127363887Y-91998842D01*
X127212501Y-91958278D01*
X127142231Y-91939450D01*
X126914736Y-91909500D01*
X126914734Y-91909500D01*
X126685266Y-91909500D01*
X126685263Y-91909500D01*
X126457768Y-91939450D01*
X126236113Y-91998842D01*
X126024110Y-92086657D01*
X126024099Y-92086662D01*
X125825391Y-92201386D01*
X125825384Y-92201391D01*
X125643347Y-92341073D01*
X125643326Y-92341092D01*
X125481092Y-92503326D01*
X125481073Y-92503347D01*
X125341391Y-92685384D01*
X125341386Y-92685391D01*
X125226662Y-92884099D01*
X125226657Y-92884110D01*
X125138842Y-93096113D01*
X125079450Y-93317768D01*
X125049500Y-93545263D01*
X97906488Y-93545263D01*
X97783961Y-93474522D01*
X97783953Y-93474518D01*
X97783949Y-93474516D01*
X97565893Y-93384194D01*
X97337914Y-93323107D01*
X97337907Y-93323105D01*
X97103913Y-93292300D01*
X97103911Y-93292300D01*
X96867889Y-93292300D01*
X96867886Y-93292300D01*
X96633892Y-93323105D01*
X96405911Y-93384193D01*
X96405907Y-93384194D01*
X96187849Y-93474517D01*
X96187838Y-93474522D01*
X95983453Y-93592524D01*
X95796201Y-93736208D01*
X95796190Y-93736217D01*
X95629317Y-93903090D01*
X95629308Y-93903101D01*
X95485624Y-94090353D01*
X95367622Y-94294738D01*
X95367617Y-94294749D01*
X95367616Y-94294751D01*
X95356865Y-94320706D01*
X95277294Y-94512807D01*
X95277293Y-94512811D01*
X95216205Y-94740792D01*
X95185400Y-94974786D01*
X86321186Y-94974786D01*
X86321186Y-93778107D01*
X86341188Y-93709986D01*
X86358091Y-93689012D01*
X88501732Y-91545372D01*
X89246384Y-90800719D01*
X89246390Y-90800713D01*
X89305699Y-90697986D01*
X89336400Y-90583409D01*
X89336400Y-86362786D01*
X89356402Y-86294665D01*
X89410058Y-86248172D01*
X89429783Y-86241081D01*
X89465893Y-86231406D01*
X89683949Y-86141084D01*
X89888350Y-86023073D01*
X90075599Y-85879392D01*
X90242492Y-85712499D01*
X90386173Y-85525250D01*
X90504184Y-85320849D01*
X90594506Y-85102793D01*
X90655593Y-84874814D01*
X90686400Y-84640811D01*
X90686400Y-84404789D01*
X90663533Y-84231100D01*
X90655594Y-84170792D01*
X90655593Y-84170790D01*
X90655593Y-84170786D01*
X90594506Y-83942807D01*
X90504184Y-83724751D01*
X90504178Y-83724742D01*
X90504177Y-83724738D01*
X90386175Y-83520353D01*
X90346468Y-83468606D01*
X90242492Y-83333101D01*
X90242486Y-83333095D01*
X90242482Y-83333090D01*
X90075609Y-83166217D01*
X90075603Y-83166212D01*
X90075599Y-83166208D01*
X89888350Y-83022527D01*
X89888349Y-83022526D01*
X89888346Y-83022524D01*
X89683961Y-82904522D01*
X89683953Y-82904518D01*
X89683949Y-82904516D01*
X89465893Y-82814194D01*
X89298991Y-82769472D01*
X89237907Y-82753105D01*
X89003913Y-82722300D01*
X89003911Y-82722300D01*
X88767889Y-82722300D01*
X88767886Y-82722300D01*
X88533892Y-82753105D01*
X88305911Y-82814193D01*
X88305907Y-82814194D01*
X88087849Y-82904517D01*
X88087838Y-82904522D01*
X87883453Y-83022524D01*
X87696201Y-83166208D01*
X87696190Y-83166217D01*
X87529317Y-83333090D01*
X87529308Y-83333101D01*
X87385624Y-83520353D01*
X87267622Y-83724738D01*
X87267617Y-83724749D01*
X87267616Y-83724751D01*
X87253468Y-83758907D01*
X87177294Y-83942807D01*
X87177293Y-83942811D01*
X87116205Y-84170792D01*
X87085400Y-84404786D01*
X87085400Y-84640813D01*
X87116205Y-84874807D01*
X87116207Y-84874814D01*
X87177294Y-85102793D01*
X87267616Y-85320849D01*
X87267617Y-85320850D01*
X87267622Y-85320861D01*
X87385624Y-85525246D01*
X87385626Y-85525249D01*
X87385627Y-85525250D01*
X87529308Y-85712499D01*
X87529312Y-85712503D01*
X87529317Y-85712509D01*
X87696190Y-85879382D01*
X87696195Y-85879386D01*
X87696201Y-85879392D01*
X87883450Y-86023073D01*
X87883453Y-86023075D01*
X88087838Y-86141077D01*
X88087842Y-86141078D01*
X88087851Y-86141084D01*
X88305907Y-86231406D01*
X88342011Y-86241080D01*
X88402633Y-86278030D01*
X88433655Y-86341890D01*
X88435400Y-86362786D01*
X88435400Y-90285306D01*
X88415398Y-90353427D01*
X88398495Y-90374401D01*
X85510202Y-93262693D01*
X85510194Y-93262703D01*
X85450886Y-93365427D01*
X85450887Y-93365428D01*
X85420186Y-93480006D01*
X85420186Y-99870374D01*
X85400184Y-99938495D01*
X85364188Y-99975139D01*
X85232908Y-100062857D01*
X85232901Y-100062863D01*
X85093549Y-100202215D01*
X85093544Y-100202222D01*
X84984054Y-100366085D01*
X84908636Y-100548161D01*
X84908635Y-100548164D01*
X84870186Y-100741455D01*
X84870186Y-100938544D01*
X84908635Y-101131835D01*
X84908636Y-101131838D01*
X84964326Y-101266286D01*
X84984054Y-101313914D01*
X85093547Y-101477782D01*
X85232904Y-101617139D01*
X85308697Y-101667782D01*
X85364188Y-101704860D01*
X85409716Y-101759337D01*
X85420186Y-101809625D01*
X85420186Y-104328623D01*
X85439926Y-104402297D01*
X85450885Y-104443198D01*
X85510194Y-104545924D01*
X85510202Y-104545934D01*
X87095671Y-106131402D01*
X87122985Y-106172279D01*
X87127950Y-106184266D01*
X87173368Y-106293914D01*
X87282861Y-106457782D01*
X87422218Y-106597139D01*
X87464531Y-106625412D01*
X87510058Y-106679887D01*
X87518907Y-106750330D01*
X87488266Y-106814374D01*
X87483624Y-106819271D01*
X85354516Y-108948379D01*
X85354508Y-108948389D01*
X85295199Y-109051114D01*
X85295201Y-109051115D01*
X85288503Y-109076112D01*
X85251551Y-109136734D01*
X85187690Y-109167756D01*
X85166796Y-109169500D01*
X84795249Y-109169500D01*
X84736771Y-109181132D01*
X84736768Y-109181133D01*
X84670448Y-109225448D01*
X84626133Y-109291768D01*
X84626132Y-109291771D01*
X84614500Y-109350249D01*
X84614500Y-109350252D01*
X84614500Y-111189748D01*
X84626133Y-111248231D01*
X84670448Y-111314552D01*
X84736769Y-111358867D01*
X84770191Y-111365515D01*
X84801324Y-111371708D01*
X84800885Y-111373912D01*
X84857360Y-111396716D01*
X84898371Y-111454670D01*
X84901539Y-111525596D01*
X84868275Y-111584622D01*
X83990300Y-112462596D01*
X83927990Y-112496620D01*
X83901207Y-112499500D01*
X80858793Y-112499500D01*
X80790672Y-112479498D01*
X80769698Y-112462595D01*
X79885292Y-111578189D01*
X79851266Y-111515877D01*
X79856331Y-111445062D01*
X79898878Y-111388226D01*
X79949806Y-111365515D01*
X79983231Y-111358867D01*
X80049552Y-111314552D01*
X80093867Y-111248231D01*
X80105500Y-111189748D01*
X80105500Y-109350252D01*
X80093867Y-109291769D01*
X80049552Y-109225448D01*
X79983231Y-109181133D01*
X79983228Y-109181132D01*
X79924750Y-109169500D01*
X79924748Y-109169500D01*
X78085252Y-109169500D01*
X78085249Y-109169500D01*
X78026771Y-109181132D01*
X78026768Y-109181133D01*
X77960448Y-109225448D01*
X77916133Y-109291768D01*
X77916132Y-109291771D01*
X77904500Y-109350249D01*
X77904500Y-109350252D01*
X77904500Y-111189748D01*
X77916133Y-111248231D01*
X77960448Y-111314552D01*
X78026769Y-111358867D01*
X78026771Y-111358867D01*
X78034464Y-111362054D01*
X78089744Y-111406604D01*
X78112163Y-111473968D01*
X78094603Y-111542758D01*
X78075338Y-111567557D01*
X76670300Y-112972596D01*
X76607990Y-113006620D01*
X76581207Y-113009500D01*
X73998793Y-113009500D01*
X73930672Y-112989498D01*
X73909698Y-112972595D01*
X72652405Y-111715302D01*
X72637460Y-111687933D01*
X72620604Y-111661705D01*
X72619698Y-111655406D01*
X72618379Y-111652990D01*
X72615500Y-111626207D01*
X72615500Y-111496500D01*
X72635502Y-111428379D01*
X72689158Y-111381886D01*
X72741500Y-111370500D01*
X73084747Y-111370500D01*
X73084748Y-111370500D01*
X73143231Y-111358867D01*
X73209552Y-111314552D01*
X73253867Y-111248231D01*
X73265500Y-111189748D01*
X73265500Y-109350252D01*
X73253867Y-109291769D01*
X73209552Y-109225448D01*
X73143231Y-109181133D01*
X73143228Y-109181132D01*
X73084750Y-109169500D01*
X73084748Y-109169500D01*
X71245252Y-109169500D01*
X71245249Y-109169500D01*
X71186771Y-109181132D01*
X71186768Y-109181133D01*
X71120448Y-109225448D01*
X71076133Y-109291768D01*
X71076132Y-109291771D01*
X71064500Y-109350249D01*
X71064500Y-109350252D01*
X71064500Y-111189748D01*
X71076133Y-111248231D01*
X71120448Y-111314552D01*
X71186769Y-111358867D01*
X71245252Y-111370500D01*
X71588500Y-111370500D01*
X71597325Y-111373091D01*
X71606432Y-111371782D01*
X71630857Y-111382937D01*
X71656621Y-111390502D01*
X71662645Y-111397455D01*
X71671012Y-111401276D01*
X71685526Y-111423861D01*
X71703114Y-111444158D01*
X71705438Y-111454844D01*
X71709396Y-111461002D01*
X71714500Y-111496500D01*
X71714500Y-111587584D01*
X71701114Y-111637550D01*
X71703362Y-111638481D01*
X71700200Y-111646114D01*
X71680908Y-111718113D01*
X71648298Y-111774596D01*
X70260302Y-113162595D01*
X70197989Y-113196620D01*
X70171206Y-113199500D01*
X66998793Y-113199500D01*
X66930672Y-113179498D01*
X66909698Y-113162595D01*
X65822405Y-112075302D01*
X65788379Y-112012990D01*
X65785500Y-111986207D01*
X65785500Y-111496500D01*
X65805502Y-111428379D01*
X65859158Y-111381886D01*
X65911500Y-111370500D01*
X66254747Y-111370500D01*
X66254748Y-111370500D01*
X66313231Y-111358867D01*
X66379552Y-111314552D01*
X66423867Y-111248231D01*
X66435500Y-111189748D01*
X66435500Y-109350252D01*
X66423867Y-109291769D01*
X66379552Y-109225448D01*
X66313231Y-109181133D01*
X66313228Y-109181132D01*
X66254750Y-109169500D01*
X66254748Y-109169500D01*
X64415252Y-109169500D01*
X64415249Y-109169500D01*
X64356771Y-109181132D01*
X64356768Y-109181133D01*
X64290448Y-109225448D01*
X64246133Y-109291768D01*
X64246132Y-109291771D01*
X64234500Y-109350249D01*
X64234500Y-109350252D01*
X64234500Y-111189748D01*
X64246133Y-111248231D01*
X64290448Y-111314552D01*
X64356769Y-111358867D01*
X64415252Y-111370500D01*
X64758500Y-111370500D01*
X64767325Y-111373091D01*
X64776432Y-111371782D01*
X64800857Y-111382937D01*
X64826621Y-111390502D01*
X64832645Y-111397455D01*
X64841012Y-111401276D01*
X64855526Y-111423861D01*
X64873114Y-111444158D01*
X64875438Y-111454844D01*
X64879396Y-111461002D01*
X64884500Y-111496500D01*
X64884500Y-111656206D01*
X64864498Y-111724327D01*
X64847595Y-111745301D01*
X63370302Y-113222595D01*
X63307990Y-113256620D01*
X63281207Y-113259500D01*
X60288793Y-113259500D01*
X60220672Y-113239498D01*
X60199698Y-113222595D01*
X58982405Y-112005302D01*
X58948379Y-111942990D01*
X58945500Y-111916207D01*
X58945500Y-111496500D01*
X58965502Y-111428379D01*
X59019158Y-111381886D01*
X59071500Y-111370500D01*
X59414747Y-111370500D01*
X59414748Y-111370500D01*
X59473231Y-111358867D01*
X59539552Y-111314552D01*
X59583867Y-111248231D01*
X59595500Y-111189748D01*
X59595500Y-110183389D01*
X59934500Y-110183389D01*
X59934500Y-110356611D01*
X59961598Y-110527701D01*
X60015127Y-110692445D01*
X60015128Y-110692448D01*
X60015130Y-110692452D01*
X60093768Y-110846788D01*
X60195587Y-110986930D01*
X60318069Y-111109412D01*
X60319788Y-111110661D01*
X60458212Y-111211232D01*
X60612555Y-111289873D01*
X60777299Y-111343402D01*
X60948389Y-111370500D01*
X60948392Y-111370500D01*
X61121608Y-111370500D01*
X61121611Y-111370500D01*
X61292701Y-111343402D01*
X61457445Y-111289873D01*
X61611788Y-111211232D01*
X61751928Y-111109414D01*
X61874414Y-110986928D01*
X61976232Y-110846788D01*
X62054873Y-110692445D01*
X62108402Y-110527701D01*
X62135500Y-110356611D01*
X62135500Y-110183389D01*
X62108402Y-110012299D01*
X62054873Y-109847555D01*
X61976232Y-109693212D01*
X61874414Y-109553072D01*
X61874412Y-109553069D01*
X61751930Y-109430587D01*
X61611790Y-109328769D01*
X61580321Y-109312735D01*
X61554296Y-109299474D01*
X61502682Y-109250726D01*
X61485500Y-109187208D01*
X61485500Y-106656500D01*
X61505502Y-106588379D01*
X61559158Y-106541886D01*
X61611500Y-106530500D01*
X61634264Y-106530500D01*
X61634266Y-106530500D01*
X61664699Y-106527646D01*
X61792882Y-106482793D01*
X61882528Y-106416632D01*
X61902150Y-106402150D01*
X61982791Y-106292885D01*
X61982793Y-106292881D01*
X62009072Y-106217782D01*
X62027646Y-106164699D01*
X62030500Y-106134266D01*
X62030500Y-105431455D01*
X62569500Y-105431455D01*
X62569500Y-105628544D01*
X62607949Y-105821835D01*
X62607950Y-105821838D01*
X62628661Y-105871838D01*
X62683368Y-106003914D01*
X62792861Y-106167782D01*
X62932218Y-106307139D01*
X63096086Y-106416632D01*
X63278165Y-106492051D01*
X63471459Y-106530500D01*
X63668541Y-106530500D01*
X63861835Y-106492051D01*
X64043914Y-106416632D01*
X64207782Y-106307139D01*
X64347139Y-106167782D01*
X64434860Y-106036497D01*
X64489337Y-105990970D01*
X64539625Y-105980500D01*
X66347815Y-105980500D01*
X66415936Y-106000502D01*
X66462429Y-106054158D01*
X66473815Y-106106500D01*
X66473815Y-106134266D01*
X66476669Y-106164700D01*
X66476670Y-106164704D01*
X66521521Y-106292881D01*
X66521523Y-106292885D01*
X66602164Y-106402150D01*
X66711429Y-106482791D01*
X66711433Y-106482793D01*
X66839616Y-106527646D01*
X66870049Y-106530500D01*
X67298500Y-106530500D01*
X67366621Y-106550502D01*
X67413114Y-106604158D01*
X67424500Y-106656500D01*
X67424500Y-109187208D01*
X67404498Y-109255329D01*
X67355703Y-109299475D01*
X67298209Y-109328769D01*
X67158069Y-109430587D01*
X67035587Y-109553069D01*
X66933768Y-109693211D01*
X66855130Y-109847547D01*
X66855127Y-109847553D01*
X66855127Y-109847555D01*
X66801598Y-110012299D01*
X66774500Y-110183389D01*
X66774500Y-110356611D01*
X66801598Y-110527701D01*
X66855127Y-110692445D01*
X66855128Y-110692448D01*
X66855130Y-110692452D01*
X66933768Y-110846788D01*
X67035587Y-110986930D01*
X67158069Y-111109412D01*
X67159788Y-111110661D01*
X67298212Y-111211232D01*
X67452555Y-111289873D01*
X67617299Y-111343402D01*
X67788389Y-111370500D01*
X67788392Y-111370500D01*
X67961608Y-111370500D01*
X67961611Y-111370500D01*
X68132701Y-111343402D01*
X68297445Y-111289873D01*
X68451788Y-111211232D01*
X68591928Y-111109414D01*
X68714414Y-110986928D01*
X68816232Y-110846788D01*
X68894873Y-110692445D01*
X68948402Y-110527701D01*
X68975500Y-110356611D01*
X68975500Y-110183389D01*
X68948402Y-110012299D01*
X68894873Y-109847555D01*
X68816232Y-109693212D01*
X68714414Y-109553072D01*
X68714412Y-109553069D01*
X68591930Y-109430587D01*
X68451790Y-109328769D01*
X68420321Y-109312735D01*
X68394296Y-109299474D01*
X68342682Y-109250726D01*
X68325500Y-109187208D01*
X68325500Y-106472018D01*
X68345502Y-106403897D01*
X68350121Y-106397197D01*
X68427106Y-106292885D01*
X68427108Y-106292881D01*
X68453387Y-106217782D01*
X68471961Y-106164699D01*
X68474815Y-106134266D01*
X68474815Y-105431455D01*
X69013815Y-105431455D01*
X69013815Y-105628544D01*
X69052264Y-105821835D01*
X69052265Y-105821838D01*
X69072976Y-105871838D01*
X69127683Y-106003914D01*
X69237176Y-106167782D01*
X69376533Y-106307139D01*
X69540401Y-106416632D01*
X69722480Y-106492051D01*
X69915774Y-106530500D01*
X70112856Y-106530500D01*
X70306150Y-106492051D01*
X70488229Y-106416632D01*
X70652097Y-106307139D01*
X70656145Y-106303091D01*
X70718457Y-106269065D01*
X70745240Y-106266186D01*
X73523500Y-106266186D01*
X73591621Y-106286188D01*
X73638114Y-106339844D01*
X73649500Y-106392186D01*
X73649500Y-106419952D01*
X73652354Y-106450386D01*
X73652355Y-106450390D01*
X73697206Y-106578567D01*
X73697208Y-106578571D01*
X73777849Y-106687836D01*
X73887114Y-106768477D01*
X73887118Y-106768479D01*
X74015301Y-106813332D01*
X74045734Y-106816186D01*
X74073500Y-106816186D01*
X74141621Y-106836188D01*
X74188114Y-106889844D01*
X74199500Y-106942186D01*
X74199500Y-109215232D01*
X74179498Y-109283353D01*
X74132333Y-109326024D01*
X74132430Y-109326183D01*
X74131588Y-109326698D01*
X74130706Y-109327497D01*
X74128211Y-109328767D01*
X73988069Y-109430587D01*
X73865587Y-109553069D01*
X73763768Y-109693211D01*
X73685130Y-109847547D01*
X73685127Y-109847553D01*
X73685127Y-109847555D01*
X73631598Y-110012299D01*
X73604500Y-110183389D01*
X73604500Y-110356611D01*
X73631598Y-110527701D01*
X73685127Y-110692445D01*
X73685128Y-110692448D01*
X73685130Y-110692452D01*
X73763768Y-110846788D01*
X73865587Y-110986930D01*
X73988069Y-111109412D01*
X73989788Y-111110661D01*
X74128212Y-111211232D01*
X74282555Y-111289873D01*
X74447299Y-111343402D01*
X74618389Y-111370500D01*
X74618392Y-111370500D01*
X74791608Y-111370500D01*
X74791611Y-111370500D01*
X74962701Y-111343402D01*
X75127445Y-111289873D01*
X75281788Y-111211232D01*
X75421928Y-111109414D01*
X75544414Y-110986928D01*
X75646232Y-110846788D01*
X75724873Y-110692445D01*
X75778402Y-110527701D01*
X75805500Y-110356611D01*
X75805500Y-110183389D01*
X75778402Y-110012299D01*
X75724873Y-109847555D01*
X75646232Y-109693212D01*
X75544414Y-109553072D01*
X75544412Y-109553069D01*
X75421930Y-109430587D01*
X75281790Y-109328769D01*
X75169297Y-109271451D01*
X75117682Y-109222702D01*
X75100500Y-109159184D01*
X75100500Y-106942186D01*
X75120502Y-106874065D01*
X75174158Y-106827572D01*
X75226500Y-106816186D01*
X75254264Y-106816186D01*
X75254266Y-106816186D01*
X75284699Y-106813332D01*
X75412882Y-106768479D01*
X75522150Y-106687836D01*
X75602793Y-106578568D01*
X75647646Y-106450385D01*
X75650500Y-106419952D01*
X75650500Y-105481455D01*
X77865186Y-105481455D01*
X77865186Y-105678544D01*
X77885094Y-105778624D01*
X77903635Y-105871835D01*
X77979054Y-106053914D01*
X78088547Y-106217782D01*
X78227904Y-106357139D01*
X78391772Y-106466632D01*
X78573851Y-106542051D01*
X78767145Y-106580500D01*
X78964227Y-106580500D01*
X79157521Y-106542051D01*
X79339600Y-106466632D01*
X79503468Y-106357139D01*
X79642825Y-106217782D01*
X79752318Y-106053914D01*
X79827737Y-105871835D01*
X79866186Y-105678541D01*
X79866186Y-105481459D01*
X79835382Y-105326599D01*
X79841710Y-105255886D01*
X79869866Y-105212923D01*
X80190091Y-104892698D01*
X80252403Y-104858672D01*
X80323218Y-104863737D01*
X80380054Y-104906284D01*
X80404865Y-104972804D01*
X80405186Y-104981793D01*
X80405186Y-106184266D01*
X80408040Y-106214700D01*
X80408041Y-106214704D01*
X80452892Y-106342881D01*
X80452894Y-106342885D01*
X80533535Y-106452150D01*
X80642800Y-106532791D01*
X80642804Y-106532793D01*
X80716593Y-106558613D01*
X80770987Y-106577646D01*
X80801420Y-106580500D01*
X80968500Y-106580500D01*
X81036621Y-106600502D01*
X81083114Y-106654158D01*
X81094500Y-106706500D01*
X81094500Y-109187208D01*
X81074498Y-109255329D01*
X81025703Y-109299475D01*
X80968209Y-109328769D01*
X80828069Y-109430587D01*
X80705587Y-109553069D01*
X80603768Y-109693211D01*
X80525130Y-109847547D01*
X80525127Y-109847553D01*
X80525127Y-109847555D01*
X80471598Y-110012299D01*
X80444500Y-110183389D01*
X80444500Y-110356611D01*
X80471598Y-110527701D01*
X80525127Y-110692445D01*
X80525128Y-110692448D01*
X80525130Y-110692452D01*
X80603768Y-110846788D01*
X80705587Y-110986930D01*
X80828069Y-111109412D01*
X80829788Y-111110661D01*
X80968212Y-111211232D01*
X81122555Y-111289873D01*
X81287299Y-111343402D01*
X81458389Y-111370500D01*
X81458392Y-111370500D01*
X81631608Y-111370500D01*
X81631611Y-111370500D01*
X81802701Y-111343402D01*
X81967445Y-111289873D01*
X82121788Y-111211232D01*
X82261928Y-111109414D01*
X82384414Y-110986928D01*
X82486232Y-110846788D01*
X82564873Y-110692445D01*
X82618402Y-110527701D01*
X82645500Y-110356611D01*
X82645500Y-110183389D01*
X82618402Y-110012299D01*
X82564873Y-109847555D01*
X82486232Y-109693212D01*
X82384414Y-109553072D01*
X82384412Y-109553069D01*
X82261930Y-109430587D01*
X82121790Y-109328769D01*
X82090321Y-109312735D01*
X82064296Y-109299474D01*
X82012682Y-109250726D01*
X81995500Y-109187208D01*
X81995500Y-106682754D01*
X82015502Y-106614633D01*
X82069158Y-106568140D01*
X82079885Y-106563825D01*
X82142116Y-106542049D01*
X82168568Y-106532793D01*
X82171677Y-106530499D01*
X82277836Y-106452150D01*
X82358477Y-106342885D01*
X82358479Y-106342881D01*
X82363219Y-106329337D01*
X82403332Y-106214699D01*
X82406186Y-106184266D01*
X82406186Y-104975734D01*
X82403332Y-104945301D01*
X82402714Y-104943536D01*
X82358479Y-104817118D01*
X82358477Y-104817114D01*
X82277836Y-104707849D01*
X82168571Y-104627208D01*
X82168567Y-104627206D01*
X82040390Y-104582355D01*
X82040386Y-104582354D01*
X82009952Y-104579500D01*
X80801420Y-104579500D01*
X80801419Y-104579500D01*
X80770985Y-104582354D01*
X80770981Y-104582355D01*
X80642804Y-104627206D01*
X80642800Y-104627208D01*
X80533537Y-104707848D01*
X80507879Y-104742614D01*
X80451334Y-104785546D01*
X80380554Y-104791092D01*
X80318012Y-104757491D01*
X80283564Y-104695412D01*
X80280500Y-104667792D01*
X80280500Y-104292324D01*
X80284795Y-104259708D01*
X80286005Y-104255193D01*
X80304814Y-104184997D01*
X80304815Y-104184992D01*
X80304815Y-103759625D01*
X80324817Y-103691504D01*
X80360813Y-103654860D01*
X80388777Y-103636175D01*
X80492097Y-103567139D01*
X80631454Y-103427782D01*
X80740947Y-103263914D01*
X80816366Y-103081835D01*
X80854815Y-102888541D01*
X80854815Y-102691459D01*
X80816366Y-102498165D01*
X80740947Y-102316086D01*
X80631454Y-102152218D01*
X80492097Y-102012861D01*
X80328229Y-101903368D01*
X80325288Y-101902150D01*
X80146153Y-101827950D01*
X80146150Y-101827949D01*
X79952859Y-101789500D01*
X79952856Y-101789500D01*
X79755774Y-101789500D01*
X79755770Y-101789500D01*
X79562479Y-101827949D01*
X79562476Y-101827950D01*
X79380400Y-101903368D01*
X79216537Y-102012858D01*
X79216530Y-102012863D01*
X79077178Y-102152215D01*
X79077173Y-102152222D01*
X78967683Y-102316085D01*
X78892265Y-102498161D01*
X78892264Y-102498164D01*
X78853815Y-102691455D01*
X78853815Y-102888544D01*
X78881587Y-103028161D01*
X78892264Y-103081835D01*
X78967683Y-103263914D01*
X79077176Y-103427782D01*
X79216533Y-103567139D01*
X79319853Y-103636175D01*
X79347817Y-103654860D01*
X79352990Y-103661050D01*
X79360327Y-103664401D01*
X79375427Y-103687897D01*
X79393345Y-103709337D01*
X79395328Y-103718863D01*
X79398711Y-103724127D01*
X79403815Y-103759625D01*
X79403815Y-103983356D01*
X79399522Y-104015966D01*
X79379500Y-104090690D01*
X79379500Y-104376891D01*
X79370714Y-104406811D01*
X79364087Y-104437277D01*
X79360273Y-104442371D01*
X79359498Y-104445012D01*
X79342595Y-104465987D01*
X79232761Y-104575820D01*
X79170449Y-104609845D01*
X79119084Y-104610303D01*
X78964230Y-104579500D01*
X78964227Y-104579500D01*
X78767145Y-104579500D01*
X78767141Y-104579500D01*
X78573850Y-104617949D01*
X78573847Y-104617950D01*
X78391771Y-104693368D01*
X78227908Y-104802858D01*
X78227901Y-104802863D01*
X78088549Y-104942215D01*
X78088544Y-104942222D01*
X77979054Y-105106085D01*
X77903636Y-105288161D01*
X77903635Y-105288164D01*
X77865186Y-105481455D01*
X75650500Y-105481455D01*
X75650500Y-105211420D01*
X75647646Y-105180987D01*
X75602793Y-105052804D01*
X75602791Y-105052800D01*
X75522150Y-104943535D01*
X75412885Y-104862894D01*
X75412881Y-104862892D01*
X75284704Y-104818041D01*
X75284700Y-104818040D01*
X75254266Y-104815186D01*
X74045734Y-104815186D01*
X74045733Y-104815186D01*
X74015299Y-104818040D01*
X74015295Y-104818041D01*
X73887118Y-104862892D01*
X73887114Y-104862894D01*
X73777849Y-104943535D01*
X73697208Y-105052800D01*
X73697206Y-105052804D01*
X73652355Y-105180981D01*
X73652354Y-105180985D01*
X73649500Y-105211419D01*
X73649500Y-105239186D01*
X73629498Y-105307307D01*
X73575842Y-105353800D01*
X73523500Y-105365186D01*
X71105037Y-105365186D01*
X71036916Y-105345184D01*
X70990423Y-105291528D01*
X70981459Y-105263771D01*
X70976366Y-105238165D01*
X70900947Y-105056086D01*
X70791454Y-104892218D01*
X70652097Y-104752861D01*
X70488229Y-104643368D01*
X70306153Y-104567950D01*
X70306150Y-104567949D01*
X70112859Y-104529500D01*
X70112856Y-104529500D01*
X69915774Y-104529500D01*
X69915770Y-104529500D01*
X69722479Y-104567949D01*
X69722476Y-104567950D01*
X69540400Y-104643368D01*
X69376537Y-104752858D01*
X69376530Y-104752863D01*
X69237178Y-104892215D01*
X69237173Y-104892222D01*
X69127683Y-105056085D01*
X69052265Y-105238161D01*
X69052264Y-105238164D01*
X69013815Y-105431455D01*
X68474815Y-105431455D01*
X68474815Y-104925734D01*
X68471961Y-104895301D01*
X68427108Y-104767118D01*
X68427106Y-104767114D01*
X68346465Y-104657849D01*
X68237200Y-104577208D01*
X68237196Y-104577206D01*
X68109019Y-104532355D01*
X68109015Y-104532354D01*
X68078581Y-104529500D01*
X66870049Y-104529500D01*
X66870048Y-104529500D01*
X66839614Y-104532354D01*
X66839610Y-104532355D01*
X66711433Y-104577206D01*
X66711429Y-104577208D01*
X66602164Y-104657849D01*
X66521523Y-104767114D01*
X66521521Y-104767118D01*
X66476670Y-104895295D01*
X66476669Y-104895299D01*
X66473815Y-104925733D01*
X66473815Y-104953500D01*
X66453813Y-105021621D01*
X66400157Y-105068114D01*
X66347815Y-105079500D01*
X64539625Y-105079500D01*
X64471504Y-105059498D01*
X64434860Y-105023502D01*
X64409316Y-104985273D01*
X64347139Y-104892218D01*
X64207782Y-104752861D01*
X64043914Y-104643368D01*
X63861838Y-104567950D01*
X63861835Y-104567949D01*
X63668544Y-104529500D01*
X63668541Y-104529500D01*
X63471459Y-104529500D01*
X63471455Y-104529500D01*
X63278164Y-104567949D01*
X63278161Y-104567950D01*
X63096085Y-104643368D01*
X62932222Y-104752858D01*
X62932215Y-104752863D01*
X62792863Y-104892215D01*
X62792858Y-104892222D01*
X62683368Y-105056085D01*
X62607950Y-105238161D01*
X62607949Y-105238164D01*
X62569500Y-105431455D01*
X62030500Y-105431455D01*
X62030500Y-104925734D01*
X62027646Y-104895301D01*
X61982793Y-104767118D01*
X61982791Y-104767114D01*
X61902150Y-104657849D01*
X61792885Y-104577208D01*
X61792881Y-104577206D01*
X61664704Y-104532355D01*
X61664700Y-104532354D01*
X61634266Y-104529500D01*
X60425734Y-104529500D01*
X60425733Y-104529500D01*
X60395299Y-104532354D01*
X60395295Y-104532355D01*
X60267118Y-104577206D01*
X60267114Y-104577208D01*
X60157849Y-104657849D01*
X60077208Y-104767114D01*
X60077206Y-104767118D01*
X60032355Y-104895295D01*
X60032354Y-104895299D01*
X60029500Y-104925733D01*
X60029500Y-106134266D01*
X60032354Y-106164700D01*
X60032355Y-106164704D01*
X60077206Y-106292881D01*
X60077208Y-106292885D01*
X60157849Y-106402150D01*
X60267114Y-106482791D01*
X60267118Y-106482793D01*
X60395301Y-106527646D01*
X60425734Y-106530500D01*
X60458500Y-106530500D01*
X60526621Y-106550502D01*
X60573114Y-106604158D01*
X60584500Y-106656500D01*
X60584500Y-109187208D01*
X60564498Y-109255329D01*
X60515703Y-109299475D01*
X60458209Y-109328769D01*
X60318069Y-109430587D01*
X60195587Y-109553069D01*
X60093768Y-109693211D01*
X60015130Y-109847547D01*
X60015127Y-109847553D01*
X60015127Y-109847555D01*
X59961598Y-110012299D01*
X59934500Y-110183389D01*
X59595500Y-110183389D01*
X59595500Y-109350252D01*
X59583867Y-109291769D01*
X59539552Y-109225448D01*
X59473231Y-109181133D01*
X59473228Y-109181132D01*
X59414750Y-109169500D01*
X59414748Y-109169500D01*
X57575252Y-109169500D01*
X57575249Y-109169500D01*
X57516771Y-109181132D01*
X57516768Y-109181133D01*
X57450448Y-109225448D01*
X57406133Y-109291768D01*
X57406132Y-109291771D01*
X57394500Y-109350249D01*
X49494903Y-109350249D01*
X49494925Y-109343647D01*
X49500000Y-107802399D01*
X46790479Y-107792401D01*
X46789678Y-107792396D01*
X40704452Y-107731250D01*
X40636536Y-107710564D01*
X40590584Y-107656444D01*
X40579718Y-107605541D01*
X40578470Y-107053882D01*
X40569697Y-103177141D01*
X73649500Y-103177141D01*
X73649500Y-103374230D01*
X73687949Y-103567521D01*
X73687950Y-103567524D01*
X73716385Y-103636172D01*
X73763368Y-103749600D01*
X73872861Y-103913468D01*
X74012218Y-104052825D01*
X74176086Y-104162318D01*
X74358165Y-104237737D01*
X74551459Y-104276186D01*
X74748541Y-104276186D01*
X74941835Y-104237737D01*
X75123914Y-104162318D01*
X75287782Y-104052825D01*
X75427139Y-103913468D01*
X75514860Y-103782183D01*
X75569337Y-103736656D01*
X75619625Y-103726186D01*
X75813621Y-103726186D01*
X75813623Y-103726186D01*
X75913216Y-103699500D01*
X75928201Y-103695485D01*
X76030928Y-103636175D01*
X76155625Y-103511477D01*
X76217935Y-103477454D01*
X76288751Y-103482518D01*
X76345587Y-103525065D01*
X76356214Y-103545009D01*
X76357111Y-103544536D01*
X76361523Y-103552885D01*
X76442164Y-103662150D01*
X76551429Y-103742791D01*
X76551433Y-103742793D01*
X76660885Y-103781092D01*
X76679616Y-103787646D01*
X76710049Y-103790500D01*
X76710051Y-103790500D01*
X77918579Y-103790500D01*
X77918581Y-103790500D01*
X77949014Y-103787646D01*
X78077197Y-103742793D01*
X78085513Y-103736656D01*
X78186465Y-103662150D01*
X78267106Y-103552885D01*
X78267108Y-103552881D01*
X78276283Y-103526662D01*
X78311961Y-103424699D01*
X78314815Y-103394266D01*
X78314815Y-102185734D01*
X78311961Y-102155301D01*
X78267108Y-102027118D01*
X78267106Y-102027114D01*
X78186465Y-101917849D01*
X78077200Y-101837208D01*
X78077196Y-101837206D01*
X77949019Y-101792355D01*
X77949015Y-101792354D01*
X77918581Y-101789500D01*
X76710049Y-101789500D01*
X76710048Y-101789500D01*
X76679614Y-101792354D01*
X76679610Y-101792355D01*
X76551433Y-101837206D01*
X76551429Y-101837208D01*
X76442164Y-101917849D01*
X76361523Y-102027114D01*
X76361521Y-102027118D01*
X76316670Y-102155295D01*
X76316669Y-102155299D01*
X76313815Y-102185733D01*
X76313815Y-102213500D01*
X76293813Y-102281621D01*
X76240157Y-102328114D01*
X76187815Y-102339500D01*
X76180690Y-102339500D01*
X76090325Y-102363713D01*
X76090324Y-102363712D01*
X76066115Y-102370199D01*
X75963387Y-102429509D01*
X75963379Y-102429515D01*
X75667021Y-102725874D01*
X75604709Y-102759900D01*
X75533894Y-102754835D01*
X75477058Y-102712288D01*
X75473161Y-102706781D01*
X75462923Y-102691459D01*
X75427139Y-102637904D01*
X75287782Y-102498547D01*
X75123914Y-102389054D01*
X74941838Y-102313636D01*
X74941835Y-102313635D01*
X74748544Y-102275186D01*
X74748541Y-102275186D01*
X74551459Y-102275186D01*
X74551455Y-102275186D01*
X74358164Y-102313635D01*
X74358161Y-102313636D01*
X74176085Y-102389054D01*
X74012222Y-102498544D01*
X74012215Y-102498549D01*
X73872863Y-102637901D01*
X73872858Y-102637908D01*
X73763368Y-102801771D01*
X73687950Y-102983847D01*
X73687949Y-102983850D01*
X73649500Y-103177141D01*
X40569697Y-103177141D01*
X40540522Y-90285306D01*
X40534209Y-87495263D01*
X44659500Y-87495263D01*
X44659500Y-87724736D01*
X44689450Y-87952231D01*
X44689452Y-87952238D01*
X44748842Y-88173887D01*
X44836656Y-88385888D01*
X44836657Y-88385889D01*
X44836662Y-88385900D01*
X44951386Y-88584608D01*
X44951391Y-88584615D01*
X45091073Y-88766652D01*
X45091092Y-88766673D01*
X45253326Y-88928907D01*
X45253347Y-88928926D01*
X45435384Y-89068608D01*
X45435391Y-89068613D01*
X45634099Y-89183337D01*
X45634103Y-89183338D01*
X45634112Y-89183344D01*
X45846113Y-89271158D01*
X46067762Y-89330548D01*
X46067766Y-89330548D01*
X46067768Y-89330549D01*
X46126398Y-89338267D01*
X46295266Y-89360500D01*
X46295273Y-89360500D01*
X46524727Y-89360500D01*
X46524734Y-89360500D01*
X46730345Y-89333430D01*
X46752231Y-89330549D01*
X46752231Y-89330548D01*
X46752238Y-89330548D01*
X46973887Y-89271158D01*
X47185888Y-89183344D01*
X47384612Y-89068611D01*
X47566661Y-88928919D01*
X47728919Y-88766661D01*
X47868611Y-88584612D01*
X47983344Y-88385888D01*
X48071158Y-88173887D01*
X48130548Y-87952238D01*
X48160500Y-87724734D01*
X48160500Y-87495266D01*
X48160500Y-87495263D01*
X51849500Y-87495263D01*
X51849500Y-87724736D01*
X51879450Y-87952231D01*
X51879452Y-87952238D01*
X51938842Y-88173887D01*
X52026656Y-88385888D01*
X52026657Y-88385889D01*
X52026662Y-88385900D01*
X52141386Y-88584608D01*
X52141391Y-88584615D01*
X52281073Y-88766652D01*
X52281092Y-88766673D01*
X52443326Y-88928907D01*
X52443347Y-88928926D01*
X52625384Y-89068608D01*
X52625391Y-89068613D01*
X52824099Y-89183337D01*
X52824103Y-89183338D01*
X52824112Y-89183344D01*
X53036113Y-89271158D01*
X53257762Y-89330548D01*
X53257766Y-89330548D01*
X53257768Y-89330549D01*
X53316398Y-89338267D01*
X53485266Y-89360500D01*
X53485273Y-89360500D01*
X53714727Y-89360500D01*
X53714734Y-89360500D01*
X53920345Y-89333430D01*
X53942231Y-89330549D01*
X53942231Y-89330548D01*
X53942238Y-89330548D01*
X54163887Y-89271158D01*
X54375888Y-89183344D01*
X54574612Y-89068611D01*
X54756661Y-88928919D01*
X54918919Y-88766661D01*
X55058611Y-88584612D01*
X55173344Y-88385888D01*
X55261158Y-88173887D01*
X55320548Y-87952238D01*
X55350500Y-87724734D01*
X55350500Y-87495266D01*
X55343421Y-87441494D01*
X57789500Y-87441494D01*
X57789500Y-87778505D01*
X57827233Y-88113398D01*
X57871590Y-88307737D01*
X57902224Y-88441954D01*
X57902226Y-88441960D01*
X57902225Y-88441960D01*
X58013524Y-88760033D01*
X58013535Y-88760060D01*
X58159751Y-89063681D01*
X58159756Y-89063690D01*
X58339051Y-89349036D01*
X58549177Y-89612526D01*
X58787473Y-89850822D01*
X59050963Y-90060948D01*
X59336309Y-90240243D01*
X59336314Y-90240246D01*
X59639949Y-90386469D01*
X59639965Y-90386474D01*
X59639966Y-90386475D01*
X59958039Y-90497774D01*
X59958042Y-90497774D01*
X59958046Y-90497776D01*
X60201239Y-90553282D01*
X60286601Y-90572766D01*
X60286602Y-90572766D01*
X60286606Y-90572767D01*
X60507492Y-90597654D01*
X60621494Y-90610500D01*
X60621496Y-90610500D01*
X60958506Y-90610500D01*
X61055925Y-90599523D01*
X61293394Y-90572767D01*
X61621954Y-90497776D01*
X61940051Y-90386469D01*
X62243686Y-90240246D01*
X62529039Y-90060946D01*
X62792523Y-89850825D01*
X63030825Y-89612523D01*
X63240946Y-89349039D01*
X63249362Y-89335646D01*
X63299898Y-89255218D01*
X63420246Y-89063686D01*
X63566469Y-88760051D01*
X63677776Y-88441954D01*
X63752767Y-88113394D01*
X63776226Y-87905192D01*
X63803730Y-87839739D01*
X63862254Y-87799546D01*
X63901434Y-87793300D01*
X83655913Y-87793300D01*
X83724034Y-87813302D01*
X83770527Y-87866958D01*
X83777618Y-87886683D01*
X83787294Y-87922793D01*
X83877616Y-88140849D01*
X83877617Y-88140850D01*
X83877622Y-88140861D01*
X83995624Y-88345246D01*
X83995626Y-88345249D01*
X83995627Y-88345250D01*
X84139308Y-88532499D01*
X84139312Y-88532503D01*
X84139317Y-88532509D01*
X84306190Y-88699382D01*
X84306195Y-88699386D01*
X84306201Y-88699392D01*
X84493450Y-88843073D01*
X84493453Y-88843075D01*
X84697838Y-88961077D01*
X84697842Y-88961078D01*
X84697851Y-88961084D01*
X84915907Y-89051406D01*
X85143886Y-89112493D01*
X85143890Y-89112493D01*
X85143892Y-89112494D01*
X85204200Y-89120433D01*
X85377889Y-89143300D01*
X85377896Y-89143300D01*
X85613904Y-89143300D01*
X85613911Y-89143300D01*
X85825391Y-89115458D01*
X85847907Y-89112494D01*
X85847907Y-89112493D01*
X85847914Y-89112493D01*
X86075893Y-89051406D01*
X86293949Y-88961084D01*
X86498350Y-88843073D01*
X86685599Y-88699392D01*
X86852492Y-88532499D01*
X86996173Y-88345250D01*
X87114184Y-88140849D01*
X87204506Y-87922793D01*
X87265593Y-87694814D01*
X87296400Y-87460811D01*
X87296400Y-87224789D01*
X87265593Y-86990786D01*
X87204506Y-86762807D01*
X87114184Y-86544751D01*
X87114178Y-86544742D01*
X87114177Y-86544738D01*
X86996175Y-86340353D01*
X86996173Y-86340350D01*
X86852492Y-86153101D01*
X86852486Y-86153095D01*
X86852482Y-86153090D01*
X86685609Y-85986217D01*
X86685603Y-85986212D01*
X86685599Y-85986208D01*
X86498350Y-85842527D01*
X86498349Y-85842526D01*
X86498346Y-85842524D01*
X86293961Y-85724522D01*
X86293953Y-85724518D01*
X86293949Y-85724516D01*
X86075893Y-85634194D01*
X85847914Y-85573107D01*
X85847907Y-85573105D01*
X85613913Y-85542300D01*
X85613911Y-85542300D01*
X85377889Y-85542300D01*
X85377886Y-85542300D01*
X85143892Y-85573105D01*
X84979113Y-85617258D01*
X84915907Y-85634194D01*
X84726839Y-85712509D01*
X84697849Y-85724517D01*
X84697838Y-85724522D01*
X84493453Y-85842524D01*
X84306201Y-85986208D01*
X84306190Y-85986217D01*
X84139317Y-86153090D01*
X84139308Y-86153101D01*
X83995624Y-86340353D01*
X83877622Y-86544738D01*
X83877617Y-86544749D01*
X83877616Y-86544751D01*
X83787294Y-86762807D01*
X83778846Y-86794337D01*
X83777620Y-86798912D01*
X83740668Y-86859534D01*
X83676807Y-86890556D01*
X83655913Y-86892300D01*
X63804335Y-86892300D01*
X63736214Y-86872298D01*
X63689721Y-86818642D01*
X63681494Y-86794337D01*
X63677776Y-86778046D01*
X63671618Y-86760448D01*
X63566475Y-86459966D01*
X63566474Y-86459965D01*
X63566469Y-86459949D01*
X63420246Y-86156314D01*
X63417153Y-86151391D01*
X63240948Y-85870963D01*
X63030822Y-85607473D01*
X62792526Y-85369177D01*
X62529036Y-85159051D01*
X62243690Y-84979756D01*
X62243681Y-84979751D01*
X61940060Y-84833535D01*
X61940055Y-84833533D01*
X61940051Y-84833531D01*
X61940045Y-84833528D01*
X61940033Y-84833524D01*
X61621960Y-84722225D01*
X61293398Y-84647233D01*
X60958506Y-84609500D01*
X60958504Y-84609500D01*
X60621496Y-84609500D01*
X60621494Y-84609500D01*
X60286601Y-84647233D01*
X59958039Y-84722225D01*
X59639966Y-84833524D01*
X59639939Y-84833535D01*
X59336318Y-84979751D01*
X59336309Y-84979756D01*
X59050963Y-85159051D01*
X58787473Y-85369177D01*
X58549177Y-85607473D01*
X58339051Y-85870963D01*
X58159756Y-86156309D01*
X58159751Y-86156318D01*
X58013535Y-86459939D01*
X58013524Y-86459966D01*
X57902225Y-86778039D01*
X57827233Y-87106601D01*
X57789500Y-87441494D01*
X55343421Y-87441494D01*
X55320548Y-87267762D01*
X55261158Y-87046113D01*
X55173344Y-86834112D01*
X55173338Y-86834103D01*
X55173337Y-86834099D01*
X55058613Y-86635391D01*
X55058608Y-86635384D01*
X54918926Y-86453347D01*
X54918907Y-86453326D01*
X54756673Y-86291092D01*
X54756652Y-86291073D01*
X54574615Y-86151391D01*
X54574608Y-86151386D01*
X54375900Y-86036662D01*
X54375892Y-86036658D01*
X54375888Y-86036656D01*
X54163887Y-85948842D01*
X53942238Y-85889452D01*
X53942231Y-85889450D01*
X53714736Y-85859500D01*
X53714734Y-85859500D01*
X53485266Y-85859500D01*
X53485263Y-85859500D01*
X53257768Y-85889450D01*
X53036113Y-85948842D01*
X52856900Y-86023075D01*
X52824110Y-86036657D01*
X52824099Y-86036662D01*
X52625391Y-86151386D01*
X52625384Y-86151391D01*
X52443347Y-86291073D01*
X52443326Y-86291092D01*
X52281092Y-86453326D01*
X52281073Y-86453347D01*
X52141391Y-86635384D01*
X52141386Y-86635391D01*
X52026662Y-86834099D01*
X52026657Y-86834110D01*
X52026656Y-86834112D01*
X51961759Y-86990786D01*
X51938842Y-87046113D01*
X51879450Y-87267768D01*
X51849500Y-87495263D01*
X48160500Y-87495263D01*
X48130548Y-87267762D01*
X48071158Y-87046113D01*
X47983344Y-86834112D01*
X47983338Y-86834103D01*
X47983337Y-86834099D01*
X47868613Y-86635391D01*
X47868608Y-86635384D01*
X47728926Y-86453347D01*
X47728907Y-86453326D01*
X47566673Y-86291092D01*
X47566652Y-86291073D01*
X47384615Y-86151391D01*
X47384608Y-86151386D01*
X47185900Y-86036662D01*
X47185892Y-86036658D01*
X47185888Y-86036656D01*
X46973887Y-85948842D01*
X46752238Y-85889452D01*
X46752231Y-85889450D01*
X46524736Y-85859500D01*
X46524734Y-85859500D01*
X46295266Y-85859500D01*
X46295263Y-85859500D01*
X46067768Y-85889450D01*
X45846113Y-85948842D01*
X45666900Y-86023075D01*
X45634110Y-86036657D01*
X45634099Y-86036662D01*
X45435391Y-86151386D01*
X45435384Y-86151391D01*
X45253347Y-86291073D01*
X45253326Y-86291092D01*
X45091092Y-86453326D01*
X45091073Y-86453347D01*
X44951391Y-86635384D01*
X44951386Y-86635391D01*
X44836662Y-86834099D01*
X44836657Y-86834110D01*
X44836656Y-86834112D01*
X44771759Y-86990786D01*
X44748842Y-87046113D01*
X44689450Y-87267768D01*
X44659500Y-87495263D01*
X40534209Y-87495263D01*
X40534200Y-87491426D01*
X40520963Y-81641986D01*
X116509500Y-81641986D01*
X116509500Y-81878013D01*
X116540305Y-82112007D01*
X116540307Y-82112014D01*
X116601394Y-82339993D01*
X116691716Y-82558049D01*
X116691717Y-82558050D01*
X116691722Y-82558061D01*
X116809724Y-82762446D01*
X116809726Y-82762449D01*
X116809727Y-82762450D01*
X116953408Y-82949699D01*
X116953412Y-82949703D01*
X116953417Y-82949709D01*
X117120290Y-83116582D01*
X117120295Y-83116586D01*
X117120301Y-83116592D01*
X117307550Y-83260273D01*
X117307553Y-83260275D01*
X117511938Y-83378277D01*
X117511942Y-83378278D01*
X117511951Y-83378284D01*
X117730007Y-83468606D01*
X117957986Y-83529693D01*
X117957990Y-83529693D01*
X117957992Y-83529694D01*
X118018300Y-83537633D01*
X118191989Y-83560500D01*
X118191996Y-83560500D01*
X118428004Y-83560500D01*
X118428011Y-83560500D01*
X118639491Y-83532658D01*
X118662007Y-83529694D01*
X118662007Y-83529693D01*
X118662014Y-83529693D01*
X118889993Y-83468606D01*
X119108049Y-83378284D01*
X119140417Y-83359595D01*
X119209412Y-83342856D01*
X119276504Y-83366074D01*
X119292515Y-83379618D01*
X120842595Y-84929698D01*
X120876621Y-84992010D01*
X120879500Y-85018793D01*
X120879500Y-85334138D01*
X120859498Y-85402259D01*
X120805842Y-85448752D01*
X120786112Y-85455845D01*
X120736752Y-85469071D01*
X120605048Y-85504361D01*
X120439086Y-85573105D01*
X120332491Y-85617258D01*
X120332480Y-85617263D01*
X120077009Y-85764759D01*
X120077002Y-85764764D01*
X119842966Y-85944346D01*
X119842945Y-85944365D01*
X119634365Y-86152945D01*
X119634346Y-86152966D01*
X119454764Y-86387002D01*
X119454759Y-86387009D01*
X119307263Y-86642480D01*
X119307258Y-86642491D01*
X119307257Y-86642493D01*
X119244361Y-86794337D01*
X119194361Y-86915048D01*
X119118005Y-87200014D01*
X119079500Y-87492491D01*
X119079500Y-87787508D01*
X119118005Y-88079985D01*
X119118006Y-88079991D01*
X119118007Y-88079993D01*
X119194361Y-88364952D01*
X119307257Y-88637507D01*
X119307258Y-88637508D01*
X119307263Y-88637519D01*
X119454759Y-88892990D01*
X119454764Y-88892997D01*
X119634346Y-89127033D01*
X119634365Y-89127054D01*
X119842945Y-89335634D01*
X119842966Y-89335653D01*
X120077002Y-89515235D01*
X120077009Y-89515240D01*
X120332480Y-89662736D01*
X120332484Y-89662737D01*
X120332493Y-89662743D01*
X120605048Y-89775639D01*
X120890007Y-89851993D01*
X120890013Y-89851993D01*
X120890014Y-89851994D01*
X120923574Y-89856412D01*
X121182494Y-89890500D01*
X121182501Y-89890500D01*
X121477499Y-89890500D01*
X121477506Y-89890500D01*
X121769993Y-89851993D01*
X122054952Y-89775639D01*
X122327507Y-89662743D01*
X122582994Y-89515238D01*
X122817042Y-89335646D01*
X123025646Y-89127042D01*
X123205238Y-88892994D01*
X123352743Y-88637507D01*
X123377275Y-88578280D01*
X123421822Y-88523001D01*
X123489185Y-88500580D01*
X123493683Y-88500500D01*
X125222744Y-88500500D01*
X125290865Y-88520502D01*
X125335009Y-88569295D01*
X125401292Y-88699382D01*
X125417714Y-88731612D01*
X125538034Y-88897220D01*
X125682779Y-89041965D01*
X125822255Y-89143299D01*
X125848390Y-89162287D01*
X126030781Y-89255220D01*
X126225466Y-89318477D01*
X126427648Y-89350500D01*
X126427651Y-89350500D01*
X127532349Y-89350500D01*
X127532352Y-89350500D01*
X127734534Y-89318477D01*
X127929219Y-89255220D01*
X128111610Y-89162287D01*
X128277219Y-89041966D01*
X128421966Y-88897219D01*
X128542287Y-88731610D01*
X128635220Y-88549219D01*
X128698477Y-88354534D01*
X128730500Y-88152352D01*
X128730500Y-87947648D01*
X128698477Y-87745466D01*
X128635220Y-87550781D01*
X128542287Y-87368390D01*
X128542285Y-87368387D01*
X128421965Y-87202779D01*
X128277220Y-87058034D01*
X128111612Y-86937714D01*
X128104791Y-86934239D01*
X127929219Y-86844780D01*
X127929216Y-86844779D01*
X127929214Y-86844778D01*
X127734538Y-86781524D01*
X127734536Y-86781523D01*
X127734534Y-86781523D01*
X127601469Y-86760447D01*
X127537318Y-86730035D01*
X127499791Y-86669767D01*
X127500805Y-86598778D01*
X127540038Y-86539606D01*
X127605033Y-86511038D01*
X127621182Y-86509999D01*
X128034195Y-86509999D01*
X128034209Y-86509998D01*
X128064606Y-86507148D01*
X128064609Y-86507147D01*
X128192644Y-86462346D01*
X128192645Y-86462346D01*
X128301792Y-86381792D01*
X128382346Y-86272645D01*
X128382346Y-86272644D01*
X128427147Y-86144610D01*
X128427148Y-86144605D01*
X128429999Y-86114205D01*
X128430000Y-86114199D01*
X128430000Y-85760000D01*
X127349504Y-85760000D01*
X127394674Y-85681764D01*
X127425000Y-85568585D01*
X127425000Y-85451415D01*
X127394674Y-85338236D01*
X127349504Y-85260000D01*
X128429999Y-85260000D01*
X128429999Y-84905805D01*
X128429998Y-84905790D01*
X128427148Y-84875393D01*
X128427147Y-84875390D01*
X128382346Y-84747355D01*
X128382346Y-84747354D01*
X128301792Y-84638207D01*
X128205189Y-84566911D01*
X128192645Y-84557653D01*
X128064610Y-84512852D01*
X128064605Y-84512851D01*
X128034205Y-84510000D01*
X127230000Y-84510000D01*
X127230000Y-85140495D01*
X127151764Y-85095326D01*
X127038585Y-85065000D01*
X126921415Y-85065000D01*
X126808236Y-85095326D01*
X126730000Y-85140495D01*
X126730000Y-84510000D01*
X125925805Y-84510000D01*
X125925790Y-84510001D01*
X125895393Y-84512851D01*
X125895390Y-84512852D01*
X125767355Y-84557653D01*
X125767354Y-84557653D01*
X125658207Y-84638207D01*
X125577653Y-84747354D01*
X125577653Y-84747355D01*
X125532852Y-84875389D01*
X125532851Y-84875394D01*
X125530000Y-84905794D01*
X125530000Y-85260000D01*
X126610496Y-85260000D01*
X126565326Y-85338236D01*
X126535000Y-85451415D01*
X126535000Y-85568585D01*
X126565326Y-85681764D01*
X126610496Y-85760000D01*
X125530001Y-85760000D01*
X125530001Y-86114209D01*
X125532851Y-86144606D01*
X125532852Y-86144609D01*
X125577653Y-86272644D01*
X125577653Y-86272645D01*
X125658207Y-86381792D01*
X125767354Y-86462346D01*
X125895389Y-86507147D01*
X125895394Y-86507148D01*
X125925797Y-86509999D01*
X126338813Y-86509999D01*
X126406933Y-86530001D01*
X126453427Y-86583656D01*
X126463531Y-86653930D01*
X126434038Y-86718511D01*
X126374312Y-86756895D01*
X126358525Y-86760448D01*
X126225460Y-86781524D01*
X126030785Y-86844778D01*
X126030779Y-86844781D01*
X125848387Y-86937714D01*
X125682779Y-87058034D01*
X125538034Y-87202779D01*
X125417714Y-87368387D01*
X125383040Y-87436437D01*
X125335009Y-87530704D01*
X125286263Y-87582318D01*
X125222744Y-87599500D01*
X123705086Y-87599500D01*
X123636965Y-87579498D01*
X123590472Y-87525842D01*
X123580165Y-87489949D01*
X123541993Y-87200007D01*
X123465639Y-86915048D01*
X123352743Y-86642493D01*
X123352737Y-86642484D01*
X123352736Y-86642480D01*
X123205240Y-86387009D01*
X123205235Y-86387002D01*
X123025653Y-86152966D01*
X123025634Y-86152945D01*
X122817054Y-85944365D01*
X122817033Y-85944346D01*
X122582997Y-85764764D01*
X122582990Y-85764759D01*
X122327519Y-85617263D01*
X122327511Y-85617259D01*
X122327507Y-85617257D01*
X122054952Y-85504361D01*
X121908649Y-85465159D01*
X121873888Y-85455845D01*
X121813266Y-85418893D01*
X121782244Y-85355032D01*
X121780500Y-85334138D01*
X121780500Y-84720691D01*
X121780499Y-84720689D01*
X121760816Y-84647233D01*
X121756286Y-84630326D01*
X121749799Y-84606113D01*
X121690489Y-84503386D01*
X121690487Y-84503384D01*
X121690483Y-84503379D01*
X119929618Y-82742515D01*
X119895593Y-82680203D01*
X119900657Y-82609388D01*
X119909596Y-82590417D01*
X119928284Y-82558049D01*
X120018606Y-82339993D01*
X120035950Y-82275263D01*
X125099500Y-82275263D01*
X125099500Y-82504736D01*
X125129450Y-82732231D01*
X125129451Y-82732233D01*
X125129452Y-82732238D01*
X125188842Y-82953887D01*
X125276656Y-83165888D01*
X125276657Y-83165889D01*
X125276662Y-83165900D01*
X125391386Y-83364608D01*
X125391391Y-83364615D01*
X125531073Y-83546652D01*
X125531092Y-83546673D01*
X125693326Y-83708907D01*
X125693347Y-83708926D01*
X125875384Y-83848608D01*
X125875391Y-83848613D01*
X126074099Y-83963337D01*
X126074103Y-83963338D01*
X126074112Y-83963344D01*
X126286113Y-84051158D01*
X126507762Y-84110548D01*
X126507766Y-84110548D01*
X126507768Y-84110549D01*
X126566398Y-84118267D01*
X126735266Y-84140500D01*
X126735273Y-84140500D01*
X126964727Y-84140500D01*
X126964734Y-84140500D01*
X127170345Y-84113430D01*
X127192231Y-84110549D01*
X127192231Y-84110548D01*
X127192238Y-84110548D01*
X127413887Y-84051158D01*
X127625888Y-83963344D01*
X127824612Y-83848611D01*
X128006661Y-83708919D01*
X128168919Y-83546661D01*
X128308611Y-83364612D01*
X128423344Y-83165888D01*
X128511158Y-82953887D01*
X128541088Y-82842187D01*
X130110000Y-82842187D01*
X130110000Y-83097812D01*
X130143363Y-83351235D01*
X130209524Y-83598151D01*
X130307349Y-83834319D01*
X130307352Y-83834325D01*
X130435152Y-84055682D01*
X130435156Y-84055688D01*
X130515739Y-84160705D01*
X130515740Y-84160706D01*
X131193821Y-83482625D01*
X131279365Y-83610650D01*
X131419350Y-83750635D01*
X131547373Y-83836177D01*
X130869292Y-84514258D01*
X130869293Y-84514259D01*
X130974311Y-84594843D01*
X130974317Y-84594847D01*
X131195674Y-84722647D01*
X131195680Y-84722650D01*
X131431848Y-84820475D01*
X131678764Y-84886636D01*
X131932187Y-84919999D01*
X131932197Y-84920000D01*
X132187803Y-84920000D01*
X132187812Y-84919999D01*
X132441235Y-84886636D01*
X132688151Y-84820475D01*
X132924319Y-84722650D01*
X132924325Y-84722647D01*
X133145682Y-84594847D01*
X133145688Y-84594843D01*
X133250706Y-84514259D01*
X133250706Y-84514258D01*
X132572625Y-83836177D01*
X132700650Y-83750635D01*
X132840635Y-83610650D01*
X132926177Y-83482625D01*
X133604258Y-84160706D01*
X133604259Y-84160706D01*
X133684843Y-84055688D01*
X133684847Y-84055682D01*
X133812647Y-83834325D01*
X133812650Y-83834319D01*
X133910475Y-83598151D01*
X133976636Y-83351235D01*
X134009999Y-83097812D01*
X134010000Y-83097803D01*
X134010000Y-82842197D01*
X134009999Y-82842187D01*
X133976636Y-82588764D01*
X133913665Y-82353752D01*
X133913665Y-82353751D01*
X133910476Y-82341850D01*
X133903605Y-82325263D01*
X134369500Y-82325263D01*
X134369500Y-82554736D01*
X134399450Y-82782231D01*
X134399452Y-82782238D01*
X134458842Y-83003887D01*
X134546656Y-83215888D01*
X134546657Y-83215889D01*
X134546662Y-83215900D01*
X134661386Y-83414608D01*
X134661391Y-83414615D01*
X134801073Y-83596652D01*
X134801092Y-83596673D01*
X134963326Y-83758907D01*
X134963347Y-83758926D01*
X135145384Y-83898608D01*
X135145391Y-83898613D01*
X135344099Y-84013337D01*
X135344103Y-84013338D01*
X135344112Y-84013344D01*
X135556113Y-84101158D01*
X135777762Y-84160548D01*
X135777766Y-84160548D01*
X135777768Y-84160549D01*
X135836398Y-84168267D01*
X136005266Y-84190500D01*
X136005273Y-84190500D01*
X136234727Y-84190500D01*
X136234734Y-84190500D01*
X136461038Y-84160706D01*
X136462231Y-84160549D01*
X136462231Y-84160548D01*
X136462238Y-84160548D01*
X136683887Y-84101158D01*
X136895888Y-84013344D01*
X137094612Y-83898611D01*
X137276661Y-83758919D01*
X137438919Y-83596661D01*
X137578611Y-83414612D01*
X137693344Y-83215888D01*
X137781158Y-83003887D01*
X137840548Y-82782238D01*
X137870500Y-82554734D01*
X137870500Y-82325266D01*
X137848267Y-82156398D01*
X137840549Y-82097768D01*
X137840548Y-82097766D01*
X137840548Y-82097762D01*
X137781158Y-81876113D01*
X137693344Y-81664112D01*
X137693338Y-81664103D01*
X137693337Y-81664099D01*
X137578613Y-81465391D01*
X137578608Y-81465384D01*
X137438926Y-81283347D01*
X137438907Y-81283326D01*
X137276673Y-81121092D01*
X137276652Y-81121073D01*
X137094615Y-80981391D01*
X137094608Y-80981386D01*
X136895900Y-80866662D01*
X136895892Y-80866658D01*
X136895888Y-80866656D01*
X136683887Y-80778842D01*
X136532501Y-80738278D01*
X136462231Y-80719450D01*
X136234736Y-80689500D01*
X136234734Y-80689500D01*
X136005266Y-80689500D01*
X136005263Y-80689500D01*
X135777768Y-80719450D01*
X135556113Y-80778842D01*
X135344110Y-80866657D01*
X135344099Y-80866662D01*
X135145391Y-80981386D01*
X135145384Y-80981391D01*
X134963347Y-81121073D01*
X134963326Y-81121092D01*
X134801092Y-81283326D01*
X134801073Y-81283347D01*
X134661391Y-81465384D01*
X134661386Y-81465391D01*
X134546662Y-81664099D01*
X134546657Y-81664110D01*
X134458842Y-81876113D01*
X134399450Y-82097768D01*
X134369500Y-82325263D01*
X133903605Y-82325263D01*
X133812650Y-82105680D01*
X133812647Y-82105674D01*
X133684847Y-81884317D01*
X133684843Y-81884311D01*
X133604259Y-81779293D01*
X133604258Y-81779292D01*
X132926177Y-82457373D01*
X132840635Y-82329350D01*
X132700650Y-82189365D01*
X132572625Y-82103821D01*
X133250706Y-81425740D01*
X133250705Y-81425739D01*
X133145688Y-81345156D01*
X133145682Y-81345152D01*
X132924325Y-81217352D01*
X132924319Y-81217349D01*
X132688151Y-81119524D01*
X132441235Y-81053363D01*
X132187812Y-81020000D01*
X131932187Y-81020000D01*
X131678764Y-81053363D01*
X131431848Y-81119524D01*
X131195680Y-81217349D01*
X131195674Y-81217352D01*
X130974317Y-81345152D01*
X130869292Y-81425740D01*
X131547374Y-82103821D01*
X131419350Y-82189365D01*
X131279365Y-82329350D01*
X131193822Y-82457374D01*
X130515740Y-81779292D01*
X130435152Y-81884317D01*
X130307352Y-82105674D01*
X130307349Y-82105680D01*
X130209524Y-82341848D01*
X130143363Y-82588764D01*
X130110000Y-82842187D01*
X128541088Y-82842187D01*
X128570548Y-82732238D01*
X128571857Y-82722300D01*
X128580039Y-82660144D01*
X128600500Y-82504734D01*
X128600500Y-82275266D01*
X128570548Y-82047762D01*
X128511158Y-81826113D01*
X128423344Y-81614112D01*
X128423338Y-81614103D01*
X128423337Y-81614099D01*
X128379094Y-81537467D01*
X128308613Y-81415391D01*
X128308608Y-81415384D01*
X128168926Y-81233347D01*
X128168907Y-81233326D01*
X128006673Y-81071092D01*
X128006652Y-81071073D01*
X127824615Y-80931391D01*
X127824608Y-80931386D01*
X127625900Y-80816662D01*
X127625892Y-80816658D01*
X127625888Y-80816656D01*
X127413887Y-80728842D01*
X127192238Y-80669452D01*
X127192231Y-80669450D01*
X126964736Y-80639500D01*
X126964734Y-80639500D01*
X126735266Y-80639500D01*
X126735263Y-80639500D01*
X126507768Y-80669450D01*
X126286113Y-80728842D01*
X126074110Y-80816657D01*
X126074099Y-80816662D01*
X125875391Y-80931386D01*
X125875384Y-80931391D01*
X125693347Y-81071073D01*
X125693326Y-81071092D01*
X125531092Y-81233326D01*
X125531073Y-81233347D01*
X125391391Y-81415384D01*
X125391386Y-81415391D01*
X125276662Y-81614099D01*
X125276657Y-81614110D01*
X125188842Y-81826113D01*
X125129450Y-82047768D01*
X125099500Y-82275263D01*
X120035950Y-82275263D01*
X120079693Y-82112014D01*
X120110500Y-81878011D01*
X120110500Y-81641989D01*
X120087633Y-81468300D01*
X120079694Y-81407992D01*
X120079693Y-81407990D01*
X120079693Y-81407986D01*
X120018606Y-81180007D01*
X119928284Y-80961951D01*
X119928278Y-80961942D01*
X119928277Y-80961938D01*
X119810275Y-80757553D01*
X119810273Y-80757550D01*
X119666592Y-80570301D01*
X119666586Y-80570295D01*
X119666582Y-80570290D01*
X119499709Y-80403417D01*
X119499703Y-80403412D01*
X119499699Y-80403408D01*
X119312450Y-80259727D01*
X119312449Y-80259726D01*
X119312446Y-80259724D01*
X119108061Y-80141722D01*
X119108053Y-80141718D01*
X119108049Y-80141716D01*
X118889993Y-80051394D01*
X118662014Y-79990307D01*
X118662007Y-79990305D01*
X118428013Y-79959500D01*
X118428011Y-79959500D01*
X118191989Y-79959500D01*
X118191986Y-79959500D01*
X117957992Y-79990305D01*
X117730011Y-80051393D01*
X117730007Y-80051394D01*
X117511949Y-80141717D01*
X117511938Y-80141722D01*
X117307553Y-80259724D01*
X117120301Y-80403408D01*
X117120290Y-80403417D01*
X116953417Y-80570290D01*
X116953408Y-80570301D01*
X116809724Y-80757553D01*
X116691722Y-80961938D01*
X116691717Y-80961949D01*
X116691716Y-80961951D01*
X116601394Y-81180007D01*
X116601393Y-81180011D01*
X116540305Y-81407992D01*
X116509500Y-81641986D01*
X40520963Y-81641986D01*
X40520954Y-81638149D01*
X40512868Y-78064786D01*
X101645400Y-78064786D01*
X101645400Y-78300813D01*
X101676205Y-78534807D01*
X101676207Y-78534814D01*
X101737294Y-78762793D01*
X101827616Y-78980849D01*
X101827617Y-78980850D01*
X101827622Y-78980861D01*
X101945624Y-79185246D01*
X101945626Y-79185249D01*
X101945627Y-79185250D01*
X102089308Y-79372499D01*
X102089312Y-79372503D01*
X102089317Y-79372509D01*
X102256190Y-79539382D01*
X102256195Y-79539386D01*
X102256201Y-79539392D01*
X102443450Y-79683073D01*
X102443453Y-79683075D01*
X102647838Y-79801077D01*
X102647842Y-79801078D01*
X102647851Y-79801084D01*
X102865907Y-79891406D01*
X103093886Y-79952493D01*
X103093890Y-79952493D01*
X103093892Y-79952494D01*
X103154200Y-79960433D01*
X103327889Y-79983300D01*
X103327896Y-79983300D01*
X103563904Y-79983300D01*
X103563911Y-79983300D01*
X103775391Y-79955458D01*
X103797907Y-79952494D01*
X103797907Y-79952493D01*
X103797914Y-79952493D01*
X104025893Y-79891406D01*
X104243949Y-79801084D01*
X104448350Y-79683073D01*
X104635599Y-79539392D01*
X104802492Y-79372499D01*
X104946173Y-79185250D01*
X105064184Y-78980849D01*
X105154506Y-78762793D01*
X105215593Y-78534814D01*
X105246400Y-78300811D01*
X105246400Y-78064789D01*
X105215593Y-77830786D01*
X105154506Y-77602807D01*
X105064184Y-77384751D01*
X105045494Y-77352378D01*
X105028756Y-77283383D01*
X105051976Y-77216291D01*
X105065512Y-77200289D01*
X106617459Y-75648342D01*
X119449500Y-75648342D01*
X119449500Y-75951657D01*
X119483460Y-76253067D01*
X119550955Y-76548778D01*
X119651125Y-76835047D01*
X119651136Y-76835074D01*
X119782732Y-77108336D01*
X119782737Y-77108345D01*
X119944108Y-77365164D01*
X120133223Y-77602307D01*
X120347692Y-77816776D01*
X120347696Y-77816779D01*
X120584836Y-78005892D01*
X120841659Y-78167265D01*
X121114935Y-78298868D01*
X121114951Y-78298873D01*
X121114952Y-78298874D01*
X121401221Y-78399044D01*
X121401224Y-78399044D01*
X121401228Y-78399046D01*
X121620095Y-78449001D01*
X121696932Y-78466539D01*
X121696933Y-78466539D01*
X121696937Y-78466540D01*
X121936518Y-78493534D01*
X121998342Y-78500500D01*
X121998343Y-78500500D01*
X122301658Y-78500500D01*
X122352958Y-78494719D01*
X122603063Y-78466540D01*
X122898772Y-78399046D01*
X123185065Y-78298868D01*
X123458341Y-78167265D01*
X123715164Y-78005892D01*
X123952304Y-77816779D01*
X124166779Y-77602304D01*
X124355892Y-77365164D01*
X124517265Y-77108341D01*
X124648868Y-76835065D01*
X124662795Y-76795263D01*
X126909500Y-76795263D01*
X126909500Y-77024736D01*
X126939450Y-77252231D01*
X126939452Y-77252238D01*
X126998842Y-77473887D01*
X127086656Y-77685888D01*
X127086657Y-77685889D01*
X127086662Y-77685900D01*
X127201386Y-77884608D01*
X127201391Y-77884615D01*
X127341073Y-78066652D01*
X127341092Y-78066673D01*
X127503326Y-78228907D01*
X127503347Y-78228926D01*
X127685384Y-78368608D01*
X127685391Y-78368613D01*
X127884099Y-78483337D01*
X127884103Y-78483338D01*
X127884112Y-78483344D01*
X128096113Y-78571158D01*
X128317762Y-78630548D01*
X128317766Y-78630548D01*
X128317768Y-78630549D01*
X128376398Y-78638267D01*
X128545266Y-78660500D01*
X128545273Y-78660500D01*
X128774727Y-78660500D01*
X128774734Y-78660500D01*
X128980345Y-78633430D01*
X129002231Y-78630549D01*
X129002231Y-78630548D01*
X129002238Y-78630548D01*
X129223887Y-78571158D01*
X129435888Y-78483344D01*
X129634612Y-78368611D01*
X129816661Y-78228919D01*
X129978919Y-78066661D01*
X129980356Y-78064789D01*
X130025550Y-78005891D01*
X130118611Y-77884612D01*
X130233344Y-77685888D01*
X130321158Y-77473887D01*
X130380548Y-77252238D01*
X130410500Y-77024734D01*
X130410500Y-76795266D01*
X130388267Y-76626398D01*
X130380549Y-76567768D01*
X130380548Y-76567766D01*
X130380548Y-76567762D01*
X130321158Y-76346113D01*
X130233344Y-76134112D01*
X130233338Y-76134103D01*
X130233337Y-76134099D01*
X130118613Y-75935391D01*
X130118608Y-75935384D01*
X129978926Y-75753347D01*
X129978907Y-75753326D01*
X129816673Y-75591092D01*
X129816652Y-75591073D01*
X129634615Y-75451391D01*
X129634608Y-75451386D01*
X129435900Y-75336662D01*
X129435892Y-75336658D01*
X129435888Y-75336656D01*
X129223887Y-75248842D01*
X129002238Y-75189452D01*
X129002231Y-75189450D01*
X128774736Y-75159500D01*
X128774734Y-75159500D01*
X128545266Y-75159500D01*
X128545263Y-75159500D01*
X128317768Y-75189450D01*
X128096113Y-75248842D01*
X127884110Y-75336657D01*
X127884099Y-75336662D01*
X127685391Y-75451386D01*
X127685384Y-75451391D01*
X127503347Y-75591073D01*
X127503326Y-75591092D01*
X127341092Y-75753326D01*
X127341073Y-75753347D01*
X127201391Y-75935384D01*
X127201386Y-75935391D01*
X127086662Y-76134099D01*
X127086657Y-76134110D01*
X126998842Y-76346113D01*
X126939450Y-76567768D01*
X126909500Y-76795263D01*
X124662795Y-76795263D01*
X124678800Y-76749526D01*
X124749044Y-76548778D01*
X124749044Y-76548777D01*
X124749046Y-76548772D01*
X124816540Y-76253063D01*
X124850500Y-75951657D01*
X124850500Y-75648343D01*
X124816540Y-75346937D01*
X124814193Y-75336656D01*
X124780594Y-75189450D01*
X124749046Y-75051228D01*
X124648868Y-74764935D01*
X124517265Y-74491659D01*
X124355892Y-74234836D01*
X124166779Y-73997696D01*
X124166776Y-73997692D01*
X123952307Y-73783223D01*
X123715164Y-73594108D01*
X123458345Y-73432737D01*
X123458336Y-73432732D01*
X123185074Y-73301136D01*
X123185069Y-73301134D01*
X123185065Y-73301132D01*
X123185059Y-73301129D01*
X123185047Y-73301125D01*
X122898778Y-73200955D01*
X122603067Y-73133460D01*
X122301658Y-73099500D01*
X122301657Y-73099500D01*
X121998343Y-73099500D01*
X121998342Y-73099500D01*
X121696932Y-73133460D01*
X121401221Y-73200955D01*
X121114952Y-73301125D01*
X121114925Y-73301136D01*
X120841663Y-73432732D01*
X120841654Y-73432737D01*
X120584835Y-73594108D01*
X120347692Y-73783223D01*
X120133223Y-73997692D01*
X119944108Y-74234835D01*
X119782737Y-74491654D01*
X119782732Y-74491663D01*
X119651136Y-74764925D01*
X119651125Y-74764952D01*
X119550955Y-75051221D01*
X119483460Y-75346932D01*
X119449500Y-75648342D01*
X106617459Y-75648342D01*
X108380579Y-73885222D01*
X108442889Y-73851198D01*
X108502281Y-73852612D01*
X108677986Y-73899693D01*
X108911989Y-73930500D01*
X108911996Y-73930500D01*
X109148004Y-73930500D01*
X109148011Y-73930500D01*
X109359491Y-73902658D01*
X109382007Y-73899694D01*
X109382007Y-73899693D01*
X109382014Y-73899693D01*
X109609993Y-73838606D01*
X109828049Y-73748284D01*
X110032450Y-73630273D01*
X110219699Y-73486592D01*
X110386592Y-73319699D01*
X110530273Y-73132450D01*
X110648284Y-72928049D01*
X110738606Y-72709993D01*
X110799693Y-72482014D01*
X110830500Y-72248011D01*
X110830500Y-72011989D01*
X110799693Y-71777986D01*
X110738606Y-71550007D01*
X110648284Y-71331951D01*
X110648278Y-71331942D01*
X110648277Y-71331938D01*
X110530275Y-71127553D01*
X110530273Y-71127550D01*
X110386592Y-70940301D01*
X110386586Y-70940295D01*
X110386582Y-70940290D01*
X110219709Y-70773417D01*
X110219703Y-70773412D01*
X110219699Y-70773408D01*
X110032450Y-70629727D01*
X110032449Y-70629726D01*
X110032446Y-70629724D01*
X109828061Y-70511722D01*
X109828053Y-70511718D01*
X109828049Y-70511716D01*
X109609993Y-70421394D01*
X109382014Y-70360307D01*
X109382007Y-70360305D01*
X109148013Y-70329500D01*
X109148011Y-70329500D01*
X108911989Y-70329500D01*
X108911986Y-70329500D01*
X108677992Y-70360305D01*
X108450011Y-70421393D01*
X108450007Y-70421394D01*
X108231949Y-70511717D01*
X108231938Y-70511722D01*
X108027553Y-70629724D01*
X107840301Y-70773408D01*
X107840290Y-70773417D01*
X107673417Y-70940290D01*
X107673408Y-70940301D01*
X107529724Y-71127553D01*
X107411722Y-71331938D01*
X107411717Y-71331949D01*
X107321394Y-71550007D01*
X107321393Y-71550011D01*
X107260305Y-71777992D01*
X107229500Y-72011986D01*
X107229500Y-72248013D01*
X107260305Y-72482007D01*
X107260307Y-72482014D01*
X107321394Y-72709993D01*
X107411716Y-72928049D01*
X107411717Y-72928050D01*
X107411722Y-72928061D01*
X107529727Y-73132451D01*
X107605484Y-73231179D01*
X107631085Y-73297399D01*
X107616820Y-73366948D01*
X107594617Y-73396978D01*
X104428415Y-76563180D01*
X104366103Y-76597206D01*
X104295288Y-76592141D01*
X104276323Y-76583206D01*
X104243955Y-76564519D01*
X104243947Y-76564515D01*
X104180080Y-76538060D01*
X104025893Y-76474194D01*
X103797914Y-76413107D01*
X103797907Y-76413105D01*
X103563913Y-76382300D01*
X103563911Y-76382300D01*
X103327889Y-76382300D01*
X103327886Y-76382300D01*
X103093892Y-76413105D01*
X102901181Y-76464742D01*
X102865907Y-76474194D01*
X102647854Y-76564515D01*
X102647849Y-76564517D01*
X102647838Y-76564522D01*
X102443453Y-76682524D01*
X102256201Y-76826208D01*
X102256190Y-76826217D01*
X102089317Y-76993090D01*
X102089308Y-76993101D01*
X101945624Y-77180353D01*
X101827622Y-77384738D01*
X101827617Y-77384749D01*
X101737294Y-77602807D01*
X101737293Y-77602811D01*
X101676205Y-77830792D01*
X101645400Y-78064786D01*
X40512868Y-78064786D01*
X40512859Y-78060949D01*
X40490345Y-68112400D01*
X40490285Y-68086035D01*
X40510133Y-68017870D01*
X40563683Y-67971256D01*
X40616034Y-67959751D01*
X49410000Y-67942400D01*
X49405409Y-63755263D01*
X113579500Y-63755263D01*
X113579500Y-63984736D01*
X113609450Y-64212231D01*
X113609452Y-64212238D01*
X113668842Y-64433887D01*
X113756656Y-64645888D01*
X113756657Y-64645889D01*
X113756662Y-64645900D01*
X113871386Y-64844608D01*
X113871391Y-64844615D01*
X114011073Y-65026652D01*
X114011092Y-65026673D01*
X114173326Y-65188907D01*
X114173347Y-65188926D01*
X114355384Y-65328608D01*
X114355391Y-65328613D01*
X114554099Y-65443337D01*
X114554103Y-65443338D01*
X114554112Y-65443344D01*
X114766113Y-65531158D01*
X114987762Y-65590548D01*
X114987766Y-65590548D01*
X114987768Y-65590549D01*
X115046398Y-65598267D01*
X115215266Y-65620500D01*
X115215273Y-65620500D01*
X115444727Y-65620500D01*
X115444734Y-65620500D01*
X115650345Y-65593430D01*
X115672231Y-65590549D01*
X115672231Y-65590548D01*
X115672238Y-65590548D01*
X115893887Y-65531158D01*
X116105888Y-65443344D01*
X116304612Y-65328611D01*
X116486661Y-65188919D01*
X116648919Y-65026661D01*
X116788611Y-64844612D01*
X116903344Y-64645888D01*
X116991158Y-64433887D01*
X117050548Y-64212238D01*
X117080500Y-63984734D01*
X117080500Y-63828342D01*
X119159500Y-63828342D01*
X119159500Y-64131657D01*
X119193460Y-64433067D01*
X119260955Y-64728778D01*
X119361125Y-65015047D01*
X119361136Y-65015074D01*
X119492732Y-65288336D01*
X119492737Y-65288345D01*
X119654108Y-65545164D01*
X119843223Y-65782307D01*
X120057692Y-65996776D01*
X120057696Y-65996779D01*
X120294836Y-66185892D01*
X120551659Y-66347265D01*
X120824935Y-66478868D01*
X120824951Y-66478873D01*
X120824952Y-66478874D01*
X121111221Y-66579044D01*
X121111224Y-66579044D01*
X121111228Y-66579046D01*
X121330095Y-66629001D01*
X121406932Y-66646539D01*
X121406933Y-66646539D01*
X121406937Y-66646540D01*
X121646518Y-66673534D01*
X121708342Y-66680500D01*
X121708343Y-66680500D01*
X122011658Y-66680500D01*
X122062958Y-66674719D01*
X122313063Y-66646540D01*
X122608772Y-66579046D01*
X122895065Y-66478868D01*
X123168341Y-66347265D01*
X123425164Y-66185892D01*
X123662304Y-65996779D01*
X123876779Y-65782304D01*
X124065892Y-65545164D01*
X124227265Y-65288341D01*
X124358868Y-65015065D01*
X124459046Y-64728772D01*
X124526540Y-64433063D01*
X124560500Y-64131657D01*
X124560500Y-63828343D01*
X124526540Y-63526937D01*
X124459046Y-63231228D01*
X124411066Y-63094110D01*
X124358874Y-62944952D01*
X124358873Y-62944951D01*
X124358868Y-62944935D01*
X124227265Y-62671659D01*
X124065892Y-62414836D01*
X123876779Y-62177696D01*
X123876776Y-62177692D01*
X123662307Y-61963223D01*
X123425164Y-61774108D01*
X123168345Y-61612737D01*
X123168336Y-61612732D01*
X122895074Y-61481136D01*
X122895069Y-61481134D01*
X122895065Y-61481132D01*
X122895059Y-61481129D01*
X122895047Y-61481125D01*
X122608778Y-61380955D01*
X122313067Y-61313460D01*
X122011658Y-61279500D01*
X122011657Y-61279500D01*
X121708343Y-61279500D01*
X121708342Y-61279500D01*
X121406932Y-61313460D01*
X121111221Y-61380955D01*
X120824952Y-61481125D01*
X120824925Y-61481136D01*
X120551663Y-61612732D01*
X120551654Y-61612737D01*
X120294835Y-61774108D01*
X120057692Y-61963223D01*
X119843223Y-62177692D01*
X119654108Y-62414835D01*
X119492737Y-62671654D01*
X119492732Y-62671663D01*
X119361136Y-62944925D01*
X119361125Y-62944952D01*
X119260955Y-63231221D01*
X119193460Y-63526932D01*
X119159500Y-63828342D01*
X117080500Y-63828342D01*
X117080500Y-63755266D01*
X117050548Y-63527762D01*
X116991158Y-63306113D01*
X116903344Y-63094112D01*
X116903338Y-63094103D01*
X116903337Y-63094099D01*
X116788613Y-62895391D01*
X116788608Y-62895384D01*
X116648926Y-62713347D01*
X116648907Y-62713326D01*
X116486673Y-62551092D01*
X116486652Y-62551073D01*
X116304615Y-62411391D01*
X116304608Y-62411386D01*
X116105900Y-62296662D01*
X116105892Y-62296658D01*
X116105888Y-62296656D01*
X115893887Y-62208842D01*
X115672238Y-62149452D01*
X115672231Y-62149450D01*
X115444736Y-62119500D01*
X115444734Y-62119500D01*
X115215266Y-62119500D01*
X115215263Y-62119500D01*
X114987768Y-62149450D01*
X114766113Y-62208842D01*
X114554110Y-62296657D01*
X114554099Y-62296662D01*
X114355391Y-62411386D01*
X114355384Y-62411391D01*
X114173347Y-62551073D01*
X114173326Y-62551092D01*
X114011092Y-62713326D01*
X114011073Y-62713347D01*
X113871391Y-62895384D01*
X113871386Y-62895391D01*
X113756662Y-63094099D01*
X113756657Y-63094110D01*
X113756656Y-63094112D01*
X113668842Y-63306113D01*
X113609450Y-63527768D01*
X113579500Y-63755263D01*
X49405409Y-63755263D01*
X49400138Y-58948536D01*
X49420065Y-58880396D01*
X49473670Y-58833844D01*
X49526138Y-58822400D01*
X130603590Y-58822400D01*
X130671711Y-58842402D01*
G37*
G04 #@! TD.AperFunction*
M02*
