G04 #@! TF.GenerationSoftware,KiCad,Pcbnew,9.0.4*
G04 #@! TF.CreationDate,2026-01-04T20:58:34-05:00*
G04 #@! TF.ProjectId,SignalStreamer,5369676e-616c-4537-9472-65616d65722e,rev?*
G04 #@! TF.SameCoordinates,Original*
G04 #@! TF.FileFunction,Soldermask,Bot*
G04 #@! TF.FilePolarity,Negative*
%FSLAX46Y46*%
G04 Gerber Fmt 4.6, Leading zero omitted, Abs format (unit mm)*
G04 Created by KiCad (PCBNEW 9.0.4) date 2026-01-04 20:58:34*
%MOMM*%
%LPD*%
G01*
G04 APERTURE LIST*
G04 Aperture macros list*
%AMRoundRect*
0 Rectangle with rounded corners*
0 $1 Rounding radius*
0 $2 $3 $4 $5 $6 $7 $8 $9 X,Y pos of 4 corners*
0 Add a 4 corners polygon primitive as box body*
4,1,4,$2,$3,$4,$5,$6,$7,$8,$9,$2,$3,0*
0 Add four circle primitives for the rounded corners*
1,1,$1+$1,$2,$3*
1,1,$1+$1,$4,$5*
1,1,$1+$1,$6,$7*
1,1,$1+$1,$8,$9*
0 Add four rect primitives between the rounded corners*
20,1,$1+$1,$2,$3,$4,$5,0*
20,1,$1+$1,$4,$5,$6,$7,0*
20,1,$1+$1,$6,$7,$8,$9,0*
20,1,$1+$1,$8,$9,$2,$3,0*%
G04 Aperture macros list end*
%ADD10C,3.000000*%
%ADD11C,2.600000*%
%ADD12R,5.000000X1.524000*%
%ADD13R,1.524000X5.000000*%
%ADD14C,5.000000*%
%ADD15RoundRect,0.250000X-0.550000X-0.550000X0.550000X-0.550000X0.550000X0.550000X-0.550000X0.550000X0*%
%ADD16C,1.600000*%
%ADD17C,2.500000*%
%ADD18R,1.800000X1.800000*%
%ADD19C,1.800000*%
%ADD20O,2.500000X1.600000*%
%ADD21C,3.500000*%
%ADD22RoundRect,0.250000X-1.000000X0.550000X-1.000000X-0.550000X1.000000X-0.550000X1.000000X0.550000X0*%
%ADD23C,7.000000*%
%ADD24RoundRect,0.250000X0.550000X-0.550000X0.550000X0.550000X-0.550000X0.550000X-0.550000X-0.550000X0*%
%ADD25RoundRect,0.250000X0.550000X0.550000X-0.550000X0.550000X-0.550000X-0.550000X0.550000X-0.550000X0*%
%ADD26C,1.440000*%
G04 APERTURE END LIST*
D10*
X104010000Y-72020000D03*
X104010000Y-99760000D03*
X104010000Y-106310000D03*
X104010000Y-112890000D03*
X118050000Y-72020000D03*
X118050000Y-99760000D03*
X118050000Y-106310000D03*
X118050000Y-112890000D03*
D11*
X101230000Y-79560000D03*
D12*
X102730000Y-79560000D03*
X119100000Y-63370000D03*
D11*
X120660000Y-63370000D03*
D13*
X88535900Y-82062800D03*
D11*
X88535900Y-83862800D03*
X91405900Y-90872800D03*
D13*
X91405900Y-92672800D03*
D11*
X84175900Y-87892800D03*
D13*
X84175900Y-89692800D03*
X96825900Y-75362800D03*
D11*
X96825900Y-77162800D03*
D14*
X126710000Y-63270000D03*
X134760000Y-101730000D03*
X134400000Y-75470000D03*
D15*
X77314315Y-102790000D03*
D16*
X79854315Y-102790000D03*
D17*
X87610000Y-75360000D03*
X69900000Y-63490000D03*
D10*
X128460000Y-98850000D03*
D18*
X58495000Y-110270000D03*
D19*
X61035000Y-110270000D03*
D16*
X92100000Y-105410000D03*
X99720000Y-105410000D03*
D20*
X126980000Y-88034900D03*
D21*
X132060000Y-82954900D03*
D22*
X126980000Y-85494900D03*
D21*
X132060000Y-93114900D03*
D17*
X74880000Y-71620000D03*
D14*
X126710000Y-112680000D03*
D23*
X128125000Y-70572400D03*
D15*
X67474315Y-105530000D03*
D16*
X70014315Y-105530000D03*
D24*
X74650000Y-105815686D03*
D16*
X74650000Y-103275686D03*
D21*
X121330000Y-88034900D03*
D10*
X122970000Y-67190000D03*
X128660000Y-76910000D03*
D23*
X51925000Y-105497400D03*
D25*
X81405686Y-105580000D03*
D16*
X78865686Y-105580000D03*
D10*
X53600000Y-88034900D03*
D17*
X70290000Y-94590000D03*
D14*
X60790000Y-88034900D03*
D23*
X128125000Y-105497400D03*
D10*
X122650000Y-108300000D03*
D16*
X88060000Y-103320000D03*
X88060000Y-105820000D03*
D18*
X79005000Y-110270000D03*
D19*
X81545000Y-110270000D03*
D15*
X93709315Y-101030000D03*
D16*
X97519315Y-101030000D03*
D23*
X51925000Y-70572400D03*
D17*
X75170000Y-86270000D03*
D25*
X89680686Y-100840000D03*
D16*
X85870686Y-100840000D03*
D18*
X72165000Y-110270000D03*
D19*
X74705000Y-110270000D03*
D15*
X61030000Y-105530000D03*
D16*
X63570000Y-105530000D03*
D26*
X99150000Y-111020000D03*
X96610000Y-111020000D03*
X94070000Y-111020000D03*
D16*
X97210000Y-97450000D03*
X97210000Y-94950000D03*
D10*
X126800000Y-93660000D03*
X136120000Y-93610000D03*
X126850000Y-82390000D03*
X136120000Y-82440000D03*
D18*
X65335000Y-110270000D03*
D19*
X67875000Y-110270000D03*
D17*
X96130000Y-71050000D03*
D18*
X85715000Y-110270000D03*
D19*
X88255000Y-110270000D03*
D10*
X46410000Y-88034900D03*
M02*
