M48
; DRILL file {KiCad 9.0.4} date 2026-01-09T17:27:09-0500
; FORMAT={-:-/ absolute / inch / decimal}
; #@! TF.CreationDate,2026-01-09T17:27:09-05:00
; #@! TF.GenerationSoftware,Kicad,Pcbnew,9.0.4
; #@! TF.FileFunction,NonPlated,1,2,NPTH
FMAT,2
INCH
; #@! TA.AperFunction,NonPlated,NPTH,ComponentDrill
T1C0.0984
; #@! TA.AperFunction,NonPlated,NPTH,ComponentDrill
T2C0.1181
%
G90
G05
T1
X2.752Y-2.4996
X2.7673Y-3.724
X2.948Y-2.8197
X2.9594Y-3.3965
X3.4492Y-2.9669
X3.7846Y-2.7972
T2
X1.8272Y-3.4659
X2.1102Y-3.4659
X4.0949Y-2.8354
X4.0949Y-3.9276
X4.0949Y-4.1854
X4.0949Y-4.4445
X4.6476Y-2.8354
X4.6476Y-3.9276
X4.6476Y-4.1854
X4.6476Y-4.4445
X4.8287Y-4.2638
X4.8413Y-2.6453
X4.9921Y-3.6874
X4.9941Y-3.2437
X5.0575Y-3.8917
X5.0654Y-3.028
X5.3591Y-3.2457
X5.3591Y-3.6854
M30
