G04 #@! TF.GenerationSoftware,KiCad,Pcbnew,9.0.4*
G04 #@! TF.CreationDate,2026-01-02T21:45:43-05:00*
G04 #@! TF.ProjectId,SignalStreamer,5369676e-616c-4537-9472-65616d65722e,rev?*
G04 #@! TF.SameCoordinates,Original*
G04 #@! TF.FileFunction,Copper,L1,Top*
G04 #@! TF.FilePolarity,Positive*
%FSLAX46Y46*%
G04 Gerber Fmt 4.6, Leading zero omitted, Abs format (unit mm)*
G04 Created by KiCad (PCBNEW 9.0.4) date 2026-01-02 21:45:43*
%MOMM*%
%LPD*%
G01*
G04 APERTURE LIST*
G04 Aperture macros list*
%AMRoundRect*
0 Rectangle with rounded corners*
0 $1 Rounding radius*
0 $2 $3 $4 $5 $6 $7 $8 $9 X,Y pos of 4 corners*
0 Add a 4 corners polygon primitive as box body*
4,1,4,$2,$3,$4,$5,$6,$7,$8,$9,$2,$3,0*
0 Add four circle primitives for the rounded corners*
1,1,$1+$1,$2,$3*
1,1,$1+$1,$4,$5*
1,1,$1+$1,$6,$7*
1,1,$1+$1,$8,$9*
0 Add four rect primitives between the rounded corners*
20,1,$1+$1,$2,$3,$4,$5,0*
20,1,$1+$1,$4,$5,$6,$7,0*
20,1,$1+$1,$6,$7,$8,$9,0*
20,1,$1+$1,$8,$9,$2,$3,0*%
G04 Aperture macros list end*
G04 #@! TA.AperFunction,ComponentPad*
%ADD10C,2.600000*%
G04 #@! TD*
G04 #@! TA.AperFunction,ComponentPad*
%ADD11C,5.000000*%
G04 #@! TD*
G04 #@! TA.AperFunction,ComponentPad*
%ADD12RoundRect,0.250000X-0.550000X-0.550000X0.550000X-0.550000X0.550000X0.550000X-0.550000X0.550000X0*%
G04 #@! TD*
G04 #@! TA.AperFunction,ComponentPad*
%ADD13C,1.600000*%
G04 #@! TD*
G04 #@! TA.AperFunction,ComponentPad*
%ADD14R,1.800000X1.800000*%
G04 #@! TD*
G04 #@! TA.AperFunction,ComponentPad*
%ADD15C,1.800000*%
G04 #@! TD*
G04 #@! TA.AperFunction,ComponentPad*
%ADD16O,2.500000X1.600000*%
G04 #@! TD*
G04 #@! TA.AperFunction,ComponentPad*
%ADD17C,3.500000*%
G04 #@! TD*
G04 #@! TA.AperFunction,ComponentPad*
%ADD18RoundRect,0.250000X-1.000000X0.550000X-1.000000X-0.550000X1.000000X-0.550000X1.000000X0.550000X0*%
G04 #@! TD*
G04 #@! TA.AperFunction,ComponentPad*
%ADD19C,7.000000*%
G04 #@! TD*
G04 #@! TA.AperFunction,ComponentPad*
%ADD20RoundRect,0.250000X0.550000X-0.550000X0.550000X0.550000X-0.550000X0.550000X-0.550000X-0.550000X0*%
G04 #@! TD*
G04 #@! TA.AperFunction,ComponentPad*
%ADD21RoundRect,0.250000X0.550000X0.550000X-0.550000X0.550000X-0.550000X-0.550000X0.550000X-0.550000X0*%
G04 #@! TD*
G04 #@! TA.AperFunction,ComponentPad*
%ADD22C,1.440000*%
G04 #@! TD*
G04 #@! TA.AperFunction,ViaPad*
%ADD23C,0.600000*%
G04 #@! TD*
G04 #@! TA.AperFunction,Conductor*
%ADD24C,0.500000*%
G04 #@! TD*
G04 #@! TA.AperFunction,Conductor*
%ADD25C,0.350000*%
G04 #@! TD*
G04 #@! TA.AperFunction,Conductor*
%ADD26C,1.000000*%
G04 #@! TD*
G04 APERTURE END LIST*
D10*
X88535900Y-83862800D03*
X91405900Y-90872800D03*
X84175900Y-87892800D03*
X96825900Y-77162800D03*
D11*
X126710000Y-63270000D03*
X134760000Y-101730000D03*
X134400000Y-75470000D03*
D12*
X77314315Y-102790000D03*
D13*
X79854315Y-102790000D03*
D14*
X58495000Y-110270000D03*
D15*
X61035000Y-110270000D03*
D13*
X92100000Y-105410000D03*
X99720000Y-105410000D03*
D10*
X101150000Y-79500000D03*
D16*
X126980000Y-88034900D03*
D17*
X132060000Y-82954900D03*
D18*
X126980000Y-85494900D03*
D17*
X132060000Y-93114900D03*
D11*
X126710000Y-112680000D03*
D19*
X128125000Y-70572400D03*
D12*
X67474315Y-105530000D03*
D13*
X70014315Y-105530000D03*
D20*
X74650000Y-105815686D03*
D13*
X74650000Y-103275686D03*
D17*
X121330000Y-88034900D03*
D10*
X120580000Y-63310000D03*
D19*
X51925000Y-105497400D03*
D21*
X81405686Y-105580000D03*
D13*
X78865686Y-105580000D03*
D11*
X60790000Y-88034900D03*
D19*
X128125000Y-105497400D03*
D13*
X88060000Y-103320000D03*
X88060000Y-105820000D03*
D14*
X79005000Y-110270000D03*
D15*
X81545000Y-110270000D03*
D12*
X93709315Y-101030000D03*
D13*
X97519315Y-101030000D03*
D19*
X51925000Y-70572400D03*
D21*
X89680686Y-100840000D03*
D13*
X85870686Y-100840000D03*
D14*
X72165000Y-110270000D03*
D15*
X74705000Y-110270000D03*
D12*
X61030000Y-105530000D03*
D13*
X63570000Y-105530000D03*
D22*
X99150000Y-111020000D03*
X96610000Y-111020000D03*
X94070000Y-111020000D03*
D13*
X97210000Y-97450000D03*
X97210000Y-94950000D03*
D14*
X65335000Y-110270000D03*
D15*
X67875000Y-110270000D03*
D14*
X85715000Y-110270000D03*
D15*
X88255000Y-110270000D03*
D23*
X118620000Y-59702400D03*
X127570000Y-59642400D03*
X116340000Y-116392400D03*
X54830000Y-116222400D03*
X109490000Y-59632400D03*
X57330000Y-116202400D03*
X112570000Y-59672400D03*
X41150000Y-70240000D03*
X68560000Y-116192400D03*
X130000000Y-62042400D03*
X75140000Y-59560000D03*
X86300000Y-116300000D03*
X64520000Y-59792400D03*
X50180000Y-66732400D03*
X83240000Y-59752400D03*
X60070000Y-116202400D03*
X41200000Y-77860000D03*
X136070000Y-107022400D03*
X41390000Y-107010000D03*
X139090000Y-83482400D03*
X44650000Y-68410000D03*
X124610000Y-59702400D03*
X41160000Y-71990000D03*
X61660000Y-59792400D03*
X41200000Y-86120000D03*
X95340000Y-59662400D03*
X41160000Y-84070000D03*
X50070000Y-116252400D03*
X78130000Y-59670000D03*
X139110000Y-73630000D03*
X90890000Y-116370000D03*
X46610000Y-68410000D03*
X45480000Y-107060000D03*
X79680000Y-116110000D03*
X100224873Y-116521019D03*
X89609787Y-59647208D03*
X50220000Y-59822400D03*
X129980000Y-116392400D03*
X69830000Y-59610000D03*
X126900000Y-116342400D03*
X107220000Y-116512400D03*
X52950000Y-59822400D03*
X119800000Y-116342400D03*
X52320000Y-116252400D03*
X139120000Y-107072400D03*
X55850000Y-59822400D03*
X139010000Y-68842400D03*
X129940000Y-64392400D03*
X41220000Y-98760000D03*
X93070000Y-116450000D03*
X50050000Y-113792400D03*
X62770000Y-116182400D03*
X65680000Y-116192400D03*
X50220000Y-62992400D03*
X50050000Y-111602400D03*
X41180000Y-75980000D03*
X98050000Y-59732400D03*
X41180000Y-88380000D03*
X139080000Y-77760000D03*
X121710000Y-59702400D03*
X139090000Y-93262400D03*
X112870000Y-116452400D03*
X47390000Y-107040000D03*
X84080000Y-116260000D03*
X139070000Y-103782400D03*
X41310000Y-102580000D03*
X103850000Y-59662400D03*
X41180000Y-68430000D03*
X92580000Y-59682400D03*
X123650000Y-116392400D03*
X41350000Y-104720000D03*
X104840000Y-116512400D03*
X50080000Y-109212400D03*
X41220000Y-92420000D03*
X129980000Y-113862400D03*
X139140000Y-71352400D03*
X41220000Y-96720000D03*
X95450000Y-116502400D03*
X139110000Y-75760000D03*
X139020000Y-89742400D03*
X106730000Y-59662400D03*
X41200000Y-90320000D03*
X97850000Y-116502400D03*
X139070000Y-86252400D03*
X71620000Y-116192400D03*
X41270000Y-100640000D03*
X74690000Y-116152400D03*
X86390000Y-59752400D03*
X43330000Y-107040000D03*
X42880000Y-68410000D03*
X135580000Y-68632400D03*
X129970000Y-66602400D03*
X81940000Y-116180000D03*
X67140000Y-59762400D03*
X41220000Y-94540000D03*
X80810000Y-59762900D03*
X115370000Y-59702400D03*
X132680000Y-68632400D03*
X138920000Y-100202400D03*
X133080000Y-106972400D03*
X88590000Y-116370000D03*
X77050000Y-116132400D03*
X129970000Y-59672400D03*
X130030000Y-110672400D03*
X139050000Y-79970000D03*
X139020000Y-96662400D03*
X41160000Y-81930000D03*
X48940000Y-107040000D03*
X72640000Y-59610000D03*
X109670000Y-116482400D03*
X102220000Y-116512400D03*
X58760000Y-59822400D03*
X101070000Y-59653380D03*
X41180000Y-73820000D03*
X41180000Y-79940000D03*
X48610000Y-68420000D03*
D24*
X95679315Y-99190000D02*
X97519315Y-101030000D01*
X97310000Y-100820685D02*
X97310000Y-97550000D01*
X92410000Y-99190000D02*
X95679315Y-99190000D01*
X97310000Y-97550000D02*
X97210000Y-97450000D01*
X89680686Y-100840000D02*
X90760000Y-100840000D01*
X97519315Y-101030000D02*
X97310000Y-100820685D01*
X90760000Y-100840000D02*
X92410000Y-99190000D01*
X97210000Y-94720000D02*
X94405900Y-91915900D01*
X97210000Y-94950000D02*
X97210000Y-94720000D01*
X93405900Y-90872800D02*
X91405900Y-90872800D01*
X94405900Y-91915900D02*
X94405900Y-91872800D01*
X94405900Y-91872800D02*
X93405900Y-90872800D01*
X92100000Y-105410000D02*
X92100000Y-104070000D01*
X93709315Y-102460685D02*
X93709315Y-101030000D01*
X92100000Y-104070000D02*
X93709315Y-102460685D01*
X90150000Y-105410000D02*
X88060000Y-103320000D01*
X92100000Y-105410000D02*
X90150000Y-105410000D01*
D25*
X43300000Y-107010000D02*
X43330000Y-107040000D01*
X49461200Y-68361200D02*
X49402400Y-68420000D01*
X64990000Y-59792400D02*
X67110000Y-59792400D01*
X42880000Y-68410000D02*
X41200000Y-68410000D01*
X104840000Y-116512400D02*
X102220000Y-116512400D01*
X139010000Y-71222400D02*
X139010000Y-68842400D01*
X67110000Y-59792400D02*
X67140000Y-59762400D01*
X41200000Y-92400000D02*
X41220000Y-92420000D01*
X86390000Y-59752400D02*
X87030000Y-59752400D01*
X119850000Y-116392400D02*
X119800000Y-116342400D01*
X126950000Y-116392400D02*
X126900000Y-116342400D01*
X139080000Y-79940000D02*
X139050000Y-79970000D01*
X41160000Y-81930000D02*
X41160000Y-84070000D01*
X47390000Y-107040000D02*
X47777368Y-107040000D01*
X50180000Y-67642400D02*
X50071200Y-67751200D01*
X93044511Y-116475489D02*
X93070000Y-116450000D01*
X116340000Y-116392400D02*
X112930000Y-116392400D01*
X41200000Y-90320000D02*
X41200000Y-92400000D01*
X50071200Y-67751200D02*
X50071200Y-68718600D01*
X129600000Y-106972400D02*
X128125000Y-105497400D01*
X109490000Y-59632400D02*
X112530000Y-59632400D01*
X52950000Y-59822400D02*
X55850000Y-59822400D01*
X83229500Y-59762900D02*
X83240000Y-59752400D01*
X77072400Y-116110000D02*
X77050000Y-116132400D01*
X115370000Y-59702400D02*
X118620000Y-59702400D01*
X139020000Y-91609900D02*
X139020000Y-93192400D01*
X93044511Y-116526911D02*
X93044511Y-116475489D01*
X112930000Y-116392400D02*
X112870000Y-116452400D01*
X69830000Y-59610000D02*
X72640000Y-59610000D01*
X45500000Y-107040000D02*
X47390000Y-107040000D01*
X50080000Y-109212400D02*
X50080000Y-111572400D01*
X130000000Y-64332400D02*
X129940000Y-64392400D01*
X50071200Y-68718600D02*
X51925000Y-70572400D01*
X52320000Y-116252400D02*
X54800000Y-116252400D01*
X100990980Y-59732400D02*
X101070000Y-59653380D01*
X84120000Y-116300000D02*
X84080000Y-116260000D01*
X41310000Y-102580000D02*
X41310000Y-104680000D01*
X50080000Y-111572400D02*
X50050000Y-111602400D01*
X50050000Y-116232400D02*
X50070000Y-116252400D01*
X75140000Y-59560000D02*
X78020000Y-59560000D01*
X95425489Y-116526911D02*
X93044511Y-116526911D01*
X139110000Y-75760000D02*
X139080000Y-75790000D01*
X61630000Y-59822400D02*
X61660000Y-59792400D01*
X81940000Y-116180000D02*
X81870000Y-116110000D01*
X95340000Y-59662400D02*
X95320000Y-59682400D01*
X62770000Y-116182400D02*
X65670000Y-116182400D01*
X109670000Y-116482400D02*
X107250000Y-116482400D01*
X139120000Y-107072400D02*
X136120000Y-107072400D01*
X41220000Y-100590000D02*
X41270000Y-100640000D01*
X50080000Y-109212400D02*
X49910000Y-109042400D01*
X97874511Y-116526911D02*
X97850000Y-116502400D01*
X74690000Y-116152400D02*
X77030000Y-116152400D01*
X78020000Y-59560000D02*
X78130000Y-59670000D01*
X112530000Y-59632400D02*
X112570000Y-59672400D01*
X41200000Y-77860000D02*
X41200000Y-79920000D01*
X49910000Y-107547574D02*
X49050489Y-106688063D01*
X50050000Y-113792400D02*
X50050000Y-116232400D01*
X50080000Y-107342400D02*
X51925000Y-105497400D01*
X135580000Y-68632400D02*
X132680000Y-68632400D01*
X130000000Y-62042400D02*
X130000000Y-64332400D01*
X136120000Y-107072400D02*
X136070000Y-107022400D01*
X130030000Y-113812400D02*
X129980000Y-113862400D01*
X41200000Y-68410000D02*
X41180000Y-68430000D01*
X129980000Y-116392400D02*
X126950000Y-116392400D01*
X95320000Y-59682400D02*
X92580000Y-59682400D01*
X132680000Y-68632400D02*
X130065000Y-68632400D01*
X50220000Y-62992400D02*
X50220000Y-59822400D01*
X48940000Y-107040000D02*
X49402426Y-107040000D01*
X50180000Y-67642400D02*
X50180000Y-66732400D01*
X127570000Y-59642400D02*
X129940000Y-59642400D01*
X77030000Y-116152400D02*
X77050000Y-116132400D01*
X41200000Y-88360000D02*
X41180000Y-88380000D01*
X49461200Y-68361200D02*
X50180000Y-67642400D01*
X80810000Y-59762900D02*
X83229500Y-59762900D01*
X45480000Y-107060000D02*
X45500000Y-107040000D01*
X86390000Y-59752400D02*
X89504595Y-59752400D01*
X41220000Y-94540000D02*
X41220000Y-96720000D01*
X57330000Y-116202400D02*
X60070000Y-116202400D01*
X130030000Y-107402400D02*
X128125000Y-105497400D01*
X41150000Y-70240000D02*
X41150000Y-71980000D01*
X81870000Y-116110000D02*
X79680000Y-116110000D01*
X41310000Y-104680000D02*
X41350000Y-104720000D01*
X98050000Y-59732400D02*
X100990980Y-59732400D01*
X130030000Y-110672400D02*
X130030000Y-113812400D01*
X89504595Y-59752400D02*
X89609787Y-59647208D01*
X107250000Y-116482400D02*
X107220000Y-116512400D01*
X50080000Y-109212400D02*
X50080000Y-107342400D01*
X121710000Y-59702400D02*
X124610000Y-59702400D01*
X64520000Y-59792400D02*
X64990000Y-59792400D01*
X41200000Y-86120000D02*
X41200000Y-88360000D01*
X68560000Y-116192400D02*
X71620000Y-116192400D01*
X48870000Y-68952400D02*
X49461200Y-68361200D01*
X41200000Y-79920000D02*
X41180000Y-79940000D01*
X49910000Y-109042400D02*
X49910000Y-107547574D01*
X129940000Y-59642400D02*
X129970000Y-59672400D01*
X46610000Y-68410000D02*
X44650000Y-68410000D01*
X90890000Y-116370000D02*
X88590000Y-116370000D01*
X79680000Y-116110000D02*
X77072400Y-116110000D01*
X58760000Y-59822400D02*
X61630000Y-59822400D01*
X41390000Y-107010000D02*
X43300000Y-107010000D01*
X41220000Y-98760000D02*
X41220000Y-100590000D01*
X130065000Y-68632400D02*
X128125000Y-70572400D01*
X129970000Y-68727400D02*
X128125000Y-70572400D01*
X41150000Y-71980000D02*
X41160000Y-71990000D01*
X65670000Y-116182400D02*
X65680000Y-116192400D01*
X103850000Y-59662400D02*
X106730000Y-59662400D01*
X130030000Y-110672400D02*
X130030000Y-107402400D01*
X139080000Y-77760000D02*
X139080000Y-79940000D01*
X139020000Y-89742400D02*
X139020000Y-91609900D01*
X54800000Y-116252400D02*
X54830000Y-116222400D01*
X129970000Y-66602400D02*
X129970000Y-68727400D01*
X123650000Y-116392400D02*
X119850000Y-116392400D01*
X49402400Y-68420000D02*
X48610000Y-68420000D01*
X100224873Y-116521019D02*
X100218981Y-116526911D01*
X138920000Y-100202400D02*
X138920000Y-103632400D01*
X133080000Y-106972400D02*
X129600000Y-106972400D01*
X79680000Y-116110000D02*
X79880000Y-116110000D01*
X139020000Y-93192400D02*
X139090000Y-93262400D01*
X139070000Y-83462400D02*
X139090000Y-83482400D01*
X138920000Y-103632400D02*
X139070000Y-103782400D01*
X100218981Y-116526911D02*
X97874511Y-116526911D01*
X41180000Y-73820000D02*
X41180000Y-75980000D01*
X95450000Y-116502400D02*
X95425489Y-116526911D01*
X104140000Y-59952400D02*
X103850000Y-59662400D01*
X86300000Y-116300000D02*
X84120000Y-116300000D01*
X49402426Y-107040000D02*
X49910000Y-107547574D01*
X139110000Y-73630000D02*
X139110000Y-75760000D01*
D24*
X72165000Y-111775000D02*
X72165000Y-110270000D01*
X85715000Y-111375000D02*
X84140000Y-112950000D01*
X70410000Y-113650000D02*
X66760000Y-113650000D01*
X85715000Y-109225000D02*
X88060000Y-106880000D01*
X65335000Y-110270000D02*
X65335000Y-111895000D01*
X65335000Y-111895000D02*
X63520000Y-113710000D01*
X60050000Y-113710000D02*
X58495000Y-112155000D01*
X79005000Y-110270000D02*
X79005000Y-111275000D01*
X88060000Y-106880000D02*
X88060000Y-105820000D01*
X58495000Y-112155000D02*
X58495000Y-110270000D01*
X87421372Y-105820000D02*
X85870686Y-104269314D01*
X85715000Y-110270000D02*
X85715000Y-109225000D01*
X88535900Y-83862800D02*
X88535900Y-95192728D01*
X85870686Y-97857942D02*
X85870686Y-100840000D01*
X63520000Y-113710000D02*
X60050000Y-113710000D01*
X79005000Y-111335000D02*
X79005000Y-110270000D01*
X88060000Y-105820000D02*
X87421372Y-105820000D01*
X76820000Y-113460000D02*
X73760000Y-113460000D01*
X85870686Y-104269314D02*
X85870686Y-100840000D01*
X65335000Y-112225000D02*
X65335000Y-110270000D01*
X66760000Y-113650000D02*
X65335000Y-112225000D01*
X73760000Y-113460000D02*
X72120000Y-111820000D01*
X79005000Y-111275000D02*
X76820000Y-113460000D01*
X84140000Y-112950000D02*
X80620000Y-112950000D01*
X72165000Y-110270000D02*
X72165000Y-111895000D01*
X80620000Y-112950000D02*
X79005000Y-111335000D01*
X72120000Y-111820000D02*
X72165000Y-111775000D01*
X72165000Y-111895000D02*
X70410000Y-113650000D01*
X85715000Y-110270000D02*
X85715000Y-111375000D01*
X88535900Y-95192728D02*
X85870686Y-97857942D01*
X75754314Y-103275686D02*
X74650000Y-103275686D01*
X77314315Y-102790000D02*
X76240000Y-102790000D01*
X76240000Y-102790000D02*
X75754314Y-103275686D01*
X81545000Y-105719314D02*
X81405686Y-105580000D01*
X81545000Y-110270000D02*
X81545000Y-105719314D01*
X70300001Y-105815686D02*
X70014315Y-105530000D01*
X74650000Y-110215000D02*
X74705000Y-110270000D01*
X74650000Y-105815686D02*
X74650000Y-110215000D01*
X74650000Y-105815686D02*
X70300001Y-105815686D01*
D26*
X96825900Y-77162800D02*
X99163100Y-79500000D01*
X99163100Y-79500000D02*
X101150000Y-79500000D01*
D24*
X99150000Y-111020000D02*
X99150000Y-108720000D01*
X99150000Y-108720000D02*
X99720000Y-108150000D01*
X99720000Y-108150000D02*
X99720000Y-105410000D01*
D26*
X60365100Y-88034900D02*
X69474900Y-88034900D01*
D24*
X61057200Y-87342800D02*
X60365100Y-88034900D01*
D26*
X69474900Y-88034900D02*
X72430000Y-90990000D01*
X72430000Y-90990000D02*
X81130000Y-90990000D01*
D24*
X81688700Y-90431300D02*
X81688700Y-90380000D01*
D26*
X81130000Y-90990000D02*
X81688700Y-90431300D01*
X81688700Y-90380000D02*
X84175900Y-87892800D01*
D24*
X79830000Y-104615686D02*
X79830000Y-104150000D01*
X79830000Y-104150000D02*
X79854315Y-104125685D01*
X94070000Y-111020000D02*
X91530000Y-111020000D01*
X91530000Y-111020000D02*
X90780000Y-110270000D01*
X96610000Y-111020000D02*
X94070000Y-111020000D01*
X79854315Y-104125685D02*
X79854315Y-102790000D01*
X78865686Y-105580000D02*
X79830000Y-104615686D01*
X90780000Y-110270000D02*
X88255000Y-110270000D01*
X67875000Y-110270000D02*
X67875000Y-105930685D01*
X67474315Y-105530000D02*
X63570000Y-105530000D01*
X67875000Y-105930685D02*
X67474315Y-105530000D01*
X61035000Y-110270000D02*
X61035000Y-105535000D01*
X61035000Y-105535000D02*
X61030000Y-105530000D01*
D26*
X126980000Y-88050000D02*
X121740000Y-88050000D01*
D24*
X121740000Y-88050000D02*
X121330000Y-87640000D01*
X121330000Y-87640000D02*
X121200000Y-87640000D01*
G04 #@! TA.AperFunction,Conductor*
G36*
X130671711Y-58842402D02*
G01*
X130718204Y-58896058D01*
X130729588Y-58948808D01*
X130724087Y-60639751D01*
X130699999Y-68042399D01*
X130700000Y-68042400D01*
X139564319Y-68111421D01*
X139632281Y-68131953D01*
X139678355Y-68185969D01*
X139689335Y-68238083D01*
X139480671Y-107715345D01*
X139460309Y-107783359D01*
X139406409Y-107829568D01*
X139352955Y-107840667D01*
X130680000Y-107722399D01*
X130680000Y-116726493D01*
X130659998Y-116794614D01*
X130606342Y-116841107D01*
X130554093Y-116852493D01*
X49596508Y-116912306D01*
X49528373Y-116892354D01*
X49481840Y-116838733D01*
X49470416Y-116785893D01*
X49491893Y-110264137D01*
X49494996Y-109322121D01*
X57094500Y-109322121D01*
X57094500Y-111217864D01*
X57094502Y-111217885D01*
X57100908Y-111277480D01*
X57100908Y-111277481D01*
X57151201Y-111412326D01*
X57151203Y-111412329D01*
X57237453Y-111527546D01*
X57291351Y-111567893D01*
X57352669Y-111613796D01*
X57352671Y-111613796D01*
X57352673Y-111613798D01*
X57395307Y-111629699D01*
X57487514Y-111664090D01*
X57487517Y-111664091D01*
X57547127Y-111670500D01*
X57618500Y-111670499D01*
X57686619Y-111690500D01*
X57733113Y-111744155D01*
X57744500Y-111796499D01*
X57744500Y-112228918D01*
X57773342Y-112373913D01*
X57829916Y-112510495D01*
X57862813Y-112559729D01*
X57912048Y-112633416D01*
X59467049Y-114188416D01*
X59571584Y-114292951D01*
X59694505Y-114375084D01*
X59831087Y-114431658D01*
X59976082Y-114460500D01*
X59976083Y-114460500D01*
X59976087Y-114460500D01*
X63593913Y-114460500D01*
X63593917Y-114460500D01*
X63593918Y-114460500D01*
X63738913Y-114431658D01*
X63875495Y-114375084D01*
X63965292Y-114315084D01*
X63998416Y-114292952D01*
X65080905Y-113210460D01*
X65143216Y-113176437D01*
X65214031Y-113181501D01*
X65259094Y-113210462D01*
X65853241Y-113804608D01*
X66281584Y-114232951D01*
X66404505Y-114315084D01*
X66541087Y-114371658D01*
X66686082Y-114400500D01*
X66686087Y-114400500D01*
X70483913Y-114400500D01*
X70483917Y-114400500D01*
X70483918Y-114400500D01*
X70628913Y-114371658D01*
X70765495Y-114315084D01*
X70814729Y-114282186D01*
X70888416Y-114232952D01*
X72090906Y-113030460D01*
X72153217Y-112996437D01*
X72224032Y-113001501D01*
X72269095Y-113030462D01*
X73281584Y-114042951D01*
X73404505Y-114125084D01*
X73541087Y-114181658D01*
X73686082Y-114210500D01*
X73686087Y-114210500D01*
X76893913Y-114210500D01*
X76893917Y-114210500D01*
X76893918Y-114210500D01*
X77038913Y-114181658D01*
X77175495Y-114125084D01*
X77224729Y-114092186D01*
X77298416Y-114042952D01*
X78885905Y-112455460D01*
X78948216Y-112421437D01*
X79019031Y-112426501D01*
X79064094Y-112455462D01*
X80141579Y-113532948D01*
X80141583Y-113532951D01*
X80141584Y-113532952D01*
X80206134Y-113576082D01*
X80264505Y-113615084D01*
X80401087Y-113671658D01*
X80546082Y-113700500D01*
X80546083Y-113700500D01*
X80546087Y-113700500D01*
X84213913Y-113700500D01*
X84213917Y-113700500D01*
X84213918Y-113700500D01*
X84358913Y-113671658D01*
X84495495Y-113615084D01*
X84553866Y-113576082D01*
X84618416Y-113532952D01*
X85436105Y-112715263D01*
X102179500Y-112715263D01*
X102179500Y-112944736D01*
X102209450Y-113172231D01*
X102209452Y-113172238D01*
X102268842Y-113393887D01*
X102356656Y-113605888D01*
X102356657Y-113605889D01*
X102356662Y-113605900D01*
X102471386Y-113804608D01*
X102471391Y-113804615D01*
X102611073Y-113986652D01*
X102611092Y-113986673D01*
X102773326Y-114148907D01*
X102773347Y-114148926D01*
X102955384Y-114288608D01*
X102955391Y-114288613D01*
X103154099Y-114403337D01*
X103154103Y-114403338D01*
X103154112Y-114403344D01*
X103366113Y-114491158D01*
X103587762Y-114550548D01*
X103587766Y-114550548D01*
X103587768Y-114550549D01*
X103646398Y-114558267D01*
X103815266Y-114580500D01*
X103815273Y-114580500D01*
X104044727Y-114580500D01*
X104044734Y-114580500D01*
X104250345Y-114553430D01*
X104272231Y-114550549D01*
X104272231Y-114550548D01*
X104272238Y-114550548D01*
X104493887Y-114491158D01*
X104705888Y-114403344D01*
X104904612Y-114288611D01*
X105086661Y-114148919D01*
X105248919Y-113986661D01*
X105388611Y-113804612D01*
X105503344Y-113605888D01*
X105591158Y-113393887D01*
X105650548Y-113172238D01*
X105680500Y-112944734D01*
X105680500Y-112715266D01*
X105680500Y-112715263D01*
X116219500Y-112715263D01*
X116219500Y-112944736D01*
X116249450Y-113172231D01*
X116249452Y-113172238D01*
X116308842Y-113393887D01*
X116396656Y-113605888D01*
X116396657Y-113605889D01*
X116396662Y-113605900D01*
X116511386Y-113804608D01*
X116511391Y-113804615D01*
X116651073Y-113986652D01*
X116651092Y-113986673D01*
X116813326Y-114148907D01*
X116813347Y-114148926D01*
X116995384Y-114288608D01*
X116995391Y-114288613D01*
X117194099Y-114403337D01*
X117194103Y-114403338D01*
X117194112Y-114403344D01*
X117406113Y-114491158D01*
X117627762Y-114550548D01*
X117627766Y-114550548D01*
X117627768Y-114550549D01*
X117686398Y-114558267D01*
X117855266Y-114580500D01*
X117855273Y-114580500D01*
X118084727Y-114580500D01*
X118084734Y-114580500D01*
X118290345Y-114553430D01*
X118312231Y-114550549D01*
X118312231Y-114550548D01*
X118312238Y-114550548D01*
X118533887Y-114491158D01*
X118745888Y-114403344D01*
X118944612Y-114288611D01*
X119126661Y-114148919D01*
X119288919Y-113986661D01*
X119428611Y-113804612D01*
X119543344Y-113605888D01*
X119631158Y-113393887D01*
X119690548Y-113172238D01*
X119720500Y-112944734D01*
X119720500Y-112715266D01*
X119700023Y-112559727D01*
X119695373Y-112524407D01*
X119693673Y-112511494D01*
X123709500Y-112511494D01*
X123709500Y-112848505D01*
X123747233Y-113183398D01*
X123791590Y-113377737D01*
X123822224Y-113511954D01*
X123822226Y-113511960D01*
X123822225Y-113511960D01*
X123933524Y-113830033D01*
X123933535Y-113830060D01*
X124079751Y-114133681D01*
X124079756Y-114133690D01*
X124259051Y-114419036D01*
X124469177Y-114682526D01*
X124707473Y-114920822D01*
X124970963Y-115130948D01*
X125256309Y-115310243D01*
X125256314Y-115310246D01*
X125559949Y-115456469D01*
X125559965Y-115456474D01*
X125559966Y-115456475D01*
X125878039Y-115567774D01*
X125878042Y-115567774D01*
X125878046Y-115567776D01*
X126121239Y-115623282D01*
X126206601Y-115642766D01*
X126206602Y-115642766D01*
X126206606Y-115642767D01*
X126427492Y-115667654D01*
X126541494Y-115680500D01*
X126541496Y-115680500D01*
X126878506Y-115680500D01*
X126975925Y-115669523D01*
X127213394Y-115642767D01*
X127541954Y-115567776D01*
X127860051Y-115456469D01*
X128163686Y-115310246D01*
X128449039Y-115130946D01*
X128712523Y-114920825D01*
X128950825Y-114682523D01*
X129160946Y-114419039D01*
X129340246Y-114133686D01*
X129486469Y-113830051D01*
X129575337Y-113576082D01*
X129597774Y-113511960D01*
X129597774Y-113511959D01*
X129597776Y-113511954D01*
X129672767Y-113183394D01*
X129710500Y-112848504D01*
X129710500Y-112511496D01*
X129707826Y-112487768D01*
X129676580Y-112210447D01*
X129672767Y-112176606D01*
X129597776Y-111848046D01*
X129596406Y-111844132D01*
X129486475Y-111529966D01*
X129486474Y-111529965D01*
X129486469Y-111529949D01*
X129353429Y-111253688D01*
X129340248Y-111226318D01*
X129340243Y-111226309D01*
X129160948Y-110940963D01*
X128950822Y-110677473D01*
X128712526Y-110439177D01*
X128449036Y-110229051D01*
X128163690Y-110049756D01*
X128163681Y-110049751D01*
X127860060Y-109903535D01*
X127860055Y-109903533D01*
X127860051Y-109903531D01*
X127860045Y-109903528D01*
X127860033Y-109903524D01*
X127541960Y-109792225D01*
X127213398Y-109717233D01*
X126878506Y-109679500D01*
X126878504Y-109679500D01*
X126541496Y-109679500D01*
X126541494Y-109679500D01*
X126206601Y-109717233D01*
X125878039Y-109792225D01*
X125559966Y-109903524D01*
X125559939Y-109903535D01*
X125256318Y-110049751D01*
X125256309Y-110049756D01*
X124970963Y-110229051D01*
X124707473Y-110439177D01*
X124469177Y-110677473D01*
X124259051Y-110940963D01*
X124079756Y-111226309D01*
X124079751Y-111226318D01*
X123933535Y-111529939D01*
X123933524Y-111529966D01*
X123822225Y-111848039D01*
X123747233Y-112176601D01*
X123709500Y-112511494D01*
X119693673Y-112511494D01*
X119690549Y-112487768D01*
X119690548Y-112487766D01*
X119690548Y-112487762D01*
X119631158Y-112266113D01*
X119543344Y-112054112D01*
X119543338Y-112054103D01*
X119543337Y-112054099D01*
X119428613Y-111855391D01*
X119428608Y-111855384D01*
X119288926Y-111673347D01*
X119288907Y-111673326D01*
X119126673Y-111511092D01*
X119126652Y-111511073D01*
X118944615Y-111371391D01*
X118944608Y-111371386D01*
X118745900Y-111256662D01*
X118745892Y-111256658D01*
X118745888Y-111256656D01*
X118533887Y-111168842D01*
X118312238Y-111109452D01*
X118312231Y-111109450D01*
X118084736Y-111079500D01*
X118084734Y-111079500D01*
X117855266Y-111079500D01*
X117855263Y-111079500D01*
X117627768Y-111109450D01*
X117406113Y-111168842D01*
X117197908Y-111255084D01*
X117194110Y-111256657D01*
X117194099Y-111256662D01*
X116995391Y-111371386D01*
X116995384Y-111371391D01*
X116813347Y-111511073D01*
X116813326Y-111511092D01*
X116651092Y-111673326D01*
X116651073Y-111673347D01*
X116511391Y-111855384D01*
X116511386Y-111855391D01*
X116396662Y-112054099D01*
X116396657Y-112054110D01*
X116396656Y-112054112D01*
X116392616Y-112063865D01*
X116308842Y-112266113D01*
X116249450Y-112487768D01*
X116219500Y-112715263D01*
X105680500Y-112715263D01*
X105658267Y-112546398D01*
X105650549Y-112487768D01*
X105650548Y-112487766D01*
X105650548Y-112487762D01*
X105591158Y-112266113D01*
X105503344Y-112054112D01*
X105503338Y-112054103D01*
X105503337Y-112054099D01*
X105388613Y-111855391D01*
X105388608Y-111855384D01*
X105248926Y-111673347D01*
X105248907Y-111673326D01*
X105086673Y-111511092D01*
X105086652Y-111511073D01*
X104904615Y-111371391D01*
X104904608Y-111371386D01*
X104705900Y-111256662D01*
X104705892Y-111256658D01*
X104705888Y-111256656D01*
X104493887Y-111168842D01*
X104272238Y-111109452D01*
X104272231Y-111109450D01*
X104044736Y-111079500D01*
X104044734Y-111079500D01*
X103815266Y-111079500D01*
X103815263Y-111079500D01*
X103587768Y-111109450D01*
X103366113Y-111168842D01*
X103157908Y-111255084D01*
X103154110Y-111256657D01*
X103154099Y-111256662D01*
X102955391Y-111371386D01*
X102955384Y-111371391D01*
X102773347Y-111511073D01*
X102773326Y-111511092D01*
X102611092Y-111673326D01*
X102611073Y-111673347D01*
X102471391Y-111855384D01*
X102471386Y-111855391D01*
X102356662Y-112054099D01*
X102356657Y-112054110D01*
X102356656Y-112054112D01*
X102352616Y-112063865D01*
X102268842Y-112266113D01*
X102209450Y-112487768D01*
X102179500Y-112715263D01*
X85436105Y-112715263D01*
X86297951Y-111853416D01*
X86339989Y-111790502D01*
X86382755Y-111726498D01*
X86437231Y-111680970D01*
X86487520Y-111670499D01*
X86662865Y-111670499D01*
X86662872Y-111670499D01*
X86722483Y-111664091D01*
X86857331Y-111613796D01*
X86972546Y-111527546D01*
X87058796Y-111412331D01*
X87087513Y-111335335D01*
X87130058Y-111278500D01*
X87196578Y-111253688D01*
X87265953Y-111268779D01*
X87294664Y-111290272D01*
X87342629Y-111338237D01*
X87342632Y-111338239D01*
X87342635Y-111338242D01*
X87520978Y-111467815D01*
X87717394Y-111567895D01*
X87927049Y-111636015D01*
X88144778Y-111670500D01*
X88144781Y-111670500D01*
X88365219Y-111670500D01*
X88365222Y-111670500D01*
X88582951Y-111636015D01*
X88792606Y-111567895D01*
X88989022Y-111467815D01*
X89167365Y-111338242D01*
X89323242Y-111182365D01*
X89403107Y-111072438D01*
X89459329Y-111029085D01*
X89505043Y-111020500D01*
X90416941Y-111020500D01*
X90485062Y-111040502D01*
X90506036Y-111057404D01*
X90783969Y-111335336D01*
X91051584Y-111602951D01*
X91174505Y-111685084D01*
X91311087Y-111741658D01*
X91456082Y-111770500D01*
X91603917Y-111770500D01*
X93042875Y-111770500D01*
X93110996Y-111790502D01*
X93135375Y-111811780D01*
X93135554Y-111811602D01*
X93138189Y-111814237D01*
X93138693Y-111814677D01*
X93139049Y-111815094D01*
X93139055Y-111815102D01*
X93139060Y-111815107D01*
X93139067Y-111815115D01*
X93274892Y-111950940D01*
X93274895Y-111950942D01*
X93274898Y-111950945D01*
X93430319Y-112063865D01*
X93601491Y-112151082D01*
X93784193Y-112210445D01*
X93784194Y-112210445D01*
X93784199Y-112210447D01*
X93973945Y-112240500D01*
X93973948Y-112240500D01*
X94166052Y-112240500D01*
X94166055Y-112240500D01*
X94355801Y-112210447D01*
X94538509Y-112151082D01*
X94709681Y-112063865D01*
X94865102Y-111950945D01*
X95000945Y-111815102D01*
X95000955Y-111815087D01*
X95001307Y-111814677D01*
X95001491Y-111814556D01*
X95004446Y-111811602D01*
X95005066Y-111812222D01*
X95060755Y-111775863D01*
X95097125Y-111770500D01*
X95582875Y-111770500D01*
X95650996Y-111790502D01*
X95675375Y-111811780D01*
X95675554Y-111811602D01*
X95678189Y-111814237D01*
X95678693Y-111814677D01*
X95679049Y-111815094D01*
X95679055Y-111815102D01*
X95679060Y-111815107D01*
X95679067Y-111815115D01*
X95814892Y-111950940D01*
X95814895Y-111950942D01*
X95814898Y-111950945D01*
X95970319Y-112063865D01*
X96141491Y-112151082D01*
X96324193Y-112210445D01*
X96324194Y-112210445D01*
X96324199Y-112210447D01*
X96513945Y-112240500D01*
X96513948Y-112240500D01*
X96706052Y-112240500D01*
X96706055Y-112240500D01*
X96895801Y-112210447D01*
X97078509Y-112151082D01*
X97249681Y-112063865D01*
X97405102Y-111950945D01*
X97540945Y-111815102D01*
X97653865Y-111659681D01*
X97741082Y-111488509D01*
X97760167Y-111429769D01*
X97800240Y-111371164D01*
X97865637Y-111343527D01*
X97935594Y-111355634D01*
X97987900Y-111403640D01*
X97999833Y-111429770D01*
X98014105Y-111473698D01*
X98018918Y-111488509D01*
X98106135Y-111659681D01*
X98219055Y-111815102D01*
X98219057Y-111815104D01*
X98219059Y-111815107D01*
X98354892Y-111950940D01*
X98354895Y-111950942D01*
X98354898Y-111950945D01*
X98510319Y-112063865D01*
X98681491Y-112151082D01*
X98864193Y-112210445D01*
X98864194Y-112210445D01*
X98864199Y-112210447D01*
X99053945Y-112240500D01*
X99053948Y-112240500D01*
X99246052Y-112240500D01*
X99246055Y-112240500D01*
X99435801Y-112210447D01*
X99618509Y-112151082D01*
X99789681Y-112063865D01*
X99945102Y-111950945D01*
X100080945Y-111815102D01*
X100193865Y-111659681D01*
X100281082Y-111488509D01*
X100340447Y-111305801D01*
X100370500Y-111116055D01*
X100370500Y-110923945D01*
X100340447Y-110734199D01*
X100281082Y-110551491D01*
X100193865Y-110380319D01*
X100080945Y-110224898D01*
X100080942Y-110224895D01*
X100080940Y-110224892D01*
X99945102Y-110089054D01*
X99944664Y-110088680D01*
X99944543Y-110088495D01*
X99941602Y-110085554D01*
X99942220Y-110084935D01*
X99905858Y-110029228D01*
X99900500Y-109992874D01*
X99900500Y-109083058D01*
X99920502Y-109014937D01*
X99937400Y-108993967D01*
X100302952Y-108628416D01*
X100365356Y-108535020D01*
X100365357Y-108535019D01*
X100375220Y-108520256D01*
X100385084Y-108505495D01*
X100410349Y-108444500D01*
X100441659Y-108368912D01*
X100470500Y-108223917D01*
X100470500Y-108185263D01*
X120899500Y-108185263D01*
X120899500Y-108414736D01*
X120929450Y-108642231D01*
X120929452Y-108642238D01*
X120988842Y-108863887D01*
X121076656Y-109075888D01*
X121076657Y-109075889D01*
X121076662Y-109075900D01*
X121191386Y-109274608D01*
X121191391Y-109274615D01*
X121331073Y-109456652D01*
X121331092Y-109456673D01*
X121493326Y-109618907D01*
X121493347Y-109618926D01*
X121675384Y-109758608D01*
X121675391Y-109758613D01*
X121874099Y-109873337D01*
X121874103Y-109873338D01*
X121874112Y-109873344D01*
X122086113Y-109961158D01*
X122307762Y-110020548D01*
X122307766Y-110020548D01*
X122307768Y-110020549D01*
X122366398Y-110028267D01*
X122535266Y-110050500D01*
X122535273Y-110050500D01*
X122764727Y-110050500D01*
X122764734Y-110050500D01*
X122970345Y-110023430D01*
X122992231Y-110020549D01*
X122992231Y-110020548D01*
X122992238Y-110020548D01*
X123213887Y-109961158D01*
X123425888Y-109873344D01*
X123624612Y-109758611D01*
X123806661Y-109618919D01*
X123968919Y-109456661D01*
X124108611Y-109274612D01*
X124223344Y-109075888D01*
X124311158Y-108863887D01*
X124370548Y-108642238D01*
X124400500Y-108414734D01*
X124400500Y-108185266D01*
X124376175Y-108000499D01*
X124370549Y-107957768D01*
X124370548Y-107957766D01*
X124370548Y-107957762D01*
X124311158Y-107736113D01*
X124223344Y-107524112D01*
X124223338Y-107524103D01*
X124223337Y-107524099D01*
X124108613Y-107325391D01*
X124108608Y-107325384D01*
X123968926Y-107143347D01*
X123968907Y-107143326D01*
X123806673Y-106981092D01*
X123806652Y-106981073D01*
X123624615Y-106841391D01*
X123624608Y-106841386D01*
X123425900Y-106726662D01*
X123425892Y-106726658D01*
X123425888Y-106726656D01*
X123213887Y-106638842D01*
X123039957Y-106592238D01*
X122992231Y-106579450D01*
X122764736Y-106549500D01*
X122764734Y-106549500D01*
X122535266Y-106549500D01*
X122535263Y-106549500D01*
X122307768Y-106579450D01*
X122086113Y-106638842D01*
X121883644Y-106722708D01*
X121874110Y-106726657D01*
X121874099Y-106726662D01*
X121675391Y-106841386D01*
X121675384Y-106841391D01*
X121493347Y-106981073D01*
X121493326Y-106981092D01*
X121331092Y-107143326D01*
X121331073Y-107143347D01*
X121191391Y-107325384D01*
X121191386Y-107325391D01*
X121076662Y-107524099D01*
X121076657Y-107524110D01*
X121076656Y-107524112D01*
X121042927Y-107605541D01*
X120988842Y-107736113D01*
X120929450Y-107957768D01*
X120899500Y-108185263D01*
X100470500Y-108185263D01*
X100470500Y-108076082D01*
X100470500Y-106536436D01*
X100490502Y-106468315D01*
X100522440Y-106434499D01*
X100532459Y-106427220D01*
X100567219Y-106401966D01*
X100711966Y-106257219D01*
X100800571Y-106135263D01*
X102179500Y-106135263D01*
X102179500Y-106364736D01*
X102209450Y-106592231D01*
X102209452Y-106592238D01*
X102268842Y-106813887D01*
X102356656Y-107025888D01*
X102356657Y-107025889D01*
X102356662Y-107025900D01*
X102471386Y-107224608D01*
X102471391Y-107224615D01*
X102611073Y-107406652D01*
X102611092Y-107406673D01*
X102773326Y-107568907D01*
X102773347Y-107568926D01*
X102955384Y-107708608D01*
X102955391Y-107708613D01*
X103154099Y-107823337D01*
X103154103Y-107823338D01*
X103154112Y-107823344D01*
X103366113Y-107911158D01*
X103587762Y-107970548D01*
X103587766Y-107970548D01*
X103587768Y-107970549D01*
X103646398Y-107978267D01*
X103815266Y-108000500D01*
X103815273Y-108000500D01*
X104044727Y-108000500D01*
X104044734Y-108000500D01*
X104250345Y-107973430D01*
X104272231Y-107970549D01*
X104272231Y-107970548D01*
X104272238Y-107970548D01*
X104493887Y-107911158D01*
X104705888Y-107823344D01*
X104904612Y-107708611D01*
X105086661Y-107568919D01*
X105248919Y-107406661D01*
X105388611Y-107224612D01*
X105503344Y-107025888D01*
X105591158Y-106813887D01*
X105650548Y-106592238D01*
X105680500Y-106364734D01*
X105680500Y-106135266D01*
X105680500Y-106135263D01*
X116219500Y-106135263D01*
X116219500Y-106364736D01*
X116249450Y-106592231D01*
X116249452Y-106592238D01*
X116308842Y-106813887D01*
X116396656Y-107025888D01*
X116396657Y-107025889D01*
X116396662Y-107025900D01*
X116511386Y-107224608D01*
X116511391Y-107224615D01*
X116651073Y-107406652D01*
X116651092Y-107406673D01*
X116813326Y-107568907D01*
X116813347Y-107568926D01*
X116995384Y-107708608D01*
X116995391Y-107708613D01*
X117194099Y-107823337D01*
X117194103Y-107823338D01*
X117194112Y-107823344D01*
X117406113Y-107911158D01*
X117627762Y-107970548D01*
X117627766Y-107970548D01*
X117627768Y-107970549D01*
X117686398Y-107978267D01*
X117855266Y-108000500D01*
X117855273Y-108000500D01*
X118084727Y-108000500D01*
X118084734Y-108000500D01*
X118290345Y-107973430D01*
X118312231Y-107970549D01*
X118312231Y-107970548D01*
X118312238Y-107970548D01*
X118533887Y-107911158D01*
X118745888Y-107823344D01*
X118944612Y-107708611D01*
X119126661Y-107568919D01*
X119288919Y-107406661D01*
X119428611Y-107224612D01*
X119543344Y-107025888D01*
X119631158Y-106813887D01*
X119690548Y-106592238D01*
X119720500Y-106364734D01*
X119720500Y-106135266D01*
X119690548Y-105907762D01*
X119631158Y-105686113D01*
X119543344Y-105474112D01*
X119543338Y-105474103D01*
X119543337Y-105474099D01*
X119428613Y-105275391D01*
X119428608Y-105275384D01*
X119288926Y-105093347D01*
X119288907Y-105093326D01*
X119126673Y-104931092D01*
X119126652Y-104931073D01*
X118944615Y-104791391D01*
X118944608Y-104791386D01*
X118745900Y-104676662D01*
X118745892Y-104676658D01*
X118745888Y-104676656D01*
X118533887Y-104588842D01*
X118312238Y-104529452D01*
X118312231Y-104529450D01*
X118084736Y-104499500D01*
X118084734Y-104499500D01*
X117855266Y-104499500D01*
X117855263Y-104499500D01*
X117627768Y-104529450D01*
X117435858Y-104580872D01*
X117406113Y-104588842D01*
X117251339Y-104652952D01*
X117194110Y-104676657D01*
X117194099Y-104676662D01*
X116995391Y-104791386D01*
X116995384Y-104791391D01*
X116813347Y-104931073D01*
X116813326Y-104931092D01*
X116651092Y-105093326D01*
X116651073Y-105093347D01*
X116511391Y-105275384D01*
X116511386Y-105275391D01*
X116396662Y-105474099D01*
X116396657Y-105474110D01*
X116396656Y-105474112D01*
X116313390Y-105675133D01*
X116308842Y-105686113D01*
X116249450Y-105907768D01*
X116219500Y-106135263D01*
X105680500Y-106135263D01*
X105650548Y-105907762D01*
X105591158Y-105686113D01*
X105503344Y-105474112D01*
X105503338Y-105474103D01*
X105503337Y-105474099D01*
X105388613Y-105275391D01*
X105388608Y-105275384D01*
X105248926Y-105093347D01*
X105248907Y-105093326D01*
X105086673Y-104931092D01*
X105086652Y-104931073D01*
X104904615Y-104791391D01*
X104904608Y-104791386D01*
X104705900Y-104676662D01*
X104705892Y-104676658D01*
X104705888Y-104676656D01*
X104493887Y-104588842D01*
X104272238Y-104529452D01*
X104272231Y-104529450D01*
X104044736Y-104499500D01*
X104044734Y-104499500D01*
X103815266Y-104499500D01*
X103815263Y-104499500D01*
X103587768Y-104529450D01*
X103395858Y-104580872D01*
X103366113Y-104588842D01*
X103211339Y-104652952D01*
X103154110Y-104676657D01*
X103154099Y-104676662D01*
X102955391Y-104791386D01*
X102955384Y-104791391D01*
X102773347Y-104931073D01*
X102773326Y-104931092D01*
X102611092Y-105093326D01*
X102611073Y-105093347D01*
X102471391Y-105275384D01*
X102471386Y-105275391D01*
X102356662Y-105474099D01*
X102356657Y-105474110D01*
X102356656Y-105474112D01*
X102273390Y-105675133D01*
X102268842Y-105686113D01*
X102209450Y-105907768D01*
X102179500Y-106135263D01*
X100800571Y-106135263D01*
X100832287Y-106091610D01*
X100925220Y-105909219D01*
X100988477Y-105714534D01*
X101020500Y-105512352D01*
X101020500Y-105307648D01*
X100988477Y-105105466D01*
X100925220Y-104910781D01*
X100832287Y-104728390D01*
X100819409Y-104710665D01*
X100711965Y-104562779D01*
X100567220Y-104418034D01*
X100401612Y-104297714D01*
X100378308Y-104285840D01*
X100219219Y-104204780D01*
X100219216Y-104204779D01*
X100219214Y-104204778D01*
X100024538Y-104141524D01*
X100024536Y-104141523D01*
X100024534Y-104141523D01*
X99822352Y-104109500D01*
X99617648Y-104109500D01*
X99415466Y-104141523D01*
X99415464Y-104141523D01*
X99415461Y-104141524D01*
X99220785Y-104204778D01*
X99220779Y-104204781D01*
X99038387Y-104297714D01*
X98872779Y-104418034D01*
X98728034Y-104562779D01*
X98607714Y-104728387D01*
X98514781Y-104910779D01*
X98514778Y-104910785D01*
X98451524Y-105105461D01*
X98451523Y-105105464D01*
X98451523Y-105105466D01*
X98419500Y-105307648D01*
X98419500Y-105512352D01*
X98451523Y-105714534D01*
X98451524Y-105714538D01*
X98514308Y-105907768D01*
X98514780Y-105909219D01*
X98557442Y-105992948D01*
X98607714Y-106091612D01*
X98728034Y-106257220D01*
X98872769Y-106401955D01*
X98872776Y-106401961D01*
X98872781Y-106401966D01*
X98907541Y-106427220D01*
X98917560Y-106434499D01*
X98960914Y-106490721D01*
X98969500Y-106536436D01*
X98969500Y-107786941D01*
X98949498Y-107855062D01*
X98932595Y-107876036D01*
X98567054Y-108241576D01*
X98567049Y-108241583D01*
X98517812Y-108315269D01*
X98517813Y-108315270D01*
X98484916Y-108364504D01*
X98428343Y-108501083D01*
X98428342Y-108501086D01*
X98399500Y-108646083D01*
X98399500Y-109992874D01*
X98379498Y-110060995D01*
X98358219Y-110085375D01*
X98358398Y-110085554D01*
X98355774Y-110088177D01*
X98355336Y-110088680D01*
X98354897Y-110089054D01*
X98219059Y-110224892D01*
X98219057Y-110224895D01*
X98106137Y-110380315D01*
X98018919Y-110551489D01*
X98018916Y-110551495D01*
X97999833Y-110610229D01*
X97959759Y-110668835D01*
X97894363Y-110696472D01*
X97824406Y-110684365D01*
X97772100Y-110636359D01*
X97760167Y-110610229D01*
X97741083Y-110551495D01*
X97741082Y-110551491D01*
X97653865Y-110380319D01*
X97540945Y-110224898D01*
X97540942Y-110224895D01*
X97540940Y-110224892D01*
X97405107Y-110089059D01*
X97405104Y-110089057D01*
X97405102Y-110089055D01*
X97249681Y-109976135D01*
X97078509Y-109888918D01*
X97078506Y-109888917D01*
X97078504Y-109888916D01*
X96895804Y-109829554D01*
X96895808Y-109829554D01*
X96860480Y-109823958D01*
X96706055Y-109799500D01*
X96513945Y-109799500D01*
X96324199Y-109829553D01*
X96324193Y-109829554D01*
X96141495Y-109888916D01*
X96141489Y-109888919D01*
X95970315Y-109976137D01*
X95814895Y-110089057D01*
X95814892Y-110089059D01*
X95679067Y-110224884D01*
X95678693Y-110225323D01*
X95678508Y-110225443D01*
X95675554Y-110228398D01*
X95674933Y-110227777D01*
X95619245Y-110264137D01*
X95582875Y-110269500D01*
X95097125Y-110269500D01*
X95029004Y-110249498D01*
X95004624Y-110228219D01*
X95004446Y-110228398D01*
X95001810Y-110225762D01*
X95001307Y-110225323D01*
X95000950Y-110224906D01*
X95000945Y-110224898D01*
X95000937Y-110224890D01*
X95000932Y-110224884D01*
X94865107Y-110089059D01*
X94865104Y-110089057D01*
X94865102Y-110089055D01*
X94709681Y-109976135D01*
X94538509Y-109888918D01*
X94538506Y-109888917D01*
X94538504Y-109888916D01*
X94355804Y-109829554D01*
X94355808Y-109829554D01*
X94320480Y-109823958D01*
X94166055Y-109799500D01*
X93973945Y-109799500D01*
X93784199Y-109829553D01*
X93784193Y-109829554D01*
X93601495Y-109888916D01*
X93601489Y-109888919D01*
X93430315Y-109976137D01*
X93274895Y-110089057D01*
X93274892Y-110089059D01*
X93139067Y-110224884D01*
X93138693Y-110225323D01*
X93138508Y-110225443D01*
X93135554Y-110228398D01*
X93134933Y-110227777D01*
X93079245Y-110264137D01*
X93042875Y-110269500D01*
X91893058Y-110269500D01*
X91824937Y-110249498D01*
X91803962Y-110232595D01*
X91547504Y-109976137D01*
X91258416Y-109687048D01*
X91247119Y-109679500D01*
X91176101Y-109632048D01*
X91156434Y-109618907D01*
X91135495Y-109604916D01*
X91135493Y-109604915D01*
X90998916Y-109548343D01*
X90998913Y-109548342D01*
X90936736Y-109535974D01*
X90853918Y-109519500D01*
X90853916Y-109519500D01*
X89505043Y-109519500D01*
X89436922Y-109499498D01*
X89403107Y-109467561D01*
X89323242Y-109357635D01*
X89323239Y-109357632D01*
X89323237Y-109357629D01*
X89167370Y-109201762D01*
X89167367Y-109201760D01*
X89167365Y-109201758D01*
X89005499Y-109084156D01*
X88989025Y-109072187D01*
X88989024Y-109072186D01*
X88989022Y-109072185D01*
X88792606Y-108972105D01*
X88792603Y-108972104D01*
X88792601Y-108972103D01*
X88582954Y-108903986D01*
X88582951Y-108903985D01*
X88365222Y-108869500D01*
X88144778Y-108869500D01*
X87927049Y-108903985D01*
X87927046Y-108903985D01*
X87927045Y-108903986D01*
X87717398Y-108972103D01*
X87717392Y-108972106D01*
X87520974Y-109072187D01*
X87342634Y-109201758D01*
X87294664Y-109249728D01*
X87267904Y-109264339D01*
X87242440Y-109281117D01*
X87237066Y-109281178D01*
X87232351Y-109283753D01*
X87201938Y-109281577D01*
X87171448Y-109281924D01*
X87166894Y-109279070D01*
X87161535Y-109278687D01*
X87137125Y-109260413D01*
X87111289Y-109244222D01*
X87107847Y-109238496D01*
X87104700Y-109236140D01*
X87091558Y-109214274D01*
X87089336Y-109209552D01*
X87058796Y-109127669D01*
X87037299Y-109098952D01*
X87031839Y-109087348D01*
X87028277Y-109064428D01*
X87020171Y-109042695D01*
X87022929Y-109030014D01*
X87020937Y-109017194D01*
X87030331Y-108995988D01*
X87035262Y-108973321D01*
X87047781Y-108956597D01*
X87049693Y-108952282D01*
X87052295Y-108950567D01*
X87056748Y-108944618D01*
X88642952Y-107358416D01*
X88692186Y-107284729D01*
X88725084Y-107235495D01*
X88781658Y-107098913D01*
X88810500Y-106953918D01*
X88810500Y-106946436D01*
X88830502Y-106878315D01*
X88862440Y-106844499D01*
X88876420Y-106834342D01*
X88907219Y-106811966D01*
X89051966Y-106667219D01*
X89172287Y-106501610D01*
X89265220Y-106319219D01*
X89328477Y-106124534D01*
X89354697Y-105958988D01*
X89385109Y-105894838D01*
X89445377Y-105857311D01*
X89516366Y-105858325D01*
X89568240Y-105889607D01*
X89671584Y-105992951D01*
X89794505Y-106075084D01*
X89931087Y-106131658D01*
X90076082Y-106160500D01*
X90973564Y-106160500D01*
X91041685Y-106180502D01*
X91075498Y-106212438D01*
X91108034Y-106257219D01*
X91108038Y-106257223D01*
X91108038Y-106257224D01*
X91252779Y-106401965D01*
X91413146Y-106518477D01*
X91418390Y-106522287D01*
X91600781Y-106615220D01*
X91795466Y-106678477D01*
X91997648Y-106710500D01*
X91997651Y-106710500D01*
X92202349Y-106710500D01*
X92202352Y-106710500D01*
X92404534Y-106678477D01*
X92599219Y-106615220D01*
X92781610Y-106522287D01*
X92947219Y-106401966D01*
X93091966Y-106257219D01*
X93212287Y-106091610D01*
X93305220Y-105909219D01*
X93368477Y-105714534D01*
X93400500Y-105512352D01*
X93400500Y-105307648D01*
X93368477Y-105105466D01*
X93305220Y-104910781D01*
X93212287Y-104728390D01*
X93199409Y-104710665D01*
X93091965Y-104562779D01*
X92969371Y-104440185D01*
X92935345Y-104377873D01*
X92940410Y-104307058D01*
X92969369Y-104261997D01*
X94292266Y-102939101D01*
X94374399Y-102816180D01*
X94430973Y-102679598D01*
X94459815Y-102534603D01*
X94459815Y-102395176D01*
X94479817Y-102327055D01*
X94533473Y-102280562D01*
X94546167Y-102275577D01*
X94578649Y-102264814D01*
X94727971Y-102172712D01*
X94852027Y-102048656D01*
X94944129Y-101899334D01*
X94999314Y-101732797D01*
X95009815Y-101630009D01*
X95009814Y-100429992D01*
X95000701Y-100340785D01*
X94999314Y-100327202D01*
X94944129Y-100160665D01*
X94926847Y-100132647D01*
X94908110Y-100064168D01*
X94929369Y-99996429D01*
X94983876Y-99950937D01*
X95034088Y-99940500D01*
X95316257Y-99940500D01*
X95384378Y-99960502D01*
X95405352Y-99977405D01*
X96192120Y-100764173D01*
X96226146Y-100826485D01*
X96227474Y-100872978D01*
X96218815Y-100927648D01*
X96218815Y-101132352D01*
X96250838Y-101334534D01*
X96250839Y-101334538D01*
X96311622Y-101521610D01*
X96314095Y-101529219D01*
X96365450Y-101630008D01*
X96407029Y-101711612D01*
X96527349Y-101877220D01*
X96672094Y-102021965D01*
X96813797Y-102124917D01*
X96837705Y-102142287D01*
X97020096Y-102235220D01*
X97214781Y-102298477D01*
X97416963Y-102330500D01*
X97416966Y-102330500D01*
X97621664Y-102330500D01*
X97621667Y-102330500D01*
X97823849Y-102298477D01*
X98018534Y-102235220D01*
X98200925Y-102142287D01*
X98366534Y-102021966D01*
X98511281Y-101877219D01*
X98631602Y-101711610D01*
X98708090Y-101561494D01*
X131759500Y-101561494D01*
X131759500Y-101898505D01*
X131797233Y-102233398D01*
X131834158Y-102395176D01*
X131872224Y-102561954D01*
X131872226Y-102561960D01*
X131872225Y-102561960D01*
X131983524Y-102880033D01*
X131983535Y-102880060D01*
X132129751Y-103183681D01*
X132129756Y-103183690D01*
X132309051Y-103469036D01*
X132519177Y-103732526D01*
X132757473Y-103970822D01*
X133020963Y-104180948D01*
X133306309Y-104360243D01*
X133306314Y-104360246D01*
X133609949Y-104506469D01*
X133609965Y-104506474D01*
X133609966Y-104506475D01*
X133928039Y-104617774D01*
X133928042Y-104617774D01*
X133928046Y-104617776D01*
X134115944Y-104660662D01*
X134256601Y-104692766D01*
X134256602Y-104692766D01*
X134256606Y-104692767D01*
X134477492Y-104717654D01*
X134591494Y-104730500D01*
X134591496Y-104730500D01*
X134928506Y-104730500D01*
X135025925Y-104719523D01*
X135263394Y-104692767D01*
X135591954Y-104617776D01*
X135910051Y-104506469D01*
X136213686Y-104360246D01*
X136499039Y-104180946D01*
X136762523Y-103970825D01*
X137000825Y-103732523D01*
X137210946Y-103469039D01*
X137390246Y-103183686D01*
X137536469Y-102880051D01*
X137647776Y-102561954D01*
X137722767Y-102233394D01*
X137760080Y-101902235D01*
X137760500Y-101898505D01*
X137760500Y-101561494D01*
X137737927Y-101361157D01*
X137722767Y-101226606D01*
X137647776Y-100898046D01*
X137639004Y-100872978D01*
X137536475Y-100579966D01*
X137536474Y-100579965D01*
X137536469Y-100579949D01*
X137390246Y-100276314D01*
X137367417Y-100239982D01*
X137210948Y-99990963D01*
X137000822Y-99727473D01*
X136762526Y-99489177D01*
X136499036Y-99279051D01*
X136213690Y-99099756D01*
X136213681Y-99099751D01*
X135910060Y-98953535D01*
X135910055Y-98953533D01*
X135910051Y-98953531D01*
X135910045Y-98953528D01*
X135910033Y-98953524D01*
X135591960Y-98842225D01*
X135263398Y-98767233D01*
X134928506Y-98729500D01*
X134928504Y-98729500D01*
X134591496Y-98729500D01*
X134591494Y-98729500D01*
X134256601Y-98767233D01*
X133928039Y-98842225D01*
X133609966Y-98953524D01*
X133609939Y-98953535D01*
X133306318Y-99099751D01*
X133306309Y-99099756D01*
X133020963Y-99279051D01*
X132757473Y-99489177D01*
X132519177Y-99727473D01*
X132309051Y-99990963D01*
X132129756Y-100276309D01*
X132129751Y-100276318D01*
X131983535Y-100579939D01*
X131983524Y-100579966D01*
X131872225Y-100898039D01*
X131797233Y-101226601D01*
X131759500Y-101561494D01*
X98708090Y-101561494D01*
X98724535Y-101529219D01*
X98787792Y-101334534D01*
X98819815Y-101132352D01*
X98819815Y-100927648D01*
X98787792Y-100725466D01*
X98724535Y-100530781D01*
X98631602Y-100348390D01*
X98626074Y-100340781D01*
X98511280Y-100182779D01*
X98366535Y-100038034D01*
X98200924Y-99917712D01*
X98129296Y-99881215D01*
X98118053Y-99870596D01*
X98103988Y-99864173D01*
X98092769Y-99846716D01*
X98077681Y-99832466D01*
X98073371Y-99816532D01*
X98065604Y-99804447D01*
X98060500Y-99768949D01*
X98060500Y-99585263D01*
X102179500Y-99585263D01*
X102179500Y-99814736D01*
X102209450Y-100042231D01*
X102209452Y-100042238D01*
X102268842Y-100263887D01*
X102356656Y-100475888D01*
X102356657Y-100475889D01*
X102356662Y-100475900D01*
X102471386Y-100674608D01*
X102471391Y-100674615D01*
X102611073Y-100856652D01*
X102611092Y-100856673D01*
X102773326Y-101018907D01*
X102773347Y-101018926D01*
X102955384Y-101158608D01*
X102955391Y-101158613D01*
X103154099Y-101273337D01*
X103154103Y-101273338D01*
X103154112Y-101273344D01*
X103366113Y-101361158D01*
X103587762Y-101420548D01*
X103587766Y-101420548D01*
X103587768Y-101420549D01*
X103646398Y-101428267D01*
X103815266Y-101450500D01*
X103815273Y-101450500D01*
X104044727Y-101450500D01*
X104044734Y-101450500D01*
X104253986Y-101422951D01*
X104272231Y-101420549D01*
X104272231Y-101420548D01*
X104272238Y-101420548D01*
X104493887Y-101361158D01*
X104705888Y-101273344D01*
X104904612Y-101158611D01*
X105086661Y-101018919D01*
X105248919Y-100856661D01*
X105388611Y-100674612D01*
X105503344Y-100475888D01*
X105591158Y-100263887D01*
X105650548Y-100042238D01*
X105651102Y-100038034D01*
X105657059Y-99992781D01*
X105680500Y-99814734D01*
X105680500Y-99585266D01*
X105680500Y-99585263D01*
X116219500Y-99585263D01*
X116219500Y-99814736D01*
X116249450Y-100042231D01*
X116249452Y-100042238D01*
X116308842Y-100263887D01*
X116396656Y-100475888D01*
X116396657Y-100475889D01*
X116396662Y-100475900D01*
X116511386Y-100674608D01*
X116511391Y-100674615D01*
X116651073Y-100856652D01*
X116651092Y-100856673D01*
X116813326Y-101018907D01*
X116813347Y-101018926D01*
X116995384Y-101158608D01*
X116995391Y-101158613D01*
X117194099Y-101273337D01*
X117194103Y-101273338D01*
X117194112Y-101273344D01*
X117406113Y-101361158D01*
X117627762Y-101420548D01*
X117627766Y-101420548D01*
X117627768Y-101420549D01*
X117686398Y-101428267D01*
X117855266Y-101450500D01*
X117855273Y-101450500D01*
X118084727Y-101450500D01*
X118084734Y-101450500D01*
X118199247Y-101435423D01*
X118217362Y-101433039D01*
X118312231Y-101420549D01*
X118312231Y-101420548D01*
X118312238Y-101420548D01*
X118533887Y-101361158D01*
X118745888Y-101273344D01*
X118944612Y-101158611D01*
X119126661Y-101018919D01*
X119288919Y-100856661D01*
X119428611Y-100674612D01*
X119543344Y-100475888D01*
X119631158Y-100263887D01*
X119690548Y-100042238D01*
X119691102Y-100038034D01*
X119697059Y-99992781D01*
X119720500Y-99814734D01*
X119720500Y-99585266D01*
X119690548Y-99357762D01*
X119631158Y-99136113D01*
X119543344Y-98924112D01*
X119543338Y-98924103D01*
X119543337Y-98924099D01*
X119468306Y-98794141D01*
X119434313Y-98735263D01*
X126709500Y-98735263D01*
X126709500Y-98964736D01*
X126739450Y-99192231D01*
X126739452Y-99192238D01*
X126798842Y-99413887D01*
X126886656Y-99625888D01*
X126886657Y-99625889D01*
X126886662Y-99625900D01*
X127001386Y-99824608D01*
X127001391Y-99824615D01*
X127141073Y-100006652D01*
X127141092Y-100006673D01*
X127303326Y-100168907D01*
X127303347Y-100168926D01*
X127485384Y-100308608D01*
X127485391Y-100308613D01*
X127684099Y-100423337D01*
X127684103Y-100423338D01*
X127684112Y-100423344D01*
X127896113Y-100511158D01*
X128117762Y-100570548D01*
X128117766Y-100570548D01*
X128117768Y-100570549D01*
X128176398Y-100578267D01*
X128345266Y-100600500D01*
X128345273Y-100600500D01*
X128574727Y-100600500D01*
X128574734Y-100600500D01*
X128780345Y-100573430D01*
X128802231Y-100570549D01*
X128802231Y-100570548D01*
X128802238Y-100570548D01*
X129023887Y-100511158D01*
X129235888Y-100423344D01*
X129434612Y-100308611D01*
X129616661Y-100168919D01*
X129778919Y-100006661D01*
X129918611Y-99824612D01*
X130033344Y-99625888D01*
X130121158Y-99413887D01*
X130180548Y-99192238D01*
X130210500Y-98964734D01*
X130210500Y-98735266D01*
X130185230Y-98543326D01*
X130180549Y-98507768D01*
X130180548Y-98507766D01*
X130180548Y-98507762D01*
X130121158Y-98286113D01*
X130033344Y-98074112D01*
X130033338Y-98074103D01*
X130033337Y-98074099D01*
X129918613Y-97875391D01*
X129918608Y-97875384D01*
X129778926Y-97693347D01*
X129778907Y-97693326D01*
X129616673Y-97531092D01*
X129616652Y-97531073D01*
X129434615Y-97391391D01*
X129434608Y-97391386D01*
X129235900Y-97276662D01*
X129235892Y-97276658D01*
X129235888Y-97276656D01*
X129023887Y-97188842D01*
X128802238Y-97129452D01*
X128802231Y-97129450D01*
X128574736Y-97099500D01*
X128574734Y-97099500D01*
X128345266Y-97099500D01*
X128345263Y-97099500D01*
X128117768Y-97129450D01*
X127896113Y-97188842D01*
X127684110Y-97276657D01*
X127684099Y-97276662D01*
X127485391Y-97391386D01*
X127485384Y-97391391D01*
X127303347Y-97531073D01*
X127303326Y-97531092D01*
X127141092Y-97693326D01*
X127141073Y-97693347D01*
X127001391Y-97875384D01*
X127001386Y-97875391D01*
X126886662Y-98074099D01*
X126886657Y-98074110D01*
X126886656Y-98074112D01*
X126862839Y-98131612D01*
X126798842Y-98286113D01*
X126739450Y-98507768D01*
X126709500Y-98735263D01*
X119434313Y-98735263D01*
X119428613Y-98725391D01*
X119428608Y-98725384D01*
X119288926Y-98543347D01*
X119288907Y-98543326D01*
X119126673Y-98381092D01*
X119126652Y-98381073D01*
X118944615Y-98241391D01*
X118944608Y-98241386D01*
X118745900Y-98126662D01*
X118745892Y-98126658D01*
X118745888Y-98126656D01*
X118533887Y-98038842D01*
X118312238Y-97979452D01*
X118312231Y-97979450D01*
X118084736Y-97949500D01*
X118084734Y-97949500D01*
X117855266Y-97949500D01*
X117855263Y-97949500D01*
X117627768Y-97979450D01*
X117406113Y-98038842D01*
X117320996Y-98074099D01*
X117194110Y-98126657D01*
X117194099Y-98126662D01*
X116995391Y-98241386D01*
X116995384Y-98241391D01*
X116813347Y-98381073D01*
X116813326Y-98381092D01*
X116651092Y-98543326D01*
X116651073Y-98543347D01*
X116511391Y-98725384D01*
X116511386Y-98725391D01*
X116396662Y-98924099D01*
X116396657Y-98924110D01*
X116308842Y-99136113D01*
X116249450Y-99357768D01*
X116219500Y-99585263D01*
X105680500Y-99585263D01*
X105650548Y-99357762D01*
X105591158Y-99136113D01*
X105503344Y-98924112D01*
X105503338Y-98924103D01*
X105503337Y-98924099D01*
X105388613Y-98725391D01*
X105388608Y-98725384D01*
X105248926Y-98543347D01*
X105248907Y-98543326D01*
X105086673Y-98381092D01*
X105086652Y-98381073D01*
X104904615Y-98241391D01*
X104904608Y-98241386D01*
X104705900Y-98126662D01*
X104705892Y-98126658D01*
X104705888Y-98126656D01*
X104493887Y-98038842D01*
X104272238Y-97979452D01*
X104272231Y-97979450D01*
X104044736Y-97949500D01*
X104044734Y-97949500D01*
X103815266Y-97949500D01*
X103815263Y-97949500D01*
X103587768Y-97979450D01*
X103366113Y-98038842D01*
X103280996Y-98074099D01*
X103154110Y-98126657D01*
X103154099Y-98126662D01*
X102955391Y-98241386D01*
X102955384Y-98241391D01*
X102773347Y-98381073D01*
X102773326Y-98381092D01*
X102611092Y-98543326D01*
X102611073Y-98543347D01*
X102471391Y-98725384D01*
X102471386Y-98725391D01*
X102356662Y-98924099D01*
X102356657Y-98924110D01*
X102268842Y-99136113D01*
X102209450Y-99357768D01*
X102179500Y-99585263D01*
X98060500Y-99585263D01*
X98060500Y-98490875D01*
X98080502Y-98422754D01*
X98097400Y-98401784D01*
X98201966Y-98297219D01*
X98322287Y-98131610D01*
X98415220Y-97949219D01*
X98478477Y-97754534D01*
X98510500Y-97552352D01*
X98510500Y-97347648D01*
X98478477Y-97145466D01*
X98415220Y-96950781D01*
X98322287Y-96768390D01*
X98201966Y-96602781D01*
X98201965Y-96602779D01*
X98057220Y-96458034D01*
X97891609Y-96337712D01*
X97841669Y-96312267D01*
X97790053Y-96263519D01*
X97772987Y-96194604D01*
X97795887Y-96127403D01*
X97841669Y-96087733D01*
X97891610Y-96062287D01*
X98057219Y-95941966D01*
X98201966Y-95797219D01*
X98322287Y-95631610D01*
X98415220Y-95449219D01*
X98478477Y-95254534D01*
X98510500Y-95052352D01*
X98510500Y-94847648D01*
X98478477Y-94645466D01*
X98415220Y-94450781D01*
X98322287Y-94268390D01*
X98289953Y-94223886D01*
X98201965Y-94102779D01*
X98057220Y-93958034D01*
X97891612Y-93837714D01*
X97884791Y-93834239D01*
X97709219Y-93744780D01*
X97709216Y-93744779D01*
X97709214Y-93744778D01*
X97514538Y-93681524D01*
X97514536Y-93681523D01*
X97514534Y-93681523D01*
X97312352Y-93649500D01*
X97246919Y-93649500D01*
X97240807Y-93648903D01*
X97213346Y-93637839D01*
X97184936Y-93629498D01*
X97177235Y-93623292D01*
X97174954Y-93622373D01*
X97173433Y-93620228D01*
X97163962Y-93612595D01*
X97096630Y-93545263D01*
X125049500Y-93545263D01*
X125049500Y-93774736D01*
X125079450Y-94002231D01*
X125079452Y-94002238D01*
X125138842Y-94223887D01*
X125226656Y-94435888D01*
X125226657Y-94435889D01*
X125226662Y-94435900D01*
X125341386Y-94634608D01*
X125341391Y-94634615D01*
X125481073Y-94816652D01*
X125481092Y-94816673D01*
X125643326Y-94978907D01*
X125643347Y-94978926D01*
X125825384Y-95118608D01*
X125825391Y-95118613D01*
X126024099Y-95233337D01*
X126024103Y-95233338D01*
X126024112Y-95233344D01*
X126236113Y-95321158D01*
X126457762Y-95380548D01*
X126457766Y-95380548D01*
X126457768Y-95380549D01*
X126516398Y-95388267D01*
X126685266Y-95410500D01*
X126685273Y-95410500D01*
X126914727Y-95410500D01*
X126914734Y-95410500D01*
X127120345Y-95383430D01*
X127142231Y-95380549D01*
X127142231Y-95380548D01*
X127142238Y-95380548D01*
X127363887Y-95321158D01*
X127575888Y-95233344D01*
X127774612Y-95118611D01*
X127956661Y-94978919D01*
X128118919Y-94816661D01*
X128258611Y-94634612D01*
X128287477Y-94584615D01*
X128308945Y-94547432D01*
X128373337Y-94435900D01*
X128373336Y-94435900D01*
X128373344Y-94435888D01*
X128461158Y-94223887D01*
X128520548Y-94002238D01*
X128550500Y-93774734D01*
X128550500Y-93545266D01*
X128520548Y-93317762D01*
X128461158Y-93096113D01*
X128415998Y-92987087D01*
X130110000Y-92987087D01*
X130110000Y-93242712D01*
X130143363Y-93496135D01*
X130209524Y-93743051D01*
X130307349Y-93979219D01*
X130307352Y-93979225D01*
X130435152Y-94200582D01*
X130435156Y-94200588D01*
X130515739Y-94305605D01*
X130515740Y-94305606D01*
X131193821Y-93627525D01*
X131279365Y-93755550D01*
X131419350Y-93895535D01*
X131547373Y-93981077D01*
X130869292Y-94659158D01*
X130869293Y-94659159D01*
X130974311Y-94739743D01*
X130974317Y-94739747D01*
X131195674Y-94867547D01*
X131195680Y-94867550D01*
X131431848Y-94965375D01*
X131678764Y-95031536D01*
X131932187Y-95064899D01*
X131932197Y-95064900D01*
X132187803Y-95064900D01*
X132187812Y-95064899D01*
X132441235Y-95031536D01*
X132688151Y-94965375D01*
X132924319Y-94867550D01*
X132924325Y-94867547D01*
X133145682Y-94739747D01*
X133145688Y-94739743D01*
X133250706Y-94659159D01*
X133250706Y-94659158D01*
X132572625Y-93981077D01*
X132700650Y-93895535D01*
X132840635Y-93755550D01*
X132926177Y-93627525D01*
X133604258Y-94305606D01*
X133604259Y-94305606D01*
X133684843Y-94200588D01*
X133684847Y-94200582D01*
X133812647Y-93979225D01*
X133812650Y-93979219D01*
X133910475Y-93743051D01*
X133976636Y-93496134D01*
X133976751Y-93495263D01*
X134369500Y-93495263D01*
X134369500Y-93724736D01*
X134399450Y-93952231D01*
X134399452Y-93952238D01*
X134458842Y-94173887D01*
X134546656Y-94385888D01*
X134546657Y-94385889D01*
X134546662Y-94385900D01*
X134661386Y-94584608D01*
X134661391Y-94584615D01*
X134801073Y-94766652D01*
X134801092Y-94766673D01*
X134963326Y-94928907D01*
X134963347Y-94928926D01*
X135145384Y-95068608D01*
X135145391Y-95068613D01*
X135344099Y-95183337D01*
X135344103Y-95183338D01*
X135344112Y-95183344D01*
X135556113Y-95271158D01*
X135777762Y-95330548D01*
X135777766Y-95330548D01*
X135777768Y-95330549D01*
X135836398Y-95338267D01*
X136005266Y-95360500D01*
X136005273Y-95360500D01*
X136234727Y-95360500D01*
X136234734Y-95360500D01*
X136440345Y-95333430D01*
X136462231Y-95330549D01*
X136462231Y-95330548D01*
X136462238Y-95330548D01*
X136683887Y-95271158D01*
X136895888Y-95183344D01*
X137094612Y-95068611D01*
X137276661Y-94928919D01*
X137438919Y-94766661D01*
X137578611Y-94584612D01*
X137693344Y-94385888D01*
X137781158Y-94173887D01*
X137840548Y-93952238D01*
X137870500Y-93724734D01*
X137870500Y-93495266D01*
X137840548Y-93267762D01*
X137781158Y-93046113D01*
X137693344Y-92834112D01*
X137693338Y-92834103D01*
X137693337Y-92834099D01*
X137578613Y-92635391D01*
X137578608Y-92635384D01*
X137438926Y-92453347D01*
X137438907Y-92453326D01*
X137276673Y-92291092D01*
X137276652Y-92291073D01*
X137094615Y-92151391D01*
X137094608Y-92151386D01*
X136895900Y-92036662D01*
X136895892Y-92036658D01*
X136895888Y-92036656D01*
X136683887Y-91948842D01*
X136462238Y-91889452D01*
X136462231Y-91889450D01*
X136234736Y-91859500D01*
X136234734Y-91859500D01*
X136005266Y-91859500D01*
X136005263Y-91859500D01*
X135777768Y-91889450D01*
X135591165Y-91939450D01*
X135556113Y-91948842D01*
X135362072Y-92029217D01*
X135344110Y-92036657D01*
X135344099Y-92036662D01*
X135145391Y-92151386D01*
X135145384Y-92151391D01*
X134963347Y-92291073D01*
X134963326Y-92291092D01*
X134801092Y-92453326D01*
X134801073Y-92453347D01*
X134661391Y-92635384D01*
X134661386Y-92635391D01*
X134546662Y-92834099D01*
X134546657Y-92834110D01*
X134546656Y-92834112D01*
X134483287Y-92987097D01*
X134458842Y-93046113D01*
X134399450Y-93267768D01*
X134369500Y-93495263D01*
X133976751Y-93495263D01*
X133979459Y-93474695D01*
X134009999Y-93242712D01*
X134010000Y-93242703D01*
X134010000Y-92987097D01*
X134009999Y-92987087D01*
X133976636Y-92733664D01*
X133910475Y-92486748D01*
X133812650Y-92250580D01*
X133812647Y-92250574D01*
X133684847Y-92029217D01*
X133684843Y-92029211D01*
X133604259Y-91924193D01*
X133604258Y-91924192D01*
X132926177Y-92602273D01*
X132840635Y-92474250D01*
X132700650Y-92334265D01*
X132572625Y-92248721D01*
X133250706Y-91570640D01*
X133250705Y-91570639D01*
X133145688Y-91490056D01*
X133145682Y-91490052D01*
X132924325Y-91362252D01*
X132924319Y-91362249D01*
X132688151Y-91264424D01*
X132441235Y-91198263D01*
X132187812Y-91164900D01*
X131932187Y-91164900D01*
X131678764Y-91198263D01*
X131431848Y-91264424D01*
X131195680Y-91362249D01*
X131195674Y-91362252D01*
X130974317Y-91490052D01*
X130869292Y-91570640D01*
X131547374Y-92248721D01*
X131419350Y-92334265D01*
X131279365Y-92474250D01*
X131193822Y-92602274D01*
X130515740Y-91924192D01*
X130435152Y-92029217D01*
X130307352Y-92250574D01*
X130307349Y-92250580D01*
X130209524Y-92486748D01*
X130143363Y-92733664D01*
X130110000Y-92987087D01*
X128415998Y-92987087D01*
X128373344Y-92884112D01*
X128373338Y-92884103D01*
X128373337Y-92884099D01*
X128258613Y-92685391D01*
X128258608Y-92685384D01*
X128118926Y-92503347D01*
X128118907Y-92503326D01*
X127956673Y-92341092D01*
X127956652Y-92341073D01*
X127774615Y-92201391D01*
X127774608Y-92201386D01*
X127575900Y-92086662D01*
X127575892Y-92086658D01*
X127575888Y-92086656D01*
X127363887Y-91998842D01*
X127189251Y-91952049D01*
X127142231Y-91939450D01*
X126914736Y-91909500D01*
X126914734Y-91909500D01*
X126685266Y-91909500D01*
X126685263Y-91909500D01*
X126457768Y-91939450D01*
X126267250Y-91990499D01*
X126236113Y-91998842D01*
X126082435Y-92062498D01*
X126024110Y-92086657D01*
X126024099Y-92086662D01*
X125825391Y-92201386D01*
X125825384Y-92201391D01*
X125643347Y-92341073D01*
X125643326Y-92341092D01*
X125481092Y-92503326D01*
X125481073Y-92503347D01*
X125341391Y-92685384D01*
X125341386Y-92685391D01*
X125226662Y-92884099D01*
X125226657Y-92884110D01*
X125138842Y-93096113D01*
X125079450Y-93317768D01*
X125049500Y-93545263D01*
X97096630Y-93545263D01*
X95259830Y-91708462D01*
X95084414Y-91533046D01*
X95068744Y-91513953D01*
X95027878Y-91452793D01*
X94988851Y-91394384D01*
X94884316Y-91289849D01*
X93884316Y-90289848D01*
X93877657Y-90285399D01*
X93810629Y-90240613D01*
X93761395Y-90207716D01*
X93671642Y-90170539D01*
X93624816Y-90151143D01*
X93624813Y-90151142D01*
X93479818Y-90122300D01*
X93479816Y-90122300D01*
X93124383Y-90122300D01*
X93056262Y-90102298D01*
X93015264Y-90059300D01*
X92906175Y-89870353D01*
X92832194Y-89773939D01*
X92762492Y-89683101D01*
X92762486Y-89683095D01*
X92762482Y-89683090D01*
X92595609Y-89516217D01*
X92595603Y-89516212D01*
X92595599Y-89516208D01*
X92408350Y-89372527D01*
X92408349Y-89372526D01*
X92408346Y-89372524D01*
X92203961Y-89254522D01*
X92203953Y-89254518D01*
X92203949Y-89254516D01*
X91985893Y-89164194D01*
X91757914Y-89103107D01*
X91757907Y-89103105D01*
X91523913Y-89072300D01*
X91523911Y-89072300D01*
X91287889Y-89072300D01*
X91287886Y-89072300D01*
X91053892Y-89103105D01*
X90889389Y-89147184D01*
X90825907Y-89164194D01*
X90620222Y-89249392D01*
X90607849Y-89254517D01*
X90607838Y-89254522D01*
X90403453Y-89372524D01*
X90216201Y-89516208D01*
X90216190Y-89516217D01*
X90049317Y-89683090D01*
X90049308Y-89683101D01*
X89905624Y-89870353D01*
X89787622Y-90074738D01*
X89787617Y-90074749D01*
X89697294Y-90292807D01*
X89697293Y-90292811D01*
X89636205Y-90520792D01*
X89605400Y-90754786D01*
X89605400Y-90990813D01*
X89636205Y-91224807D01*
X89652572Y-91285891D01*
X89697294Y-91452793D01*
X89787616Y-91670849D01*
X89787617Y-91670850D01*
X89787622Y-91670861D01*
X89905624Y-91875246D01*
X89905626Y-91875249D01*
X89905627Y-91875250D01*
X90049308Y-92062499D01*
X90049312Y-92062503D01*
X90049317Y-92062509D01*
X90216190Y-92229382D01*
X90216195Y-92229386D01*
X90216201Y-92229392D01*
X90403450Y-92373073D01*
X90403453Y-92373075D01*
X90607838Y-92491077D01*
X90607842Y-92491078D01*
X90607851Y-92491084D01*
X90825907Y-92581406D01*
X91053886Y-92642493D01*
X91053890Y-92642493D01*
X91053892Y-92642494D01*
X91114200Y-92650433D01*
X91287889Y-92673300D01*
X91287896Y-92673300D01*
X91523904Y-92673300D01*
X91523911Y-92673300D01*
X91735391Y-92645458D01*
X91757907Y-92642494D01*
X91757907Y-92642493D01*
X91757914Y-92642493D01*
X91985893Y-92581406D01*
X92203949Y-92491084D01*
X92408350Y-92373073D01*
X92595599Y-92229392D01*
X92762492Y-92062499D01*
X92906173Y-91875250D01*
X92985417Y-91737994D01*
X93036799Y-91689002D01*
X93106513Y-91675566D01*
X93172424Y-91701952D01*
X93183631Y-91711899D01*
X93727385Y-92255652D01*
X93743056Y-92274748D01*
X93753970Y-92291083D01*
X93753971Y-92291083D01*
X93822948Y-92394316D01*
X93822951Y-92394320D01*
X95919437Y-94490804D01*
X95953462Y-94553116D01*
X95950176Y-94618832D01*
X95941524Y-94645461D01*
X95941523Y-94645464D01*
X95941523Y-94645466D01*
X95909500Y-94847648D01*
X95909500Y-95052352D01*
X95938167Y-95233344D01*
X95941524Y-95254538D01*
X95982467Y-95380549D01*
X96004780Y-95449219D01*
X96080308Y-95597451D01*
X96097714Y-95631612D01*
X96218034Y-95797220D01*
X96362779Y-95941965D01*
X96437812Y-95996478D01*
X96528390Y-96062287D01*
X96578331Y-96087733D01*
X96629946Y-96136482D01*
X96647012Y-96205397D01*
X96624111Y-96272598D01*
X96578331Y-96312267D01*
X96528388Y-96337714D01*
X96362779Y-96458034D01*
X96218034Y-96602779D01*
X96097714Y-96768387D01*
X96004781Y-96950779D01*
X96004778Y-96950785D01*
X95941524Y-97145461D01*
X95941523Y-97145464D01*
X95941523Y-97145466D01*
X95909500Y-97347648D01*
X95909500Y-97552352D01*
X95931831Y-97693339D01*
X95941524Y-97754538D01*
X95980791Y-97875391D01*
X96004780Y-97949219D01*
X96068410Y-98074099D01*
X96097714Y-98131612D01*
X96218034Y-98297220D01*
X96362779Y-98441965D01*
X96399085Y-98468342D01*
X96507562Y-98547154D01*
X96510955Y-98551555D01*
X96516012Y-98553865D01*
X96532399Y-98579364D01*
X96550914Y-98603374D01*
X96552187Y-98610154D01*
X96554396Y-98613591D01*
X96559500Y-98649089D01*
X96559500Y-98704626D01*
X96539498Y-98772747D01*
X96485842Y-98819240D01*
X96415568Y-98829344D01*
X96350988Y-98799850D01*
X96344405Y-98793721D01*
X96157735Y-98607051D01*
X96157731Y-98607048D01*
X96062382Y-98543339D01*
X96062363Y-98543326D01*
X96034810Y-98524916D01*
X95993411Y-98507768D01*
X95898231Y-98468343D01*
X95898228Y-98468342D01*
X95753233Y-98439500D01*
X92483917Y-98439500D01*
X92336082Y-98439500D01*
X92263584Y-98453921D01*
X92191086Y-98468342D01*
X92191083Y-98468343D01*
X92054504Y-98524916D01*
X91931588Y-98607046D01*
X91931586Y-98607047D01*
X90857618Y-99681014D01*
X90795306Y-99715039D01*
X90724490Y-99709974D01*
X90702377Y-99699159D01*
X90550021Y-99605186D01*
X90550023Y-99605186D01*
X90383489Y-99550002D01*
X90383477Y-99550000D01*
X90280703Y-99539500D01*
X89080676Y-99539500D01*
X88977888Y-99550000D01*
X88811351Y-99605185D01*
X88662029Y-99697288D01*
X88662023Y-99697293D01*
X88537979Y-99821337D01*
X88537977Y-99821340D01*
X88537975Y-99821342D01*
X88537974Y-99821344D01*
X88515147Y-99858351D01*
X88445871Y-99970665D01*
X88390688Y-100137196D01*
X88390686Y-100137208D01*
X88380186Y-100239982D01*
X88380186Y-101440009D01*
X88390686Y-101542797D01*
X88445871Y-101709334D01*
X88537974Y-101858656D01*
X88542527Y-101864414D01*
X88540928Y-101865678D01*
X88570062Y-101919031D01*
X88564997Y-101989846D01*
X88522450Y-102046682D01*
X88455930Y-102071493D01*
X88408006Y-102065647D01*
X88364540Y-102051524D01*
X88364534Y-102051523D01*
X88162352Y-102019500D01*
X87957648Y-102019500D01*
X87755466Y-102051523D01*
X87755464Y-102051523D01*
X87755461Y-102051524D01*
X87560785Y-102114778D01*
X87560779Y-102114781D01*
X87378387Y-102207714D01*
X87212779Y-102328034D01*
X87068034Y-102472779D01*
X86947715Y-102638387D01*
X86947713Y-102638390D01*
X86864456Y-102801792D01*
X86859453Y-102811610D01*
X86810704Y-102863225D01*
X86741790Y-102880291D01*
X86674588Y-102857390D01*
X86630436Y-102801792D01*
X86621186Y-102754407D01*
X86621186Y-101966436D01*
X86641188Y-101898315D01*
X86673126Y-101864499D01*
X86681160Y-101858662D01*
X86717905Y-101831966D01*
X86862652Y-101687219D01*
X86982973Y-101521610D01*
X87075906Y-101339219D01*
X87139163Y-101144534D01*
X87171186Y-100942352D01*
X87171186Y-100737648D01*
X87139163Y-100535466D01*
X87075906Y-100340781D01*
X86982973Y-100158390D01*
X86964270Y-100132647D01*
X86862651Y-99992779D01*
X86717911Y-99848039D01*
X86717907Y-99848036D01*
X86717905Y-99848034D01*
X86673123Y-99815498D01*
X86629771Y-99759276D01*
X86621186Y-99713563D01*
X86621186Y-98221000D01*
X86641188Y-98152879D01*
X86658091Y-98131905D01*
X89118849Y-95671147D01*
X89118852Y-95671144D01*
X89168086Y-95597457D01*
X89200984Y-95548223D01*
X89257558Y-95411641D01*
X89286400Y-95266646D01*
X89286400Y-87887391D01*
X119079500Y-87887391D01*
X119079500Y-88182408D01*
X119118005Y-88474885D01*
X119118006Y-88474891D01*
X119118007Y-88474893D01*
X119194361Y-88759852D01*
X119307257Y-89032407D01*
X119307258Y-89032408D01*
X119307263Y-89032419D01*
X119454759Y-89287890D01*
X119454764Y-89287897D01*
X119634346Y-89521933D01*
X119634365Y-89521954D01*
X119842945Y-89730534D01*
X119842966Y-89730553D01*
X120077002Y-89910135D01*
X120077009Y-89910140D01*
X120332480Y-90057636D01*
X120332484Y-90057637D01*
X120332493Y-90057643D01*
X120605048Y-90170539D01*
X120890007Y-90246893D01*
X120890013Y-90246893D01*
X120890014Y-90246894D01*
X120923574Y-90251312D01*
X121182494Y-90285400D01*
X121182501Y-90285400D01*
X121477499Y-90285400D01*
X121477506Y-90285400D01*
X121769993Y-90246893D01*
X122054952Y-90170539D01*
X122327507Y-90057643D01*
X122582994Y-89910138D01*
X122817042Y-89730546D01*
X123025646Y-89521942D01*
X123205238Y-89287894D01*
X123305924Y-89113499D01*
X123357306Y-89064507D01*
X123415043Y-89050500D01*
X125674371Y-89050500D01*
X125742492Y-89070502D01*
X125748432Y-89074564D01*
X125810674Y-89119785D01*
X125848390Y-89147187D01*
X126030781Y-89240120D01*
X126225466Y-89303377D01*
X126427648Y-89335400D01*
X126427651Y-89335400D01*
X127532349Y-89335400D01*
X127532352Y-89335400D01*
X127734534Y-89303377D01*
X127929219Y-89240120D01*
X128111610Y-89147187D01*
X128277219Y-89026866D01*
X128421966Y-88882119D01*
X128542287Y-88716510D01*
X128635220Y-88534119D01*
X128698477Y-88339434D01*
X128730500Y-88137252D01*
X128730500Y-87932548D01*
X128698477Y-87730366D01*
X128635220Y-87535681D01*
X128542287Y-87353290D01*
X128512875Y-87312807D01*
X128421965Y-87187679D01*
X128277220Y-87042934D01*
X128111612Y-86922614D01*
X128037474Y-86884839D01*
X127929219Y-86829680D01*
X127929216Y-86829679D01*
X127929214Y-86829678D01*
X127734538Y-86766424D01*
X127734536Y-86766423D01*
X127734534Y-86766423D01*
X127601469Y-86745347D01*
X127537318Y-86714935D01*
X127499791Y-86654667D01*
X127500805Y-86583678D01*
X127540038Y-86524506D01*
X127605033Y-86495938D01*
X127621182Y-86494899D01*
X128034195Y-86494899D01*
X128034209Y-86494898D01*
X128064606Y-86492048D01*
X128064609Y-86492047D01*
X128192644Y-86447246D01*
X128192645Y-86447246D01*
X128301792Y-86366692D01*
X128382346Y-86257545D01*
X128382346Y-86257544D01*
X128427147Y-86129510D01*
X128427148Y-86129505D01*
X128429999Y-86099105D01*
X128430000Y-86099099D01*
X128430000Y-85744900D01*
X127349504Y-85744900D01*
X127394674Y-85666664D01*
X127425000Y-85553485D01*
X127425000Y-85436315D01*
X127394674Y-85323136D01*
X127349504Y-85244900D01*
X128429999Y-85244900D01*
X128429999Y-84890705D01*
X128429998Y-84890690D01*
X128427148Y-84860293D01*
X128427147Y-84860290D01*
X128382346Y-84732255D01*
X128382346Y-84732254D01*
X128301792Y-84623107D01*
X128205189Y-84551811D01*
X128192645Y-84542553D01*
X128064610Y-84497752D01*
X128064605Y-84497751D01*
X128034205Y-84494900D01*
X127230000Y-84494900D01*
X127230000Y-85125395D01*
X127151764Y-85080226D01*
X127038585Y-85049900D01*
X126921415Y-85049900D01*
X126808236Y-85080226D01*
X126730000Y-85125395D01*
X126730000Y-84494900D01*
X125925805Y-84494900D01*
X125925790Y-84494901D01*
X125895393Y-84497751D01*
X125895390Y-84497752D01*
X125767355Y-84542553D01*
X125767354Y-84542553D01*
X125658207Y-84623107D01*
X125577653Y-84732254D01*
X125577653Y-84732255D01*
X125532852Y-84860289D01*
X125532851Y-84860294D01*
X125530000Y-84890694D01*
X125530000Y-85244900D01*
X126610496Y-85244900D01*
X126565326Y-85323136D01*
X126535000Y-85436315D01*
X126535000Y-85553485D01*
X126565326Y-85666664D01*
X126610496Y-85744900D01*
X125530001Y-85744900D01*
X125530001Y-86099109D01*
X125532851Y-86129506D01*
X125532852Y-86129509D01*
X125577653Y-86257544D01*
X125577653Y-86257545D01*
X125658207Y-86366692D01*
X125767354Y-86447246D01*
X125895389Y-86492047D01*
X125895394Y-86492048D01*
X125925797Y-86494899D01*
X126338813Y-86494899D01*
X126406933Y-86514901D01*
X126453427Y-86568556D01*
X126463531Y-86638830D01*
X126434038Y-86703411D01*
X126374312Y-86741795D01*
X126358525Y-86745348D01*
X126225460Y-86766424D01*
X126030785Y-86829678D01*
X126030779Y-86829681D01*
X125848387Y-86922614D01*
X125706863Y-87025437D01*
X125639995Y-87049295D01*
X125632803Y-87049500D01*
X123432480Y-87049500D01*
X123364359Y-87029498D01*
X123323361Y-86986500D01*
X123205240Y-86781909D01*
X123205235Y-86781902D01*
X123025653Y-86547866D01*
X123025634Y-86547845D01*
X122817054Y-86339265D01*
X122817033Y-86339246D01*
X122582997Y-86159664D01*
X122582990Y-86159659D01*
X122327519Y-86012163D01*
X122327511Y-86012159D01*
X122327507Y-86012157D01*
X122054952Y-85899261D01*
X121769993Y-85822907D01*
X121769991Y-85822906D01*
X121769985Y-85822905D01*
X121477508Y-85784400D01*
X121477506Y-85784400D01*
X121182494Y-85784400D01*
X121182491Y-85784400D01*
X120890014Y-85822905D01*
X120605048Y-85899261D01*
X120332491Y-86012158D01*
X120332480Y-86012163D01*
X120077009Y-86159659D01*
X120077002Y-86159664D01*
X119842966Y-86339246D01*
X119842945Y-86339265D01*
X119634365Y-86547845D01*
X119634346Y-86547866D01*
X119454764Y-86781902D01*
X119454759Y-86781909D01*
X119307263Y-87037380D01*
X119307258Y-87037391D01*
X119307257Y-87037393D01*
X119245006Y-87187681D01*
X119194361Y-87309948D01*
X119118005Y-87594914D01*
X119079500Y-87887391D01*
X89286400Y-87887391D01*
X89286400Y-85581283D01*
X89306402Y-85513162D01*
X89349400Y-85472164D01*
X89513505Y-85377417D01*
X89538350Y-85363073D01*
X89725599Y-85219392D01*
X89892492Y-85052499D01*
X90036173Y-84865250D01*
X90154184Y-84660849D01*
X90244506Y-84442793D01*
X90305593Y-84214814D01*
X90336400Y-83980811D01*
X90336400Y-83744789D01*
X90305593Y-83510786D01*
X90244506Y-83282807D01*
X90154184Y-83064751D01*
X90154178Y-83064742D01*
X90154177Y-83064738D01*
X90036175Y-82860353D01*
X90036173Y-82860350D01*
X89892492Y-82673101D01*
X89892486Y-82673095D01*
X89892482Y-82673090D01*
X89725609Y-82506217D01*
X89725603Y-82506212D01*
X89725599Y-82506208D01*
X89549526Y-82371102D01*
X89549525Y-82371101D01*
X89538351Y-82362527D01*
X89387206Y-82275263D01*
X125099500Y-82275263D01*
X125099500Y-82504736D01*
X125129450Y-82732231D01*
X125129451Y-82732233D01*
X125129452Y-82732238D01*
X125188842Y-82953887D01*
X125276656Y-83165888D01*
X125276657Y-83165889D01*
X125276662Y-83165900D01*
X125391386Y-83364608D01*
X125391391Y-83364615D01*
X125531073Y-83546652D01*
X125531092Y-83546673D01*
X125693326Y-83708907D01*
X125693347Y-83708926D01*
X125875384Y-83848608D01*
X125875391Y-83848613D01*
X126074099Y-83963337D01*
X126074103Y-83963338D01*
X126074112Y-83963344D01*
X126286113Y-84051158D01*
X126507762Y-84110548D01*
X126507766Y-84110548D01*
X126507768Y-84110549D01*
X126566398Y-84118267D01*
X126735266Y-84140500D01*
X126735273Y-84140500D01*
X126964727Y-84140500D01*
X126964734Y-84140500D01*
X127170345Y-84113430D01*
X127192231Y-84110549D01*
X127192231Y-84110548D01*
X127192238Y-84110548D01*
X127413887Y-84051158D01*
X127625888Y-83963344D01*
X127824612Y-83848611D01*
X128006661Y-83708919D01*
X128168919Y-83546661D01*
X128308611Y-83364612D01*
X128423344Y-83165888D01*
X128511158Y-82953887D01*
X128545134Y-82827087D01*
X130110000Y-82827087D01*
X130110000Y-83082712D01*
X130143363Y-83336135D01*
X130209524Y-83583051D01*
X130307349Y-83819219D01*
X130307352Y-83819225D01*
X130435152Y-84040582D01*
X130435156Y-84040588D01*
X130515739Y-84145605D01*
X130515740Y-84145606D01*
X131193821Y-83467525D01*
X131279365Y-83595550D01*
X131419350Y-83735535D01*
X131547373Y-83821077D01*
X130869292Y-84499158D01*
X130869293Y-84499159D01*
X130974311Y-84579743D01*
X130974317Y-84579747D01*
X131195674Y-84707547D01*
X131195680Y-84707550D01*
X131431848Y-84805375D01*
X131678764Y-84871536D01*
X131932187Y-84904899D01*
X131932197Y-84904900D01*
X132187803Y-84904900D01*
X132187812Y-84904899D01*
X132441235Y-84871536D01*
X132688151Y-84805375D01*
X132924319Y-84707550D01*
X132924325Y-84707547D01*
X133145682Y-84579747D01*
X133145688Y-84579743D01*
X133250706Y-84499159D01*
X133250706Y-84499158D01*
X132572625Y-83821077D01*
X132700650Y-83735535D01*
X132840635Y-83595550D01*
X132926177Y-83467525D01*
X133604258Y-84145606D01*
X133604259Y-84145606D01*
X133684843Y-84040588D01*
X133684847Y-84040582D01*
X133812647Y-83819225D01*
X133812650Y-83819219D01*
X133910475Y-83583051D01*
X133976636Y-83336135D01*
X134009999Y-83082712D01*
X134010000Y-83082703D01*
X134010000Y-82827097D01*
X134009999Y-82827087D01*
X133976636Y-82573665D01*
X133917711Y-82353752D01*
X133917711Y-82353751D01*
X133910476Y-82326750D01*
X133909860Y-82325263D01*
X134369500Y-82325263D01*
X134369500Y-82554736D01*
X134399450Y-82782231D01*
X134399452Y-82782238D01*
X134458842Y-83003887D01*
X134546656Y-83215888D01*
X134546657Y-83215889D01*
X134546662Y-83215900D01*
X134661386Y-83414608D01*
X134661391Y-83414615D01*
X134801073Y-83596652D01*
X134801092Y-83596673D01*
X134963326Y-83758907D01*
X134963347Y-83758926D01*
X135145384Y-83898608D01*
X135145391Y-83898613D01*
X135344099Y-84013337D01*
X135344103Y-84013338D01*
X135344112Y-84013344D01*
X135556113Y-84101158D01*
X135777762Y-84160548D01*
X135777766Y-84160548D01*
X135777768Y-84160549D01*
X135836398Y-84168267D01*
X136005266Y-84190500D01*
X136005273Y-84190500D01*
X136234727Y-84190500D01*
X136234734Y-84190500D01*
X136440345Y-84163430D01*
X136462231Y-84160549D01*
X136462231Y-84160548D01*
X136462238Y-84160548D01*
X136683887Y-84101158D01*
X136895888Y-84013344D01*
X137094612Y-83898611D01*
X137276661Y-83758919D01*
X137438919Y-83596661D01*
X137578611Y-83414612D01*
X137693344Y-83215888D01*
X137781158Y-83003887D01*
X137840548Y-82782238D01*
X137870500Y-82554734D01*
X137870500Y-82325266D01*
X137840548Y-82097762D01*
X137781158Y-81876113D01*
X137693344Y-81664112D01*
X137693338Y-81664103D01*
X137693337Y-81664099D01*
X137578613Y-81465391D01*
X137578608Y-81465384D01*
X137438926Y-81283347D01*
X137438907Y-81283326D01*
X137276673Y-81121092D01*
X137276652Y-81121073D01*
X137094615Y-80981391D01*
X137094608Y-80981386D01*
X136895900Y-80866662D01*
X136895892Y-80866658D01*
X136895888Y-80866656D01*
X136683887Y-80778842D01*
X136532501Y-80738278D01*
X136462231Y-80719450D01*
X136234736Y-80689500D01*
X136234734Y-80689500D01*
X136005266Y-80689500D01*
X136005263Y-80689500D01*
X135777768Y-80719450D01*
X135556113Y-80778842D01*
X135344110Y-80866657D01*
X135344099Y-80866662D01*
X135145391Y-80981386D01*
X135145384Y-80981391D01*
X134963347Y-81121073D01*
X134963326Y-81121092D01*
X134801092Y-81283326D01*
X134801073Y-81283347D01*
X134661391Y-81465384D01*
X134661386Y-81465391D01*
X134546662Y-81664099D01*
X134546657Y-81664110D01*
X134458842Y-81876113D01*
X134399450Y-82097768D01*
X134369500Y-82325263D01*
X133909860Y-82325263D01*
X133812650Y-82090580D01*
X133812647Y-82090574D01*
X133684847Y-81869217D01*
X133684843Y-81869211D01*
X133604259Y-81764193D01*
X133604258Y-81764192D01*
X132926177Y-82442273D01*
X132840635Y-82314250D01*
X132700650Y-82174265D01*
X132572625Y-82088721D01*
X133250706Y-81410640D01*
X133250705Y-81410639D01*
X133145688Y-81330056D01*
X133145682Y-81330052D01*
X132924325Y-81202252D01*
X132924319Y-81202249D01*
X132688151Y-81104424D01*
X132441235Y-81038263D01*
X132187812Y-81004900D01*
X131932187Y-81004900D01*
X131678764Y-81038263D01*
X131431848Y-81104424D01*
X131195680Y-81202249D01*
X131195674Y-81202252D01*
X130974317Y-81330052D01*
X130869292Y-81410640D01*
X131547374Y-82088721D01*
X131419350Y-82174265D01*
X131279365Y-82314250D01*
X131193822Y-82442274D01*
X130515740Y-81764192D01*
X130435152Y-81869217D01*
X130307352Y-82090574D01*
X130307349Y-82090580D01*
X130209524Y-82326748D01*
X130143363Y-82573664D01*
X130110000Y-82827087D01*
X128545134Y-82827087D01*
X128570548Y-82732238D01*
X128600500Y-82504734D01*
X128600500Y-82275266D01*
X128570548Y-82047762D01*
X128511158Y-81826113D01*
X128423344Y-81614112D01*
X128423338Y-81614103D01*
X128423337Y-81614099D01*
X128370376Y-81522367D01*
X128308613Y-81415391D01*
X128308608Y-81415384D01*
X128168926Y-81233347D01*
X128168907Y-81233326D01*
X128006673Y-81071092D01*
X128006652Y-81071073D01*
X127824615Y-80931391D01*
X127824608Y-80931386D01*
X127625900Y-80816662D01*
X127625892Y-80816658D01*
X127625888Y-80816656D01*
X127413887Y-80728842D01*
X127192238Y-80669452D01*
X127192231Y-80669450D01*
X126964736Y-80639500D01*
X126964734Y-80639500D01*
X126735266Y-80639500D01*
X126735263Y-80639500D01*
X126507768Y-80669450D01*
X126286113Y-80728842D01*
X126074110Y-80816657D01*
X126074099Y-80816662D01*
X125875391Y-80931386D01*
X125875384Y-80931391D01*
X125693347Y-81071073D01*
X125693326Y-81071092D01*
X125531092Y-81233326D01*
X125531073Y-81233347D01*
X125391391Y-81415384D01*
X125391386Y-81415391D01*
X125276662Y-81614099D01*
X125276657Y-81614110D01*
X125188842Y-81826113D01*
X125129450Y-82047768D01*
X125099500Y-82275263D01*
X89387206Y-82275263D01*
X89333961Y-82244522D01*
X89333953Y-82244518D01*
X89333949Y-82244516D01*
X89115893Y-82154194D01*
X88887914Y-82093107D01*
X88887907Y-82093105D01*
X88653913Y-82062300D01*
X88653911Y-82062300D01*
X88417889Y-82062300D01*
X88417886Y-82062300D01*
X88183892Y-82093105D01*
X87991181Y-82144742D01*
X87955907Y-82154194D01*
X87907452Y-82174265D01*
X87737849Y-82244517D01*
X87737838Y-82244522D01*
X87533453Y-82362524D01*
X87346201Y-82506208D01*
X87346190Y-82506217D01*
X87179317Y-82673090D01*
X87179308Y-82673101D01*
X87035624Y-82860353D01*
X86917622Y-83064738D01*
X86917617Y-83064749D01*
X86827294Y-83282807D01*
X86827293Y-83282811D01*
X86766205Y-83510792D01*
X86735400Y-83744786D01*
X86735400Y-83980813D01*
X86766205Y-84214807D01*
X86766207Y-84214814D01*
X86827294Y-84442793D01*
X86917616Y-84660849D01*
X86917617Y-84660850D01*
X86917622Y-84660861D01*
X87035624Y-84865246D01*
X87035626Y-84865248D01*
X87035627Y-84865250D01*
X87179308Y-85052499D01*
X87179312Y-85052503D01*
X87179317Y-85052509D01*
X87346190Y-85219382D01*
X87346195Y-85219386D01*
X87346201Y-85219392D01*
X87533450Y-85363073D01*
X87533453Y-85363075D01*
X87722400Y-85472164D01*
X87771393Y-85523547D01*
X87785400Y-85581283D01*
X87785400Y-94829669D01*
X87765398Y-94897790D01*
X87748495Y-94918764D01*
X85287737Y-97379521D01*
X85287732Y-97379527D01*
X85279806Y-97391391D01*
X85279806Y-97391392D01*
X85205601Y-97502448D01*
X85149029Y-97639025D01*
X85149028Y-97639028D01*
X85120186Y-97784025D01*
X85120186Y-99713563D01*
X85100184Y-99781684D01*
X85068248Y-99815499D01*
X85023460Y-99848039D01*
X84878720Y-99992779D01*
X84758400Y-100158387D01*
X84665467Y-100340779D01*
X84665464Y-100340785D01*
X84602210Y-100535461D01*
X84602209Y-100535464D01*
X84602209Y-100535466D01*
X84570186Y-100737648D01*
X84570186Y-100942352D01*
X84600279Y-101132348D01*
X84602210Y-101144538D01*
X84663943Y-101334534D01*
X84665466Y-101339219D01*
X84706906Y-101420549D01*
X84758400Y-101521612D01*
X84878720Y-101687220D01*
X85023455Y-101831955D01*
X85023462Y-101831961D01*
X85023467Y-101831966D01*
X85060212Y-101858662D01*
X85068246Y-101864499D01*
X85111600Y-101920721D01*
X85120186Y-101966436D01*
X85120186Y-104343232D01*
X85143488Y-104460375D01*
X85149028Y-104488227D01*
X85149029Y-104488230D01*
X85205602Y-104624810D01*
X85224404Y-104652947D01*
X85224405Y-104652952D01*
X85224407Y-104652952D01*
X85277745Y-104732781D01*
X85287734Y-104747730D01*
X86836053Y-106296048D01*
X86859221Y-106327935D01*
X86913518Y-106434499D01*
X86947714Y-106501612D01*
X87065115Y-106663202D01*
X87088973Y-106730070D01*
X87072892Y-106799221D01*
X87052273Y-106826357D01*
X85132050Y-108746580D01*
X85119298Y-108765666D01*
X85100422Y-108793917D01*
X85087333Y-108813506D01*
X85032854Y-108859032D01*
X84982571Y-108869500D01*
X84767135Y-108869500D01*
X84767114Y-108869502D01*
X84707519Y-108875908D01*
X84707518Y-108875908D01*
X84572673Y-108926201D01*
X84572670Y-108926203D01*
X84457453Y-109012453D01*
X84371203Y-109127670D01*
X84371201Y-109127673D01*
X84320909Y-109262515D01*
X84314500Y-109322121D01*
X84314500Y-111217864D01*
X84314502Y-111217885D01*
X84320908Y-111277480D01*
X84320908Y-111277481D01*
X84371201Y-111412326D01*
X84371203Y-111412329D01*
X84410703Y-111465095D01*
X84435514Y-111531615D01*
X84420423Y-111600989D01*
X84398931Y-111629699D01*
X83866037Y-112162595D01*
X83803724Y-112196620D01*
X83776941Y-112199500D01*
X80983058Y-112199500D01*
X80914937Y-112179498D01*
X80893963Y-112162595D01*
X80338193Y-111606825D01*
X80304167Y-111544513D01*
X80309232Y-111473698D01*
X80314298Y-111461970D01*
X80319447Y-111451536D01*
X80348796Y-111412331D01*
X80379748Y-111329341D01*
X80382579Y-111323607D01*
X80402461Y-111302007D01*
X80420058Y-111278500D01*
X80426213Y-111276204D01*
X80430661Y-111271372D01*
X80459064Y-111263950D01*
X80486578Y-111253688D01*
X80492997Y-111255084D01*
X80499352Y-111253424D01*
X80527264Y-111262538D01*
X80555953Y-111268779D01*
X80563362Y-111274325D01*
X80566842Y-111275462D01*
X80569913Y-111279230D01*
X80584664Y-111290272D01*
X80632629Y-111338237D01*
X80632632Y-111338239D01*
X80632635Y-111338242D01*
X80810978Y-111467815D01*
X81007394Y-111567895D01*
X81217049Y-111636015D01*
X81434778Y-111670500D01*
X81434781Y-111670500D01*
X81655219Y-111670500D01*
X81655222Y-111670500D01*
X81872951Y-111636015D01*
X82082606Y-111567895D01*
X82279022Y-111467815D01*
X82457365Y-111338242D01*
X82613242Y-111182365D01*
X82742815Y-111004022D01*
X82842895Y-110807606D01*
X82911015Y-110597951D01*
X82945500Y-110380222D01*
X82945500Y-110159778D01*
X82911015Y-109942049D01*
X82842895Y-109732394D01*
X82742815Y-109535978D01*
X82613242Y-109357635D01*
X82613239Y-109357632D01*
X82613237Y-109357629D01*
X82457370Y-109201762D01*
X82457367Y-109201760D01*
X82457365Y-109201758D01*
X82347438Y-109121891D01*
X82304085Y-109065670D01*
X82295500Y-109019956D01*
X82295500Y-106872504D01*
X82315502Y-106804383D01*
X82355352Y-106765264D01*
X82424342Y-106722712D01*
X82548398Y-106598656D01*
X82640500Y-106449334D01*
X82695685Y-106282797D01*
X82706186Y-106180009D01*
X82706185Y-104979992D01*
X82701077Y-104929992D01*
X82695685Y-104877202D01*
X82640500Y-104710665D01*
X82549281Y-104562776D01*
X82548398Y-104561344D01*
X82548397Y-104561343D01*
X82548392Y-104561337D01*
X82424348Y-104437293D01*
X82424342Y-104437288D01*
X82275020Y-104345185D01*
X82108489Y-104290002D01*
X82108477Y-104290000D01*
X82005703Y-104279500D01*
X80805676Y-104279500D01*
X80743619Y-104285840D01*
X80728303Y-104282992D01*
X80712883Y-104285210D01*
X80694110Y-104276636D01*
X80673818Y-104272864D01*
X80662471Y-104262186D01*
X80648303Y-104255716D01*
X80637145Y-104238354D01*
X80622114Y-104224210D01*
X80617768Y-104208203D01*
X80609919Y-104195990D01*
X80604815Y-104160492D01*
X80604815Y-103916436D01*
X80624817Y-103848315D01*
X80656755Y-103814499D01*
X80664789Y-103808662D01*
X80701534Y-103781966D01*
X80846281Y-103637219D01*
X80966602Y-103471610D01*
X81059535Y-103289219D01*
X81122792Y-103094534D01*
X81154815Y-102892352D01*
X81154815Y-102687648D01*
X81122792Y-102485466D01*
X81059535Y-102290781D01*
X80966602Y-102108390D01*
X80966600Y-102108387D01*
X80846280Y-101942779D01*
X80701535Y-101798034D01*
X80535927Y-101677714D01*
X80476222Y-101647293D01*
X80353534Y-101584780D01*
X80353531Y-101584779D01*
X80353529Y-101584778D01*
X80158853Y-101521524D01*
X80158851Y-101521523D01*
X80158849Y-101521523D01*
X79956667Y-101489500D01*
X79751963Y-101489500D01*
X79549781Y-101521523D01*
X79549779Y-101521523D01*
X79549776Y-101521524D01*
X79355100Y-101584778D01*
X79355094Y-101584781D01*
X79172702Y-101677714D01*
X79007094Y-101798034D01*
X78862350Y-101942778D01*
X78862347Y-101942782D01*
X78796583Y-102033299D01*
X78740361Y-102076653D01*
X78669625Y-102082728D01*
X78606833Y-102049597D01*
X78575044Y-101998874D01*
X78549129Y-101920666D01*
X78535971Y-101899334D01*
X78457026Y-101771343D01*
X78457021Y-101771337D01*
X78332977Y-101647293D01*
X78332971Y-101647288D01*
X78183649Y-101555185D01*
X78017118Y-101500002D01*
X78017106Y-101500000D01*
X77914332Y-101489500D01*
X76714305Y-101489500D01*
X76611517Y-101500000D01*
X76444980Y-101555185D01*
X76295658Y-101647288D01*
X76295652Y-101647293D01*
X76171608Y-101771337D01*
X76171601Y-101771346D01*
X76079501Y-101920665D01*
X76079500Y-101920666D01*
X76050205Y-102009073D01*
X76009791Y-102067444D01*
X75978821Y-102085847D01*
X75941081Y-102101480D01*
X75884509Y-102124913D01*
X75884502Y-102124917D01*
X75835270Y-102157811D01*
X75835271Y-102157812D01*
X75761583Y-102207049D01*
X75761581Y-102207050D01*
X75680160Y-102288471D01*
X75617848Y-102322496D01*
X75547032Y-102317430D01*
X75501970Y-102288470D01*
X75497220Y-102283720D01*
X75331612Y-102163400D01*
X75290175Y-102142287D01*
X75149219Y-102070466D01*
X75149216Y-102070465D01*
X75149214Y-102070464D01*
X74954538Y-102007210D01*
X74954536Y-102007209D01*
X74954534Y-102007209D01*
X74752352Y-101975186D01*
X74547648Y-101975186D01*
X74345466Y-102007209D01*
X74345464Y-102007209D01*
X74345461Y-102007210D01*
X74150785Y-102070464D01*
X74150779Y-102070467D01*
X73968387Y-102163400D01*
X73802779Y-102283720D01*
X73658034Y-102428465D01*
X73537714Y-102594073D01*
X73444781Y-102776465D01*
X73444778Y-102776471D01*
X73381524Y-102971147D01*
X73381523Y-102971150D01*
X73381523Y-102971152D01*
X73349500Y-103173334D01*
X73349500Y-103378038D01*
X73368105Y-103495501D01*
X73381524Y-103580224D01*
X73425154Y-103714505D01*
X73444780Y-103774905D01*
X73522867Y-103928159D01*
X73537714Y-103957298D01*
X73658034Y-104122906D01*
X73802779Y-104267651D01*
X73893298Y-104333416D01*
X73936653Y-104389638D01*
X73942729Y-104460375D01*
X73909597Y-104523167D01*
X73858871Y-104554957D01*
X73780665Y-104580871D01*
X73631343Y-104672974D01*
X73631337Y-104672979D01*
X73507293Y-104797023D01*
X73507286Y-104797032D01*
X73415186Y-104946351D01*
X73404427Y-104978820D01*
X73364013Y-105037191D01*
X73298456Y-105064446D01*
X73284823Y-105065186D01*
X71314278Y-105065186D01*
X71246157Y-105045184D01*
X71202011Y-104996389D01*
X71126602Y-104848390D01*
X71089287Y-104797030D01*
X71006280Y-104682779D01*
X70861535Y-104538034D01*
X70695927Y-104417714D01*
X70636222Y-104387293D01*
X70513534Y-104324780D01*
X70513531Y-104324779D01*
X70513529Y-104324778D01*
X70318853Y-104261524D01*
X70318851Y-104261523D01*
X70318849Y-104261523D01*
X70116667Y-104229500D01*
X69911963Y-104229500D01*
X69709781Y-104261523D01*
X69709779Y-104261523D01*
X69709776Y-104261524D01*
X69515100Y-104324778D01*
X69515094Y-104324781D01*
X69332702Y-104417714D01*
X69167094Y-104538034D01*
X69022350Y-104682778D01*
X69022347Y-104682782D01*
X68956583Y-104773299D01*
X68900361Y-104816653D01*
X68829625Y-104822728D01*
X68766833Y-104789597D01*
X68735044Y-104738874D01*
X68709129Y-104660666D01*
X68687012Y-104624809D01*
X68643928Y-104554958D01*
X68617027Y-104511344D01*
X68617026Y-104511343D01*
X68617021Y-104511337D01*
X68492977Y-104387293D01*
X68492971Y-104387288D01*
X68343649Y-104295185D01*
X68177118Y-104240002D01*
X68177106Y-104240000D01*
X68074332Y-104229500D01*
X66874305Y-104229500D01*
X66771517Y-104240000D01*
X66604980Y-104295185D01*
X66455658Y-104387288D01*
X66455652Y-104387293D01*
X66331608Y-104511337D01*
X66331601Y-104511346D01*
X66239501Y-104660665D01*
X66228742Y-104693134D01*
X66188328Y-104751505D01*
X66122771Y-104778760D01*
X66109138Y-104779500D01*
X64696436Y-104779500D01*
X64628315Y-104759498D01*
X64594501Y-104727561D01*
X64561966Y-104682781D01*
X64561961Y-104682776D01*
X64561961Y-104682775D01*
X64417220Y-104538034D01*
X64251612Y-104417714D01*
X64191907Y-104387293D01*
X64069219Y-104324780D01*
X64069216Y-104324779D01*
X64069214Y-104324778D01*
X63874538Y-104261524D01*
X63874536Y-104261523D01*
X63874534Y-104261523D01*
X63672352Y-104229500D01*
X63467648Y-104229500D01*
X63265466Y-104261523D01*
X63265464Y-104261523D01*
X63265461Y-104261524D01*
X63070785Y-104324778D01*
X63070779Y-104324781D01*
X62888387Y-104417714D01*
X62722779Y-104538034D01*
X62578035Y-104682778D01*
X62578032Y-104682782D01*
X62512268Y-104773299D01*
X62456046Y-104816653D01*
X62385310Y-104822728D01*
X62322518Y-104789597D01*
X62290729Y-104738874D01*
X62264814Y-104660666D01*
X62242697Y-104624809D01*
X62199613Y-104554958D01*
X62172712Y-104511344D01*
X62172711Y-104511343D01*
X62172706Y-104511337D01*
X62048662Y-104387293D01*
X62048656Y-104387288D01*
X61899334Y-104295185D01*
X61732803Y-104240002D01*
X61732791Y-104240000D01*
X61630017Y-104229500D01*
X60429990Y-104229500D01*
X60327202Y-104240000D01*
X60160665Y-104295185D01*
X60011343Y-104387288D01*
X60011337Y-104387293D01*
X59887293Y-104511337D01*
X59887288Y-104511343D01*
X59795185Y-104660665D01*
X59740002Y-104827196D01*
X59740000Y-104827208D01*
X59729500Y-104929982D01*
X59729500Y-106130009D01*
X59740000Y-106232797D01*
X59795185Y-106399334D01*
X59887288Y-106548656D01*
X59887293Y-106548662D01*
X60011337Y-106672706D01*
X60011343Y-106672711D01*
X60011344Y-106672712D01*
X60160666Y-106764814D01*
X60198132Y-106777228D01*
X60256503Y-106817641D01*
X60283760Y-106883197D01*
X60284500Y-106896833D01*
X60284500Y-109019956D01*
X60283927Y-109021906D01*
X60284439Y-109023873D01*
X60273970Y-109055815D01*
X60264498Y-109088077D01*
X60262761Y-109090019D01*
X60262329Y-109091339D01*
X60253243Y-109100664D01*
X60238012Y-109117699D01*
X60235336Y-109119875D01*
X60122635Y-109201758D01*
X60070104Y-109254288D01*
X60065081Y-109258375D01*
X60038067Y-109269710D01*
X60012351Y-109283753D01*
X60005733Y-109283279D01*
X59999615Y-109285847D01*
X59970756Y-109280777D01*
X59941535Y-109278687D01*
X59936223Y-109274710D01*
X59929689Y-109273563D01*
X59908154Y-109253698D01*
X59884700Y-109236140D01*
X59880213Y-109227923D01*
X59877505Y-109225425D01*
X59876281Y-109220722D01*
X59867513Y-109204663D01*
X59838798Y-109127673D01*
X59838796Y-109127670D01*
X59838796Y-109127669D01*
X59785006Y-109055815D01*
X59752546Y-109012453D01*
X59661918Y-108944610D01*
X59637331Y-108926204D01*
X59637329Y-108926203D01*
X59637326Y-108926201D01*
X59502483Y-108875909D01*
X59502486Y-108875909D01*
X59442873Y-108869500D01*
X57547135Y-108869500D01*
X57547114Y-108869502D01*
X57487519Y-108875908D01*
X57487518Y-108875908D01*
X57352673Y-108926201D01*
X57352670Y-108926203D01*
X57237453Y-109012453D01*
X57151203Y-109127670D01*
X57151201Y-109127673D01*
X57100909Y-109262515D01*
X57094500Y-109322121D01*
X49494996Y-109322121D01*
X49495008Y-109318337D01*
X49500000Y-107802399D01*
X46790479Y-107792401D01*
X46789678Y-107792396D01*
X40704452Y-107731250D01*
X40636536Y-107710564D01*
X40590584Y-107656444D01*
X40579718Y-107605541D01*
X40578571Y-107098913D01*
X40549996Y-94471908D01*
X68789500Y-94471908D01*
X68789500Y-94708092D01*
X68826447Y-94941368D01*
X68899432Y-95165992D01*
X68998539Y-95360500D01*
X69006659Y-95376436D01*
X69145484Y-95567512D01*
X69312487Y-95734515D01*
X69312490Y-95734517D01*
X69503567Y-95873343D01*
X69714008Y-95980568D01*
X69938632Y-96053553D01*
X70171908Y-96090500D01*
X70171911Y-96090500D01*
X70408089Y-96090500D01*
X70408092Y-96090500D01*
X70641368Y-96053553D01*
X70865992Y-95980568D01*
X71076433Y-95873343D01*
X71267510Y-95734517D01*
X71434517Y-95567510D01*
X71573343Y-95376433D01*
X71680568Y-95165992D01*
X71753553Y-94941368D01*
X71790500Y-94708092D01*
X71790500Y-94471908D01*
X71753553Y-94238632D01*
X71680568Y-94014008D01*
X71573343Y-93803567D01*
X71473523Y-93666177D01*
X71434515Y-93612487D01*
X71267512Y-93445484D01*
X71076436Y-93306659D01*
X71076435Y-93306658D01*
X71076433Y-93306657D01*
X70865992Y-93199432D01*
X70641368Y-93126447D01*
X70408092Y-93089500D01*
X70171908Y-93089500D01*
X69938632Y-93126447D01*
X69938629Y-93126447D01*
X69938628Y-93126448D01*
X69714008Y-93199432D01*
X69714006Y-93199433D01*
X69503563Y-93306659D01*
X69312487Y-93445484D01*
X69145484Y-93612487D01*
X69006659Y-93803563D01*
X69006657Y-93803567D01*
X68899432Y-94014008D01*
X68826447Y-94238632D01*
X68789500Y-94471908D01*
X40549996Y-94471908D01*
X40537847Y-89103105D01*
X40529829Y-85560000D01*
X43930000Y-85560000D01*
X43968908Y-90170539D01*
X43970000Y-90300000D01*
X43969999Y-90300000D01*
X55979998Y-90340000D01*
X55979998Y-90339999D01*
X55980000Y-90340000D01*
X55977592Y-90057636D01*
X55958904Y-87866394D01*
X57789500Y-87866394D01*
X57789500Y-88203405D01*
X57827233Y-88538298D01*
X57862055Y-88690861D01*
X57902224Y-88866854D01*
X57902226Y-88866860D01*
X57902225Y-88866860D01*
X58013524Y-89184933D01*
X58013535Y-89184960D01*
X58159751Y-89488581D01*
X58159756Y-89488590D01*
X58339051Y-89773936D01*
X58549177Y-90037426D01*
X58787473Y-90275722D01*
X59050963Y-90485848D01*
X59336309Y-90665143D01*
X59336314Y-90665146D01*
X59639949Y-90811369D01*
X59639965Y-90811374D01*
X59639966Y-90811375D01*
X59958039Y-90922674D01*
X59958042Y-90922674D01*
X59958046Y-90922676D01*
X60201239Y-90978182D01*
X60286601Y-90997666D01*
X60286602Y-90997666D01*
X60286606Y-90997667D01*
X60507492Y-91022554D01*
X60621494Y-91035400D01*
X60621496Y-91035400D01*
X60958506Y-91035400D01*
X61055925Y-91024423D01*
X61293394Y-90997667D01*
X61621954Y-90922676D01*
X61940051Y-90811369D01*
X62243686Y-90665146D01*
X62529039Y-90485846D01*
X62792523Y-90275725D01*
X63030825Y-90037423D01*
X63240946Y-89773939D01*
X63420246Y-89488586D01*
X63566469Y-89184951D01*
X63589272Y-89119785D01*
X63630650Y-89062093D01*
X63696650Y-89035931D01*
X63708201Y-89035400D01*
X69008290Y-89035400D01*
X69076411Y-89055402D01*
X69097384Y-89072304D01*
X71652860Y-91627781D01*
X71652861Y-91627782D01*
X71792218Y-91767139D01*
X71956086Y-91876632D01*
X72035437Y-91909500D01*
X72138164Y-91952051D01*
X72331459Y-91990500D01*
X72331460Y-91990500D01*
X81228536Y-91990500D01*
X81228540Y-91990500D01*
X81228541Y-91990500D01*
X81325188Y-91971275D01*
X81421836Y-91952051D01*
X81475165Y-91929961D01*
X81603914Y-91876632D01*
X81767782Y-91767139D01*
X81907139Y-91627782D01*
X81907140Y-91627779D01*
X81914315Y-91620605D01*
X81914320Y-91620598D01*
X82465839Y-91069081D01*
X82513556Y-90997667D01*
X82562247Y-90924795D01*
X82577912Y-90905706D01*
X83777511Y-89706107D01*
X83839821Y-89672083D01*
X83883049Y-89670282D01*
X84057889Y-89693300D01*
X84057896Y-89693300D01*
X84293904Y-89693300D01*
X84293911Y-89693300D01*
X84505391Y-89665458D01*
X84527907Y-89662494D01*
X84527907Y-89662493D01*
X84527914Y-89662493D01*
X84755893Y-89601406D01*
X84973949Y-89511084D01*
X85178350Y-89393073D01*
X85365599Y-89249392D01*
X85532492Y-89082499D01*
X85676173Y-88895250D01*
X85794184Y-88690849D01*
X85884506Y-88472793D01*
X85945593Y-88244814D01*
X85976400Y-88010811D01*
X85976400Y-87774789D01*
X85945593Y-87540786D01*
X85884506Y-87312807D01*
X85794184Y-87094751D01*
X85794178Y-87094742D01*
X85794177Y-87094738D01*
X85676175Y-86890353D01*
X85671944Y-86884839D01*
X85532492Y-86703101D01*
X85532486Y-86703095D01*
X85532482Y-86703090D01*
X85365609Y-86536217D01*
X85365603Y-86536212D01*
X85365599Y-86536208D01*
X85178350Y-86392527D01*
X85178349Y-86392526D01*
X85178346Y-86392524D01*
X84973961Y-86274522D01*
X84973953Y-86274518D01*
X84973949Y-86274516D01*
X84755893Y-86184194D01*
X84588991Y-86139472D01*
X84527907Y-86123105D01*
X84293913Y-86092300D01*
X84293911Y-86092300D01*
X84057889Y-86092300D01*
X84057886Y-86092300D01*
X83823892Y-86123105D01*
X83595911Y-86184193D01*
X83595907Y-86184194D01*
X83377849Y-86274517D01*
X83377838Y-86274522D01*
X83173453Y-86392524D01*
X82986201Y-86536208D01*
X82986190Y-86536217D01*
X82819317Y-86703090D01*
X82819308Y-86703101D01*
X82675624Y-86890353D01*
X82557622Y-87094738D01*
X82557617Y-87094749D01*
X82557616Y-87094751D01*
X82519124Y-87187679D01*
X82467294Y-87312807D01*
X82467293Y-87312811D01*
X82406205Y-87540792D01*
X82375400Y-87774786D01*
X82375400Y-88010813D01*
X82398417Y-88185647D01*
X82387477Y-88255796D01*
X82362590Y-88291188D01*
X80911563Y-89742215D01*
X80815154Y-89886501D01*
X80799486Y-89905592D01*
X80752486Y-89952594D01*
X80690175Y-89986620D01*
X80663389Y-89989500D01*
X72896611Y-89989500D01*
X72828490Y-89969498D01*
X72807516Y-89952595D01*
X70259227Y-87404307D01*
X70259222Y-87404301D01*
X70208208Y-87353287D01*
X70112682Y-87257761D01*
X69948814Y-87148268D01*
X69803190Y-87087949D01*
X69766736Y-87072849D01*
X69649353Y-87049500D01*
X69645941Y-87048821D01*
X69645936Y-87048820D01*
X69573444Y-87034400D01*
X69573441Y-87034400D01*
X63708201Y-87034400D01*
X63640080Y-87014398D01*
X63593587Y-86960742D01*
X63589272Y-86950015D01*
X63566475Y-86884866D01*
X63566474Y-86884865D01*
X63566469Y-86884849D01*
X63420246Y-86581214D01*
X63412292Y-86568556D01*
X63240944Y-86295858D01*
X63184851Y-86225519D01*
X63184849Y-86225517D01*
X63126148Y-86151908D01*
X73669500Y-86151908D01*
X73669500Y-86388092D01*
X73706447Y-86621368D01*
X73779432Y-86845992D01*
X73886657Y-87056433D01*
X73886659Y-87056436D01*
X74025484Y-87247512D01*
X74192487Y-87414515D01*
X74192490Y-87414517D01*
X74383567Y-87553343D01*
X74594008Y-87660568D01*
X74818632Y-87733553D01*
X75051908Y-87770500D01*
X75051911Y-87770500D01*
X75288089Y-87770500D01*
X75288092Y-87770500D01*
X75521368Y-87733553D01*
X75745992Y-87660568D01*
X75956433Y-87553343D01*
X76147510Y-87414517D01*
X76314517Y-87247510D01*
X76453343Y-87056433D01*
X76560568Y-86845992D01*
X76633553Y-86621368D01*
X76670500Y-86388092D01*
X76670500Y-86151908D01*
X76633553Y-85918632D01*
X76560568Y-85694008D01*
X76453343Y-85483567D01*
X76314517Y-85292490D01*
X76314515Y-85292487D01*
X76147512Y-85125484D01*
X75956436Y-84986659D01*
X75956435Y-84986658D01*
X75956433Y-84986657D01*
X75745992Y-84879432D01*
X75521368Y-84806447D01*
X75288092Y-84769500D01*
X75051908Y-84769500D01*
X74818632Y-84806447D01*
X74818629Y-84806447D01*
X74818628Y-84806448D01*
X74594008Y-84879432D01*
X74594006Y-84879433D01*
X74383563Y-84986659D01*
X74192487Y-85125484D01*
X74025484Y-85292487D01*
X73886659Y-85483563D01*
X73779433Y-85694006D01*
X73779432Y-85694008D01*
X73728426Y-85850989D01*
X73706447Y-85918632D01*
X73669500Y-86151908D01*
X63126148Y-86151908D01*
X63030822Y-86032373D01*
X62792526Y-85794077D01*
X62529036Y-85583951D01*
X62243690Y-85404656D01*
X62243681Y-85404651D01*
X61940060Y-85258435D01*
X61940055Y-85258433D01*
X61940051Y-85258431D01*
X61940045Y-85258428D01*
X61940033Y-85258424D01*
X61621960Y-85147125D01*
X61293398Y-85072133D01*
X60958506Y-85034400D01*
X60958504Y-85034400D01*
X60621496Y-85034400D01*
X60621494Y-85034400D01*
X60286601Y-85072133D01*
X59958039Y-85147125D01*
X59639966Y-85258424D01*
X59639939Y-85258435D01*
X59336318Y-85404651D01*
X59336309Y-85404656D01*
X59050963Y-85583951D01*
X58787473Y-85794077D01*
X58549177Y-86032373D01*
X58339051Y-86295863D01*
X58159756Y-86581209D01*
X58159751Y-86581218D01*
X58013535Y-86884839D01*
X58013524Y-86884866D01*
X57902225Y-87202939D01*
X57827233Y-87531501D01*
X57789500Y-87866394D01*
X55958904Y-87866394D01*
X55958883Y-87863936D01*
X55940000Y-85650000D01*
X43930000Y-85430000D01*
X43930000Y-85560000D01*
X40529829Y-85560000D01*
X40529416Y-85377417D01*
X40510560Y-77044786D01*
X95025400Y-77044786D01*
X95025400Y-77280813D01*
X95056205Y-77514807D01*
X95056207Y-77514814D01*
X95117294Y-77742793D01*
X95207616Y-77960849D01*
X95207617Y-77960850D01*
X95207622Y-77960861D01*
X95325624Y-78165246D01*
X95325626Y-78165249D01*
X95325627Y-78165250D01*
X95469308Y-78352499D01*
X95469312Y-78352503D01*
X95469317Y-78352509D01*
X95636190Y-78519382D01*
X95636195Y-78519386D01*
X95636201Y-78519392D01*
X95820097Y-78660500D01*
X95823453Y-78663075D01*
X96027838Y-78781077D01*
X96027842Y-78781078D01*
X96027851Y-78781084D01*
X96245907Y-78871406D01*
X96473886Y-78932493D01*
X96473890Y-78932493D01*
X96473892Y-78932494D01*
X96533049Y-78940282D01*
X96707889Y-78963300D01*
X96707896Y-78963300D01*
X96943904Y-78963300D01*
X96943911Y-78963300D01*
X97118749Y-78940282D01*
X97188896Y-78951221D01*
X97224289Y-78976109D01*
X98382785Y-80134605D01*
X98382799Y-80134620D01*
X98385960Y-80137781D01*
X98385961Y-80137782D01*
X98525318Y-80277139D01*
X98689186Y-80386632D01*
X98817934Y-80439961D01*
X98871264Y-80462051D01*
X98967912Y-80481275D01*
X99064559Y-80500500D01*
X99064560Y-80500500D01*
X99261640Y-80500500D01*
X99586095Y-80500500D01*
X99654216Y-80520502D01*
X99686058Y-80549797D01*
X99793402Y-80689692D01*
X99793417Y-80689709D01*
X99960290Y-80856582D01*
X99960295Y-80856586D01*
X99960301Y-80856592D01*
X100147550Y-81000273D01*
X100147553Y-81000275D01*
X100351938Y-81118277D01*
X100351942Y-81118278D01*
X100351951Y-81118284D01*
X100570007Y-81208606D01*
X100797986Y-81269693D01*
X100797990Y-81269693D01*
X100797992Y-81269694D01*
X100858300Y-81277633D01*
X101031989Y-81300500D01*
X101031996Y-81300500D01*
X101268004Y-81300500D01*
X101268011Y-81300500D01*
X101479491Y-81272658D01*
X101502007Y-81269694D01*
X101502007Y-81269693D01*
X101502014Y-81269693D01*
X101729993Y-81208606D01*
X101948049Y-81118284D01*
X102152450Y-81000273D01*
X102339699Y-80856592D01*
X102506592Y-80689699D01*
X102650273Y-80502450D01*
X102768284Y-80298049D01*
X102858606Y-80079993D01*
X102919693Y-79852014D01*
X102950500Y-79618011D01*
X102950500Y-79381989D01*
X102919693Y-79147986D01*
X102858606Y-78920007D01*
X102768284Y-78701951D01*
X102768278Y-78701942D01*
X102768277Y-78701938D01*
X102650275Y-78497553D01*
X102639372Y-78483344D01*
X102506592Y-78310301D01*
X102506586Y-78310295D01*
X102506582Y-78310290D01*
X102339709Y-78143417D01*
X102339703Y-78143412D01*
X102339699Y-78143408D01*
X102152450Y-77999727D01*
X102152449Y-77999726D01*
X102152446Y-77999724D01*
X101948061Y-77881722D01*
X101948053Y-77881718D01*
X101948049Y-77881716D01*
X101729993Y-77791394D01*
X101548612Y-77742793D01*
X101502007Y-77730305D01*
X101268013Y-77699500D01*
X101268011Y-77699500D01*
X101031989Y-77699500D01*
X101031986Y-77699500D01*
X100797992Y-77730305D01*
X100570011Y-77791393D01*
X100570007Y-77791394D01*
X100351949Y-77881717D01*
X100351938Y-77881722D01*
X100147553Y-77999724D01*
X99960301Y-78143408D01*
X99960290Y-78143417D01*
X99793417Y-78310290D01*
X99793408Y-78310301D01*
X99761029Y-78352499D01*
X99704994Y-78425525D01*
X99647656Y-78467392D01*
X99576785Y-78471614D01*
X99515936Y-78437916D01*
X98639209Y-77561189D01*
X98605183Y-77498877D01*
X98603382Y-77455648D01*
X98626400Y-77280811D01*
X98626400Y-77044789D01*
X98595593Y-76810786D01*
X98591434Y-76795263D01*
X126909500Y-76795263D01*
X126909500Y-77024736D01*
X126939450Y-77252231D01*
X126958278Y-77322501D01*
X126998842Y-77473887D01*
X127086656Y-77685888D01*
X127086657Y-77685889D01*
X127086662Y-77685900D01*
X127201386Y-77884608D01*
X127201391Y-77884615D01*
X127341073Y-78066652D01*
X127341092Y-78066673D01*
X127503326Y-78228907D01*
X127503347Y-78228926D01*
X127685384Y-78368608D01*
X127685391Y-78368613D01*
X127884099Y-78483337D01*
X127884103Y-78483338D01*
X127884112Y-78483344D01*
X128096113Y-78571158D01*
X128317762Y-78630548D01*
X128317766Y-78630548D01*
X128317768Y-78630549D01*
X128376398Y-78638267D01*
X128545266Y-78660500D01*
X128545273Y-78660500D01*
X128774727Y-78660500D01*
X128774734Y-78660500D01*
X128980345Y-78633430D01*
X129002231Y-78630549D01*
X129002231Y-78630548D01*
X129002238Y-78630548D01*
X129223887Y-78571158D01*
X129435888Y-78483344D01*
X129634612Y-78368611D01*
X129816661Y-78228919D01*
X129978919Y-78066661D01*
X130118611Y-77884612D01*
X130233344Y-77685888D01*
X130321158Y-77473887D01*
X130380548Y-77252238D01*
X130410500Y-77024734D01*
X130410500Y-76795266D01*
X130380548Y-76567762D01*
X130321158Y-76346113D01*
X130233344Y-76134112D01*
X130233338Y-76134103D01*
X130233337Y-76134099D01*
X130118613Y-75935391D01*
X130118608Y-75935384D01*
X129978926Y-75753347D01*
X129978907Y-75753326D01*
X129816673Y-75591092D01*
X129816652Y-75591073D01*
X129634615Y-75451391D01*
X129634608Y-75451386D01*
X129557867Y-75407080D01*
X129435900Y-75336662D01*
X129435892Y-75336658D01*
X129435888Y-75336656D01*
X129351000Y-75301494D01*
X131399500Y-75301494D01*
X131399500Y-75638505D01*
X131437233Y-75973398D01*
X131476728Y-76146433D01*
X131512224Y-76301954D01*
X131512226Y-76301960D01*
X131512225Y-76301960D01*
X131623524Y-76620033D01*
X131623535Y-76620060D01*
X131769751Y-76923681D01*
X131769756Y-76923690D01*
X131949051Y-77209036D01*
X132159177Y-77472526D01*
X132397473Y-77710822D01*
X132660963Y-77920948D01*
X132892864Y-78066661D01*
X132946314Y-78100246D01*
X133249949Y-78246469D01*
X133249965Y-78246474D01*
X133249966Y-78246475D01*
X133568039Y-78357774D01*
X133568042Y-78357774D01*
X133568046Y-78357776D01*
X133811239Y-78413282D01*
X133896601Y-78432766D01*
X133896602Y-78432766D01*
X133896606Y-78432767D01*
X134117492Y-78457654D01*
X134231494Y-78470500D01*
X134231496Y-78470500D01*
X134568506Y-78470500D01*
X134665925Y-78459523D01*
X134903394Y-78432767D01*
X135231954Y-78357776D01*
X135550051Y-78246469D01*
X135853686Y-78100246D01*
X136139039Y-77920946D01*
X136402523Y-77710825D01*
X136640825Y-77472523D01*
X136850946Y-77209039D01*
X137030246Y-76923686D01*
X137176469Y-76620051D01*
X137287776Y-76301954D01*
X137362767Y-75973394D01*
X137400500Y-75638504D01*
X137400500Y-75301496D01*
X137362767Y-74966606D01*
X137287776Y-74638046D01*
X137265212Y-74573563D01*
X137176475Y-74319966D01*
X137176474Y-74319965D01*
X137176469Y-74319949D01*
X137030246Y-74016314D01*
X136954929Y-73896448D01*
X136850948Y-73730963D01*
X136640822Y-73467473D01*
X136402526Y-73229177D01*
X136139036Y-73019051D01*
X135853690Y-72839756D01*
X135853681Y-72839751D01*
X135550060Y-72693535D01*
X135550055Y-72693533D01*
X135550051Y-72693531D01*
X135550045Y-72693528D01*
X135550033Y-72693524D01*
X135231960Y-72582225D01*
X134903398Y-72507233D01*
X134568506Y-72469500D01*
X134568504Y-72469500D01*
X134231496Y-72469500D01*
X134231494Y-72469500D01*
X133896601Y-72507233D01*
X133568039Y-72582225D01*
X133249966Y-72693524D01*
X133249939Y-72693535D01*
X132946318Y-72839751D01*
X132946309Y-72839756D01*
X132660963Y-73019051D01*
X132397473Y-73229177D01*
X132159177Y-73467473D01*
X131949051Y-73730963D01*
X131769756Y-74016309D01*
X131769751Y-74016318D01*
X131623535Y-74319939D01*
X131623524Y-74319966D01*
X131512225Y-74638039D01*
X131437233Y-74966601D01*
X131399500Y-75301494D01*
X129351000Y-75301494D01*
X129223887Y-75248842D01*
X129002238Y-75189452D01*
X129002231Y-75189450D01*
X128774736Y-75159500D01*
X128774734Y-75159500D01*
X128545266Y-75159500D01*
X128545263Y-75159500D01*
X128317768Y-75189450D01*
X128139405Y-75237242D01*
X128096113Y-75248842D01*
X127968996Y-75301496D01*
X127884110Y-75336657D01*
X127884099Y-75336662D01*
X127685391Y-75451386D01*
X127685384Y-75451391D01*
X127503347Y-75591073D01*
X127503326Y-75591092D01*
X127341092Y-75753326D01*
X127341073Y-75753347D01*
X127201391Y-75935384D01*
X127201386Y-75935391D01*
X127086662Y-76134099D01*
X127086657Y-76134110D01*
X127086656Y-76134112D01*
X127081551Y-76146436D01*
X126998842Y-76346113D01*
X126939450Y-76567768D01*
X126909500Y-76795263D01*
X98591434Y-76795263D01*
X98534506Y-76582807D01*
X98444184Y-76364751D01*
X98444178Y-76364742D01*
X98444177Y-76364738D01*
X98326175Y-76160353D01*
X98306030Y-76134099D01*
X98182492Y-75973101D01*
X98182486Y-75973095D01*
X98182482Y-75973090D01*
X98015609Y-75806217D01*
X98015603Y-75806212D01*
X98015599Y-75806208D01*
X97828350Y-75662527D01*
X97828349Y-75662526D01*
X97828346Y-75662524D01*
X97623961Y-75544522D01*
X97623953Y-75544518D01*
X97623949Y-75544516D01*
X97405893Y-75454194D01*
X97177914Y-75393107D01*
X97177907Y-75393105D01*
X96943913Y-75362300D01*
X96943911Y-75362300D01*
X96707889Y-75362300D01*
X96707886Y-75362300D01*
X96473892Y-75393105D01*
X96281181Y-75444742D01*
X96256376Y-75451389D01*
X96245911Y-75454193D01*
X96245907Y-75454194D01*
X96027849Y-75544517D01*
X96027838Y-75544522D01*
X95823453Y-75662524D01*
X95636201Y-75806208D01*
X95636190Y-75806217D01*
X95469317Y-75973090D01*
X95469308Y-75973101D01*
X95325624Y-76160353D01*
X95207622Y-76364738D01*
X95207617Y-76364749D01*
X95117294Y-76582807D01*
X95117293Y-76582811D01*
X95056205Y-76810792D01*
X95025400Y-77044786D01*
X40510560Y-77044786D01*
X40510551Y-77040949D01*
X40506480Y-75241908D01*
X86109500Y-75241908D01*
X86109500Y-75478092D01*
X86146447Y-75711368D01*
X86219432Y-75935992D01*
X86326657Y-76146433D01*
X86326659Y-76146436D01*
X86465484Y-76337512D01*
X86632487Y-76504515D01*
X86632490Y-76504517D01*
X86823567Y-76643343D01*
X87034008Y-76750568D01*
X87258632Y-76823553D01*
X87491908Y-76860500D01*
X87491911Y-76860500D01*
X87728089Y-76860500D01*
X87728092Y-76860500D01*
X87961368Y-76823553D01*
X88185992Y-76750568D01*
X88396433Y-76643343D01*
X88587510Y-76504517D01*
X88754517Y-76337510D01*
X88893343Y-76146433D01*
X89000568Y-75935992D01*
X89073553Y-75711368D01*
X89110500Y-75478092D01*
X89110500Y-75241908D01*
X89073553Y-75008632D01*
X89000568Y-74784008D01*
X88893343Y-74573567D01*
X88754517Y-74382490D01*
X88754515Y-74382487D01*
X88587512Y-74215484D01*
X88396436Y-74076659D01*
X88396435Y-74076658D01*
X88396433Y-74076657D01*
X88185992Y-73969432D01*
X87961368Y-73896447D01*
X87728092Y-73859500D01*
X87491908Y-73859500D01*
X87258632Y-73896447D01*
X87258629Y-73896447D01*
X87258628Y-73896448D01*
X87034008Y-73969432D01*
X87034006Y-73969433D01*
X86823563Y-74076659D01*
X86632487Y-74215484D01*
X86465484Y-74382487D01*
X86326659Y-74573563D01*
X86326657Y-74573567D01*
X86219432Y-74784008D01*
X86146447Y-75008632D01*
X86109500Y-75241908D01*
X40506480Y-75241908D01*
X40506469Y-75237242D01*
X40498016Y-71501908D01*
X73379500Y-71501908D01*
X73379500Y-71738092D01*
X73416447Y-71971368D01*
X73489432Y-72195992D01*
X73559416Y-72333343D01*
X73596659Y-72406436D01*
X73735484Y-72597512D01*
X73902487Y-72764515D01*
X74006047Y-72839756D01*
X74093567Y-72903343D01*
X74304008Y-73010568D01*
X74528632Y-73083553D01*
X74761908Y-73120500D01*
X74761911Y-73120500D01*
X74998089Y-73120500D01*
X74998092Y-73120500D01*
X75231368Y-73083553D01*
X75455992Y-73010568D01*
X75666433Y-72903343D01*
X75857510Y-72764517D01*
X76024517Y-72597510D01*
X76163343Y-72406433D01*
X76270568Y-72195992D01*
X76343553Y-71971368D01*
X76380500Y-71738092D01*
X76380500Y-71501908D01*
X76343553Y-71268632D01*
X76270568Y-71044008D01*
X76213450Y-70931908D01*
X94629500Y-70931908D01*
X94629500Y-71168092D01*
X94666447Y-71401368D01*
X94739432Y-71625992D01*
X94739433Y-71625993D01*
X94846659Y-71836436D01*
X94985484Y-72027512D01*
X95152487Y-72194515D01*
X95278005Y-72285709D01*
X95343567Y-72333343D01*
X95554008Y-72440568D01*
X95778632Y-72513553D01*
X96011908Y-72550500D01*
X96011911Y-72550500D01*
X96248089Y-72550500D01*
X96248092Y-72550500D01*
X96481368Y-72513553D01*
X96705992Y-72440568D01*
X96916433Y-72333343D01*
X97107510Y-72194517D01*
X97274517Y-72027510D01*
X97413343Y-71836433D01*
X97520568Y-71625992D01*
X97593553Y-71401368D01*
X97630500Y-71168092D01*
X97630500Y-70931908D01*
X97593553Y-70698632D01*
X97520568Y-70474008D01*
X97413343Y-70263567D01*
X97274517Y-70072490D01*
X97274515Y-70072487D01*
X97107512Y-69905484D01*
X96916436Y-69766659D01*
X96916435Y-69766658D01*
X96916433Y-69766657D01*
X96705992Y-69659432D01*
X96481368Y-69586447D01*
X96248092Y-69549500D01*
X96011908Y-69549500D01*
X95778632Y-69586447D01*
X95778629Y-69586447D01*
X95778628Y-69586448D01*
X95554008Y-69659432D01*
X95554006Y-69659433D01*
X95343563Y-69766659D01*
X95152487Y-69905484D01*
X94985484Y-70072487D01*
X94846659Y-70263563D01*
X94739433Y-70474006D01*
X94739432Y-70474008D01*
X94684689Y-70642490D01*
X94666447Y-70698632D01*
X94629500Y-70931908D01*
X76213450Y-70931908D01*
X76163343Y-70833567D01*
X76024517Y-70642490D01*
X76024515Y-70642487D01*
X75857512Y-70475484D01*
X75666436Y-70336659D01*
X75666435Y-70336658D01*
X75666433Y-70336657D01*
X75455992Y-70229432D01*
X75231368Y-70156447D01*
X74998092Y-70119500D01*
X74761908Y-70119500D01*
X74528632Y-70156447D01*
X74528629Y-70156447D01*
X74528628Y-70156448D01*
X74304008Y-70229432D01*
X74304006Y-70229433D01*
X74093563Y-70336659D01*
X73902487Y-70475484D01*
X73735484Y-70642487D01*
X73596659Y-70833563D01*
X73489433Y-71044006D01*
X73489432Y-71044008D01*
X73449115Y-71168092D01*
X73416447Y-71268632D01*
X73379500Y-71501908D01*
X40498016Y-71501908D01*
X40498005Y-71497242D01*
X40490345Y-68112400D01*
X40490285Y-68086035D01*
X40510133Y-68017870D01*
X40563683Y-67971256D01*
X40616034Y-67959751D01*
X49410000Y-67942400D01*
X49409049Y-67075263D01*
X121219500Y-67075263D01*
X121219500Y-67304736D01*
X121249450Y-67532231D01*
X121249452Y-67532238D01*
X121308842Y-67753887D01*
X121396656Y-67965888D01*
X121396657Y-67965889D01*
X121396662Y-67965900D01*
X121511386Y-68164608D01*
X121511391Y-68164615D01*
X121651073Y-68346652D01*
X121651092Y-68346673D01*
X121813326Y-68508907D01*
X121813347Y-68508926D01*
X121995384Y-68648608D01*
X121995391Y-68648613D01*
X122194099Y-68763337D01*
X122194103Y-68763338D01*
X122194112Y-68763344D01*
X122406113Y-68851158D01*
X122627762Y-68910548D01*
X122627766Y-68910548D01*
X122627768Y-68910549D01*
X122686398Y-68918267D01*
X122855266Y-68940500D01*
X122855273Y-68940500D01*
X123084727Y-68940500D01*
X123084734Y-68940500D01*
X123290345Y-68913430D01*
X123312231Y-68910549D01*
X123312231Y-68910548D01*
X123312238Y-68910548D01*
X123533887Y-68851158D01*
X123745888Y-68763344D01*
X123944612Y-68648611D01*
X124126661Y-68508919D01*
X124288919Y-68346661D01*
X124428611Y-68164612D01*
X124543344Y-67965888D01*
X124631158Y-67753887D01*
X124690548Y-67532238D01*
X124720500Y-67304734D01*
X124720500Y-67075266D01*
X124690548Y-66847762D01*
X124631158Y-66626113D01*
X124543344Y-66414112D01*
X124543338Y-66414103D01*
X124543337Y-66414099D01*
X124428613Y-66215391D01*
X124428608Y-66215384D01*
X124288926Y-66033347D01*
X124288907Y-66033326D01*
X124126673Y-65871092D01*
X124126652Y-65871073D01*
X123944615Y-65731391D01*
X123944608Y-65731386D01*
X123745900Y-65616662D01*
X123745892Y-65616658D01*
X123745888Y-65616656D01*
X123533887Y-65528842D01*
X123312238Y-65469452D01*
X123312231Y-65469450D01*
X123084736Y-65439500D01*
X123084734Y-65439500D01*
X122855266Y-65439500D01*
X122855263Y-65439500D01*
X122627768Y-65469450D01*
X122406113Y-65528842D01*
X122194110Y-65616657D01*
X122194099Y-65616662D01*
X121995391Y-65731386D01*
X121995384Y-65731391D01*
X121813347Y-65871073D01*
X121813326Y-65871092D01*
X121651092Y-66033326D01*
X121651073Y-66033347D01*
X121511391Y-66215384D01*
X121511386Y-66215391D01*
X121396662Y-66414099D01*
X121396657Y-66414110D01*
X121308842Y-66626113D01*
X121249450Y-66847768D01*
X121219500Y-67075263D01*
X49409049Y-67075263D01*
X49404988Y-63371908D01*
X68399500Y-63371908D01*
X68399500Y-63608092D01*
X68436447Y-63841368D01*
X68509432Y-64065992D01*
X68616657Y-64276433D01*
X68616659Y-64276436D01*
X68755484Y-64467512D01*
X68922487Y-64634515D01*
X68966636Y-64666591D01*
X69113567Y-64773343D01*
X69324008Y-64880568D01*
X69548632Y-64953553D01*
X69781908Y-64990500D01*
X69781911Y-64990500D01*
X70018089Y-64990500D01*
X70018092Y-64990500D01*
X70251368Y-64953553D01*
X70475992Y-64880568D01*
X70686433Y-64773343D01*
X70877510Y-64634517D01*
X71044517Y-64467510D01*
X71183343Y-64276433D01*
X71290568Y-64065992D01*
X71363553Y-63841368D01*
X71400500Y-63608092D01*
X71400500Y-63371908D01*
X71372003Y-63191986D01*
X118779500Y-63191986D01*
X118779500Y-63428013D01*
X118810305Y-63662007D01*
X118810307Y-63662014D01*
X118871394Y-63889993D01*
X118961716Y-64108049D01*
X118961717Y-64108050D01*
X118961722Y-64108061D01*
X119079724Y-64312446D01*
X119079726Y-64312449D01*
X119079727Y-64312450D01*
X119223408Y-64499699D01*
X119223412Y-64499703D01*
X119223417Y-64499709D01*
X119390290Y-64666582D01*
X119390295Y-64666586D01*
X119390301Y-64666592D01*
X119529422Y-64773343D01*
X119577553Y-64810275D01*
X119781938Y-64928277D01*
X119781942Y-64928278D01*
X119781951Y-64928284D01*
X120000007Y-65018606D01*
X120227986Y-65079693D01*
X120227990Y-65079693D01*
X120227992Y-65079694D01*
X120288300Y-65087633D01*
X120461989Y-65110500D01*
X120461996Y-65110500D01*
X120698004Y-65110500D01*
X120698011Y-65110500D01*
X120909491Y-65082658D01*
X120932007Y-65079694D01*
X120932007Y-65079693D01*
X120932014Y-65079693D01*
X121159993Y-65018606D01*
X121378049Y-64928284D01*
X121582450Y-64810273D01*
X121769699Y-64666592D01*
X121936592Y-64499699D01*
X122080273Y-64312450D01*
X122198284Y-64108049D01*
X122288606Y-63889993D01*
X122349693Y-63662014D01*
X122380500Y-63428011D01*
X122380500Y-63191989D01*
X122368586Y-63101494D01*
X123709500Y-63101494D01*
X123709500Y-63438505D01*
X123747233Y-63773398D01*
X123791590Y-63967737D01*
X123822224Y-64101954D01*
X123822226Y-64101960D01*
X123822225Y-64101960D01*
X123933524Y-64420033D01*
X123933535Y-64420060D01*
X124079751Y-64723681D01*
X124079756Y-64723690D01*
X124259051Y-65009036D01*
X124469177Y-65272526D01*
X124707473Y-65510822D01*
X124970963Y-65720948D01*
X125209898Y-65871081D01*
X125256314Y-65900246D01*
X125559949Y-66046469D01*
X125559965Y-66046474D01*
X125559966Y-66046475D01*
X125878039Y-66157774D01*
X125878042Y-66157774D01*
X125878046Y-66157776D01*
X126121239Y-66213282D01*
X126206601Y-66232766D01*
X126206602Y-66232766D01*
X126206606Y-66232767D01*
X126427492Y-66257654D01*
X126541494Y-66270500D01*
X126541496Y-66270500D01*
X126878506Y-66270500D01*
X126975925Y-66259523D01*
X127213394Y-66232767D01*
X127541954Y-66157776D01*
X127860051Y-66046469D01*
X128163686Y-65900246D01*
X128449039Y-65720946D01*
X128712523Y-65510825D01*
X128950825Y-65272523D01*
X129160946Y-65009039D01*
X129340246Y-64723686D01*
X129486469Y-64420051D01*
X129597776Y-64101954D01*
X129672767Y-63773394D01*
X129710500Y-63438504D01*
X129710500Y-63101496D01*
X129672767Y-62766606D01*
X129597776Y-62438046D01*
X129552113Y-62307550D01*
X129486475Y-62119966D01*
X129486474Y-62119965D01*
X129486469Y-62119949D01*
X129340246Y-61816314D01*
X129336105Y-61809724D01*
X129160948Y-61530963D01*
X128950822Y-61267473D01*
X128712526Y-61029177D01*
X128449036Y-60819051D01*
X128163690Y-60639756D01*
X128163681Y-60639751D01*
X127860060Y-60493535D01*
X127860055Y-60493533D01*
X127860051Y-60493531D01*
X127860045Y-60493528D01*
X127860033Y-60493524D01*
X127541960Y-60382225D01*
X127213398Y-60307233D01*
X126878506Y-60269500D01*
X126878504Y-60269500D01*
X126541496Y-60269500D01*
X126541494Y-60269500D01*
X126206601Y-60307233D01*
X125878039Y-60382225D01*
X125559966Y-60493524D01*
X125559939Y-60493535D01*
X125256318Y-60639751D01*
X125256309Y-60639756D01*
X124970963Y-60819051D01*
X124707473Y-61029177D01*
X124469177Y-61267473D01*
X124259051Y-61530963D01*
X124079756Y-61816309D01*
X124079751Y-61816318D01*
X123933535Y-62119939D01*
X123933524Y-62119966D01*
X123822225Y-62438039D01*
X123747233Y-62766601D01*
X123709500Y-63101494D01*
X122368586Y-63101494D01*
X122349693Y-62957986D01*
X122288606Y-62730007D01*
X122198284Y-62511951D01*
X122198278Y-62511942D01*
X122198277Y-62511938D01*
X122080275Y-62307553D01*
X122080273Y-62307550D01*
X121936592Y-62120301D01*
X121936586Y-62120295D01*
X121936582Y-62120290D01*
X121769709Y-61953417D01*
X121769703Y-61953412D01*
X121769699Y-61953408D01*
X121582450Y-61809727D01*
X121582449Y-61809726D01*
X121582446Y-61809724D01*
X121378061Y-61691722D01*
X121378053Y-61691718D01*
X121378049Y-61691716D01*
X121159993Y-61601394D01*
X120932014Y-61540307D01*
X120932007Y-61540305D01*
X120698013Y-61509500D01*
X120698011Y-61509500D01*
X120461989Y-61509500D01*
X120461986Y-61509500D01*
X120227992Y-61540305D01*
X120000011Y-61601393D01*
X120000007Y-61601394D01*
X119781949Y-61691717D01*
X119781938Y-61691722D01*
X119577553Y-61809724D01*
X119390301Y-61953408D01*
X119390290Y-61953417D01*
X119223417Y-62120290D01*
X119223408Y-62120301D01*
X119079724Y-62307553D01*
X118961722Y-62511938D01*
X118961717Y-62511949D01*
X118961716Y-62511951D01*
X118882346Y-62703567D01*
X118871394Y-62730007D01*
X118871393Y-62730011D01*
X118810305Y-62957992D01*
X118779500Y-63191986D01*
X71372003Y-63191986D01*
X71363553Y-63138632D01*
X71290568Y-62914008D01*
X71183343Y-62703567D01*
X71044517Y-62512490D01*
X71044515Y-62512487D01*
X70877512Y-62345484D01*
X70686436Y-62206659D01*
X70686435Y-62206658D01*
X70686433Y-62206657D01*
X70475992Y-62099432D01*
X70251368Y-62026447D01*
X70018092Y-61989500D01*
X69781908Y-61989500D01*
X69548632Y-62026447D01*
X69548629Y-62026447D01*
X69548628Y-62026448D01*
X69324008Y-62099432D01*
X69324006Y-62099433D01*
X69113563Y-62206659D01*
X68922487Y-62345484D01*
X68755484Y-62512487D01*
X68616659Y-62703563D01*
X68616657Y-62703567D01*
X68509432Y-62914008D01*
X68436447Y-63138632D01*
X68399500Y-63371908D01*
X49404988Y-63371908D01*
X49400138Y-58948536D01*
X49420065Y-58880396D01*
X49473670Y-58833844D01*
X49526138Y-58822400D01*
X130603590Y-58822400D01*
X130671711Y-58842402D01*
G37*
G04 #@! TD.AperFunction*
M02*
