G04 #@! TF.GenerationSoftware,KiCad,Pcbnew,9.0.4*
G04 #@! TF.CreationDate,2026-01-10T10:40:54-05:00*
G04 #@! TF.ProjectId,SignalStreamer,5369676e-616c-4537-9472-65616d65722e,rev?*
G04 #@! TF.SameCoordinates,Original*
G04 #@! TF.FileFunction,Copper,L2,Bot*
G04 #@! TF.FilePolarity,Positive*
%FSLAX46Y46*%
G04 Gerber Fmt 4.6, Leading zero omitted, Abs format (unit mm)*
G04 Created by KiCad (PCBNEW 9.0.4) date 2026-01-10 10:40:54*
%MOMM*%
%LPD*%
G01*
G04 APERTURE LIST*
G04 Aperture macros list*
%AMRoundRect*
0 Rectangle with rounded corners*
0 $1 Rounding radius*
0 $2 $3 $4 $5 $6 $7 $8 $9 X,Y pos of 4 corners*
0 Add a 4 corners polygon primitive as box body*
4,1,4,$2,$3,$4,$5,$6,$7,$8,$9,$2,$3,0*
0 Add four circle primitives for the rounded corners*
1,1,$1+$1,$2,$3*
1,1,$1+$1,$4,$5*
1,1,$1+$1,$6,$7*
1,1,$1+$1,$8,$9*
0 Add four rect primitives between the rounded corners*
20,1,$1+$1,$2,$3,$4,$5,0*
20,1,$1+$1,$4,$5,$6,$7,0*
20,1,$1+$1,$6,$7,$8,$9,0*
20,1,$1+$1,$8,$9,$2,$3,0*%
G04 Aperture macros list end*
G04 #@! TA.AperFunction,ComponentPad*
%ADD10C,2.600000*%
G04 #@! TD*
G04 #@! TA.AperFunction,SMDPad,CuDef*
%ADD11R,1.524000X5.000000*%
G04 #@! TD*
G04 #@! TA.AperFunction,ComponentPad*
%ADD12C,5.000000*%
G04 #@! TD*
G04 #@! TA.AperFunction,ComponentPad*
%ADD13RoundRect,0.250000X-0.550000X0.550000X-0.550000X-0.550000X0.550000X-0.550000X0.550000X0.550000X0*%
G04 #@! TD*
G04 #@! TA.AperFunction,ComponentPad*
%ADD14C,1.600000*%
G04 #@! TD*
G04 #@! TA.AperFunction,ComponentPad*
%ADD15R,1.800000X1.800000*%
G04 #@! TD*
G04 #@! TA.AperFunction,ComponentPad*
%ADD16C,1.800000*%
G04 #@! TD*
G04 #@! TA.AperFunction,ComponentPad*
%ADD17O,2.500000X1.600000*%
G04 #@! TD*
G04 #@! TA.AperFunction,ComponentPad*
%ADD18C,3.500000*%
G04 #@! TD*
G04 #@! TA.AperFunction,ComponentPad*
%ADD19RoundRect,0.250000X-1.000000X0.550000X-1.000000X-0.550000X1.000000X-0.550000X1.000000X0.550000X0*%
G04 #@! TD*
G04 #@! TA.AperFunction,ComponentPad*
%ADD20RoundRect,0.250000X0.550000X0.550000X-0.550000X0.550000X-0.550000X-0.550000X0.550000X-0.550000X0*%
G04 #@! TD*
G04 #@! TA.AperFunction,ComponentPad*
%ADD21C,7.000000*%
G04 #@! TD*
G04 #@! TA.AperFunction,SMDPad,CuDef*
%ADD22R,5.000000X1.524000*%
G04 #@! TD*
G04 #@! TA.AperFunction,ComponentPad*
%ADD23RoundRect,0.250000X-0.550000X-0.550000X0.550000X-0.550000X0.550000X0.550000X-0.550000X0.550000X0*%
G04 #@! TD*
G04 #@! TA.AperFunction,ComponentPad*
%ADD24C,1.440000*%
G04 #@! TD*
G04 #@! TA.AperFunction,ViaPad*
%ADD25C,0.600000*%
G04 #@! TD*
G04 #@! TA.AperFunction,Conductor*
%ADD26C,0.350000*%
G04 #@! TD*
G04 #@! TA.AperFunction,Conductor*
%ADD27C,1.000000*%
G04 #@! TD*
G04 #@! TA.AperFunction,Conductor*
%ADD28C,0.500000*%
G04 #@! TD*
G04 APERTURE END LIST*
D10*
X96825900Y-77162800D03*
D11*
X96825900Y-75362800D03*
X84175900Y-89692800D03*
D10*
X84175900Y-87892800D03*
D11*
X91415900Y-88932800D03*
D10*
X91405900Y-90872800D03*
X88535900Y-83862800D03*
D11*
X88535900Y-82062800D03*
D12*
X126710000Y-63270000D03*
X134760000Y-101730000D03*
X134400000Y-75470000D03*
D13*
X82280000Y-103014315D03*
D14*
X82280000Y-105554315D03*
D15*
X61065000Y-110280000D03*
D16*
X58525000Y-110280000D03*
D14*
X85390000Y-100695000D03*
X85390000Y-105775000D03*
D13*
X61550000Y-103000000D03*
D14*
X61550000Y-105540000D03*
D17*
X126980000Y-88034900D03*
D18*
X132060000Y-82954900D03*
D19*
X126980000Y-85494900D03*
D18*
X132060000Y-93114900D03*
D20*
X95566369Y-104570000D03*
D14*
X93066369Y-104570000D03*
D12*
X126710000Y-112680000D03*
D21*
X128125000Y-70572400D03*
D13*
X75380000Y-103134315D03*
D14*
X75380000Y-105674315D03*
D18*
X121330000Y-88034900D03*
D13*
X68360000Y-103000000D03*
D14*
X68360000Y-105540000D03*
D21*
X51925000Y-105497400D03*
D14*
X71700000Y-100730000D03*
X71700000Y-105810000D03*
D12*
X60790000Y-88034900D03*
D21*
X128125000Y-105497400D03*
D14*
X91010000Y-99000000D03*
X88510000Y-99000000D03*
D15*
X81550000Y-110350000D03*
D16*
X79010000Y-110350000D03*
D10*
X101230000Y-79560000D03*
D22*
X102730000Y-79560000D03*
X119100000Y-63370000D03*
D10*
X120660000Y-63370000D03*
D23*
X94170000Y-99240000D03*
D14*
X97980000Y-99240000D03*
D21*
X51925000Y-70572400D03*
D14*
X78640000Y-100675000D03*
X78640000Y-105755000D03*
D20*
X98160686Y-96170000D03*
D14*
X94350686Y-96170000D03*
D15*
X74735000Y-110360000D03*
D16*
X72195000Y-110360000D03*
D24*
X98250000Y-110300000D03*
X95710000Y-110300000D03*
X93170000Y-110300000D03*
D14*
X97150000Y-91800000D03*
X94650000Y-91800000D03*
X58040000Y-100745000D03*
X58040000Y-105825000D03*
X64770000Y-100730000D03*
X64770000Y-105810000D03*
D15*
X67875000Y-110320000D03*
D16*
X65335000Y-110320000D03*
D15*
X88335000Y-110350000D03*
D16*
X85795000Y-110350000D03*
D25*
X118620000Y-59702400D03*
X127570000Y-59642400D03*
X116340000Y-116392400D03*
X54830000Y-116222400D03*
X109490000Y-59632400D03*
X57330000Y-116202400D03*
X112570000Y-59672400D03*
X41150000Y-70240000D03*
X68560000Y-116192400D03*
X130000000Y-62042400D03*
X75140000Y-59560000D03*
X86300000Y-116300000D03*
X64520000Y-59792400D03*
X50180000Y-66732400D03*
X83240000Y-59752400D03*
X60070000Y-116202400D03*
X41200000Y-77860000D03*
X136070000Y-107022400D03*
X41390000Y-107010000D03*
X139090000Y-83482400D03*
X44650000Y-68410000D03*
X124610000Y-59702400D03*
X41160000Y-71990000D03*
X61660000Y-59792400D03*
X41200000Y-86120000D03*
X95340000Y-59662400D03*
X41160000Y-84070000D03*
X50070000Y-116252400D03*
X78130000Y-59670000D03*
X139110000Y-73630000D03*
X90890000Y-116370000D03*
X46610000Y-68410000D03*
X45480000Y-107060000D03*
X79680000Y-116110000D03*
X100224873Y-116521019D03*
X89609787Y-59647208D03*
X50220000Y-59822400D03*
X129980000Y-116392400D03*
X69830000Y-59610000D03*
X126900000Y-116342400D03*
X107220000Y-116512400D03*
X52950000Y-59822400D03*
X119800000Y-116342400D03*
X52320000Y-116252400D03*
X139120000Y-107072400D03*
X55850000Y-59822400D03*
X139010000Y-68842400D03*
X129940000Y-64392400D03*
X41220000Y-98760000D03*
X93070000Y-116450000D03*
X50050000Y-113792400D03*
X62770000Y-116182400D03*
X65680000Y-116192400D03*
X50220000Y-62992400D03*
X50050000Y-111602400D03*
X41180000Y-75980000D03*
X98050000Y-59732400D03*
X41180000Y-88380000D03*
X139080000Y-77760000D03*
X121710000Y-59702400D03*
X139090000Y-93262400D03*
X112870000Y-116452400D03*
X47390000Y-107040000D03*
X84080000Y-116260000D03*
X139070000Y-103782400D03*
X41310000Y-102580000D03*
X103850000Y-59662400D03*
X41180000Y-68430000D03*
X92580000Y-59682400D03*
X123650000Y-116392400D03*
X41350000Y-104720000D03*
X104840000Y-116512400D03*
X50080000Y-109212400D03*
X41220000Y-92420000D03*
X129980000Y-113862400D03*
X139140000Y-71352400D03*
X41220000Y-96720000D03*
X95450000Y-116502400D03*
X139110000Y-75760000D03*
X139020000Y-89742400D03*
X106730000Y-59662400D03*
X41200000Y-90320000D03*
X97850000Y-116502400D03*
X139070000Y-86252400D03*
X71620000Y-116192400D03*
X41270000Y-100640000D03*
X74690000Y-116152400D03*
X86390000Y-59752400D03*
X43330000Y-107040000D03*
X42880000Y-68410000D03*
X135580000Y-68632400D03*
X129970000Y-66602400D03*
X81940000Y-116180000D03*
X67140000Y-59762400D03*
X41220000Y-94540000D03*
X80810000Y-59762900D03*
X115370000Y-59702400D03*
X132680000Y-68632400D03*
X138920000Y-100202400D03*
X133080000Y-106972400D03*
X88590000Y-116370000D03*
X77050000Y-116132400D03*
X129970000Y-59672400D03*
X130030000Y-110672400D03*
X139050000Y-79970000D03*
X139020000Y-96662400D03*
X41160000Y-81930000D03*
X48940000Y-107040000D03*
X72640000Y-59610000D03*
X109670000Y-116482400D03*
X102220000Y-116512400D03*
X58760000Y-59822400D03*
X101070000Y-59653380D03*
X41180000Y-73820000D03*
X41180000Y-79940000D03*
X48610000Y-68420000D03*
D26*
X139140000Y-73600000D02*
X139110000Y-73630000D01*
X50050000Y-111602400D02*
X50050000Y-113792400D01*
X41180000Y-75980000D02*
X41180000Y-77840000D01*
X54830000Y-116222400D02*
X57310000Y-116222400D01*
X93070000Y-116450000D02*
X90970000Y-116450000D01*
X41220000Y-92420000D02*
X41220000Y-94540000D01*
X80717100Y-59670000D02*
X80810000Y-59762900D01*
X89609787Y-59647208D02*
X92544808Y-59647208D01*
X124610000Y-59702400D02*
X127510000Y-59702400D01*
X116390000Y-116342400D02*
X116340000Y-116392400D01*
X41160000Y-84070000D02*
X41160000Y-86080000D01*
X112870000Y-116452400D02*
X109700000Y-116452400D01*
X95340000Y-59662400D02*
X97980000Y-59662400D01*
X112570000Y-59672400D02*
X115340000Y-59672400D01*
X129980000Y-113862400D02*
X129980000Y-116392400D01*
X41220000Y-96720000D02*
X41220000Y-98760000D01*
X115340000Y-59672400D02*
X115370000Y-59702400D01*
X129970000Y-62012400D02*
X130000000Y-62042400D01*
X129940000Y-66572400D02*
X129970000Y-66602400D01*
X75090000Y-59610000D02*
X75140000Y-59560000D01*
X139090000Y-83482400D02*
X139090000Y-86232400D01*
X118620000Y-59702400D02*
X121710000Y-59702400D01*
X102220000Y-116512400D02*
X100233492Y-116512400D01*
X41350000Y-104720000D02*
X41350000Y-106970000D01*
X41160000Y-73800000D02*
X41180000Y-73820000D01*
X57310000Y-116222400D02*
X57330000Y-116202400D01*
X41180000Y-70210000D02*
X41150000Y-70240000D01*
X41180000Y-68430000D02*
X41180000Y-70210000D01*
X133130000Y-107022400D02*
X133080000Y-106972400D01*
X41180000Y-90300000D02*
X41200000Y-90320000D01*
X82020000Y-116260000D02*
X81940000Y-116180000D01*
X129940000Y-64392400D02*
X129940000Y-66572400D01*
X67140000Y-59762400D02*
X69677600Y-59762400D01*
X41270000Y-100640000D02*
X41270000Y-102540000D01*
X44650000Y-68410000D02*
X42880000Y-68410000D01*
X92544808Y-59647208D02*
X92580000Y-59682400D01*
X129970000Y-59672400D02*
X129970000Y-62012400D01*
X41350000Y-106970000D02*
X41390000Y-107010000D01*
X109460000Y-59662400D02*
X109490000Y-59632400D01*
X72640000Y-59610000D02*
X75090000Y-59610000D01*
X48610000Y-68420000D02*
X46620000Y-68420000D01*
X107220000Y-116512400D02*
X104840000Y-116512400D01*
X126900000Y-116342400D02*
X123700000Y-116342400D01*
X139090000Y-93262400D02*
X139090000Y-96592400D01*
X136070000Y-107022400D02*
X133130000Y-107022400D01*
X100233492Y-116512400D02*
X100224873Y-116521019D01*
X60070000Y-116202400D02*
X62750000Y-116202400D01*
X139070000Y-89692400D02*
X139020000Y-89742400D01*
X41270000Y-102540000D02*
X41310000Y-102580000D01*
X139070000Y-107022400D02*
X139120000Y-107072400D01*
X50180000Y-63032400D02*
X50220000Y-62992400D01*
X83240000Y-59752400D02*
X86390000Y-59752400D01*
X95474511Y-116526911D02*
X95450000Y-116502400D01*
X109700000Y-116452400D02*
X109670000Y-116482400D01*
X78130000Y-59670000D02*
X80717100Y-59670000D01*
X74650000Y-116192400D02*
X74690000Y-116152400D01*
X135770000Y-68442400D02*
X135580000Y-68632400D01*
X106730000Y-59662400D02*
X109460000Y-59662400D01*
X41180000Y-81910000D02*
X41160000Y-81930000D01*
X77050000Y-116132400D02*
X77070000Y-116152400D01*
X97850000Y-116502400D02*
X97825489Y-116526911D01*
X62750000Y-116202400D02*
X62770000Y-116182400D01*
X139110000Y-77730000D02*
X139080000Y-77760000D01*
X139090000Y-96592400D02*
X139020000Y-96662400D01*
X55850000Y-59822400D02*
X58760000Y-59822400D01*
X47390000Y-107040000D02*
X48940000Y-107040000D01*
X139070000Y-86252400D02*
X139070000Y-89692400D01*
X50070000Y-116252400D02*
X52320000Y-116252400D01*
X90970000Y-116450000D02*
X90890000Y-116370000D01*
X65680000Y-116192400D02*
X68560000Y-116192400D01*
X139140000Y-71352400D02*
X139140000Y-73600000D01*
X139020000Y-100102400D02*
X138920000Y-100202400D01*
X41180000Y-88380000D02*
X41180000Y-90300000D01*
X41160000Y-86080000D02*
X41200000Y-86120000D01*
X41180000Y-79940000D02*
X41180000Y-81910000D01*
X119800000Y-116342400D02*
X116390000Y-116342400D01*
X139010000Y-68842400D02*
X138610000Y-68442400D01*
X127510000Y-59702400D02*
X127570000Y-59642400D01*
X41160000Y-71990000D02*
X41160000Y-73800000D01*
X43330000Y-107040000D02*
X45460000Y-107040000D01*
X139050000Y-79970000D02*
X139050000Y-83442400D01*
X101070000Y-59653380D02*
X103840980Y-59653380D01*
X97980000Y-59662400D02*
X98050000Y-59732400D01*
X41180000Y-77840000D02*
X41200000Y-77860000D01*
X97825489Y-116526911D02*
X95474511Y-116526911D01*
X139050000Y-83442400D02*
X139090000Y-83482400D01*
X138610000Y-68442400D02*
X135770000Y-68442400D01*
X50220000Y-59822400D02*
X52950000Y-59822400D01*
X139110000Y-75760000D02*
X139110000Y-77730000D01*
X84080000Y-116260000D02*
X82020000Y-116260000D01*
X50180000Y-66732400D02*
X50180000Y-63032400D01*
X86370000Y-116370000D02*
X86300000Y-116300000D01*
X45460000Y-107040000D02*
X45480000Y-107060000D01*
X71620000Y-116192400D02*
X74650000Y-116192400D01*
X103840980Y-59653380D02*
X103850000Y-59662400D01*
X69677600Y-59762400D02*
X69830000Y-59610000D01*
X88590000Y-116370000D02*
X86370000Y-116370000D01*
X139090000Y-86232400D02*
X139070000Y-86252400D01*
X61660000Y-59792400D02*
X64520000Y-59792400D01*
X46620000Y-68420000D02*
X46610000Y-68410000D01*
X139070000Y-103782400D02*
X139070000Y-107022400D01*
X123700000Y-116342400D02*
X123650000Y-116392400D01*
X139020000Y-96662400D02*
X139020000Y-100102400D01*
D27*
X113770000Y-70120000D02*
X120580000Y-63310000D01*
X113770000Y-80210000D02*
X113770000Y-70120000D01*
X121200000Y-87640000D02*
X113770000Y-80210000D01*
D28*
X93170000Y-110300000D02*
X93160000Y-110290000D01*
X93160000Y-110290000D02*
X93160000Y-108465000D01*
X93160000Y-108465000D02*
X85390000Y-100695000D01*
G04 #@! TA.AperFunction,Conductor*
G36*
X130671711Y-58842402D02*
G01*
X130718204Y-58896058D01*
X130729589Y-58948810D01*
X130699999Y-68042399D01*
X130700000Y-68042400D01*
X139564319Y-68111421D01*
X139632281Y-68131953D01*
X139678355Y-68185969D01*
X139689335Y-68238083D01*
X139480671Y-107715345D01*
X139460309Y-107783359D01*
X139406409Y-107829568D01*
X139352955Y-107840667D01*
X130680000Y-107722399D01*
X130680000Y-116726493D01*
X130659998Y-116794614D01*
X130606342Y-116841107D01*
X130554093Y-116852493D01*
X49596508Y-116912306D01*
X49528373Y-116892354D01*
X49481840Y-116838733D01*
X49470416Y-116785893D01*
X49475763Y-115162372D01*
X125641838Y-115162372D01*
X125641838Y-115162374D01*
X125675116Y-115178400D01*
X125675144Y-115178411D01*
X125961359Y-115278563D01*
X126257016Y-115346045D01*
X126558369Y-115380000D01*
X126861631Y-115380000D01*
X127162983Y-115346045D01*
X127458640Y-115278563D01*
X127744872Y-115178405D01*
X127744873Y-115178405D01*
X127778160Y-115162374D01*
X127778161Y-115162373D01*
X126710001Y-114094213D01*
X126709999Y-114094213D01*
X125641838Y-115162372D01*
X49475763Y-115162372D01*
X49483624Y-112775263D01*
X102259500Y-112775263D01*
X102259500Y-113004736D01*
X102289450Y-113232231D01*
X102289452Y-113232238D01*
X102348842Y-113453887D01*
X102436656Y-113665888D01*
X102436657Y-113665889D01*
X102436662Y-113665900D01*
X102551386Y-113864608D01*
X102551391Y-113864615D01*
X102691073Y-114046652D01*
X102691092Y-114046673D01*
X102853326Y-114208907D01*
X102853347Y-114208926D01*
X103035384Y-114348608D01*
X103035391Y-114348613D01*
X103234099Y-114463337D01*
X103234103Y-114463338D01*
X103234112Y-114463344D01*
X103446113Y-114551158D01*
X103667762Y-114610548D01*
X103667766Y-114610548D01*
X103667768Y-114610549D01*
X103726398Y-114618267D01*
X103895266Y-114640500D01*
X103895273Y-114640500D01*
X104124727Y-114640500D01*
X104124734Y-114640500D01*
X104330345Y-114613430D01*
X104352231Y-114610549D01*
X104352231Y-114610548D01*
X104352238Y-114610548D01*
X104573887Y-114551158D01*
X104785888Y-114463344D01*
X104984612Y-114348611D01*
X105166661Y-114208919D01*
X105328919Y-114046661D01*
X105468611Y-113864612D01*
X105583344Y-113665888D01*
X105671158Y-113453887D01*
X105730548Y-113232238D01*
X105760500Y-113004734D01*
X105760500Y-112775266D01*
X105760500Y-112775263D01*
X116299500Y-112775263D01*
X116299500Y-113004736D01*
X116329450Y-113232231D01*
X116329452Y-113232238D01*
X116388842Y-113453887D01*
X116476656Y-113665888D01*
X116476657Y-113665889D01*
X116476662Y-113665900D01*
X116591386Y-113864608D01*
X116591391Y-113864615D01*
X116731073Y-114046652D01*
X116731092Y-114046673D01*
X116893326Y-114208907D01*
X116893347Y-114208926D01*
X117075384Y-114348608D01*
X117075391Y-114348613D01*
X117274099Y-114463337D01*
X117274103Y-114463338D01*
X117274112Y-114463344D01*
X117486113Y-114551158D01*
X117707762Y-114610548D01*
X117707766Y-114610548D01*
X117707768Y-114610549D01*
X117766398Y-114618267D01*
X117935266Y-114640500D01*
X117935273Y-114640500D01*
X118164727Y-114640500D01*
X118164734Y-114640500D01*
X118370345Y-114613430D01*
X118392231Y-114610549D01*
X118392231Y-114610548D01*
X118392238Y-114610548D01*
X118613887Y-114551158D01*
X118825888Y-114463344D01*
X119024612Y-114348611D01*
X119206661Y-114208919D01*
X119368919Y-114046661D01*
X119508611Y-113864612D01*
X119623344Y-113665888D01*
X119711158Y-113453887D01*
X119770548Y-113232238D01*
X119800500Y-113004734D01*
X119800500Y-112775266D01*
X119770548Y-112547762D01*
X119765352Y-112528369D01*
X124010000Y-112528369D01*
X124010000Y-112831630D01*
X124043954Y-113132983D01*
X124111437Y-113428640D01*
X124111436Y-113428640D01*
X124211593Y-113714869D01*
X124227625Y-113748161D01*
X125295786Y-112680001D01*
X125295786Y-112679998D01*
X125197411Y-112581623D01*
X125460000Y-112581623D01*
X125460000Y-112778377D01*
X125490779Y-112972709D01*
X125551580Y-113159833D01*
X125640904Y-113335143D01*
X125756554Y-113494320D01*
X125895680Y-113633446D01*
X126054857Y-113749096D01*
X126230167Y-113838420D01*
X126417291Y-113899221D01*
X126611623Y-113930000D01*
X126808377Y-113930000D01*
X127002709Y-113899221D01*
X127189833Y-113838420D01*
X127365143Y-113749096D01*
X127524320Y-113633446D01*
X127663446Y-113494320D01*
X127779096Y-113335143D01*
X127868420Y-113159833D01*
X127929221Y-112972709D01*
X127960000Y-112778377D01*
X127960000Y-112679998D01*
X128124213Y-112679998D01*
X128124213Y-112680001D01*
X129192373Y-113748161D01*
X129192374Y-113748160D01*
X129208405Y-113714873D01*
X129208405Y-113714872D01*
X129308563Y-113428640D01*
X129376045Y-113132983D01*
X129410000Y-112831630D01*
X129410000Y-112528369D01*
X129376045Y-112227016D01*
X129308562Y-111931359D01*
X129308563Y-111931359D01*
X129208411Y-111645144D01*
X129208400Y-111645116D01*
X129192374Y-111611838D01*
X129192372Y-111611838D01*
X128124213Y-112679998D01*
X127960000Y-112679998D01*
X127960000Y-112581623D01*
X127929221Y-112387291D01*
X127868420Y-112200167D01*
X127779096Y-112024857D01*
X127663446Y-111865680D01*
X127524320Y-111726554D01*
X127365143Y-111610904D01*
X127189833Y-111521580D01*
X127002709Y-111460779D01*
X126808377Y-111430000D01*
X126611623Y-111430000D01*
X126417291Y-111460779D01*
X126230167Y-111521580D01*
X126054857Y-111610904D01*
X125895680Y-111726554D01*
X125756554Y-111865680D01*
X125640904Y-112024857D01*
X125551580Y-112200167D01*
X125490779Y-112387291D01*
X125460000Y-112581623D01*
X125197411Y-112581623D01*
X124227625Y-111611837D01*
X124211593Y-111645131D01*
X124111436Y-111931359D01*
X124043954Y-112227016D01*
X124010000Y-112528369D01*
X119765352Y-112528369D01*
X119711158Y-112326113D01*
X119623344Y-112114112D01*
X119623338Y-112114103D01*
X119623337Y-112114099D01*
X119508613Y-111915391D01*
X119508608Y-111915384D01*
X119368926Y-111733347D01*
X119368907Y-111733326D01*
X119206673Y-111571092D01*
X119206652Y-111571073D01*
X119024615Y-111431391D01*
X119024608Y-111431386D01*
X118825900Y-111316662D01*
X118825892Y-111316658D01*
X118825888Y-111316656D01*
X118613887Y-111228842D01*
X118462501Y-111188278D01*
X118392231Y-111169450D01*
X118164736Y-111139500D01*
X118164734Y-111139500D01*
X117935266Y-111139500D01*
X117935263Y-111139500D01*
X117707768Y-111169450D01*
X117489733Y-111227872D01*
X117486113Y-111228842D01*
X117280870Y-111313857D01*
X117274110Y-111316657D01*
X117274099Y-111316662D01*
X117075391Y-111431386D01*
X117075384Y-111431391D01*
X116893347Y-111571073D01*
X116893326Y-111571092D01*
X116731092Y-111733326D01*
X116731073Y-111733347D01*
X116591391Y-111915384D01*
X116591386Y-111915391D01*
X116476662Y-112114099D01*
X116476657Y-112114110D01*
X116476656Y-112114112D01*
X116388842Y-112326113D01*
X116329450Y-112547768D01*
X116299500Y-112775263D01*
X105760500Y-112775263D01*
X105730548Y-112547762D01*
X105671158Y-112326113D01*
X105583344Y-112114112D01*
X105583338Y-112114103D01*
X105583337Y-112114099D01*
X105468613Y-111915391D01*
X105468608Y-111915384D01*
X105328926Y-111733347D01*
X105328907Y-111733326D01*
X105166673Y-111571092D01*
X105166652Y-111571073D01*
X104984615Y-111431391D01*
X104984608Y-111431386D01*
X104785900Y-111316662D01*
X104785892Y-111316658D01*
X104785888Y-111316656D01*
X104573887Y-111228842D01*
X104422501Y-111188278D01*
X104352231Y-111169450D01*
X104124736Y-111139500D01*
X104124734Y-111139500D01*
X103895266Y-111139500D01*
X103895263Y-111139500D01*
X103667768Y-111169450D01*
X103449733Y-111227872D01*
X103446113Y-111228842D01*
X103240870Y-111313857D01*
X103234110Y-111316657D01*
X103234099Y-111316662D01*
X103035391Y-111431386D01*
X103035384Y-111431391D01*
X102853347Y-111571073D01*
X102853326Y-111571092D01*
X102691092Y-111733326D01*
X102691073Y-111733347D01*
X102551391Y-111915384D01*
X102551386Y-111915391D01*
X102436662Y-112114099D01*
X102436657Y-112114110D01*
X102436656Y-112114112D01*
X102348842Y-112326113D01*
X102289450Y-112547768D01*
X102259500Y-112775263D01*
X49483624Y-112775263D01*
X49485103Y-112326113D01*
X49492204Y-110169778D01*
X57124500Y-110169778D01*
X57124500Y-110390222D01*
X57158985Y-110607951D01*
X57158986Y-110607954D01*
X57211152Y-110768509D01*
X57227105Y-110817606D01*
X57327185Y-111014022D01*
X57456758Y-111192365D01*
X57456760Y-111192367D01*
X57456762Y-111192370D01*
X57612629Y-111348237D01*
X57612632Y-111348239D01*
X57612635Y-111348242D01*
X57790978Y-111477815D01*
X57987394Y-111577895D01*
X58197049Y-111646015D01*
X58414778Y-111680500D01*
X58414781Y-111680500D01*
X58635219Y-111680500D01*
X58635222Y-111680500D01*
X58852951Y-111646015D01*
X59062606Y-111577895D01*
X59259022Y-111477815D01*
X59437365Y-111348242D01*
X59485336Y-111300270D01*
X59547646Y-111266247D01*
X59618461Y-111271311D01*
X59675297Y-111313857D01*
X59692486Y-111345335D01*
X59721202Y-111422328D01*
X59721203Y-111422329D01*
X59721204Y-111422331D01*
X59749845Y-111460591D01*
X59807453Y-111537546D01*
X59860887Y-111577546D01*
X59922669Y-111623796D01*
X59922671Y-111623796D01*
X59922673Y-111623798D01*
X59979831Y-111645116D01*
X60057514Y-111674090D01*
X60057517Y-111674091D01*
X60117127Y-111680500D01*
X62012872Y-111680499D01*
X62072483Y-111674091D01*
X62207331Y-111623796D01*
X62322546Y-111537546D01*
X62408796Y-111422331D01*
X62410322Y-111418241D01*
X62428213Y-111370272D01*
X62459091Y-111287483D01*
X62465500Y-111227873D01*
X62465499Y-110209778D01*
X63934500Y-110209778D01*
X63934500Y-110430222D01*
X63968985Y-110647951D01*
X63968986Y-110647954D01*
X64024108Y-110817607D01*
X64037105Y-110857606D01*
X64137185Y-111054022D01*
X64266758Y-111232365D01*
X64266760Y-111232367D01*
X64266762Y-111232370D01*
X64422629Y-111388237D01*
X64422632Y-111388239D01*
X64422635Y-111388242D01*
X64600978Y-111517815D01*
X64797394Y-111617895D01*
X65007049Y-111686015D01*
X65224778Y-111720500D01*
X65224781Y-111720500D01*
X65445219Y-111720500D01*
X65445222Y-111720500D01*
X65662951Y-111686015D01*
X65872606Y-111617895D01*
X66069022Y-111517815D01*
X66247365Y-111388242D01*
X66295336Y-111340270D01*
X66357646Y-111306247D01*
X66428461Y-111311311D01*
X66485297Y-111353857D01*
X66502486Y-111385335D01*
X66531202Y-111462328D01*
X66531203Y-111462329D01*
X66531204Y-111462331D01*
X66552250Y-111490445D01*
X66617453Y-111577546D01*
X66662014Y-111610904D01*
X66732669Y-111663796D01*
X66732671Y-111663796D01*
X66732673Y-111663798D01*
X66792236Y-111686013D01*
X66867514Y-111714090D01*
X66867517Y-111714091D01*
X66927127Y-111720500D01*
X68822872Y-111720499D01*
X68882483Y-111714091D01*
X69017331Y-111663796D01*
X69132546Y-111577546D01*
X69218796Y-111462331D01*
X69269091Y-111327483D01*
X69275500Y-111267873D01*
X69275499Y-110249778D01*
X70794500Y-110249778D01*
X70794500Y-110470222D01*
X70828985Y-110687951D01*
X70828986Y-110687954D01*
X70893855Y-110887606D01*
X70897105Y-110897606D01*
X70997185Y-111094022D01*
X70997187Y-111094025D01*
X70997971Y-111095104D01*
X71126758Y-111272365D01*
X71126760Y-111272367D01*
X71126762Y-111272370D01*
X71282629Y-111428237D01*
X71282632Y-111428239D01*
X71282635Y-111428242D01*
X71460978Y-111557815D01*
X71657394Y-111657895D01*
X71867049Y-111726015D01*
X72084778Y-111760500D01*
X72084781Y-111760500D01*
X72305219Y-111760500D01*
X72305222Y-111760500D01*
X72522951Y-111726015D01*
X72732606Y-111657895D01*
X72929022Y-111557815D01*
X73107365Y-111428242D01*
X73155336Y-111380270D01*
X73217646Y-111346247D01*
X73288461Y-111351311D01*
X73345297Y-111393857D01*
X73362486Y-111425335D01*
X73391202Y-111502328D01*
X73391203Y-111502329D01*
X73391204Y-111502331D01*
X73405614Y-111521580D01*
X73477453Y-111617546D01*
X73517992Y-111647893D01*
X73592669Y-111703796D01*
X73592671Y-111703796D01*
X73592673Y-111703798D01*
X73652236Y-111726013D01*
X73727514Y-111754090D01*
X73727517Y-111754091D01*
X73787127Y-111760500D01*
X75682872Y-111760499D01*
X75742483Y-111754091D01*
X75877331Y-111703796D01*
X75992546Y-111617546D01*
X76078796Y-111502331D01*
X76083229Y-111490447D01*
X76105255Y-111431391D01*
X76129091Y-111367483D01*
X76135500Y-111307873D01*
X76135499Y-110239778D01*
X77609500Y-110239778D01*
X77609500Y-110460222D01*
X77643985Y-110677951D01*
X77643986Y-110677954D01*
X77702357Y-110857606D01*
X77712105Y-110887606D01*
X77796901Y-111054025D01*
X77812187Y-111084025D01*
X77819641Y-111094284D01*
X77941758Y-111262365D01*
X77941760Y-111262367D01*
X77941762Y-111262370D01*
X78097629Y-111418237D01*
X78097632Y-111418239D01*
X78097635Y-111418242D01*
X78275978Y-111547815D01*
X78472394Y-111647895D01*
X78682049Y-111716015D01*
X78899778Y-111750500D01*
X78899781Y-111750500D01*
X79120219Y-111750500D01*
X79120222Y-111750500D01*
X79337951Y-111716015D01*
X79547606Y-111647895D01*
X79744022Y-111547815D01*
X79922365Y-111418242D01*
X79970336Y-111370270D01*
X80032646Y-111336247D01*
X80103461Y-111341311D01*
X80160297Y-111383857D01*
X80177486Y-111415335D01*
X80206202Y-111492328D01*
X80206203Y-111492329D01*
X80206204Y-111492331D01*
X80213688Y-111502328D01*
X80292453Y-111607546D01*
X80342641Y-111645116D01*
X80407669Y-111693796D01*
X80407671Y-111693796D01*
X80407673Y-111693798D01*
X80462080Y-111714090D01*
X80542514Y-111744090D01*
X80542517Y-111744091D01*
X80602127Y-111750500D01*
X82497872Y-111750499D01*
X82557483Y-111744091D01*
X82692331Y-111693796D01*
X82807546Y-111607546D01*
X82893796Y-111492331D01*
X82894500Y-111490445D01*
X82917044Y-111430000D01*
X82944091Y-111357483D01*
X82950500Y-111297873D01*
X82950499Y-110239778D01*
X84394500Y-110239778D01*
X84394500Y-110460222D01*
X84428985Y-110677951D01*
X84428986Y-110677954D01*
X84487357Y-110857606D01*
X84497105Y-110887606D01*
X84581901Y-111054025D01*
X84597187Y-111084025D01*
X84604641Y-111094284D01*
X84726758Y-111262365D01*
X84726760Y-111262367D01*
X84726762Y-111262370D01*
X84882629Y-111418237D01*
X84882632Y-111418239D01*
X84882635Y-111418242D01*
X85060978Y-111547815D01*
X85257394Y-111647895D01*
X85467049Y-111716015D01*
X85684778Y-111750500D01*
X85684781Y-111750500D01*
X85905219Y-111750500D01*
X85905222Y-111750500D01*
X86122951Y-111716015D01*
X86332606Y-111647895D01*
X86529022Y-111547815D01*
X86707365Y-111418242D01*
X86755336Y-111370270D01*
X86817646Y-111336247D01*
X86888461Y-111341311D01*
X86945297Y-111383857D01*
X86962486Y-111415335D01*
X86991202Y-111492328D01*
X86991203Y-111492329D01*
X86991204Y-111492331D01*
X86998688Y-111502328D01*
X87077453Y-111607546D01*
X87127641Y-111645116D01*
X87192669Y-111693796D01*
X87192671Y-111693796D01*
X87192673Y-111693798D01*
X87247080Y-111714090D01*
X87327514Y-111744090D01*
X87327517Y-111744091D01*
X87387127Y-111750500D01*
X89282872Y-111750499D01*
X89342483Y-111744091D01*
X89477331Y-111693796D01*
X89592546Y-111607546D01*
X89678796Y-111492331D01*
X89679500Y-111490445D01*
X89702044Y-111430000D01*
X89729091Y-111357483D01*
X89735500Y-111297873D01*
X89735499Y-109402128D01*
X89729091Y-109342517D01*
X89703763Y-109274608D01*
X89678798Y-109207673D01*
X89678796Y-109207670D01*
X89678796Y-109207669D01*
X89626397Y-109137673D01*
X89592546Y-109092453D01*
X89490689Y-109016204D01*
X89477331Y-109006204D01*
X89477329Y-109006203D01*
X89477326Y-109006201D01*
X89342483Y-108955909D01*
X89342486Y-108955909D01*
X89282873Y-108949500D01*
X87387135Y-108949500D01*
X87387114Y-108949502D01*
X87327519Y-108955908D01*
X87327518Y-108955908D01*
X87192673Y-109006201D01*
X87192670Y-109006203D01*
X87077453Y-109092453D01*
X86991203Y-109207670D01*
X86991202Y-109207671D01*
X86962486Y-109284664D01*
X86919939Y-109341500D01*
X86853419Y-109366311D01*
X86784045Y-109351220D01*
X86755335Y-109329727D01*
X86707370Y-109281762D01*
X86707367Y-109281760D01*
X86707365Y-109281758D01*
X86552053Y-109168918D01*
X86529025Y-109152187D01*
X86529024Y-109152186D01*
X86529022Y-109152185D01*
X86332606Y-109052105D01*
X86332603Y-109052104D01*
X86332601Y-109052103D01*
X86122954Y-108983986D01*
X86122951Y-108983985D01*
X85905222Y-108949500D01*
X85684778Y-108949500D01*
X85467049Y-108983985D01*
X85467046Y-108983985D01*
X85467045Y-108983986D01*
X85257398Y-109052103D01*
X85257392Y-109052106D01*
X85060974Y-109152187D01*
X84882632Y-109281760D01*
X84882629Y-109281762D01*
X84726762Y-109437629D01*
X84726760Y-109437632D01*
X84597187Y-109615974D01*
X84497106Y-109812392D01*
X84497103Y-109812398D01*
X84429472Y-110020549D01*
X84428985Y-110022049D01*
X84394500Y-110239778D01*
X82950499Y-110239778D01*
X82950499Y-109402128D01*
X82944091Y-109342517D01*
X82918763Y-109274608D01*
X82893798Y-109207673D01*
X82893796Y-109207670D01*
X82893796Y-109207669D01*
X82841397Y-109137673D01*
X82807546Y-109092453D01*
X82705689Y-109016204D01*
X82692331Y-109006204D01*
X82692329Y-109006203D01*
X82692326Y-109006201D01*
X82557483Y-108955909D01*
X82557486Y-108955909D01*
X82497873Y-108949500D01*
X80602135Y-108949500D01*
X80602114Y-108949502D01*
X80542519Y-108955908D01*
X80542518Y-108955908D01*
X80407673Y-109006201D01*
X80407670Y-109006203D01*
X80292453Y-109092453D01*
X80206203Y-109207670D01*
X80206202Y-109207671D01*
X80177486Y-109284664D01*
X80134939Y-109341500D01*
X80068419Y-109366311D01*
X79999045Y-109351220D01*
X79970335Y-109329727D01*
X79922370Y-109281762D01*
X79922367Y-109281760D01*
X79922365Y-109281758D01*
X79767053Y-109168918D01*
X79744025Y-109152187D01*
X79744024Y-109152186D01*
X79744022Y-109152185D01*
X79547606Y-109052105D01*
X79547603Y-109052104D01*
X79547601Y-109052103D01*
X79337954Y-108983986D01*
X79337951Y-108983985D01*
X79120222Y-108949500D01*
X78899778Y-108949500D01*
X78682049Y-108983985D01*
X78682046Y-108983985D01*
X78682045Y-108983986D01*
X78472398Y-109052103D01*
X78472392Y-109052106D01*
X78275974Y-109152187D01*
X78097632Y-109281760D01*
X78097629Y-109281762D01*
X77941762Y-109437629D01*
X77941760Y-109437632D01*
X77812187Y-109615974D01*
X77712106Y-109812392D01*
X77712103Y-109812398D01*
X77644472Y-110020549D01*
X77643985Y-110022049D01*
X77609500Y-110239778D01*
X76135499Y-110239778D01*
X76135499Y-109412128D01*
X76129091Y-109352517D01*
X76106429Y-109291758D01*
X76078798Y-109217673D01*
X76078796Y-109217670D01*
X76078796Y-109217669D01*
X76018911Y-109137673D01*
X75992546Y-109102453D01*
X75915591Y-109044845D01*
X75877331Y-109016204D01*
X75877329Y-109016203D01*
X75877326Y-109016201D01*
X75742483Y-108965909D01*
X75742486Y-108965909D01*
X75682873Y-108959500D01*
X73787135Y-108959500D01*
X73787114Y-108959502D01*
X73727519Y-108965908D01*
X73727518Y-108965908D01*
X73592673Y-109016201D01*
X73592670Y-109016203D01*
X73477453Y-109102453D01*
X73391203Y-109217670D01*
X73391202Y-109217671D01*
X73362486Y-109294664D01*
X73319939Y-109351500D01*
X73253419Y-109376311D01*
X73184045Y-109361220D01*
X73155335Y-109339727D01*
X73107370Y-109291762D01*
X73107367Y-109291760D01*
X73107365Y-109291758D01*
X72950337Y-109177671D01*
X72929025Y-109162187D01*
X72929024Y-109162186D01*
X72929022Y-109162185D01*
X72732606Y-109062105D01*
X72732603Y-109062104D01*
X72732601Y-109062103D01*
X72522954Y-108993986D01*
X72522951Y-108993985D01*
X72305222Y-108959500D01*
X72084778Y-108959500D01*
X71867049Y-108993985D01*
X71867046Y-108993985D01*
X71867045Y-108993986D01*
X71657398Y-109062103D01*
X71657392Y-109062106D01*
X71460974Y-109162187D01*
X71282632Y-109291760D01*
X71282629Y-109291762D01*
X71126762Y-109447629D01*
X71126760Y-109447632D01*
X70997187Y-109625974D01*
X70897106Y-109822392D01*
X70897103Y-109822398D01*
X70832235Y-110022045D01*
X70828985Y-110032049D01*
X70794500Y-110249778D01*
X69275499Y-110249778D01*
X69275499Y-109372128D01*
X69269091Y-109312517D01*
X69233716Y-109217671D01*
X69218798Y-109177673D01*
X69218796Y-109177670D01*
X69218796Y-109177669D01*
X69155004Y-109092454D01*
X69132546Y-109062453D01*
X69055591Y-109004845D01*
X69017331Y-108976204D01*
X69017329Y-108976203D01*
X69017326Y-108976201D01*
X68882483Y-108925909D01*
X68882486Y-108925909D01*
X68822873Y-108919500D01*
X66927135Y-108919500D01*
X66927114Y-108919502D01*
X66867519Y-108925908D01*
X66867518Y-108925908D01*
X66732673Y-108976201D01*
X66732670Y-108976203D01*
X66617453Y-109062453D01*
X66531203Y-109177670D01*
X66531202Y-109177671D01*
X66502486Y-109254664D01*
X66459939Y-109311500D01*
X66393419Y-109336311D01*
X66324045Y-109321220D01*
X66295335Y-109299727D01*
X66247370Y-109251762D01*
X66247367Y-109251760D01*
X66247365Y-109251758D01*
X66090337Y-109137671D01*
X66069025Y-109122187D01*
X66069024Y-109122186D01*
X66069022Y-109122185D01*
X65872606Y-109022105D01*
X65872603Y-109022104D01*
X65872601Y-109022103D01*
X65662954Y-108953986D01*
X65662951Y-108953985D01*
X65445222Y-108919500D01*
X65224778Y-108919500D01*
X65007049Y-108953985D01*
X65007046Y-108953985D01*
X65007045Y-108953986D01*
X64797398Y-109022103D01*
X64797392Y-109022106D01*
X64600974Y-109122187D01*
X64422632Y-109251760D01*
X64422629Y-109251762D01*
X64266762Y-109407629D01*
X64266760Y-109407632D01*
X64137187Y-109585974D01*
X64037106Y-109782392D01*
X64037103Y-109782398D01*
X63979022Y-109961157D01*
X63968985Y-109992049D01*
X63934500Y-110209778D01*
X62465499Y-110209778D01*
X62465499Y-109332128D01*
X62459091Y-109272517D01*
X62423716Y-109177671D01*
X62408798Y-109137673D01*
X62408796Y-109137670D01*
X62408796Y-109137669D01*
X62362556Y-109075900D01*
X62322546Y-109022453D01*
X62233652Y-108955908D01*
X62207331Y-108936204D01*
X62207329Y-108936203D01*
X62207326Y-108936201D01*
X62072483Y-108885909D01*
X62072486Y-108885909D01*
X62012873Y-108879500D01*
X60117135Y-108879500D01*
X60117114Y-108879502D01*
X60057519Y-108885908D01*
X60057518Y-108885908D01*
X59922673Y-108936201D01*
X59922670Y-108936203D01*
X59807453Y-109022453D01*
X59721203Y-109137670D01*
X59721202Y-109137671D01*
X59692486Y-109214664D01*
X59649939Y-109271500D01*
X59583419Y-109296311D01*
X59514045Y-109281220D01*
X59485335Y-109259727D01*
X59437370Y-109211762D01*
X59437367Y-109211760D01*
X59437365Y-109211758D01*
X59259022Y-109082185D01*
X59062606Y-108982105D01*
X59062603Y-108982104D01*
X59062601Y-108982103D01*
X58852954Y-108913986D01*
X58852951Y-108913985D01*
X58635222Y-108879500D01*
X58414778Y-108879500D01*
X58197049Y-108913985D01*
X58197046Y-108913985D01*
X58197045Y-108913986D01*
X57987398Y-108982103D01*
X57987392Y-108982106D01*
X57790974Y-109082187D01*
X57612632Y-109211760D01*
X57612629Y-109211762D01*
X57456762Y-109367629D01*
X57456760Y-109367632D01*
X57327187Y-109545974D01*
X57227106Y-109742392D01*
X57227103Y-109742398D01*
X57184558Y-109873342D01*
X57158985Y-109952049D01*
X57124500Y-110169778D01*
X49492204Y-110169778D01*
X49492222Y-110164412D01*
X49500000Y-107802399D01*
X46790479Y-107792401D01*
X46789678Y-107792396D01*
X40704452Y-107731250D01*
X40636536Y-107710564D01*
X40590584Y-107656444D01*
X40579718Y-107605541D01*
X40578598Y-107110500D01*
X40575457Y-105722648D01*
X56739500Y-105722648D01*
X56739500Y-105927352D01*
X56769148Y-106114538D01*
X56771524Y-106129538D01*
X56829906Y-106309220D01*
X56834780Y-106324219D01*
X56885995Y-106424734D01*
X56927714Y-106506612D01*
X57048034Y-106672220D01*
X57192779Y-106816965D01*
X57289570Y-106887287D01*
X57358390Y-106937287D01*
X57540781Y-107030220D01*
X57735466Y-107093477D01*
X57937648Y-107125500D01*
X57937651Y-107125500D01*
X58142349Y-107125500D01*
X58142352Y-107125500D01*
X58344534Y-107093477D01*
X58539219Y-107030220D01*
X58721610Y-106937287D01*
X58887219Y-106816966D01*
X59031966Y-106672219D01*
X59152287Y-106506610D01*
X59245220Y-106324219D01*
X59308477Y-106129534D01*
X59340500Y-105927352D01*
X59340500Y-105722648D01*
X59308477Y-105520466D01*
X59245220Y-105325781D01*
X59152287Y-105143390D01*
X59106554Y-105080443D01*
X59031965Y-104977779D01*
X58887220Y-104833034D01*
X58721612Y-104712714D01*
X58642389Y-104672348D01*
X58539219Y-104619780D01*
X58539216Y-104619779D01*
X58539214Y-104619778D01*
X58344538Y-104556524D01*
X58344536Y-104556523D01*
X58344534Y-104556523D01*
X58142352Y-104524500D01*
X57937648Y-104524500D01*
X57735466Y-104556523D01*
X57735464Y-104556523D01*
X57735461Y-104556524D01*
X57540785Y-104619778D01*
X57540779Y-104619781D01*
X57358387Y-104712714D01*
X57192779Y-104833034D01*
X57048034Y-104977779D01*
X56927714Y-105143387D01*
X56834781Y-105325779D01*
X56834778Y-105325785D01*
X56771524Y-105520461D01*
X56771523Y-105520464D01*
X56771523Y-105520466D01*
X56739500Y-105722648D01*
X40575457Y-105722648D01*
X40567938Y-102399982D01*
X60249500Y-102399982D01*
X60249500Y-103600009D01*
X60260000Y-103702797D01*
X60315185Y-103869334D01*
X60407288Y-104018656D01*
X60407293Y-104018662D01*
X60531337Y-104142706D01*
X60531343Y-104142711D01*
X60531344Y-104142712D01*
X60598627Y-104184212D01*
X60680662Y-104234812D01*
X60680663Y-104234812D01*
X60680666Y-104234814D01*
X60758873Y-104260729D01*
X60817242Y-104301141D01*
X60844498Y-104366697D01*
X60831985Y-104436582D01*
X60793299Y-104482268D01*
X60702782Y-104548032D01*
X60702778Y-104548035D01*
X60558034Y-104692779D01*
X60437714Y-104858387D01*
X60344781Y-105040779D01*
X60344778Y-105040785D01*
X60281524Y-105235461D01*
X60281523Y-105235464D01*
X60281523Y-105235466D01*
X60249500Y-105437648D01*
X60249500Y-105642352D01*
X60280564Y-105838477D01*
X60281524Y-105844538D01*
X60325164Y-105978849D01*
X60344780Y-106039219D01*
X60413217Y-106173534D01*
X60437714Y-106221612D01*
X60558034Y-106387220D01*
X60702779Y-106531965D01*
X60868387Y-106652285D01*
X60868390Y-106652287D01*
X61050781Y-106745220D01*
X61245466Y-106808477D01*
X61447648Y-106840500D01*
X61447651Y-106840500D01*
X61652349Y-106840500D01*
X61652352Y-106840500D01*
X61854534Y-106808477D01*
X62049219Y-106745220D01*
X62231610Y-106652287D01*
X62397219Y-106531966D01*
X62541966Y-106387219D01*
X62662287Y-106221610D01*
X62755220Y-106039219D01*
X62818477Y-105844534D01*
X62840158Y-105707648D01*
X63469500Y-105707648D01*
X63469500Y-105912352D01*
X63501523Y-106114534D01*
X63501524Y-106114538D01*
X63553407Y-106274219D01*
X63564780Y-106309219D01*
X63623638Y-106424734D01*
X63657714Y-106491612D01*
X63778034Y-106657220D01*
X63922779Y-106801965D01*
X64040213Y-106887285D01*
X64088390Y-106922287D01*
X64270781Y-107015220D01*
X64465466Y-107078477D01*
X64667648Y-107110500D01*
X64667651Y-107110500D01*
X64872349Y-107110500D01*
X64872352Y-107110500D01*
X65074534Y-107078477D01*
X65269219Y-107015220D01*
X65451610Y-106922287D01*
X65617219Y-106801966D01*
X65761966Y-106657219D01*
X65882287Y-106491610D01*
X65975220Y-106309219D01*
X66038477Y-106114534D01*
X66070500Y-105912352D01*
X66070500Y-105707648D01*
X66038477Y-105505466D01*
X65975220Y-105310781D01*
X65882287Y-105128390D01*
X65847452Y-105080443D01*
X65761965Y-104962779D01*
X65617220Y-104818034D01*
X65451612Y-104697714D01*
X65421456Y-104682349D01*
X65269219Y-104604780D01*
X65269216Y-104604779D01*
X65269214Y-104604778D01*
X65074538Y-104541524D01*
X65074536Y-104541523D01*
X65074534Y-104541523D01*
X64872352Y-104509500D01*
X64667648Y-104509500D01*
X64465466Y-104541523D01*
X64465464Y-104541523D01*
X64465461Y-104541524D01*
X64270785Y-104604778D01*
X64270779Y-104604781D01*
X64088387Y-104697714D01*
X63922779Y-104818034D01*
X63778034Y-104962779D01*
X63657714Y-105128387D01*
X63564781Y-105310779D01*
X63564778Y-105310785D01*
X63501524Y-105505461D01*
X63501523Y-105505464D01*
X63501523Y-105505466D01*
X63469500Y-105707648D01*
X62840158Y-105707648D01*
X62850500Y-105642352D01*
X62850500Y-105437648D01*
X62818477Y-105235466D01*
X62755220Y-105040781D01*
X62662287Y-104858390D01*
X62657201Y-104851389D01*
X62541965Y-104692779D01*
X62397220Y-104548034D01*
X62306701Y-104482269D01*
X62263346Y-104426046D01*
X62257270Y-104355310D01*
X62290402Y-104292518D01*
X62341125Y-104260729D01*
X62419334Y-104234814D01*
X62568656Y-104142712D01*
X62692712Y-104018656D01*
X62784814Y-103869334D01*
X62839999Y-103702797D01*
X62850500Y-103600009D01*
X62850499Y-102399992D01*
X62850498Y-102399982D01*
X67059500Y-102399982D01*
X67059500Y-103600009D01*
X67070000Y-103702797D01*
X67125185Y-103869334D01*
X67217288Y-104018656D01*
X67217293Y-104018662D01*
X67341337Y-104142706D01*
X67341343Y-104142711D01*
X67341344Y-104142712D01*
X67408627Y-104184212D01*
X67490662Y-104234812D01*
X67490663Y-104234812D01*
X67490666Y-104234814D01*
X67568873Y-104260729D01*
X67627242Y-104301141D01*
X67654498Y-104366697D01*
X67641985Y-104436582D01*
X67603299Y-104482268D01*
X67512782Y-104548032D01*
X67512778Y-104548035D01*
X67368034Y-104692779D01*
X67247714Y-104858387D01*
X67154781Y-105040779D01*
X67154778Y-105040785D01*
X67091524Y-105235461D01*
X67091523Y-105235464D01*
X67091523Y-105235466D01*
X67059500Y-105437648D01*
X67059500Y-105642352D01*
X67090564Y-105838477D01*
X67091524Y-105844538D01*
X67135164Y-105978849D01*
X67154780Y-106039219D01*
X67223217Y-106173534D01*
X67247714Y-106221612D01*
X67368034Y-106387220D01*
X67512779Y-106531965D01*
X67678387Y-106652285D01*
X67678390Y-106652287D01*
X67860781Y-106745220D01*
X68055466Y-106808477D01*
X68257648Y-106840500D01*
X68257651Y-106840500D01*
X68462349Y-106840500D01*
X68462352Y-106840500D01*
X68664534Y-106808477D01*
X68859219Y-106745220D01*
X69041610Y-106652287D01*
X69207219Y-106531966D01*
X69351966Y-106387219D01*
X69472287Y-106221610D01*
X69565220Y-106039219D01*
X69628477Y-105844534D01*
X69650158Y-105707648D01*
X70399500Y-105707648D01*
X70399500Y-105912352D01*
X70431523Y-106114534D01*
X70431524Y-106114538D01*
X70483407Y-106274219D01*
X70494780Y-106309219D01*
X70553638Y-106424734D01*
X70587714Y-106491612D01*
X70708034Y-106657220D01*
X70852779Y-106801965D01*
X70970213Y-106887285D01*
X71018390Y-106922287D01*
X71200781Y-107015220D01*
X71395466Y-107078477D01*
X71597648Y-107110500D01*
X71597651Y-107110500D01*
X71802349Y-107110500D01*
X71802352Y-107110500D01*
X72004534Y-107078477D01*
X72199219Y-107015220D01*
X72381610Y-106922287D01*
X72547219Y-106801966D01*
X72691966Y-106657219D01*
X72812287Y-106491610D01*
X72905220Y-106309219D01*
X72968477Y-106114534D01*
X73000500Y-105912352D01*
X73000500Y-105707648D01*
X72968477Y-105505466D01*
X72905220Y-105310781D01*
X72812287Y-105128390D01*
X72777452Y-105080443D01*
X72691965Y-104962779D01*
X72547220Y-104818034D01*
X72381612Y-104697714D01*
X72351456Y-104682349D01*
X72199219Y-104604780D01*
X72199216Y-104604779D01*
X72199214Y-104604778D01*
X72004538Y-104541524D01*
X72004536Y-104541523D01*
X72004534Y-104541523D01*
X71802352Y-104509500D01*
X71597648Y-104509500D01*
X71395466Y-104541523D01*
X71395464Y-104541523D01*
X71395461Y-104541524D01*
X71200785Y-104604778D01*
X71200779Y-104604781D01*
X71018387Y-104697714D01*
X70852779Y-104818034D01*
X70708034Y-104962779D01*
X70587714Y-105128387D01*
X70494781Y-105310779D01*
X70494778Y-105310785D01*
X70431524Y-105505461D01*
X70431523Y-105505464D01*
X70431523Y-105505466D01*
X70399500Y-105707648D01*
X69650158Y-105707648D01*
X69660500Y-105642352D01*
X69660500Y-105437648D01*
X69628477Y-105235466D01*
X69565220Y-105040781D01*
X69472287Y-104858390D01*
X69467201Y-104851389D01*
X69351965Y-104692779D01*
X69207220Y-104548034D01*
X69116701Y-104482269D01*
X69073346Y-104426046D01*
X69067270Y-104355310D01*
X69100402Y-104292518D01*
X69151125Y-104260729D01*
X69229334Y-104234814D01*
X69378656Y-104142712D01*
X69502712Y-104018656D01*
X69594814Y-103869334D01*
X69649999Y-103702797D01*
X69660500Y-103600009D01*
X69660499Y-102534297D01*
X74079500Y-102534297D01*
X74079500Y-103734324D01*
X74090000Y-103837112D01*
X74145185Y-104003649D01*
X74237288Y-104152971D01*
X74237293Y-104152977D01*
X74361337Y-104277021D01*
X74361343Y-104277026D01*
X74361344Y-104277027D01*
X74423648Y-104315456D01*
X74510662Y-104369127D01*
X74510663Y-104369127D01*
X74510666Y-104369129D01*
X74588873Y-104395044D01*
X74647242Y-104435456D01*
X74674498Y-104501012D01*
X74661985Y-104570897D01*
X74623299Y-104616583D01*
X74532782Y-104682347D01*
X74532778Y-104682350D01*
X74388034Y-104827094D01*
X74267714Y-104992702D01*
X74174781Y-105175094D01*
X74174778Y-105175100D01*
X74111524Y-105369776D01*
X74111523Y-105369779D01*
X74111523Y-105369781D01*
X74079500Y-105571963D01*
X74079500Y-105776667D01*
X74100991Y-105912352D01*
X74111524Y-105978853D01*
X74160484Y-106129538D01*
X74174780Y-106173534D01*
X74264239Y-106349106D01*
X74267714Y-106355927D01*
X74388034Y-106521535D01*
X74532779Y-106666280D01*
X74671363Y-106766966D01*
X74698390Y-106786602D01*
X74880781Y-106879535D01*
X75075466Y-106942792D01*
X75277648Y-106974815D01*
X75277651Y-106974815D01*
X75482349Y-106974815D01*
X75482352Y-106974815D01*
X75684534Y-106942792D01*
X75879219Y-106879535D01*
X76061610Y-106786602D01*
X76227219Y-106666281D01*
X76371966Y-106521534D01*
X76492287Y-106355925D01*
X76585220Y-106173534D01*
X76648477Y-105978849D01*
X76680500Y-105776667D01*
X76680500Y-105652648D01*
X77339500Y-105652648D01*
X77339500Y-105857352D01*
X77368306Y-106039220D01*
X77371524Y-106059538D01*
X77428836Y-106235927D01*
X77434780Y-106254219D01*
X77509841Y-106401534D01*
X77527714Y-106436612D01*
X77648034Y-106602220D01*
X77792779Y-106746965D01*
X77958387Y-106867285D01*
X77958390Y-106867287D01*
X78140781Y-106960220D01*
X78335466Y-107023477D01*
X78537648Y-107055500D01*
X78537651Y-107055500D01*
X78742349Y-107055500D01*
X78742352Y-107055500D01*
X78944534Y-107023477D01*
X79139219Y-106960220D01*
X79321610Y-106867287D01*
X79487219Y-106746966D01*
X79631966Y-106602219D01*
X79752287Y-106436610D01*
X79845220Y-106254219D01*
X79908477Y-106059534D01*
X79940500Y-105857352D01*
X79940500Y-105652648D01*
X79908477Y-105450466D01*
X79845220Y-105255781D01*
X79752287Y-105073390D01*
X79752285Y-105073387D01*
X79631965Y-104907779D01*
X79487220Y-104763034D01*
X79321612Y-104642714D01*
X79276603Y-104619781D01*
X79139219Y-104549780D01*
X79139216Y-104549779D01*
X79139214Y-104549778D01*
X78944538Y-104486524D01*
X78944536Y-104486523D01*
X78944534Y-104486523D01*
X78742352Y-104454500D01*
X78537648Y-104454500D01*
X78335466Y-104486523D01*
X78335464Y-104486523D01*
X78335461Y-104486524D01*
X78140785Y-104549778D01*
X78140779Y-104549781D01*
X77958387Y-104642714D01*
X77792779Y-104763034D01*
X77648034Y-104907779D01*
X77527714Y-105073387D01*
X77434781Y-105255779D01*
X77434778Y-105255785D01*
X77371524Y-105450461D01*
X77371523Y-105450464D01*
X77371523Y-105450466D01*
X77339500Y-105652648D01*
X76680500Y-105652648D01*
X76680500Y-105571963D01*
X76648477Y-105369781D01*
X76585220Y-105175096D01*
X76492287Y-104992705D01*
X76470545Y-104962779D01*
X76371965Y-104827094D01*
X76227220Y-104682349D01*
X76136701Y-104616584D01*
X76093346Y-104560361D01*
X76087270Y-104489625D01*
X76120402Y-104426833D01*
X76171125Y-104395044D01*
X76249334Y-104369129D01*
X76398656Y-104277027D01*
X76522712Y-104152971D01*
X76614814Y-104003649D01*
X76669999Y-103837112D01*
X76680500Y-103734324D01*
X76680499Y-102534307D01*
X76669999Y-102431518D01*
X76664296Y-102414307D01*
X76664293Y-102414297D01*
X80979500Y-102414297D01*
X80979500Y-103614324D01*
X80990000Y-103717112D01*
X81045185Y-103883649D01*
X81137288Y-104032971D01*
X81137293Y-104032977D01*
X81261337Y-104157021D01*
X81261343Y-104157026D01*
X81261344Y-104157027D01*
X81328627Y-104198527D01*
X81410662Y-104249127D01*
X81410663Y-104249127D01*
X81410666Y-104249129D01*
X81488873Y-104275044D01*
X81547242Y-104315456D01*
X81574498Y-104381012D01*
X81561985Y-104450897D01*
X81523299Y-104496583D01*
X81432782Y-104562347D01*
X81432778Y-104562350D01*
X81288034Y-104707094D01*
X81167714Y-104872702D01*
X81074781Y-105055094D01*
X81074778Y-105055100D01*
X81011524Y-105249776D01*
X81011523Y-105249779D01*
X81011523Y-105249781D01*
X80979500Y-105451963D01*
X80979500Y-105656667D01*
X81011286Y-105857352D01*
X81011524Y-105858853D01*
X81070128Y-106039219D01*
X81074780Y-106053534D01*
X81088028Y-106079534D01*
X81167714Y-106235927D01*
X81288034Y-106401535D01*
X81432779Y-106546280D01*
X81597947Y-106666280D01*
X81598390Y-106666602D01*
X81780781Y-106759535D01*
X81975466Y-106822792D01*
X82177648Y-106854815D01*
X82177651Y-106854815D01*
X82382349Y-106854815D01*
X82382352Y-106854815D01*
X82584534Y-106822792D01*
X82779219Y-106759535D01*
X82961610Y-106666602D01*
X83127219Y-106546281D01*
X83271966Y-106401534D01*
X83392287Y-106235925D01*
X83485220Y-106053534D01*
X83548477Y-105858849D01*
X83577969Y-105672648D01*
X84089500Y-105672648D01*
X84089500Y-105877352D01*
X84118356Y-106059538D01*
X84121524Y-106079538D01*
X84178281Y-106254219D01*
X84184780Y-106274219D01*
X84274239Y-106449791D01*
X84277714Y-106456612D01*
X84398034Y-106622220D01*
X84542779Y-106766965D01*
X84708387Y-106887285D01*
X84708390Y-106887287D01*
X84890781Y-106980220D01*
X85085466Y-107043477D01*
X85287648Y-107075500D01*
X85287651Y-107075500D01*
X85492349Y-107075500D01*
X85492352Y-107075500D01*
X85694534Y-107043477D01*
X85889219Y-106980220D01*
X86071610Y-106887287D01*
X86237219Y-106766966D01*
X86381966Y-106622219D01*
X86502287Y-106456610D01*
X86595220Y-106274219D01*
X86658477Y-106079534D01*
X86690500Y-105877352D01*
X86690500Y-105672648D01*
X86658477Y-105470466D01*
X86595220Y-105275781D01*
X86502287Y-105093390D01*
X86429136Y-104992705D01*
X86381965Y-104927779D01*
X86237220Y-104783034D01*
X86071612Y-104662714D01*
X85987345Y-104619778D01*
X85889219Y-104569780D01*
X85889216Y-104569779D01*
X85889214Y-104569778D01*
X85694538Y-104506524D01*
X85694536Y-104506523D01*
X85694534Y-104506523D01*
X85492352Y-104474500D01*
X85287648Y-104474500D01*
X85085466Y-104506523D01*
X85085464Y-104506523D01*
X85085461Y-104506524D01*
X84890785Y-104569778D01*
X84890779Y-104569781D01*
X84708387Y-104662714D01*
X84542779Y-104783034D01*
X84398034Y-104927779D01*
X84277714Y-105093387D01*
X84184781Y-105275779D01*
X84184778Y-105275785D01*
X84121524Y-105470461D01*
X84121523Y-105470464D01*
X84121523Y-105470466D01*
X84089500Y-105672648D01*
X83577969Y-105672648D01*
X83580500Y-105656667D01*
X83580500Y-105451963D01*
X83548477Y-105249781D01*
X83485220Y-105055096D01*
X83392287Y-104872705D01*
X83381887Y-104858390D01*
X83271965Y-104707094D01*
X83127220Y-104562349D01*
X83036701Y-104496584D01*
X82993346Y-104440361D01*
X82987270Y-104369625D01*
X83020402Y-104306833D01*
X83071125Y-104275044D01*
X83149334Y-104249129D01*
X83298656Y-104157027D01*
X83422712Y-104032971D01*
X83514814Y-103883649D01*
X83569999Y-103717112D01*
X83580500Y-103614324D01*
X83580499Y-102414307D01*
X83569999Y-102311518D01*
X83565256Y-102297203D01*
X83514814Y-102144980D01*
X83424449Y-101998475D01*
X83422712Y-101995659D01*
X83422711Y-101995658D01*
X83422706Y-101995652D01*
X83298662Y-101871608D01*
X83298656Y-101871603D01*
X83149334Y-101779500D01*
X82982803Y-101724317D01*
X82982791Y-101724315D01*
X82880017Y-101713815D01*
X81679990Y-101713815D01*
X81577202Y-101724315D01*
X81410665Y-101779500D01*
X81261343Y-101871603D01*
X81261337Y-101871608D01*
X81137293Y-101995652D01*
X81137288Y-101995658D01*
X81045185Y-102144980D01*
X80990002Y-102311511D01*
X80990000Y-102311523D01*
X80979500Y-102414297D01*
X76664293Y-102414297D01*
X76614814Y-102264980D01*
X76531968Y-102130666D01*
X76522712Y-102115659D01*
X76522711Y-102115658D01*
X76522706Y-102115652D01*
X76398662Y-101991608D01*
X76398656Y-101991603D01*
X76249334Y-101899500D01*
X76082803Y-101844317D01*
X76082791Y-101844315D01*
X75980017Y-101833815D01*
X74779990Y-101833815D01*
X74677202Y-101844315D01*
X74510665Y-101899500D01*
X74361343Y-101991603D01*
X74361337Y-101991608D01*
X74237293Y-102115652D01*
X74237288Y-102115658D01*
X74145185Y-102264980D01*
X74090002Y-102431511D01*
X74090000Y-102431523D01*
X74079500Y-102534297D01*
X69660499Y-102534297D01*
X69660499Y-102399992D01*
X69649999Y-102297203D01*
X69639322Y-102264980D01*
X69594814Y-102130665D01*
X69522530Y-102013475D01*
X69502712Y-101981344D01*
X69502711Y-101981343D01*
X69502706Y-101981337D01*
X69378662Y-101857293D01*
X69378656Y-101857288D01*
X69229334Y-101765185D01*
X69062803Y-101710002D01*
X69062791Y-101710000D01*
X68960017Y-101699500D01*
X67759990Y-101699500D01*
X67657202Y-101710000D01*
X67490665Y-101765185D01*
X67341343Y-101857288D01*
X67341337Y-101857293D01*
X67217293Y-101981337D01*
X67217288Y-101981343D01*
X67125185Y-102130665D01*
X67070002Y-102297196D01*
X67070000Y-102297208D01*
X67059500Y-102399982D01*
X62850498Y-102399982D01*
X62839999Y-102297203D01*
X62829322Y-102264980D01*
X62784814Y-102130665D01*
X62712530Y-102013475D01*
X62692712Y-101981344D01*
X62692711Y-101981343D01*
X62692706Y-101981337D01*
X62568662Y-101857293D01*
X62568656Y-101857288D01*
X62419334Y-101765185D01*
X62252803Y-101710002D01*
X62252791Y-101710000D01*
X62150017Y-101699500D01*
X60949990Y-101699500D01*
X60847202Y-101710000D01*
X60680665Y-101765185D01*
X60531343Y-101857288D01*
X60531337Y-101857293D01*
X60407293Y-101981337D01*
X60407288Y-101981343D01*
X60315185Y-102130665D01*
X60260002Y-102297196D01*
X60260000Y-102297208D01*
X60249500Y-102399982D01*
X40567938Y-102399982D01*
X40563961Y-100642648D01*
X56739500Y-100642648D01*
X56739500Y-100847352D01*
X56769148Y-101034538D01*
X56771524Y-101049538D01*
X56829906Y-101229220D01*
X56834780Y-101244219D01*
X56834781Y-101244220D01*
X56927714Y-101426612D01*
X57048034Y-101592220D01*
X57192779Y-101736965D01*
X57337741Y-101842285D01*
X57358390Y-101857287D01*
X57540781Y-101950220D01*
X57735466Y-102013477D01*
X57937648Y-102045500D01*
X57937651Y-102045500D01*
X58142349Y-102045500D01*
X58142352Y-102045500D01*
X58344534Y-102013477D01*
X58539219Y-101950220D01*
X58721610Y-101857287D01*
X58887219Y-101736966D01*
X59031966Y-101592219D01*
X59152287Y-101426610D01*
X59245220Y-101244219D01*
X59308477Y-101049534D01*
X59340500Y-100847352D01*
X59340500Y-100642648D01*
X59338124Y-100627648D01*
X63469500Y-100627648D01*
X63469500Y-100832352D01*
X63501523Y-101034534D01*
X63501524Y-101034538D01*
X63553407Y-101194219D01*
X63564780Y-101229219D01*
X63629689Y-101356610D01*
X63657714Y-101411612D01*
X63778034Y-101577220D01*
X63922779Y-101721965D01*
X64088387Y-101842285D01*
X64088390Y-101842287D01*
X64270781Y-101935220D01*
X64465466Y-101998477D01*
X64667648Y-102030500D01*
X64667651Y-102030500D01*
X64872349Y-102030500D01*
X64872352Y-102030500D01*
X65074534Y-101998477D01*
X65269219Y-101935220D01*
X65451610Y-101842287D01*
X65617219Y-101721966D01*
X65761966Y-101577219D01*
X65882287Y-101411610D01*
X65975220Y-101229219D01*
X66038477Y-101034534D01*
X66070500Y-100832352D01*
X66070500Y-100627648D01*
X70399500Y-100627648D01*
X70399500Y-100832352D01*
X70431523Y-101034534D01*
X70431524Y-101034538D01*
X70483407Y-101194219D01*
X70494780Y-101229219D01*
X70559689Y-101356610D01*
X70587714Y-101411612D01*
X70708034Y-101577220D01*
X70852779Y-101721965D01*
X71018387Y-101842285D01*
X71018390Y-101842287D01*
X71200781Y-101935220D01*
X71395466Y-101998477D01*
X71597648Y-102030500D01*
X71597651Y-102030500D01*
X71802349Y-102030500D01*
X71802352Y-102030500D01*
X72004534Y-101998477D01*
X72199219Y-101935220D01*
X72381610Y-101842287D01*
X72547219Y-101721966D01*
X72691966Y-101577219D01*
X72812287Y-101411610D01*
X72905220Y-101229219D01*
X72968477Y-101034534D01*
X73000500Y-100832352D01*
X73000500Y-100627648D01*
X72991789Y-100572648D01*
X77339500Y-100572648D01*
X77339500Y-100777352D01*
X77361565Y-100916661D01*
X77371524Y-100979538D01*
X77394268Y-101049538D01*
X77434780Y-101174219D01*
X77487158Y-101277016D01*
X77527714Y-101356612D01*
X77648034Y-101522220D01*
X77792779Y-101666965D01*
X77927969Y-101765185D01*
X77958390Y-101787287D01*
X78140781Y-101880220D01*
X78335466Y-101943477D01*
X78537648Y-101975500D01*
X78537651Y-101975500D01*
X78742349Y-101975500D01*
X78742352Y-101975500D01*
X78944534Y-101943477D01*
X79139219Y-101880220D01*
X79321610Y-101787287D01*
X79487219Y-101666966D01*
X79631966Y-101522219D01*
X79752287Y-101356610D01*
X79845220Y-101174219D01*
X79908477Y-100979534D01*
X79940500Y-100777352D01*
X79940500Y-100592648D01*
X84089500Y-100592648D01*
X84089500Y-100797352D01*
X84121523Y-100999534D01*
X84121524Y-100999538D01*
X84178281Y-101174219D01*
X84184780Y-101194219D01*
X84274239Y-101369791D01*
X84277714Y-101376612D01*
X84398034Y-101542220D01*
X84542779Y-101686965D01*
X84680859Y-101787285D01*
X84708390Y-101807287D01*
X84890781Y-101900220D01*
X85085466Y-101963477D01*
X85287648Y-101995500D01*
X85287651Y-101995500D01*
X85492354Y-101995500D01*
X85547019Y-101986841D01*
X85617431Y-101995939D01*
X85655827Y-102022194D01*
X92372595Y-108738962D01*
X92406621Y-108801274D01*
X92409500Y-108828057D01*
X92409500Y-109282262D01*
X92389498Y-109350383D01*
X92372595Y-109371357D01*
X92239059Y-109504892D01*
X92239057Y-109504895D01*
X92126137Y-109660315D01*
X92038919Y-109831489D01*
X92038916Y-109831495D01*
X91979554Y-110014193D01*
X91979553Y-110014198D01*
X91979553Y-110014199D01*
X91949500Y-110203945D01*
X91949500Y-110396055D01*
X91961247Y-110470222D01*
X91979554Y-110585806D01*
X92038916Y-110768504D01*
X92038918Y-110768509D01*
X92126135Y-110939681D01*
X92239055Y-111095102D01*
X92239057Y-111095104D01*
X92239059Y-111095107D01*
X92374892Y-111230940D01*
X92374895Y-111230942D01*
X92374898Y-111230945D01*
X92530319Y-111343865D01*
X92701491Y-111431082D01*
X92884193Y-111490445D01*
X92884194Y-111490445D01*
X92884199Y-111490447D01*
X93073945Y-111520500D01*
X93073948Y-111520500D01*
X93266052Y-111520500D01*
X93266055Y-111520500D01*
X93455801Y-111490447D01*
X93638509Y-111431082D01*
X93809681Y-111343865D01*
X93965102Y-111230945D01*
X94100945Y-111095102D01*
X94213865Y-110939681D01*
X94301082Y-110768509D01*
X94320167Y-110709769D01*
X94360240Y-110651164D01*
X94425637Y-110623527D01*
X94495594Y-110635634D01*
X94547900Y-110683640D01*
X94559831Y-110709767D01*
X94578918Y-110768509D01*
X94666135Y-110939681D01*
X94779055Y-111095102D01*
X94779057Y-111095104D01*
X94779059Y-111095107D01*
X94914892Y-111230940D01*
X94914895Y-111230942D01*
X94914898Y-111230945D01*
X95070319Y-111343865D01*
X95241491Y-111431082D01*
X95424193Y-111490445D01*
X95424194Y-111490445D01*
X95424199Y-111490447D01*
X95613945Y-111520500D01*
X95613948Y-111520500D01*
X95806052Y-111520500D01*
X95806055Y-111520500D01*
X95995801Y-111490447D01*
X96178509Y-111431082D01*
X96349681Y-111343865D01*
X96505102Y-111230945D01*
X96640945Y-111095102D01*
X96753865Y-110939681D01*
X96841082Y-110768509D01*
X96860167Y-110709769D01*
X96900240Y-110651164D01*
X96965637Y-110623527D01*
X97035594Y-110635634D01*
X97087900Y-110683640D01*
X97099831Y-110709767D01*
X97118918Y-110768509D01*
X97206135Y-110939681D01*
X97319055Y-111095102D01*
X97319057Y-111095104D01*
X97319059Y-111095107D01*
X97454892Y-111230940D01*
X97454895Y-111230942D01*
X97454898Y-111230945D01*
X97610319Y-111343865D01*
X97781491Y-111431082D01*
X97964193Y-111490445D01*
X97964194Y-111490445D01*
X97964199Y-111490447D01*
X98153945Y-111520500D01*
X98153948Y-111520500D01*
X98346052Y-111520500D01*
X98346055Y-111520500D01*
X98535801Y-111490447D01*
X98718509Y-111431082D01*
X98889681Y-111343865D01*
X99045102Y-111230945D01*
X99180945Y-111095102D01*
X99293865Y-110939681D01*
X99381082Y-110768509D01*
X99440447Y-110585801D01*
X99470500Y-110396055D01*
X99470500Y-110203945D01*
X99469499Y-110197625D01*
X125641837Y-110197625D01*
X126709999Y-111265786D01*
X126710001Y-111265786D01*
X127778161Y-110197625D01*
X127744869Y-110181593D01*
X127458640Y-110081436D01*
X127162983Y-110013954D01*
X126861631Y-109980000D01*
X126558369Y-109980000D01*
X126257016Y-110013954D01*
X125961359Y-110081436D01*
X125675131Y-110181593D01*
X125641837Y-110197625D01*
X99469499Y-110197625D01*
X99440447Y-110014199D01*
X99381082Y-109831491D01*
X99293865Y-109660319D01*
X99180945Y-109504898D01*
X99180942Y-109504895D01*
X99180940Y-109504892D01*
X99045107Y-109369059D01*
X99045104Y-109369057D01*
X99045102Y-109369055D01*
X98889681Y-109256135D01*
X98718509Y-109168918D01*
X98718506Y-109168917D01*
X98718504Y-109168916D01*
X98535804Y-109109554D01*
X98535808Y-109109554D01*
X98490980Y-109102454D01*
X98346055Y-109079500D01*
X98153945Y-109079500D01*
X97964199Y-109109553D01*
X97964193Y-109109554D01*
X97781495Y-109168916D01*
X97781489Y-109168919D01*
X97610315Y-109256137D01*
X97454895Y-109369057D01*
X97454892Y-109369059D01*
X97319059Y-109504892D01*
X97319057Y-109504895D01*
X97206137Y-109660315D01*
X97118919Y-109831489D01*
X97118916Y-109831495D01*
X97099833Y-109890229D01*
X97059759Y-109948835D01*
X96994363Y-109976472D01*
X96924406Y-109964365D01*
X96872100Y-109916359D01*
X96860167Y-109890229D01*
X96841083Y-109831495D01*
X96841082Y-109831491D01*
X96753865Y-109660319D01*
X96640945Y-109504898D01*
X96640942Y-109504895D01*
X96640940Y-109504892D01*
X96505107Y-109369059D01*
X96505104Y-109369057D01*
X96505102Y-109369055D01*
X96349681Y-109256135D01*
X96178509Y-109168918D01*
X96178506Y-109168917D01*
X96178504Y-109168916D01*
X95995804Y-109109554D01*
X95995808Y-109109554D01*
X95950980Y-109102454D01*
X95806055Y-109079500D01*
X95613945Y-109079500D01*
X95424199Y-109109553D01*
X95424193Y-109109554D01*
X95241495Y-109168916D01*
X95241489Y-109168919D01*
X95070315Y-109256137D01*
X94914895Y-109369057D01*
X94914892Y-109369059D01*
X94779059Y-109504892D01*
X94779057Y-109504895D01*
X94666137Y-109660315D01*
X94578919Y-109831489D01*
X94578916Y-109831495D01*
X94559833Y-109890229D01*
X94519759Y-109948835D01*
X94454363Y-109976472D01*
X94384406Y-109964365D01*
X94332100Y-109916359D01*
X94320167Y-109890229D01*
X94301083Y-109831495D01*
X94301082Y-109831491D01*
X94213865Y-109660319D01*
X94100945Y-109504898D01*
X94100942Y-109504895D01*
X94100940Y-109504892D01*
X93965107Y-109369059D01*
X93965101Y-109369054D01*
X93962435Y-109367117D01*
X93961667Y-109366121D01*
X93961340Y-109365842D01*
X93961398Y-109365773D01*
X93919083Y-109310893D01*
X93910500Y-109265184D01*
X93910500Y-108391086D01*
X93910500Y-108391082D01*
X93881658Y-108246087D01*
X93856464Y-108185263D01*
X120899500Y-108185263D01*
X120899500Y-108414736D01*
X120929450Y-108642231D01*
X120929452Y-108642238D01*
X120988842Y-108863887D01*
X121076656Y-109075888D01*
X121076657Y-109075889D01*
X121076662Y-109075900D01*
X121191386Y-109274608D01*
X121191391Y-109274615D01*
X121331073Y-109456652D01*
X121331092Y-109456673D01*
X121493326Y-109618907D01*
X121493347Y-109618926D01*
X121675384Y-109758608D01*
X121675391Y-109758613D01*
X121874099Y-109873337D01*
X121874103Y-109873338D01*
X121874112Y-109873344D01*
X122086113Y-109961158D01*
X122307762Y-110020548D01*
X122307766Y-110020548D01*
X122307768Y-110020549D01*
X122366398Y-110028267D01*
X122535266Y-110050500D01*
X122535273Y-110050500D01*
X122764727Y-110050500D01*
X122764734Y-110050500D01*
X122980837Y-110022049D01*
X122992231Y-110020549D01*
X122992231Y-110020548D01*
X122992238Y-110020548D01*
X123213887Y-109961158D01*
X123425888Y-109873344D01*
X123624612Y-109758611D01*
X123806661Y-109618919D01*
X123968919Y-109456661D01*
X124108611Y-109274612D01*
X124223344Y-109075888D01*
X124311158Y-108863887D01*
X124370548Y-108642238D01*
X124400500Y-108414734D01*
X124400500Y-108185266D01*
X124370548Y-107957762D01*
X124311158Y-107736113D01*
X124223344Y-107524112D01*
X124223338Y-107524103D01*
X124223337Y-107524099D01*
X124108613Y-107325391D01*
X124108608Y-107325384D01*
X123968926Y-107143347D01*
X123968907Y-107143326D01*
X123806673Y-106981092D01*
X123806652Y-106981073D01*
X123624615Y-106841391D01*
X123624608Y-106841386D01*
X123425900Y-106726662D01*
X123425892Y-106726658D01*
X123425888Y-106726656D01*
X123213887Y-106638842D01*
X122992238Y-106579452D01*
X122992231Y-106579450D01*
X122764736Y-106549500D01*
X122764734Y-106549500D01*
X122535266Y-106549500D01*
X122535263Y-106549500D01*
X122307768Y-106579450D01*
X122086113Y-106638842D01*
X122019100Y-106666600D01*
X121874110Y-106726657D01*
X121874099Y-106726662D01*
X121675391Y-106841386D01*
X121675384Y-106841391D01*
X121493347Y-106981073D01*
X121493326Y-106981092D01*
X121331092Y-107143326D01*
X121331073Y-107143347D01*
X121191391Y-107325384D01*
X121191386Y-107325391D01*
X121076662Y-107524099D01*
X121076657Y-107524110D01*
X121076656Y-107524112D01*
X121021842Y-107656444D01*
X120988842Y-107736113D01*
X120929450Y-107957768D01*
X120899500Y-108185263D01*
X93856464Y-108185263D01*
X93825084Y-108109505D01*
X93742951Y-107986584D01*
X93638416Y-107882049D01*
X91951630Y-106195263D01*
X102259500Y-106195263D01*
X102259500Y-106424736D01*
X102289450Y-106652231D01*
X102293215Y-106666281D01*
X102348842Y-106873887D01*
X102436656Y-107085888D01*
X102436657Y-107085889D01*
X102436662Y-107085900D01*
X102551386Y-107284608D01*
X102551391Y-107284615D01*
X102691073Y-107466652D01*
X102691092Y-107466673D01*
X102853326Y-107628907D01*
X102853347Y-107628926D01*
X103035384Y-107768608D01*
X103035391Y-107768613D01*
X103234099Y-107883337D01*
X103234103Y-107883338D01*
X103234112Y-107883344D01*
X103446113Y-107971158D01*
X103667762Y-108030548D01*
X103667766Y-108030548D01*
X103667768Y-108030549D01*
X103726398Y-108038267D01*
X103895266Y-108060500D01*
X103895273Y-108060500D01*
X104124727Y-108060500D01*
X104124734Y-108060500D01*
X104330345Y-108033430D01*
X104352231Y-108030549D01*
X104352231Y-108030548D01*
X104352238Y-108030548D01*
X104573887Y-107971158D01*
X104785888Y-107883344D01*
X104984612Y-107768611D01*
X105166661Y-107628919D01*
X105328919Y-107466661D01*
X105468611Y-107284612D01*
X105583344Y-107085888D01*
X105671158Y-106873887D01*
X105730548Y-106652238D01*
X105760500Y-106424734D01*
X105760500Y-106195266D01*
X105760500Y-106195263D01*
X116299500Y-106195263D01*
X116299500Y-106424736D01*
X116329450Y-106652231D01*
X116333215Y-106666281D01*
X116388842Y-106873887D01*
X116476656Y-107085888D01*
X116476657Y-107085889D01*
X116476662Y-107085900D01*
X116591386Y-107284608D01*
X116591391Y-107284615D01*
X116731073Y-107466652D01*
X116731092Y-107466673D01*
X116893326Y-107628907D01*
X116893347Y-107628926D01*
X117075384Y-107768608D01*
X117075391Y-107768613D01*
X117274099Y-107883337D01*
X117274103Y-107883338D01*
X117274112Y-107883344D01*
X117486113Y-107971158D01*
X117707762Y-108030548D01*
X117707766Y-108030548D01*
X117707768Y-108030549D01*
X117766398Y-108038267D01*
X117935266Y-108060500D01*
X117935273Y-108060500D01*
X118164727Y-108060500D01*
X118164734Y-108060500D01*
X118344700Y-108036806D01*
X118392231Y-108030549D01*
X118392231Y-108030548D01*
X118392238Y-108030548D01*
X118613887Y-107971158D01*
X118825888Y-107883344D01*
X119024612Y-107768611D01*
X119206661Y-107628919D01*
X119368919Y-107466661D01*
X119508611Y-107284612D01*
X119623344Y-107085888D01*
X119711158Y-106873887D01*
X119770548Y-106652238D01*
X119800500Y-106424734D01*
X119800500Y-106195266D01*
X119770548Y-105967762D01*
X119711158Y-105746113D01*
X119623344Y-105534112D01*
X119623338Y-105534103D01*
X119623337Y-105534099D01*
X119508613Y-105335391D01*
X119508608Y-105335384D01*
X119368926Y-105153347D01*
X119368907Y-105153326D01*
X119206673Y-104991092D01*
X119206652Y-104991073D01*
X119024615Y-104851391D01*
X119024608Y-104851386D01*
X118825900Y-104736662D01*
X118825892Y-104736658D01*
X118825888Y-104736656D01*
X118613887Y-104648842D01*
X118392238Y-104589452D01*
X118392231Y-104589450D01*
X118164736Y-104559500D01*
X118164734Y-104559500D01*
X117935266Y-104559500D01*
X117935263Y-104559500D01*
X117707768Y-104589450D01*
X117594571Y-104619781D01*
X117486113Y-104648842D01*
X117331916Y-104712713D01*
X117274110Y-104736657D01*
X117274099Y-104736662D01*
X117075391Y-104851386D01*
X117075384Y-104851391D01*
X116893347Y-104991073D01*
X116893326Y-104991092D01*
X116731092Y-105153326D01*
X116731073Y-105153347D01*
X116591391Y-105335384D01*
X116591386Y-105335391D01*
X116476662Y-105534099D01*
X116476657Y-105534110D01*
X116476656Y-105534112D01*
X116425894Y-105656663D01*
X116388842Y-105746113D01*
X116329450Y-105967768D01*
X116299500Y-106195263D01*
X105760500Y-106195263D01*
X105730548Y-105967762D01*
X105671158Y-105746113D01*
X105583344Y-105534112D01*
X105583338Y-105534103D01*
X105583337Y-105534099D01*
X105468613Y-105335391D01*
X105468608Y-105335384D01*
X105328926Y-105153347D01*
X105328907Y-105153326D01*
X105166673Y-104991092D01*
X105166652Y-104991073D01*
X104984615Y-104851391D01*
X104984608Y-104851386D01*
X104785900Y-104736662D01*
X104785892Y-104736658D01*
X104785888Y-104736656D01*
X104573887Y-104648842D01*
X104352238Y-104589452D01*
X104352231Y-104589450D01*
X104124736Y-104559500D01*
X104124734Y-104559500D01*
X103895266Y-104559500D01*
X103895263Y-104559500D01*
X103667768Y-104589450D01*
X103554571Y-104619781D01*
X103446113Y-104648842D01*
X103291916Y-104712713D01*
X103234110Y-104736657D01*
X103234099Y-104736662D01*
X103035391Y-104851386D01*
X103035384Y-104851391D01*
X102853347Y-104991073D01*
X102853326Y-104991092D01*
X102691092Y-105153326D01*
X102691073Y-105153347D01*
X102551391Y-105335384D01*
X102551386Y-105335391D01*
X102436662Y-105534099D01*
X102436657Y-105534110D01*
X102436656Y-105534112D01*
X102385894Y-105656663D01*
X102348842Y-105746113D01*
X102289450Y-105967768D01*
X102259500Y-106195263D01*
X91951630Y-106195263D01*
X90224015Y-104467648D01*
X91765869Y-104467648D01*
X91765869Y-104672352D01*
X91797892Y-104874534D01*
X91797893Y-104874538D01*
X91856559Y-105055094D01*
X91861149Y-105069219D01*
X91912504Y-105170008D01*
X91954083Y-105251612D01*
X92074403Y-105417220D01*
X92219148Y-105561965D01*
X92349500Y-105656670D01*
X92384759Y-105682287D01*
X92567150Y-105775220D01*
X92761835Y-105838477D01*
X92964017Y-105870500D01*
X92964020Y-105870500D01*
X93168718Y-105870500D01*
X93168721Y-105870500D01*
X93370903Y-105838477D01*
X93565588Y-105775220D01*
X93747979Y-105682287D01*
X93913588Y-105561966D01*
X94058335Y-105417219D01*
X94058339Y-105417215D01*
X94096628Y-105364513D01*
X94152849Y-105321158D01*
X94223585Y-105315081D01*
X94286378Y-105348212D01*
X94318169Y-105398939D01*
X94331554Y-105439334D01*
X94423657Y-105588656D01*
X94423662Y-105588662D01*
X94547706Y-105712706D01*
X94547712Y-105712711D01*
X94547713Y-105712712D01*
X94563822Y-105722648D01*
X94697034Y-105804814D01*
X94863565Y-105859997D01*
X94863566Y-105859997D01*
X94863572Y-105859999D01*
X94966360Y-105870500D01*
X96166377Y-105870499D01*
X96166378Y-105870499D01*
X96269166Y-105859999D01*
X96435703Y-105804814D01*
X96585025Y-105712712D01*
X96709081Y-105588656D01*
X96801183Y-105439334D01*
X96856368Y-105272797D01*
X96866869Y-105170009D01*
X96866868Y-104212372D01*
X133691838Y-104212372D01*
X133691838Y-104212374D01*
X133725116Y-104228400D01*
X133725144Y-104228411D01*
X134011359Y-104328563D01*
X134307016Y-104396045D01*
X134608369Y-104430000D01*
X134911631Y-104430000D01*
X135212983Y-104396045D01*
X135508640Y-104328563D01*
X135794872Y-104228405D01*
X135794873Y-104228405D01*
X135828160Y-104212374D01*
X135828161Y-104212373D01*
X134760001Y-103144213D01*
X134759999Y-103144213D01*
X133691838Y-104212372D01*
X96866868Y-104212372D01*
X96866868Y-103969992D01*
X96856368Y-103867203D01*
X96842943Y-103826687D01*
X96801183Y-103700665D01*
X96709080Y-103551343D01*
X96709075Y-103551337D01*
X96585031Y-103427293D01*
X96585025Y-103427288D01*
X96435703Y-103335185D01*
X96269172Y-103280002D01*
X96269160Y-103280000D01*
X96166386Y-103269500D01*
X94966359Y-103269500D01*
X94863571Y-103280000D01*
X94697034Y-103335185D01*
X94547712Y-103427288D01*
X94547706Y-103427293D01*
X94423662Y-103551337D01*
X94423657Y-103551343D01*
X94331555Y-103700664D01*
X94318169Y-103741061D01*
X94277755Y-103799432D01*
X94212198Y-103826687D01*
X94142313Y-103814173D01*
X94096628Y-103775487D01*
X94058334Y-103722779D01*
X93913589Y-103578034D01*
X93747981Y-103457714D01*
X93688276Y-103427293D01*
X93565588Y-103364780D01*
X93565585Y-103364779D01*
X93565583Y-103364778D01*
X93370907Y-103301524D01*
X93370905Y-103301523D01*
X93370903Y-103301523D01*
X93168721Y-103269500D01*
X92964017Y-103269500D01*
X92761835Y-103301523D01*
X92761833Y-103301523D01*
X92761830Y-103301524D01*
X92567154Y-103364778D01*
X92567148Y-103364781D01*
X92384756Y-103457714D01*
X92219148Y-103578034D01*
X92074403Y-103722779D01*
X91954083Y-103888387D01*
X91861150Y-104070779D01*
X91861147Y-104070785D01*
X91797893Y-104265461D01*
X91797892Y-104265464D01*
X91797892Y-104265466D01*
X91765869Y-104467648D01*
X90224015Y-104467648D01*
X87334736Y-101578369D01*
X132060000Y-101578369D01*
X132060000Y-101881630D01*
X132093954Y-102182983D01*
X132161437Y-102478640D01*
X132161436Y-102478640D01*
X132261593Y-102764869D01*
X132277625Y-102798161D01*
X133345786Y-101730001D01*
X133345786Y-101729998D01*
X133247411Y-101631623D01*
X133510000Y-101631623D01*
X133510000Y-101828377D01*
X133540779Y-102022709D01*
X133601580Y-102209833D01*
X133690904Y-102385143D01*
X133806554Y-102544320D01*
X133945680Y-102683446D01*
X134104857Y-102799096D01*
X134280167Y-102888420D01*
X134467291Y-102949221D01*
X134661623Y-102980000D01*
X134858377Y-102980000D01*
X135052709Y-102949221D01*
X135239833Y-102888420D01*
X135415143Y-102799096D01*
X135574320Y-102683446D01*
X135713446Y-102544320D01*
X135829096Y-102385143D01*
X135918420Y-102209833D01*
X135979221Y-102022709D01*
X136010000Y-101828377D01*
X136010000Y-101729998D01*
X136174213Y-101729998D01*
X136174213Y-101730001D01*
X137242373Y-102798161D01*
X137242374Y-102798160D01*
X137258405Y-102764873D01*
X137258405Y-102764872D01*
X137358563Y-102478640D01*
X137426045Y-102182983D01*
X137460000Y-101881630D01*
X137460000Y-101578369D01*
X137426045Y-101277016D01*
X137358562Y-100981359D01*
X137358563Y-100981359D01*
X137258411Y-100695144D01*
X137258400Y-100695116D01*
X137242374Y-100661838D01*
X137242372Y-100661838D01*
X136174213Y-101729998D01*
X136010000Y-101729998D01*
X136010000Y-101631623D01*
X135979221Y-101437291D01*
X135918420Y-101250167D01*
X135829096Y-101074857D01*
X135713446Y-100915680D01*
X135574320Y-100776554D01*
X135415143Y-100660904D01*
X135239833Y-100571580D01*
X135052709Y-100510779D01*
X134858377Y-100480000D01*
X134661623Y-100480000D01*
X134467291Y-100510779D01*
X134280167Y-100571580D01*
X134104857Y-100660904D01*
X133945680Y-100776554D01*
X133806554Y-100915680D01*
X133690904Y-101074857D01*
X133601580Y-101250167D01*
X133540779Y-101437291D01*
X133510000Y-101631623D01*
X133247411Y-101631623D01*
X132277625Y-100661837D01*
X132261593Y-100695131D01*
X132161436Y-100981359D01*
X132093954Y-101277016D01*
X132060000Y-101578369D01*
X87334736Y-101578369D01*
X86717194Y-100960827D01*
X86683168Y-100898515D01*
X86681841Y-100852019D01*
X86690500Y-100797353D01*
X86690500Y-100592651D01*
X86689670Y-100587408D01*
X86658477Y-100390466D01*
X86595220Y-100195781D01*
X86502287Y-100013390D01*
X86450999Y-99942797D01*
X86381965Y-99847779D01*
X86237220Y-99703034D01*
X86071612Y-99582714D01*
X86064791Y-99579239D01*
X85889219Y-99489780D01*
X85889216Y-99489779D01*
X85889214Y-99489778D01*
X85694538Y-99426524D01*
X85694536Y-99426523D01*
X85694534Y-99426523D01*
X85492352Y-99394500D01*
X85287648Y-99394500D01*
X85085466Y-99426523D01*
X85085464Y-99426523D01*
X85085461Y-99426524D01*
X84890785Y-99489778D01*
X84890779Y-99489781D01*
X84708387Y-99582714D01*
X84542779Y-99703034D01*
X84398034Y-99847779D01*
X84277714Y-100013387D01*
X84184781Y-100195779D01*
X84184778Y-100195785D01*
X84121524Y-100390461D01*
X84121523Y-100390464D01*
X84121523Y-100390466D01*
X84089500Y-100592648D01*
X79940500Y-100592648D01*
X79940500Y-100572648D01*
X79908477Y-100370466D01*
X79845220Y-100175781D01*
X79752287Y-99993390D01*
X79752285Y-99993387D01*
X79631965Y-99827779D01*
X79487220Y-99683034D01*
X79321612Y-99562714D01*
X79314791Y-99559239D01*
X79139219Y-99469780D01*
X79139216Y-99469779D01*
X79139214Y-99469778D01*
X78944538Y-99406524D01*
X78944536Y-99406523D01*
X78944534Y-99406523D01*
X78742352Y-99374500D01*
X78537648Y-99374500D01*
X78335466Y-99406523D01*
X78335464Y-99406523D01*
X78335461Y-99406524D01*
X78140785Y-99469778D01*
X78140779Y-99469781D01*
X77958387Y-99562714D01*
X77792779Y-99683034D01*
X77648034Y-99827779D01*
X77527714Y-99993387D01*
X77434781Y-100175779D01*
X77434778Y-100175785D01*
X77371524Y-100370461D01*
X77371523Y-100370464D01*
X77371523Y-100370466D01*
X77339500Y-100572648D01*
X72991789Y-100572648D01*
X72968477Y-100425466D01*
X72905220Y-100230781D01*
X72812287Y-100048390D01*
X72781978Y-100006673D01*
X72691965Y-99882779D01*
X72547220Y-99738034D01*
X72381612Y-99617714D01*
X72319148Y-99585887D01*
X72199219Y-99524780D01*
X72199216Y-99524779D01*
X72199214Y-99524778D01*
X72004538Y-99461524D01*
X72004536Y-99461523D01*
X72004534Y-99461523D01*
X71802352Y-99429500D01*
X71597648Y-99429500D01*
X71395466Y-99461523D01*
X71395464Y-99461523D01*
X71395461Y-99461524D01*
X71200785Y-99524778D01*
X71200779Y-99524781D01*
X71018387Y-99617714D01*
X70852779Y-99738034D01*
X70708034Y-99882779D01*
X70587714Y-100048387D01*
X70494781Y-100230779D01*
X70494778Y-100230785D01*
X70431524Y-100425461D01*
X70431523Y-100425464D01*
X70431523Y-100425466D01*
X70399500Y-100627648D01*
X66070500Y-100627648D01*
X66038477Y-100425466D01*
X65975220Y-100230781D01*
X65882287Y-100048390D01*
X65851978Y-100006673D01*
X65761965Y-99882779D01*
X65617220Y-99738034D01*
X65451612Y-99617714D01*
X65389148Y-99585887D01*
X65269219Y-99524780D01*
X65269216Y-99524779D01*
X65269214Y-99524778D01*
X65074538Y-99461524D01*
X65074536Y-99461523D01*
X65074534Y-99461523D01*
X64872352Y-99429500D01*
X64667648Y-99429500D01*
X64465466Y-99461523D01*
X64465464Y-99461523D01*
X64465461Y-99461524D01*
X64270785Y-99524778D01*
X64270779Y-99524781D01*
X64088387Y-99617714D01*
X63922779Y-99738034D01*
X63778034Y-99882779D01*
X63657714Y-100048387D01*
X63564781Y-100230779D01*
X63564778Y-100230785D01*
X63501524Y-100425461D01*
X63501523Y-100425464D01*
X63501523Y-100425466D01*
X63469500Y-100627648D01*
X59338124Y-100627648D01*
X59308477Y-100440466D01*
X59245220Y-100245781D01*
X59152287Y-100063390D01*
X59111080Y-100006673D01*
X59031965Y-99897779D01*
X58887220Y-99753034D01*
X58721612Y-99632714D01*
X58661731Y-99602203D01*
X58539219Y-99539780D01*
X58539216Y-99539779D01*
X58539214Y-99539778D01*
X58344538Y-99476524D01*
X58344536Y-99476523D01*
X58344534Y-99476523D01*
X58142352Y-99444500D01*
X57937648Y-99444500D01*
X57735466Y-99476523D01*
X57735464Y-99476523D01*
X57735461Y-99476524D01*
X57540785Y-99539778D01*
X57540779Y-99539781D01*
X57358387Y-99632714D01*
X57192779Y-99753034D01*
X57048034Y-99897779D01*
X56927714Y-100063387D01*
X56834781Y-100245779D01*
X56834778Y-100245785D01*
X56771524Y-100440461D01*
X56771523Y-100440464D01*
X56771523Y-100440466D01*
X56739500Y-100642648D01*
X40563961Y-100642648D01*
X40560012Y-98897648D01*
X87209500Y-98897648D01*
X87209500Y-99102352D01*
X87241523Y-99304534D01*
X87241524Y-99304538D01*
X87297405Y-99476523D01*
X87304780Y-99499219D01*
X87347323Y-99582714D01*
X87397714Y-99681612D01*
X87518034Y-99847220D01*
X87662779Y-99991965D01*
X87828387Y-100112285D01*
X87828390Y-100112287D01*
X88010781Y-100205220D01*
X88205466Y-100268477D01*
X88407648Y-100300500D01*
X88407651Y-100300500D01*
X88612349Y-100300500D01*
X88612352Y-100300500D01*
X88814534Y-100268477D01*
X89009219Y-100205220D01*
X89191610Y-100112287D01*
X89357219Y-99991966D01*
X89501966Y-99847219D01*
X89622287Y-99681610D01*
X89647733Y-99631668D01*
X89696481Y-99580053D01*
X89765396Y-99562987D01*
X89832597Y-99585887D01*
X89872267Y-99631669D01*
X89897712Y-99681609D01*
X90018034Y-99847220D01*
X90162779Y-99991965D01*
X90328387Y-100112285D01*
X90328390Y-100112287D01*
X90510781Y-100205220D01*
X90705466Y-100268477D01*
X90907648Y-100300500D01*
X90907651Y-100300500D01*
X91112349Y-100300500D01*
X91112352Y-100300500D01*
X91314534Y-100268477D01*
X91509219Y-100205220D01*
X91691610Y-100112287D01*
X91857219Y-99991966D01*
X92001966Y-99847219D01*
X92122287Y-99681610D01*
X92215220Y-99499219D01*
X92278477Y-99304534D01*
X92310500Y-99102352D01*
X92310500Y-98897648D01*
X92278477Y-98695466D01*
X92260449Y-98639982D01*
X92869500Y-98639982D01*
X92869500Y-99840009D01*
X92880000Y-99942797D01*
X92935185Y-100109334D01*
X93027288Y-100258656D01*
X93027293Y-100258662D01*
X93151337Y-100382706D01*
X93151343Y-100382711D01*
X93151344Y-100382712D01*
X93208563Y-100418004D01*
X93300665Y-100474814D01*
X93467196Y-100529997D01*
X93467197Y-100529997D01*
X93467203Y-100529999D01*
X93569991Y-100540500D01*
X94770008Y-100540499D01*
X94770009Y-100540499D01*
X94872797Y-100529999D01*
X95039334Y-100474814D01*
X95087312Y-100445221D01*
X95188656Y-100382712D01*
X95312712Y-100258656D01*
X95404814Y-100109334D01*
X95459999Y-99942797D01*
X95470500Y-99840009D01*
X95470499Y-99137648D01*
X96679500Y-99137648D01*
X96679500Y-99342352D01*
X96711523Y-99544534D01*
X96711524Y-99544538D01*
X96763022Y-99703034D01*
X96774780Y-99739219D01*
X96864239Y-99914791D01*
X96867714Y-99921612D01*
X96988034Y-100087220D01*
X97132779Y-100231965D01*
X97238277Y-100308613D01*
X97298390Y-100352287D01*
X97480781Y-100445220D01*
X97675466Y-100508477D01*
X97877648Y-100540500D01*
X97877651Y-100540500D01*
X98082349Y-100540500D01*
X98082352Y-100540500D01*
X98284534Y-100508477D01*
X98479219Y-100445220D01*
X98661610Y-100352287D01*
X98827219Y-100231966D01*
X98971966Y-100087219D01*
X99092287Y-99921610D01*
X99185220Y-99739219D01*
X99215748Y-99645263D01*
X102259500Y-99645263D01*
X102259500Y-99874736D01*
X102289450Y-100102231D01*
X102307316Y-100168907D01*
X102348842Y-100323887D01*
X102436656Y-100535888D01*
X102436657Y-100535889D01*
X102436662Y-100535900D01*
X102551386Y-100734608D01*
X102551391Y-100734615D01*
X102691073Y-100916652D01*
X102691092Y-100916673D01*
X102853326Y-101078907D01*
X102853347Y-101078926D01*
X103035384Y-101218608D01*
X103035391Y-101218613D01*
X103234099Y-101333337D01*
X103234103Y-101333338D01*
X103234112Y-101333344D01*
X103446113Y-101421158D01*
X103667762Y-101480548D01*
X103667766Y-101480548D01*
X103667768Y-101480549D01*
X103726398Y-101488267D01*
X103895266Y-101510500D01*
X103895273Y-101510500D01*
X104124727Y-101510500D01*
X104124734Y-101510500D01*
X104330345Y-101483430D01*
X104352231Y-101480549D01*
X104352231Y-101480548D01*
X104352238Y-101480548D01*
X104573887Y-101421158D01*
X104785888Y-101333344D01*
X104984612Y-101218611D01*
X105166661Y-101078919D01*
X105328919Y-100916661D01*
X105468611Y-100734612D01*
X105583344Y-100535888D01*
X105671158Y-100323887D01*
X105730548Y-100102238D01*
X105760500Y-99874734D01*
X105760500Y-99645266D01*
X105760500Y-99645263D01*
X116299500Y-99645263D01*
X116299500Y-99874736D01*
X116329450Y-100102231D01*
X116347316Y-100168907D01*
X116388842Y-100323887D01*
X116476656Y-100535888D01*
X116476657Y-100535889D01*
X116476662Y-100535900D01*
X116591386Y-100734608D01*
X116591391Y-100734615D01*
X116731073Y-100916652D01*
X116731092Y-100916673D01*
X116893326Y-101078907D01*
X116893347Y-101078926D01*
X117075384Y-101218608D01*
X117075391Y-101218613D01*
X117274099Y-101333337D01*
X117274103Y-101333338D01*
X117274112Y-101333344D01*
X117486113Y-101421158D01*
X117707762Y-101480548D01*
X117707766Y-101480548D01*
X117707768Y-101480549D01*
X117766398Y-101488267D01*
X117935266Y-101510500D01*
X117935273Y-101510500D01*
X118164727Y-101510500D01*
X118164734Y-101510500D01*
X118392238Y-101480548D01*
X118613887Y-101421158D01*
X118825888Y-101333344D01*
X119024612Y-101218611D01*
X119206661Y-101078919D01*
X119368919Y-100916661D01*
X119508611Y-100734612D01*
X119623344Y-100535888D01*
X119711158Y-100323887D01*
X119770548Y-100102238D01*
X119800500Y-99874734D01*
X119800500Y-99645266D01*
X119777396Y-99469778D01*
X119770549Y-99417768D01*
X119770548Y-99417766D01*
X119770548Y-99417762D01*
X119711158Y-99196113D01*
X119623344Y-98984112D01*
X119623338Y-98984103D01*
X119623337Y-98984099D01*
X119513666Y-98794143D01*
X119513665Y-98794142D01*
X119508611Y-98785388D01*
X119470151Y-98735266D01*
X119470149Y-98735263D01*
X126709500Y-98735263D01*
X126709500Y-98964736D01*
X126739450Y-99192231D01*
X126739452Y-99192238D01*
X126798842Y-99413887D01*
X126886656Y-99625888D01*
X126886657Y-99625889D01*
X126886662Y-99625900D01*
X127001386Y-99824608D01*
X127001391Y-99824615D01*
X127141073Y-100006652D01*
X127141092Y-100006673D01*
X127303326Y-100168907D01*
X127303347Y-100168926D01*
X127485384Y-100308608D01*
X127485391Y-100308613D01*
X127684099Y-100423337D01*
X127684103Y-100423338D01*
X127684112Y-100423344D01*
X127896113Y-100511158D01*
X128117762Y-100570548D01*
X128117766Y-100570548D01*
X128117768Y-100570549D01*
X128176398Y-100578267D01*
X128345266Y-100600500D01*
X128345273Y-100600500D01*
X128574727Y-100600500D01*
X128574734Y-100600500D01*
X128780345Y-100573430D01*
X128802231Y-100570549D01*
X128802231Y-100570548D01*
X128802238Y-100570548D01*
X129023887Y-100511158D01*
X129235888Y-100423344D01*
X129434612Y-100308611D01*
X129616661Y-100168919D01*
X129778919Y-100006661D01*
X129918611Y-99824612D01*
X130033344Y-99625888D01*
X130121158Y-99413887D01*
X130165707Y-99247625D01*
X133691837Y-99247625D01*
X134759999Y-100315786D01*
X134760001Y-100315786D01*
X135828161Y-99247625D01*
X135794869Y-99231593D01*
X135508640Y-99131436D01*
X135212983Y-99063954D01*
X134911631Y-99030000D01*
X134608369Y-99030000D01*
X134307016Y-99063954D01*
X134011359Y-99131436D01*
X133725131Y-99231593D01*
X133691837Y-99247625D01*
X130165707Y-99247625D01*
X130180548Y-99192238D01*
X130210500Y-98964734D01*
X130210500Y-98735266D01*
X130180548Y-98507762D01*
X130121158Y-98286113D01*
X130033344Y-98074112D01*
X130033338Y-98074103D01*
X130033337Y-98074099D01*
X129918613Y-97875391D01*
X129918608Y-97875384D01*
X129778926Y-97693347D01*
X129778907Y-97693326D01*
X129616673Y-97531092D01*
X129616652Y-97531073D01*
X129434615Y-97391391D01*
X129434608Y-97391386D01*
X129235900Y-97276662D01*
X129235892Y-97276658D01*
X129235888Y-97276656D01*
X129023887Y-97188842D01*
X128802238Y-97129452D01*
X128802231Y-97129450D01*
X128574736Y-97099500D01*
X128574734Y-97099500D01*
X128345266Y-97099500D01*
X128345263Y-97099500D01*
X128117768Y-97129450D01*
X127896113Y-97188842D01*
X127684110Y-97276657D01*
X127684099Y-97276662D01*
X127485391Y-97391386D01*
X127485384Y-97391391D01*
X127303347Y-97531073D01*
X127303326Y-97531092D01*
X127141092Y-97693326D01*
X127141073Y-97693347D01*
X127001391Y-97875384D01*
X127001386Y-97875391D01*
X126886662Y-98074099D01*
X126886657Y-98074110D01*
X126886656Y-98074112D01*
X126864454Y-98127713D01*
X126798842Y-98286113D01*
X126739450Y-98507768D01*
X126709500Y-98735263D01*
X119470149Y-98735263D01*
X119368926Y-98603347D01*
X119368907Y-98603326D01*
X119206673Y-98441092D01*
X119206652Y-98441073D01*
X119024615Y-98301391D01*
X119024608Y-98301386D01*
X118825900Y-98186662D01*
X118825892Y-98186658D01*
X118825888Y-98186656D01*
X118613887Y-98098842D01*
X118392238Y-98039452D01*
X118392231Y-98039450D01*
X118164736Y-98009500D01*
X118164734Y-98009500D01*
X117935266Y-98009500D01*
X117935263Y-98009500D01*
X117707768Y-98039450D01*
X117491913Y-98097288D01*
X117486113Y-98098842D01*
X117416413Y-98127713D01*
X117274110Y-98186657D01*
X117274099Y-98186662D01*
X117075391Y-98301386D01*
X117075384Y-98301391D01*
X116893347Y-98441073D01*
X116893326Y-98441092D01*
X116731092Y-98603326D01*
X116731073Y-98603347D01*
X116591391Y-98785384D01*
X116591386Y-98785391D01*
X116476662Y-98984099D01*
X116476657Y-98984110D01*
X116388842Y-99196113D01*
X116329450Y-99417768D01*
X116299500Y-99645263D01*
X105760500Y-99645263D01*
X105737396Y-99469778D01*
X105730549Y-99417768D01*
X105730548Y-99417766D01*
X105730548Y-99417762D01*
X105671158Y-99196113D01*
X105583344Y-98984112D01*
X105583338Y-98984103D01*
X105583337Y-98984099D01*
X105468613Y-98785391D01*
X105468608Y-98785384D01*
X105328926Y-98603347D01*
X105328907Y-98603326D01*
X105166673Y-98441092D01*
X105166652Y-98441073D01*
X104984615Y-98301391D01*
X104984608Y-98301386D01*
X104785900Y-98186662D01*
X104785892Y-98186658D01*
X104785888Y-98186656D01*
X104573887Y-98098842D01*
X104352238Y-98039452D01*
X104352231Y-98039450D01*
X104124736Y-98009500D01*
X104124734Y-98009500D01*
X103895266Y-98009500D01*
X103895263Y-98009500D01*
X103667768Y-98039450D01*
X103451913Y-98097288D01*
X103446113Y-98098842D01*
X103376413Y-98127713D01*
X103234110Y-98186657D01*
X103234099Y-98186662D01*
X103035391Y-98301386D01*
X103035384Y-98301391D01*
X102853347Y-98441073D01*
X102853326Y-98441092D01*
X102691092Y-98603326D01*
X102691073Y-98603347D01*
X102551391Y-98785384D01*
X102551386Y-98785391D01*
X102436662Y-98984099D01*
X102436657Y-98984110D01*
X102348842Y-99196113D01*
X102289450Y-99417768D01*
X102259500Y-99645263D01*
X99215748Y-99645263D01*
X99248477Y-99544534D01*
X99280500Y-99342352D01*
X99280500Y-99137648D01*
X99248477Y-98935466D01*
X99185220Y-98740781D01*
X99092287Y-98558390D01*
X99076889Y-98537196D01*
X98971965Y-98392779D01*
X98827220Y-98248034D01*
X98661612Y-98127714D01*
X98654791Y-98124239D01*
X98479219Y-98034780D01*
X98479216Y-98034779D01*
X98479214Y-98034778D01*
X98284538Y-97971524D01*
X98284536Y-97971523D01*
X98284534Y-97971523D01*
X98082352Y-97939500D01*
X97877648Y-97939500D01*
X97675466Y-97971523D01*
X97675464Y-97971523D01*
X97675461Y-97971524D01*
X97480785Y-98034778D01*
X97480779Y-98034781D01*
X97298387Y-98127714D01*
X97132779Y-98248034D01*
X96988034Y-98392779D01*
X96867714Y-98558387D01*
X96774781Y-98740779D01*
X96774778Y-98740785D01*
X96711524Y-98935461D01*
X96711523Y-98935464D01*
X96711523Y-98935466D01*
X96679500Y-99137648D01*
X95470499Y-99137648D01*
X95470499Y-98639992D01*
X95459999Y-98537203D01*
X95450246Y-98507768D01*
X95404814Y-98370665D01*
X95312711Y-98221343D01*
X95312706Y-98221337D01*
X95188662Y-98097293D01*
X95188656Y-98097288D01*
X95039334Y-98005185D01*
X94872803Y-97950002D01*
X94872791Y-97950000D01*
X94770017Y-97939500D01*
X93569990Y-97939500D01*
X93467202Y-97950000D01*
X93300665Y-98005185D01*
X93151343Y-98097288D01*
X93151337Y-98097293D01*
X93027293Y-98221337D01*
X93027288Y-98221343D01*
X92935185Y-98370665D01*
X92880002Y-98537196D01*
X92880000Y-98537208D01*
X92869500Y-98639982D01*
X92260449Y-98639982D01*
X92215220Y-98500781D01*
X92122287Y-98318390D01*
X92051779Y-98221343D01*
X92001965Y-98152779D01*
X91857220Y-98008034D01*
X91691612Y-97887714D01*
X91667413Y-97875384D01*
X91509219Y-97794780D01*
X91509216Y-97794779D01*
X91509214Y-97794778D01*
X91314538Y-97731524D01*
X91314536Y-97731523D01*
X91314534Y-97731523D01*
X91112352Y-97699500D01*
X90907648Y-97699500D01*
X90705466Y-97731523D01*
X90705464Y-97731523D01*
X90705461Y-97731524D01*
X90510785Y-97794778D01*
X90510779Y-97794781D01*
X90328387Y-97887714D01*
X90162779Y-98008034D01*
X90018034Y-98152779D01*
X89897714Y-98318388D01*
X89872267Y-98368331D01*
X89823518Y-98419946D01*
X89754603Y-98437012D01*
X89687402Y-98414111D01*
X89647733Y-98368331D01*
X89622287Y-98318390D01*
X89526578Y-98186657D01*
X89501965Y-98152779D01*
X89357220Y-98008034D01*
X89191612Y-97887714D01*
X89167413Y-97875384D01*
X89009219Y-97794780D01*
X89009216Y-97794779D01*
X89009214Y-97794778D01*
X88814538Y-97731524D01*
X88814536Y-97731523D01*
X88814534Y-97731523D01*
X88612352Y-97699500D01*
X88407648Y-97699500D01*
X88205466Y-97731523D01*
X88205464Y-97731523D01*
X88205461Y-97731524D01*
X88010785Y-97794778D01*
X88010779Y-97794781D01*
X87828387Y-97887714D01*
X87662779Y-98008034D01*
X87518034Y-98152779D01*
X87397714Y-98318387D01*
X87304781Y-98500779D01*
X87304778Y-98500785D01*
X87241524Y-98695461D01*
X87241524Y-98695463D01*
X87241523Y-98695466D01*
X87209500Y-98897648D01*
X40560012Y-98897648D01*
X40549997Y-94471908D01*
X68789500Y-94471908D01*
X68789500Y-94708092D01*
X68826447Y-94941368D01*
X68899432Y-95165992D01*
X68998539Y-95360500D01*
X69006659Y-95376436D01*
X69145484Y-95567512D01*
X69312487Y-95734515D01*
X69312490Y-95734517D01*
X69503567Y-95873343D01*
X69714008Y-95980568D01*
X69938632Y-96053553D01*
X70171908Y-96090500D01*
X70171911Y-96090500D01*
X70408089Y-96090500D01*
X70408092Y-96090500D01*
X70552375Y-96067648D01*
X93050186Y-96067648D01*
X93050186Y-96272352D01*
X93082209Y-96474534D01*
X93145466Y-96669219D01*
X93145467Y-96669220D01*
X93238400Y-96851612D01*
X93358720Y-97017220D01*
X93503465Y-97161965D01*
X93661327Y-97276657D01*
X93669076Y-97282287D01*
X93851467Y-97375220D01*
X94046152Y-97438477D01*
X94248334Y-97470500D01*
X94248337Y-97470500D01*
X94453035Y-97470500D01*
X94453038Y-97470500D01*
X94655220Y-97438477D01*
X94849905Y-97375220D01*
X95032296Y-97282287D01*
X95197905Y-97161966D01*
X95342652Y-97017219D01*
X95462973Y-96851610D01*
X95555906Y-96669219D01*
X95619163Y-96474534D01*
X95651186Y-96272352D01*
X95651186Y-96067648D01*
X95619163Y-95865466D01*
X95555906Y-95670781D01*
X95504546Y-95569982D01*
X96860186Y-95569982D01*
X96860186Y-96770009D01*
X96870686Y-96872797D01*
X96925871Y-97039334D01*
X97017974Y-97188656D01*
X97017979Y-97188662D01*
X97142023Y-97312706D01*
X97142029Y-97312711D01*
X97142030Y-97312712D01*
X97199249Y-97348004D01*
X97291351Y-97404814D01*
X97457882Y-97459997D01*
X97457883Y-97459997D01*
X97457889Y-97459999D01*
X97560677Y-97470500D01*
X98760694Y-97470499D01*
X98760695Y-97470499D01*
X98863483Y-97459999D01*
X99030020Y-97404814D01*
X99051782Y-97391391D01*
X99179342Y-97312712D01*
X99303398Y-97188656D01*
X99395500Y-97039334D01*
X99450685Y-96872797D01*
X99461186Y-96770009D01*
X99461185Y-95569992D01*
X99460931Y-95567510D01*
X99450685Y-95467202D01*
X99395500Y-95300665D01*
X99338690Y-95208563D01*
X99303398Y-95151344D01*
X99303397Y-95151343D01*
X99303392Y-95151337D01*
X99179348Y-95027293D01*
X99179342Y-95027288D01*
X99030020Y-94935185D01*
X98863489Y-94880002D01*
X98863477Y-94880000D01*
X98760703Y-94869500D01*
X97560676Y-94869500D01*
X97457888Y-94880000D01*
X97291351Y-94935185D01*
X97142029Y-95027288D01*
X97142023Y-95027293D01*
X97017979Y-95151337D01*
X97017974Y-95151343D01*
X96925871Y-95300665D01*
X96870688Y-95467196D01*
X96870686Y-95467208D01*
X96860186Y-95569982D01*
X95504546Y-95569982D01*
X95462973Y-95488390D01*
X95406383Y-95410500D01*
X95342651Y-95322779D01*
X95197906Y-95178034D01*
X95032298Y-95057714D01*
X94972593Y-95027293D01*
X94849905Y-94964780D01*
X94849902Y-94964779D01*
X94849900Y-94964778D01*
X94655224Y-94901524D01*
X94655222Y-94901523D01*
X94655220Y-94901523D01*
X94453038Y-94869500D01*
X94248334Y-94869500D01*
X94046152Y-94901523D01*
X94046150Y-94901523D01*
X94046147Y-94901524D01*
X93851471Y-94964778D01*
X93851465Y-94964781D01*
X93669073Y-95057714D01*
X93503465Y-95178034D01*
X93358720Y-95322779D01*
X93238400Y-95488387D01*
X93145467Y-95670779D01*
X93145464Y-95670785D01*
X93082210Y-95865461D01*
X93082209Y-95865464D01*
X93082209Y-95865466D01*
X93050186Y-96067648D01*
X70552375Y-96067648D01*
X70641368Y-96053553D01*
X70865992Y-95980568D01*
X71076433Y-95873343D01*
X71267510Y-95734517D01*
X71434517Y-95567510D01*
X71573343Y-95376433D01*
X71680568Y-95165992D01*
X71753553Y-94941368D01*
X71790500Y-94708092D01*
X71790500Y-94471908D01*
X71753553Y-94238632D01*
X71680568Y-94014008D01*
X71573343Y-93803567D01*
X71434517Y-93612490D01*
X71434512Y-93612484D01*
X71367291Y-93545263D01*
X125049500Y-93545263D01*
X125049500Y-93774736D01*
X125079450Y-94002231D01*
X125079452Y-94002238D01*
X125138842Y-94223887D01*
X125226656Y-94435888D01*
X125226657Y-94435889D01*
X125226662Y-94435900D01*
X125341386Y-94634608D01*
X125341391Y-94634615D01*
X125481073Y-94816652D01*
X125481092Y-94816673D01*
X125643326Y-94978907D01*
X125643347Y-94978926D01*
X125825384Y-95118608D01*
X125825391Y-95118613D01*
X126024099Y-95233337D01*
X126024103Y-95233338D01*
X126024112Y-95233344D01*
X126236113Y-95321158D01*
X126457762Y-95380548D01*
X126457766Y-95380548D01*
X126457768Y-95380549D01*
X126516398Y-95388267D01*
X126685266Y-95410500D01*
X126685273Y-95410500D01*
X126914727Y-95410500D01*
X126914734Y-95410500D01*
X127120345Y-95383430D01*
X127142231Y-95380549D01*
X127142231Y-95380548D01*
X127142238Y-95380548D01*
X127363887Y-95321158D01*
X127575888Y-95233344D01*
X127774612Y-95118611D01*
X127956661Y-94978919D01*
X128118919Y-94816661D01*
X128258611Y-94634612D01*
X128287477Y-94584615D01*
X128308945Y-94547432D01*
X128373337Y-94435900D01*
X128373336Y-94435900D01*
X128373344Y-94435888D01*
X128461158Y-94223887D01*
X128520548Y-94002238D01*
X128550500Y-93774734D01*
X128550500Y-93545266D01*
X128520548Y-93317762D01*
X128461158Y-93096113D01*
X128415998Y-92987087D01*
X130110000Y-92987087D01*
X130110000Y-93242712D01*
X130143363Y-93496135D01*
X130209524Y-93743051D01*
X130307349Y-93979219D01*
X130307352Y-93979225D01*
X130435152Y-94200582D01*
X130435156Y-94200588D01*
X130515739Y-94305605D01*
X130515740Y-94305606D01*
X131193821Y-93627525D01*
X131279365Y-93755550D01*
X131419350Y-93895535D01*
X131547373Y-93981077D01*
X130869292Y-94659158D01*
X130869293Y-94659159D01*
X130974311Y-94739743D01*
X130974317Y-94739747D01*
X131195674Y-94867547D01*
X131195680Y-94867550D01*
X131431848Y-94965375D01*
X131678764Y-95031536D01*
X131932187Y-95064899D01*
X131932197Y-95064900D01*
X132187803Y-95064900D01*
X132187812Y-95064899D01*
X132441235Y-95031536D01*
X132688151Y-94965375D01*
X132924319Y-94867550D01*
X132924325Y-94867547D01*
X133145682Y-94739747D01*
X133145688Y-94739743D01*
X133250706Y-94659159D01*
X133250706Y-94659158D01*
X132572625Y-93981077D01*
X132700650Y-93895535D01*
X132840635Y-93755550D01*
X132926177Y-93627525D01*
X133604258Y-94305606D01*
X133604259Y-94305606D01*
X133684843Y-94200588D01*
X133684847Y-94200582D01*
X133812647Y-93979225D01*
X133812650Y-93979219D01*
X133910475Y-93743051D01*
X133976636Y-93496134D01*
X133976751Y-93495263D01*
X134369500Y-93495263D01*
X134369500Y-93724736D01*
X134399450Y-93952231D01*
X134399452Y-93952238D01*
X134458842Y-94173887D01*
X134546656Y-94385888D01*
X134546657Y-94385889D01*
X134546662Y-94385900D01*
X134661386Y-94584608D01*
X134661391Y-94584615D01*
X134801073Y-94766652D01*
X134801092Y-94766673D01*
X134963326Y-94928907D01*
X134963347Y-94928926D01*
X135145384Y-95068608D01*
X135145391Y-95068613D01*
X135344099Y-95183337D01*
X135344103Y-95183338D01*
X135344112Y-95183344D01*
X135556113Y-95271158D01*
X135777762Y-95330548D01*
X135777766Y-95330548D01*
X135777768Y-95330549D01*
X135836398Y-95338267D01*
X136005266Y-95360500D01*
X136005273Y-95360500D01*
X136234727Y-95360500D01*
X136234734Y-95360500D01*
X136440345Y-95333430D01*
X136462231Y-95330549D01*
X136462231Y-95330548D01*
X136462238Y-95330548D01*
X136683887Y-95271158D01*
X136895888Y-95183344D01*
X137094612Y-95068611D01*
X137276661Y-94928919D01*
X137438919Y-94766661D01*
X137578611Y-94584612D01*
X137693344Y-94385888D01*
X137781158Y-94173887D01*
X137840548Y-93952238D01*
X137870500Y-93724734D01*
X137870500Y-93495266D01*
X137840548Y-93267762D01*
X137781158Y-93046113D01*
X137693344Y-92834112D01*
X137693338Y-92834103D01*
X137693337Y-92834099D01*
X137578613Y-92635391D01*
X137578608Y-92635384D01*
X137438926Y-92453347D01*
X137438907Y-92453326D01*
X137276673Y-92291092D01*
X137276652Y-92291073D01*
X137094615Y-92151391D01*
X137094608Y-92151386D01*
X136895900Y-92036662D01*
X136895892Y-92036658D01*
X136895888Y-92036656D01*
X136683887Y-91948842D01*
X136462238Y-91889452D01*
X136462231Y-91889450D01*
X136234736Y-91859500D01*
X136234734Y-91859500D01*
X136005266Y-91859500D01*
X136005263Y-91859500D01*
X135777768Y-91889450D01*
X135648105Y-91924193D01*
X135556113Y-91948842D01*
X135362072Y-92029217D01*
X135344110Y-92036657D01*
X135344099Y-92036662D01*
X135145391Y-92151386D01*
X135145384Y-92151391D01*
X134963347Y-92291073D01*
X134963326Y-92291092D01*
X134801092Y-92453326D01*
X134801073Y-92453347D01*
X134661391Y-92635384D01*
X134661386Y-92635391D01*
X134546662Y-92834099D01*
X134546657Y-92834110D01*
X134546656Y-92834112D01*
X134475780Y-93005221D01*
X134458842Y-93046113D01*
X134399450Y-93267768D01*
X134369500Y-93495263D01*
X133976751Y-93495263D01*
X133979459Y-93474695D01*
X134009999Y-93242712D01*
X134010000Y-93242703D01*
X134010000Y-92987097D01*
X134009999Y-92987087D01*
X133976636Y-92733664D01*
X133910475Y-92486748D01*
X133812650Y-92250580D01*
X133812647Y-92250574D01*
X133684847Y-92029217D01*
X133684843Y-92029211D01*
X133604259Y-91924193D01*
X133604258Y-91924192D01*
X132926177Y-92602273D01*
X132840635Y-92474250D01*
X132700650Y-92334265D01*
X132572625Y-92248721D01*
X133250706Y-91570640D01*
X133250705Y-91570639D01*
X133145688Y-91490056D01*
X133145682Y-91490052D01*
X132924325Y-91362252D01*
X132924319Y-91362249D01*
X132688151Y-91264424D01*
X132441235Y-91198263D01*
X132187812Y-91164900D01*
X131932187Y-91164900D01*
X131678764Y-91198263D01*
X131431848Y-91264424D01*
X131195680Y-91362249D01*
X131195674Y-91362252D01*
X130974317Y-91490052D01*
X130869292Y-91570640D01*
X131547374Y-92248721D01*
X131419350Y-92334265D01*
X131279365Y-92474250D01*
X131193822Y-92602274D01*
X130515740Y-91924192D01*
X130435152Y-92029217D01*
X130307352Y-92250574D01*
X130307349Y-92250580D01*
X130209524Y-92486748D01*
X130143363Y-92733664D01*
X130110000Y-92987087D01*
X128415998Y-92987087D01*
X128373344Y-92884112D01*
X128373338Y-92884103D01*
X128373337Y-92884099D01*
X128258613Y-92685391D01*
X128258608Y-92685384D01*
X128118926Y-92503347D01*
X128118907Y-92503326D01*
X127956673Y-92341092D01*
X127956652Y-92341073D01*
X127774615Y-92201391D01*
X127774608Y-92201386D01*
X127575900Y-92086662D01*
X127575892Y-92086658D01*
X127575888Y-92086656D01*
X127363887Y-91998842D01*
X127212501Y-91958278D01*
X127142231Y-91939450D01*
X126914736Y-91909500D01*
X126914734Y-91909500D01*
X126685266Y-91909500D01*
X126685263Y-91909500D01*
X126457768Y-91939450D01*
X126236113Y-91998842D01*
X126082435Y-92062498D01*
X126024110Y-92086657D01*
X126024099Y-92086662D01*
X125825391Y-92201386D01*
X125825384Y-92201391D01*
X125643347Y-92341073D01*
X125643326Y-92341092D01*
X125481092Y-92503326D01*
X125481073Y-92503347D01*
X125341391Y-92685384D01*
X125341386Y-92685391D01*
X125226662Y-92884099D01*
X125226657Y-92884110D01*
X125226656Y-92884112D01*
X125184002Y-92987087D01*
X125138842Y-93096113D01*
X125079450Y-93317768D01*
X125049500Y-93545263D01*
X71367291Y-93545263D01*
X71267512Y-93445484D01*
X71076436Y-93306659D01*
X71076435Y-93306658D01*
X71076433Y-93306657D01*
X70865992Y-93199432D01*
X70641368Y-93126447D01*
X70408092Y-93089500D01*
X70171908Y-93089500D01*
X69938632Y-93126447D01*
X69938629Y-93126447D01*
X69938628Y-93126448D01*
X69714008Y-93199432D01*
X69714006Y-93199433D01*
X69503563Y-93306659D01*
X69312487Y-93445484D01*
X69145484Y-93612487D01*
X69006659Y-93803563D01*
X69006657Y-93803567D01*
X68899432Y-94014008D01*
X68826447Y-94238632D01*
X68789500Y-94471908D01*
X40549997Y-94471908D01*
X40537930Y-89139685D01*
X40529829Y-85560000D01*
X43930000Y-85560000D01*
X43968908Y-90170539D01*
X43970000Y-90300000D01*
X43969999Y-90300000D01*
X55979998Y-90340000D01*
X55979998Y-90339999D01*
X55980000Y-90340000D01*
X55977592Y-90057636D01*
X55958904Y-87866394D01*
X57789500Y-87866394D01*
X57789500Y-88203405D01*
X57827233Y-88538298D01*
X57862055Y-88690861D01*
X57902224Y-88866854D01*
X57902226Y-88866860D01*
X57902225Y-88866860D01*
X58013524Y-89184933D01*
X58013535Y-89184960D01*
X58159751Y-89488581D01*
X58159756Y-89488590D01*
X58339051Y-89773936D01*
X58549177Y-90037426D01*
X58787473Y-90275722D01*
X59050963Y-90485848D01*
X59224329Y-90594781D01*
X59336314Y-90665146D01*
X59639949Y-90811369D01*
X59639965Y-90811374D01*
X59639966Y-90811375D01*
X59958039Y-90922674D01*
X59958042Y-90922674D01*
X59958046Y-90922676D01*
X60201239Y-90978182D01*
X60286601Y-90997666D01*
X60286602Y-90997666D01*
X60286606Y-90997667D01*
X60507492Y-91022554D01*
X60621494Y-91035400D01*
X60621496Y-91035400D01*
X60958506Y-91035400D01*
X61055925Y-91024423D01*
X61293394Y-90997667D01*
X61621954Y-90922676D01*
X61940051Y-90811369D01*
X62243686Y-90665146D01*
X62529039Y-90485846D01*
X62792523Y-90275725D01*
X63030825Y-90037423D01*
X63240946Y-89773939D01*
X63420246Y-89488586D01*
X63566469Y-89184951D01*
X63649949Y-88946378D01*
X63677774Y-88866860D01*
X63677774Y-88866859D01*
X63677776Y-88866854D01*
X63752767Y-88538294D01*
X63790500Y-88203404D01*
X63790500Y-87866396D01*
X63780178Y-87774786D01*
X82375400Y-87774786D01*
X82375400Y-88010813D01*
X82406205Y-88244807D01*
X82406207Y-88244814D01*
X82467294Y-88472793D01*
X82557616Y-88690849D01*
X82557617Y-88690850D01*
X82557622Y-88690861D01*
X82675624Y-88895246D01*
X82675626Y-88895249D01*
X82675627Y-88895250D01*
X82819308Y-89082499D01*
X82876496Y-89139687D01*
X82910520Y-89201997D01*
X82913400Y-89228781D01*
X82913400Y-92240664D01*
X82913402Y-92240685D01*
X82919808Y-92300280D01*
X82919808Y-92300281D01*
X82970101Y-92435126D01*
X82970103Y-92435129D01*
X83056353Y-92550346D01*
X83113961Y-92593471D01*
X83171569Y-92636596D01*
X83171571Y-92636596D01*
X83171573Y-92636598D01*
X83200053Y-92647220D01*
X83306414Y-92686890D01*
X83306417Y-92686891D01*
X83366027Y-92693300D01*
X84985772Y-92693299D01*
X85045383Y-92686891D01*
X85180231Y-92636596D01*
X85295446Y-92550346D01*
X85381696Y-92435131D01*
X85431991Y-92300283D01*
X85438400Y-92240673D01*
X85438399Y-90754786D01*
X89605400Y-90754786D01*
X89605400Y-90990813D01*
X89636205Y-91224807D01*
X89652572Y-91285891D01*
X89697294Y-91452793D01*
X89787616Y-91670849D01*
X89787617Y-91670850D01*
X89787622Y-91670861D01*
X89905624Y-91875246D01*
X89905626Y-91875249D01*
X89905627Y-91875250D01*
X90049308Y-92062499D01*
X90049312Y-92062503D01*
X90049317Y-92062509D01*
X90216190Y-92229382D01*
X90216195Y-92229386D01*
X90216201Y-92229392D01*
X90390306Y-92362987D01*
X90403453Y-92373075D01*
X90607838Y-92491077D01*
X90607842Y-92491078D01*
X90607851Y-92491084D01*
X90825907Y-92581406D01*
X91053886Y-92642493D01*
X91053890Y-92642493D01*
X91053892Y-92642494D01*
X91089791Y-92647220D01*
X91287889Y-92673300D01*
X91287896Y-92673300D01*
X91523904Y-92673300D01*
X91523911Y-92673300D01*
X91735391Y-92645458D01*
X91757907Y-92642494D01*
X91757907Y-92642493D01*
X91757914Y-92642493D01*
X91985893Y-92581406D01*
X92203949Y-92491084D01*
X92408350Y-92373073D01*
X92595599Y-92229392D01*
X92762492Y-92062499D01*
X92906173Y-91875250D01*
X93008712Y-91697648D01*
X93349500Y-91697648D01*
X93349500Y-91902352D01*
X93381523Y-92104534D01*
X93381524Y-92104538D01*
X93442135Y-92291081D01*
X93444780Y-92299219D01*
X93482411Y-92373073D01*
X93537714Y-92481612D01*
X93658034Y-92647220D01*
X93802779Y-92791965D01*
X93860790Y-92834112D01*
X93968390Y-92912287D01*
X94150781Y-93005220D01*
X94345466Y-93068477D01*
X94547648Y-93100500D01*
X94547651Y-93100500D01*
X94752349Y-93100500D01*
X94752352Y-93100500D01*
X94954534Y-93068477D01*
X95149219Y-93005220D01*
X95331610Y-92912287D01*
X95497219Y-92791966D01*
X95641966Y-92647219D01*
X95762287Y-92481610D01*
X95787733Y-92431668D01*
X95836481Y-92380053D01*
X95905396Y-92362987D01*
X95972597Y-92385887D01*
X96012267Y-92431669D01*
X96037712Y-92481609D01*
X96158034Y-92647220D01*
X96302779Y-92791965D01*
X96360790Y-92834112D01*
X96468390Y-92912287D01*
X96650781Y-93005220D01*
X96845466Y-93068477D01*
X97047648Y-93100500D01*
X97047651Y-93100500D01*
X97252349Y-93100500D01*
X97252352Y-93100500D01*
X97454534Y-93068477D01*
X97649219Y-93005220D01*
X97831610Y-92912287D01*
X97997219Y-92791966D01*
X98141966Y-92647219D01*
X98262287Y-92481610D01*
X98355220Y-92299219D01*
X98418477Y-92104534D01*
X98450500Y-91902352D01*
X98450500Y-91697648D01*
X98418477Y-91495466D01*
X98355220Y-91300781D01*
X98262287Y-91118390D01*
X98201992Y-91035400D01*
X98141965Y-90952779D01*
X97997220Y-90808034D01*
X97831612Y-90687714D01*
X97787314Y-90665143D01*
X97649219Y-90594780D01*
X97649216Y-90594779D01*
X97649214Y-90594778D01*
X97454538Y-90531524D01*
X97454536Y-90531523D01*
X97454534Y-90531523D01*
X97252352Y-90499500D01*
X97047648Y-90499500D01*
X96845466Y-90531523D01*
X96845464Y-90531523D01*
X96845461Y-90531524D01*
X96650785Y-90594778D01*
X96650779Y-90594781D01*
X96468387Y-90687714D01*
X96302779Y-90808034D01*
X96158034Y-90952779D01*
X96037714Y-91118388D01*
X96012267Y-91168331D01*
X95963518Y-91219946D01*
X95894603Y-91237012D01*
X95827402Y-91214111D01*
X95787733Y-91168331D01*
X95785985Y-91164900D01*
X95762287Y-91118390D01*
X95696478Y-91027812D01*
X95641965Y-90952779D01*
X95497220Y-90808034D01*
X95331612Y-90687714D01*
X95287314Y-90665143D01*
X95149219Y-90594780D01*
X95149216Y-90594779D01*
X95149214Y-90594778D01*
X94954538Y-90531524D01*
X94954536Y-90531523D01*
X94954534Y-90531523D01*
X94752352Y-90499500D01*
X94547648Y-90499500D01*
X94345466Y-90531523D01*
X94345464Y-90531523D01*
X94345461Y-90531524D01*
X94150785Y-90594778D01*
X94150779Y-90594781D01*
X93968387Y-90687714D01*
X93802779Y-90808034D01*
X93658034Y-90952779D01*
X93537714Y-91118387D01*
X93444781Y-91300779D01*
X93444778Y-91300785D01*
X93381524Y-91495461D01*
X93381523Y-91495464D01*
X93381523Y-91495466D01*
X93349500Y-91697648D01*
X93008712Y-91697648D01*
X93024184Y-91670849D01*
X93114506Y-91452793D01*
X93175593Y-91224814D01*
X93206400Y-90990811D01*
X93206400Y-90754789D01*
X93175593Y-90520786D01*
X93114506Y-90292807D01*
X93024184Y-90074751D01*
X93024178Y-90074742D01*
X93024177Y-90074738D01*
X92906175Y-89870353D01*
X92832194Y-89773939D01*
X92762492Y-89683101D01*
X92762486Y-89683095D01*
X92762482Y-89683090D01*
X92715304Y-89635912D01*
X92681278Y-89573600D01*
X92678399Y-89546817D01*
X92678399Y-86384935D01*
X92678399Y-86384928D01*
X92671991Y-86325317D01*
X92634768Y-86225517D01*
X92621698Y-86190473D01*
X92621696Y-86190470D01*
X92621696Y-86190469D01*
X92553301Y-86099105D01*
X92535446Y-86075253D01*
X92451159Y-86012157D01*
X92420231Y-85989004D01*
X92420229Y-85989003D01*
X92420226Y-85989001D01*
X92285383Y-85938709D01*
X92285386Y-85938709D01*
X92225773Y-85932300D01*
X90606035Y-85932300D01*
X90606014Y-85932302D01*
X90546419Y-85938708D01*
X90546418Y-85938708D01*
X90411573Y-85989001D01*
X90411570Y-85989003D01*
X90296353Y-86075253D01*
X90210103Y-86190470D01*
X90210101Y-86190473D01*
X90159809Y-86325315D01*
X90153400Y-86384921D01*
X90153400Y-89526817D01*
X90133398Y-89594938D01*
X90116497Y-89615911D01*
X90049306Y-89683103D01*
X89905624Y-89870353D01*
X89787622Y-90074738D01*
X89787617Y-90074749D01*
X89697294Y-90292807D01*
X89697293Y-90292811D01*
X89636205Y-90520792D01*
X89605400Y-90754786D01*
X85438399Y-90754786D01*
X85438399Y-90687714D01*
X85438399Y-89228782D01*
X85458401Y-89160661D01*
X85475304Y-89139686D01*
X85475305Y-89139685D01*
X85532492Y-89082499D01*
X85676173Y-88895250D01*
X85794184Y-88690849D01*
X85884506Y-88472793D01*
X85945593Y-88244814D01*
X85976400Y-88010811D01*
X85976400Y-87774789D01*
X85945593Y-87540786D01*
X85884506Y-87312807D01*
X85794184Y-87094751D01*
X85794178Y-87094742D01*
X85794177Y-87094738D01*
X85676175Y-86890353D01*
X85671944Y-86884839D01*
X85532492Y-86703101D01*
X85532486Y-86703095D01*
X85532482Y-86703090D01*
X85365609Y-86536217D01*
X85365603Y-86536212D01*
X85365599Y-86536208D01*
X85178350Y-86392527D01*
X85178349Y-86392526D01*
X85178346Y-86392524D01*
X84973961Y-86274522D01*
X84973953Y-86274518D01*
X84973949Y-86274516D01*
X84755893Y-86184194D01*
X84588991Y-86139472D01*
X84527907Y-86123105D01*
X84293913Y-86092300D01*
X84293911Y-86092300D01*
X84057889Y-86092300D01*
X84057886Y-86092300D01*
X83823892Y-86123105D01*
X83595911Y-86184193D01*
X83595907Y-86184194D01*
X83377849Y-86274517D01*
X83377838Y-86274522D01*
X83173453Y-86392524D01*
X82986201Y-86536208D01*
X82986190Y-86536217D01*
X82819317Y-86703090D01*
X82819308Y-86703101D01*
X82675624Y-86890353D01*
X82557622Y-87094738D01*
X82557617Y-87094749D01*
X82557616Y-87094751D01*
X82519124Y-87187679D01*
X82467294Y-87312807D01*
X82467293Y-87312811D01*
X82406205Y-87540792D01*
X82375400Y-87774786D01*
X63780178Y-87774786D01*
X63752767Y-87531506D01*
X63677776Y-87202946D01*
X63651694Y-87128409D01*
X63566475Y-86884866D01*
X63566474Y-86884865D01*
X63566469Y-86884849D01*
X63420246Y-86581214D01*
X63412292Y-86568556D01*
X63259455Y-86325318D01*
X63240946Y-86295861D01*
X63223924Y-86274516D01*
X63184851Y-86225519D01*
X63184849Y-86225517D01*
X63126148Y-86151908D01*
X73669500Y-86151908D01*
X73669500Y-86388092D01*
X73706447Y-86621368D01*
X73779432Y-86845992D01*
X73818473Y-86922614D01*
X73886659Y-87056436D01*
X74025484Y-87247512D01*
X74192487Y-87414515D01*
X74192490Y-87414517D01*
X74383567Y-87553343D01*
X74594008Y-87660568D01*
X74818632Y-87733553D01*
X75051908Y-87770500D01*
X75051911Y-87770500D01*
X75288089Y-87770500D01*
X75288092Y-87770500D01*
X75521368Y-87733553D01*
X75745992Y-87660568D01*
X75956433Y-87553343D01*
X76147510Y-87414517D01*
X76314517Y-87247510D01*
X76453343Y-87056433D01*
X76560568Y-86845992D01*
X76633553Y-86621368D01*
X76670500Y-86388092D01*
X76670500Y-86151908D01*
X76633553Y-85918632D01*
X76560568Y-85694008D01*
X76453343Y-85483567D01*
X76314517Y-85292490D01*
X76314515Y-85292487D01*
X76147512Y-85125484D01*
X75956436Y-84986659D01*
X75956435Y-84986658D01*
X75956433Y-84986657D01*
X75745992Y-84879432D01*
X75521368Y-84806447D01*
X75288092Y-84769500D01*
X75051908Y-84769500D01*
X74818632Y-84806447D01*
X74818629Y-84806447D01*
X74818628Y-84806448D01*
X74594008Y-84879432D01*
X74594006Y-84879433D01*
X74383563Y-84986659D01*
X74192487Y-85125484D01*
X74025484Y-85292487D01*
X73886659Y-85483563D01*
X73779433Y-85694006D01*
X73779432Y-85694008D01*
X73728426Y-85850989D01*
X73706447Y-85918632D01*
X73669500Y-86151908D01*
X63126148Y-86151908D01*
X63030822Y-86032373D01*
X62792526Y-85794077D01*
X62529036Y-85583951D01*
X62243690Y-85404656D01*
X62243681Y-85404651D01*
X61940060Y-85258435D01*
X61940055Y-85258433D01*
X61940051Y-85258431D01*
X61940045Y-85258428D01*
X61940033Y-85258424D01*
X61621960Y-85147125D01*
X61293398Y-85072133D01*
X60958506Y-85034400D01*
X60958504Y-85034400D01*
X60621496Y-85034400D01*
X60621494Y-85034400D01*
X60286601Y-85072133D01*
X59958039Y-85147125D01*
X59639966Y-85258424D01*
X59639939Y-85258435D01*
X59336318Y-85404651D01*
X59336309Y-85404656D01*
X59050963Y-85583951D01*
X58787473Y-85794077D01*
X58549177Y-86032373D01*
X58339051Y-86295863D01*
X58159756Y-86581209D01*
X58159751Y-86581218D01*
X58013535Y-86884839D01*
X58013524Y-86884866D01*
X57902225Y-87202939D01*
X57827233Y-87531501D01*
X57789500Y-87866394D01*
X55958904Y-87866394D01*
X55958883Y-87863936D01*
X55940000Y-85650000D01*
X43930000Y-85430000D01*
X43930000Y-85560000D01*
X40529829Y-85560000D01*
X40529416Y-85377417D01*
X40525722Y-83744786D01*
X86735400Y-83744786D01*
X86735400Y-83980813D01*
X86766205Y-84214807D01*
X86766207Y-84214814D01*
X86827294Y-84442793D01*
X86917616Y-84660849D01*
X86917617Y-84660850D01*
X86917622Y-84660861D01*
X87035624Y-84865246D01*
X87035626Y-84865249D01*
X87035627Y-84865250D01*
X87179308Y-85052499D01*
X87179312Y-85052503D01*
X87179317Y-85052509D01*
X87346190Y-85219382D01*
X87346195Y-85219386D01*
X87346201Y-85219392D01*
X87533450Y-85363073D01*
X87533453Y-85363075D01*
X87737838Y-85481077D01*
X87737842Y-85481078D01*
X87737851Y-85481084D01*
X87955907Y-85571406D01*
X88183886Y-85632493D01*
X88183890Y-85632493D01*
X88183892Y-85632494D01*
X88244200Y-85640433D01*
X88417889Y-85663300D01*
X88417896Y-85663300D01*
X88653904Y-85663300D01*
X88653911Y-85663300D01*
X88865391Y-85635458D01*
X88887907Y-85632494D01*
X88887907Y-85632493D01*
X88887914Y-85632493D01*
X89115893Y-85571406D01*
X89333949Y-85481084D01*
X89538350Y-85363073D01*
X89725599Y-85219392D01*
X89892492Y-85052499D01*
X90036173Y-84865250D01*
X90154184Y-84660849D01*
X90244506Y-84442793D01*
X90305593Y-84214814D01*
X90336400Y-83980811D01*
X90336400Y-83744789D01*
X90305593Y-83510786D01*
X90244506Y-83282807D01*
X90154184Y-83064751D01*
X90154178Y-83064742D01*
X90154177Y-83064738D01*
X90036175Y-82860353D01*
X90036173Y-82860350D01*
X89892492Y-82673101D01*
X89892486Y-82673095D01*
X89892482Y-82673090D01*
X89835304Y-82615912D01*
X89801278Y-82553600D01*
X89798399Y-82526817D01*
X89798399Y-79514935D01*
X89798399Y-79514928D01*
X89791991Y-79455317D01*
X89787019Y-79441986D01*
X99429500Y-79441986D01*
X99429500Y-79678013D01*
X99460305Y-79912007D01*
X99460307Y-79912014D01*
X99521394Y-80139993D01*
X99611716Y-80358049D01*
X99611717Y-80358050D01*
X99611722Y-80358061D01*
X99729724Y-80562446D01*
X99729726Y-80562449D01*
X99729727Y-80562450D01*
X99873408Y-80749699D01*
X99873412Y-80749703D01*
X99873417Y-80749709D01*
X100040290Y-80916582D01*
X100040295Y-80916586D01*
X100040301Y-80916592D01*
X100227549Y-81060272D01*
X100227553Y-81060275D01*
X100431938Y-81178277D01*
X100431942Y-81178278D01*
X100431951Y-81178284D01*
X100650007Y-81268606D01*
X100877986Y-81329693D01*
X100877990Y-81329693D01*
X100877992Y-81329694D01*
X100938300Y-81337633D01*
X101111989Y-81360500D01*
X101111996Y-81360500D01*
X101348004Y-81360500D01*
X101348011Y-81360500D01*
X101579257Y-81330056D01*
X101582007Y-81329694D01*
X101582007Y-81329693D01*
X101582014Y-81329693D01*
X101809993Y-81268606D01*
X102028049Y-81178284D01*
X102232450Y-81060273D01*
X102419699Y-80916592D01*
X102476886Y-80859403D01*
X102539198Y-80825379D01*
X102565982Y-80822499D01*
X105277865Y-80822499D01*
X105277872Y-80822499D01*
X105337483Y-80816091D01*
X105472331Y-80765796D01*
X105587546Y-80679546D01*
X105673796Y-80564331D01*
X105724091Y-80429483D01*
X105730500Y-80369873D01*
X105730499Y-78750128D01*
X105724091Y-78690517D01*
X105674498Y-78557550D01*
X105673798Y-78555673D01*
X105673796Y-78555670D01*
X105673796Y-78555669D01*
X105630671Y-78498061D01*
X105587546Y-78440453D01*
X105491572Y-78368608D01*
X105472331Y-78354204D01*
X105472329Y-78354203D01*
X105472326Y-78354201D01*
X105337483Y-78303909D01*
X105337486Y-78303909D01*
X105277878Y-78297500D01*
X105277873Y-78297500D01*
X102565981Y-78297500D01*
X102497860Y-78277498D01*
X102476890Y-78260599D01*
X102419699Y-78203408D01*
X102232450Y-78059727D01*
X102232449Y-78059726D01*
X102232446Y-78059724D01*
X102028061Y-77941722D01*
X102028053Y-77941718D01*
X102028049Y-77941716D01*
X101809993Y-77851394D01*
X101582014Y-77790307D01*
X101582007Y-77790305D01*
X101348013Y-77759500D01*
X101348011Y-77759500D01*
X101111989Y-77759500D01*
X101111986Y-77759500D01*
X100877992Y-77790305D01*
X100685281Y-77841942D01*
X100650007Y-77851394D01*
X100569810Y-77884613D01*
X100431949Y-77941717D01*
X100431938Y-77941722D01*
X100227553Y-78059724D01*
X100040301Y-78203408D01*
X100040290Y-78203417D01*
X99873417Y-78370290D01*
X99873408Y-78370301D01*
X99729724Y-78557553D01*
X99611722Y-78761938D01*
X99611717Y-78761949D01*
X99521394Y-78980007D01*
X99521393Y-78980011D01*
X99460305Y-79207992D01*
X99429500Y-79441986D01*
X89787019Y-79441986D01*
X89770700Y-79398235D01*
X89741698Y-79320473D01*
X89741696Y-79320470D01*
X89741696Y-79320469D01*
X89657496Y-79207992D01*
X89655446Y-79205253D01*
X89578491Y-79147645D01*
X89540231Y-79119004D01*
X89540229Y-79119003D01*
X89540226Y-79119001D01*
X89405383Y-79068709D01*
X89405386Y-79068709D01*
X89345773Y-79062300D01*
X87726035Y-79062300D01*
X87726014Y-79062302D01*
X87666419Y-79068708D01*
X87666418Y-79068708D01*
X87531573Y-79119001D01*
X87531570Y-79119003D01*
X87416353Y-79205253D01*
X87330103Y-79320470D01*
X87330101Y-79320473D01*
X87279809Y-79455315D01*
X87273400Y-79514921D01*
X87273400Y-82526817D01*
X87253398Y-82594938D01*
X87236497Y-82615911D01*
X87179306Y-82673103D01*
X87035624Y-82860353D01*
X86917622Y-83064738D01*
X86917617Y-83064749D01*
X86827294Y-83282807D01*
X86827293Y-83282811D01*
X86766205Y-83510792D01*
X86735400Y-83744786D01*
X40525722Y-83744786D01*
X40525713Y-83740949D01*
X40506480Y-75241908D01*
X86109500Y-75241908D01*
X86109500Y-75478092D01*
X86146447Y-75711368D01*
X86219432Y-75935992D01*
X86326657Y-76146433D01*
X86326659Y-76146436D01*
X86465484Y-76337512D01*
X86632487Y-76504515D01*
X86632980Y-76504873D01*
X86823567Y-76643343D01*
X87034008Y-76750568D01*
X87258632Y-76823553D01*
X87491908Y-76860500D01*
X87491911Y-76860500D01*
X87728089Y-76860500D01*
X87728092Y-76860500D01*
X87961368Y-76823553D01*
X88185992Y-76750568D01*
X88396433Y-76643343D01*
X88587510Y-76504517D01*
X88754517Y-76337510D01*
X88893343Y-76146433D01*
X89000568Y-75935992D01*
X89073553Y-75711368D01*
X89110500Y-75478092D01*
X89110500Y-75241908D01*
X89073553Y-75008632D01*
X89000568Y-74784008D01*
X88893343Y-74573567D01*
X88845709Y-74508005D01*
X88754515Y-74382487D01*
X88587512Y-74215484D01*
X88396436Y-74076659D01*
X88396435Y-74076658D01*
X88396433Y-74076657D01*
X88185992Y-73969432D01*
X87961368Y-73896447D01*
X87728092Y-73859500D01*
X87491908Y-73859500D01*
X87258632Y-73896447D01*
X87258629Y-73896447D01*
X87258628Y-73896448D01*
X87034008Y-73969432D01*
X87034006Y-73969433D01*
X86823563Y-74076659D01*
X86632487Y-74215484D01*
X86465484Y-74382487D01*
X86326659Y-74573563D01*
X86219433Y-74784006D01*
X86219432Y-74784008D01*
X86152447Y-74990167D01*
X86146447Y-75008632D01*
X86109500Y-75241908D01*
X40506480Y-75241908D01*
X40506469Y-75237242D01*
X40498016Y-71501908D01*
X73379500Y-71501908D01*
X73379500Y-71738092D01*
X73416447Y-71971368D01*
X73489432Y-72195992D01*
X73577436Y-72368709D01*
X73596659Y-72406436D01*
X73735484Y-72597512D01*
X73902487Y-72764515D01*
X73971884Y-72814935D01*
X74093567Y-72903343D01*
X74304008Y-73010568D01*
X74528632Y-73083553D01*
X74761908Y-73120500D01*
X74761911Y-73120500D01*
X74998089Y-73120500D01*
X74998092Y-73120500D01*
X75231368Y-73083553D01*
X75455992Y-73010568D01*
X75666433Y-72903343D01*
X75857510Y-72764517D01*
X76024517Y-72597510D01*
X76163343Y-72406433D01*
X76270568Y-72195992D01*
X76343553Y-71971368D01*
X76380500Y-71738092D01*
X76380500Y-71501908D01*
X76343553Y-71268632D01*
X76270568Y-71044008D01*
X76213450Y-70931908D01*
X94629500Y-70931908D01*
X94629500Y-71168092D01*
X94666447Y-71401368D01*
X94739432Y-71625992D01*
X94796548Y-71738088D01*
X94846659Y-71836436D01*
X94985484Y-72027512D01*
X95152487Y-72194515D01*
X95185318Y-72218368D01*
X95343567Y-72333343D01*
X95554008Y-72440568D01*
X95554017Y-72440571D01*
X95558427Y-72442398D01*
X95613709Y-72486945D01*
X95636132Y-72554308D01*
X95622556Y-72611764D01*
X95623253Y-72612024D01*
X95621185Y-72617568D01*
X95620802Y-72619190D01*
X95620102Y-72620471D01*
X95569809Y-72755315D01*
X95563400Y-72814921D01*
X95563400Y-75826817D01*
X95543398Y-75894938D01*
X95526497Y-75915911D01*
X95469306Y-75973103D01*
X95325624Y-76160353D01*
X95207622Y-76364738D01*
X95207617Y-76364749D01*
X95117294Y-76582807D01*
X95117293Y-76582811D01*
X95056205Y-76810792D01*
X95025400Y-77044786D01*
X95025400Y-77280813D01*
X95056205Y-77514807D01*
X95056207Y-77514814D01*
X95117294Y-77742793D01*
X95207616Y-77960849D01*
X95207617Y-77960850D01*
X95207622Y-77960861D01*
X95325624Y-78165246D01*
X95325626Y-78165249D01*
X95325627Y-78165250D01*
X95469308Y-78352499D01*
X95469312Y-78352503D01*
X95469317Y-78352509D01*
X95636190Y-78519382D01*
X95636195Y-78519386D01*
X95636201Y-78519392D01*
X95820097Y-78660500D01*
X95823453Y-78663075D01*
X96027838Y-78781077D01*
X96027842Y-78781078D01*
X96027851Y-78781084D01*
X96245907Y-78871406D01*
X96473886Y-78932493D01*
X96473890Y-78932493D01*
X96473892Y-78932494D01*
X96534200Y-78940433D01*
X96707889Y-78963300D01*
X96707896Y-78963300D01*
X96943904Y-78963300D01*
X96943911Y-78963300D01*
X97155391Y-78935458D01*
X97177907Y-78932494D01*
X97177907Y-78932493D01*
X97177914Y-78932493D01*
X97405893Y-78871406D01*
X97623949Y-78781084D01*
X97828350Y-78663073D01*
X98015599Y-78519392D01*
X98182492Y-78352499D01*
X98326173Y-78165250D01*
X98444184Y-77960849D01*
X98534506Y-77742793D01*
X98595593Y-77514814D01*
X98626400Y-77280811D01*
X98626400Y-77044789D01*
X98595593Y-76810786D01*
X98534506Y-76582807D01*
X98444184Y-76364751D01*
X98444178Y-76364742D01*
X98444177Y-76364738D01*
X98326175Y-76160353D01*
X98306030Y-76134099D01*
X98182492Y-75973101D01*
X98182486Y-75973095D01*
X98182482Y-75973090D01*
X98125304Y-75915912D01*
X98091278Y-75853600D01*
X98088399Y-75826817D01*
X98088399Y-72814935D01*
X98088399Y-72814928D01*
X98081991Y-72755317D01*
X98060700Y-72698235D01*
X98031698Y-72620473D01*
X98031696Y-72620470D01*
X98031696Y-72620469D01*
X97982168Y-72554308D01*
X97945446Y-72505253D01*
X97859037Y-72440568D01*
X97830231Y-72419004D01*
X97830229Y-72419003D01*
X97830226Y-72419001D01*
X97695383Y-72368709D01*
X97695386Y-72368709D01*
X97635778Y-72362300D01*
X97635773Y-72362300D01*
X97243918Y-72362300D01*
X97175797Y-72342298D01*
X97129304Y-72288642D01*
X97119200Y-72218368D01*
X97148694Y-72153788D01*
X97154823Y-72147205D01*
X97274512Y-72027515D01*
X97274515Y-72027512D01*
X97274517Y-72027510D01*
X97363335Y-71905263D01*
X102259500Y-71905263D01*
X102259500Y-72134736D01*
X102289450Y-72362231D01*
X102291186Y-72368709D01*
X102348842Y-72583887D01*
X102436656Y-72795888D01*
X102436657Y-72795889D01*
X102436662Y-72795900D01*
X102551386Y-72994608D01*
X102551391Y-72994615D01*
X102691073Y-73176652D01*
X102691092Y-73176673D01*
X102853326Y-73338907D01*
X102853347Y-73338926D01*
X103035384Y-73478608D01*
X103035391Y-73478613D01*
X103234099Y-73593337D01*
X103234103Y-73593338D01*
X103234112Y-73593344D01*
X103446113Y-73681158D01*
X103667762Y-73740548D01*
X103667766Y-73740548D01*
X103667768Y-73740549D01*
X103726398Y-73748267D01*
X103895266Y-73770500D01*
X103895273Y-73770500D01*
X104124727Y-73770500D01*
X104124734Y-73770500D01*
X104330345Y-73743430D01*
X104352231Y-73740549D01*
X104352231Y-73740548D01*
X104352238Y-73740548D01*
X104573887Y-73681158D01*
X104785888Y-73593344D01*
X104984612Y-73478611D01*
X105166661Y-73338919D01*
X105328919Y-73176661D01*
X105468611Y-72994612D01*
X105583344Y-72795888D01*
X105671158Y-72583887D01*
X105730548Y-72362238D01*
X105760500Y-72134734D01*
X105760500Y-71905266D01*
X105730548Y-71677762D01*
X105671158Y-71456113D01*
X105583344Y-71244112D01*
X105583338Y-71244103D01*
X105583337Y-71244099D01*
X105468613Y-71045391D01*
X105468608Y-71045384D01*
X105328926Y-70863347D01*
X105328907Y-70863326D01*
X105166673Y-70701092D01*
X105166652Y-70701073D01*
X104984615Y-70561391D01*
X104984608Y-70561386D01*
X104785900Y-70446662D01*
X104785892Y-70446658D01*
X104785888Y-70446656D01*
X104573887Y-70358842D01*
X104352238Y-70299452D01*
X104352231Y-70299450D01*
X104124736Y-70269500D01*
X104124734Y-70269500D01*
X103895266Y-70269500D01*
X103895263Y-70269500D01*
X103667768Y-70299450D01*
X103446113Y-70358842D01*
X103234110Y-70446657D01*
X103234099Y-70446662D01*
X103035391Y-70561386D01*
X103035384Y-70561391D01*
X102853347Y-70701073D01*
X102853326Y-70701092D01*
X102691092Y-70863326D01*
X102691073Y-70863347D01*
X102551391Y-71045384D01*
X102551386Y-71045391D01*
X102436662Y-71244099D01*
X102436657Y-71244110D01*
X102436656Y-71244112D01*
X102371518Y-71401368D01*
X102348842Y-71456113D01*
X102289450Y-71677768D01*
X102259500Y-71905263D01*
X97363335Y-71905263D01*
X97413343Y-71836433D01*
X97520568Y-71625992D01*
X97593553Y-71401368D01*
X97630500Y-71168092D01*
X97630500Y-70931908D01*
X97593553Y-70698632D01*
X97520568Y-70474008D01*
X97413343Y-70263567D01*
X97274517Y-70072490D01*
X97274513Y-70072486D01*
X97274511Y-70072483D01*
X97223483Y-70021455D01*
X112769500Y-70021455D01*
X112769500Y-80308544D01*
X112793557Y-80429483D01*
X112807949Y-80501835D01*
X112883368Y-80683914D01*
X112992861Y-80847782D01*
X113076465Y-80931386D01*
X113139400Y-80994321D01*
X113139407Y-80994327D01*
X119211176Y-87066097D01*
X119245202Y-87128409D01*
X119240137Y-87199224D01*
X119238490Y-87203409D01*
X119194362Y-87309945D01*
X119194361Y-87309948D01*
X119182748Y-87353290D01*
X119118005Y-87594914D01*
X119079500Y-87887391D01*
X119079500Y-88182408D01*
X119118005Y-88474885D01*
X119118006Y-88474891D01*
X119118007Y-88474893D01*
X119194361Y-88759852D01*
X119307257Y-89032407D01*
X119307258Y-89032408D01*
X119307263Y-89032419D01*
X119454759Y-89287890D01*
X119454764Y-89287897D01*
X119634346Y-89521933D01*
X119634365Y-89521954D01*
X119842945Y-89730534D01*
X119842966Y-89730553D01*
X120077002Y-89910135D01*
X120077009Y-89910140D01*
X120332480Y-90057636D01*
X120332484Y-90057637D01*
X120332493Y-90057643D01*
X120605048Y-90170539D01*
X120890007Y-90246893D01*
X120890013Y-90246893D01*
X120890014Y-90246894D01*
X120923574Y-90251312D01*
X121182494Y-90285400D01*
X121182501Y-90285400D01*
X121477499Y-90285400D01*
X121477506Y-90285400D01*
X121769993Y-90246893D01*
X122054952Y-90170539D01*
X122327507Y-90057643D01*
X122582994Y-89910138D01*
X122817042Y-89730546D01*
X123025646Y-89521942D01*
X123205238Y-89287894D01*
X123352743Y-89032407D01*
X123465639Y-88759852D01*
X123541993Y-88474893D01*
X123580500Y-88182406D01*
X123580500Y-87932548D01*
X125229500Y-87932548D01*
X125229500Y-88137252D01*
X125261523Y-88339434D01*
X125261524Y-88339438D01*
X125305533Y-88474885D01*
X125324780Y-88534119D01*
X125404638Y-88690849D01*
X125417714Y-88716512D01*
X125538034Y-88882120D01*
X125682779Y-89026865D01*
X125848387Y-89147185D01*
X125848390Y-89147187D01*
X126030781Y-89240120D01*
X126225466Y-89303377D01*
X126427648Y-89335400D01*
X126427651Y-89335400D01*
X127532349Y-89335400D01*
X127532352Y-89335400D01*
X127734534Y-89303377D01*
X127929219Y-89240120D01*
X128111610Y-89147187D01*
X128277219Y-89026866D01*
X128421966Y-88882119D01*
X128542287Y-88716510D01*
X128635220Y-88534119D01*
X128698477Y-88339434D01*
X128730500Y-88137252D01*
X128730500Y-87932548D01*
X128698477Y-87730366D01*
X128635220Y-87535681D01*
X128542287Y-87353290D01*
X128512875Y-87312807D01*
X128421965Y-87187679D01*
X128277220Y-87042934D01*
X128111612Y-86922614D01*
X128037474Y-86884839D01*
X127929219Y-86829680D01*
X127929216Y-86829679D01*
X127929214Y-86829678D01*
X127734538Y-86766424D01*
X127734536Y-86766423D01*
X127734534Y-86766423D01*
X127601469Y-86745347D01*
X127537318Y-86714935D01*
X127499791Y-86654667D01*
X127500805Y-86583678D01*
X127540038Y-86524506D01*
X127605033Y-86495938D01*
X127621182Y-86494899D01*
X128034195Y-86494899D01*
X128034209Y-86494898D01*
X128064606Y-86492048D01*
X128064609Y-86492047D01*
X128192644Y-86447246D01*
X128192645Y-86447246D01*
X128301792Y-86366692D01*
X128382346Y-86257545D01*
X128382346Y-86257544D01*
X128427147Y-86129510D01*
X128427148Y-86129505D01*
X128429999Y-86099105D01*
X128430000Y-86099099D01*
X128430000Y-85744900D01*
X127349504Y-85744900D01*
X127394674Y-85666664D01*
X127425000Y-85553485D01*
X127425000Y-85436315D01*
X127394674Y-85323136D01*
X127349504Y-85244900D01*
X128429999Y-85244900D01*
X128429999Y-84890705D01*
X128429998Y-84890690D01*
X128427148Y-84860293D01*
X128427147Y-84860290D01*
X128382346Y-84732255D01*
X128382346Y-84732254D01*
X128301792Y-84623107D01*
X128205189Y-84551811D01*
X128192645Y-84542553D01*
X128064610Y-84497752D01*
X128064605Y-84497751D01*
X128034205Y-84494900D01*
X127230000Y-84494900D01*
X127230000Y-85125395D01*
X127151764Y-85080226D01*
X127038585Y-85049900D01*
X126921415Y-85049900D01*
X126808236Y-85080226D01*
X126730000Y-85125395D01*
X126730000Y-84494900D01*
X125925805Y-84494900D01*
X125925790Y-84494901D01*
X125895393Y-84497751D01*
X125895390Y-84497752D01*
X125767355Y-84542553D01*
X125767354Y-84542553D01*
X125658207Y-84623107D01*
X125577653Y-84732254D01*
X125577653Y-84732255D01*
X125532852Y-84860289D01*
X125532851Y-84860294D01*
X125530000Y-84890694D01*
X125530000Y-85244900D01*
X126610496Y-85244900D01*
X126565326Y-85323136D01*
X126535000Y-85436315D01*
X126535000Y-85553485D01*
X126565326Y-85666664D01*
X126610496Y-85744900D01*
X125530001Y-85744900D01*
X125530001Y-86099109D01*
X125532851Y-86129506D01*
X125532852Y-86129509D01*
X125577653Y-86257544D01*
X125577653Y-86257545D01*
X125658207Y-86366692D01*
X125767354Y-86447246D01*
X125895389Y-86492047D01*
X125895394Y-86492048D01*
X125925797Y-86494899D01*
X126338813Y-86494899D01*
X126406933Y-86514901D01*
X126453427Y-86568556D01*
X126463531Y-86638830D01*
X126434038Y-86703411D01*
X126374312Y-86741795D01*
X126358525Y-86745348D01*
X126225460Y-86766424D01*
X126030785Y-86829678D01*
X126030779Y-86829681D01*
X125848387Y-86922614D01*
X125682779Y-87042934D01*
X125538034Y-87187679D01*
X125417714Y-87353287D01*
X125324781Y-87535679D01*
X125324778Y-87535685D01*
X125261524Y-87730361D01*
X125261523Y-87730364D01*
X125261523Y-87730366D01*
X125229500Y-87932548D01*
X123580500Y-87932548D01*
X123580500Y-87887394D01*
X123541993Y-87594907D01*
X123465639Y-87309948D01*
X123352743Y-87037393D01*
X123352737Y-87037384D01*
X123352736Y-87037380D01*
X123205240Y-86781909D01*
X123205235Y-86781902D01*
X123025653Y-86547866D01*
X123025634Y-86547845D01*
X122817054Y-86339265D01*
X122817033Y-86339246D01*
X122582997Y-86159664D01*
X122582990Y-86159659D01*
X122327519Y-86012163D01*
X122327511Y-86012159D01*
X122327507Y-86012157D01*
X122054952Y-85899261D01*
X121769993Y-85822907D01*
X121769991Y-85822906D01*
X121769985Y-85822905D01*
X121477508Y-85784400D01*
X121477506Y-85784400D01*
X121182494Y-85784400D01*
X121182491Y-85784400D01*
X120890019Y-85822904D01*
X120890003Y-85822908D01*
X120887562Y-85823562D01*
X120886808Y-85823543D01*
X120885974Y-85823710D01*
X120885936Y-85823523D01*
X120816586Y-85821865D01*
X120765868Y-85790947D01*
X117250184Y-82275263D01*
X125099500Y-82275263D01*
X125099500Y-82504736D01*
X125129450Y-82732231D01*
X125129451Y-82732233D01*
X125129452Y-82732238D01*
X125188842Y-82953887D01*
X125276656Y-83165888D01*
X125276657Y-83165889D01*
X125276662Y-83165900D01*
X125391386Y-83364608D01*
X125391391Y-83364615D01*
X125531073Y-83546652D01*
X125531092Y-83546673D01*
X125693326Y-83708907D01*
X125693347Y-83708926D01*
X125875384Y-83848608D01*
X125875391Y-83848613D01*
X126074099Y-83963337D01*
X126074103Y-83963338D01*
X126074112Y-83963344D01*
X126286113Y-84051158D01*
X126507762Y-84110548D01*
X126507766Y-84110548D01*
X126507768Y-84110549D01*
X126566398Y-84118267D01*
X126735266Y-84140500D01*
X126735273Y-84140500D01*
X126964727Y-84140500D01*
X126964734Y-84140500D01*
X127170345Y-84113430D01*
X127192231Y-84110549D01*
X127192231Y-84110548D01*
X127192238Y-84110548D01*
X127413887Y-84051158D01*
X127625888Y-83963344D01*
X127824612Y-83848611D01*
X128006661Y-83708919D01*
X128168919Y-83546661D01*
X128308611Y-83364612D01*
X128423344Y-83165888D01*
X128511158Y-82953887D01*
X128545134Y-82827087D01*
X130110000Y-82827087D01*
X130110000Y-83082712D01*
X130143363Y-83336135D01*
X130209524Y-83583051D01*
X130307349Y-83819219D01*
X130307352Y-83819225D01*
X130435152Y-84040582D01*
X130435156Y-84040588D01*
X130515739Y-84145605D01*
X130515740Y-84145606D01*
X131193821Y-83467525D01*
X131279365Y-83595550D01*
X131419350Y-83735535D01*
X131547373Y-83821077D01*
X130869292Y-84499158D01*
X130869293Y-84499159D01*
X130974311Y-84579743D01*
X130974317Y-84579747D01*
X131195674Y-84707547D01*
X131195680Y-84707550D01*
X131431848Y-84805375D01*
X131678764Y-84871536D01*
X131932187Y-84904899D01*
X131932197Y-84904900D01*
X132187803Y-84904900D01*
X132187812Y-84904899D01*
X132441235Y-84871536D01*
X132688151Y-84805375D01*
X132924319Y-84707550D01*
X132924325Y-84707547D01*
X133145682Y-84579747D01*
X133145688Y-84579743D01*
X133250706Y-84499159D01*
X133250706Y-84499158D01*
X132572625Y-83821077D01*
X132700650Y-83735535D01*
X132840635Y-83595550D01*
X132926177Y-83467525D01*
X133604258Y-84145606D01*
X133604259Y-84145606D01*
X133684843Y-84040588D01*
X133684847Y-84040582D01*
X133812647Y-83819225D01*
X133812650Y-83819219D01*
X133910475Y-83583051D01*
X133976636Y-83336135D01*
X134009999Y-83082712D01*
X134010000Y-83082703D01*
X134010000Y-82827097D01*
X134009999Y-82827087D01*
X133976636Y-82573665D01*
X133917711Y-82353752D01*
X133917711Y-82353751D01*
X133910476Y-82326750D01*
X133909860Y-82325263D01*
X134369500Y-82325263D01*
X134369500Y-82554736D01*
X134399450Y-82782231D01*
X134399452Y-82782238D01*
X134458842Y-83003887D01*
X134546656Y-83215888D01*
X134546657Y-83215889D01*
X134546662Y-83215900D01*
X134661386Y-83414608D01*
X134661391Y-83414615D01*
X134801073Y-83596652D01*
X134801092Y-83596673D01*
X134963326Y-83758907D01*
X134963347Y-83758926D01*
X135145384Y-83898608D01*
X135145391Y-83898613D01*
X135344099Y-84013337D01*
X135344103Y-84013338D01*
X135344112Y-84013344D01*
X135556113Y-84101158D01*
X135777762Y-84160548D01*
X135777766Y-84160548D01*
X135777768Y-84160549D01*
X135836398Y-84168267D01*
X136005266Y-84190500D01*
X136005273Y-84190500D01*
X136234727Y-84190500D01*
X136234734Y-84190500D01*
X136440345Y-84163430D01*
X136462231Y-84160549D01*
X136462231Y-84160548D01*
X136462238Y-84160548D01*
X136683887Y-84101158D01*
X136895888Y-84013344D01*
X137094612Y-83898611D01*
X137276661Y-83758919D01*
X137438919Y-83596661D01*
X137578611Y-83414612D01*
X137693344Y-83215888D01*
X137781158Y-83003887D01*
X137840548Y-82782238D01*
X137870500Y-82554734D01*
X137870500Y-82325266D01*
X137840548Y-82097762D01*
X137781158Y-81876113D01*
X137693344Y-81664112D01*
X137693338Y-81664103D01*
X137693337Y-81664099D01*
X137578613Y-81465391D01*
X137578608Y-81465384D01*
X137438926Y-81283347D01*
X137438907Y-81283326D01*
X137276673Y-81121092D01*
X137276652Y-81121073D01*
X137094615Y-80981391D01*
X137094608Y-80981386D01*
X136895900Y-80866662D01*
X136895892Y-80866658D01*
X136895888Y-80866656D01*
X136683887Y-80778842D01*
X136532501Y-80738278D01*
X136462231Y-80719450D01*
X136234736Y-80689500D01*
X136234734Y-80689500D01*
X136005266Y-80689500D01*
X136005263Y-80689500D01*
X135777768Y-80719450D01*
X135556113Y-80778842D01*
X135344110Y-80866657D01*
X135344099Y-80866662D01*
X135145391Y-80981386D01*
X135145384Y-80981391D01*
X134963347Y-81121073D01*
X134963326Y-81121092D01*
X134801092Y-81283326D01*
X134801073Y-81283347D01*
X134661391Y-81465384D01*
X134661386Y-81465391D01*
X134546662Y-81664099D01*
X134546657Y-81664110D01*
X134458842Y-81876113D01*
X134399450Y-82097768D01*
X134369500Y-82325263D01*
X133909860Y-82325263D01*
X133812650Y-82090580D01*
X133812647Y-82090574D01*
X133684847Y-81869217D01*
X133684843Y-81869211D01*
X133604259Y-81764193D01*
X133604258Y-81764192D01*
X132926177Y-82442273D01*
X132840635Y-82314250D01*
X132700650Y-82174265D01*
X132572625Y-82088721D01*
X133250706Y-81410640D01*
X133250705Y-81410639D01*
X133145688Y-81330056D01*
X133145682Y-81330052D01*
X132924325Y-81202252D01*
X132924319Y-81202249D01*
X132688151Y-81104424D01*
X132441235Y-81038263D01*
X132187812Y-81004900D01*
X131932187Y-81004900D01*
X131678764Y-81038263D01*
X131431848Y-81104424D01*
X131195680Y-81202249D01*
X131195674Y-81202252D01*
X130974317Y-81330052D01*
X130869292Y-81410640D01*
X131547374Y-82088721D01*
X131419350Y-82174265D01*
X131279365Y-82314250D01*
X131193822Y-82442274D01*
X130515740Y-81764192D01*
X130435152Y-81869217D01*
X130307352Y-82090574D01*
X130307349Y-82090580D01*
X130209524Y-82326748D01*
X130143363Y-82573664D01*
X130110000Y-82827087D01*
X128545134Y-82827087D01*
X128570548Y-82732238D01*
X128600500Y-82504734D01*
X128600500Y-82275266D01*
X128570548Y-82047762D01*
X128511158Y-81826113D01*
X128423344Y-81614112D01*
X128423338Y-81614103D01*
X128423337Y-81614099D01*
X128370376Y-81522367D01*
X128308613Y-81415391D01*
X128308608Y-81415384D01*
X128168926Y-81233347D01*
X128168907Y-81233326D01*
X128006673Y-81071092D01*
X128006652Y-81071073D01*
X127824615Y-80931391D01*
X127824608Y-80931386D01*
X127625900Y-80816662D01*
X127625892Y-80816658D01*
X127625888Y-80816656D01*
X127413887Y-80728842D01*
X127192238Y-80669452D01*
X127192231Y-80669450D01*
X126964736Y-80639500D01*
X126964734Y-80639500D01*
X126735266Y-80639500D01*
X126735263Y-80639500D01*
X126507768Y-80669450D01*
X126321165Y-80719450D01*
X126286113Y-80728842D01*
X126196899Y-80765796D01*
X126074110Y-80816657D01*
X126074099Y-80816662D01*
X125875391Y-80931386D01*
X125875384Y-80931391D01*
X125693347Y-81071073D01*
X125693326Y-81071092D01*
X125531092Y-81233326D01*
X125531073Y-81233347D01*
X125391391Y-81415384D01*
X125391386Y-81415391D01*
X125276662Y-81614099D01*
X125276657Y-81614110D01*
X125188842Y-81826113D01*
X125129450Y-82047768D01*
X125099500Y-82275263D01*
X117250184Y-82275263D01*
X114807405Y-79832484D01*
X114773379Y-79770172D01*
X114770500Y-79743389D01*
X114770500Y-76795263D01*
X126909500Y-76795263D01*
X126909500Y-77024736D01*
X126939450Y-77252231D01*
X126958278Y-77322501D01*
X126998842Y-77473887D01*
X127086656Y-77685888D01*
X127086657Y-77685889D01*
X127086662Y-77685900D01*
X127201386Y-77884608D01*
X127201391Y-77884615D01*
X127341073Y-78066652D01*
X127341092Y-78066673D01*
X127503326Y-78228907D01*
X127503347Y-78228926D01*
X127685384Y-78368608D01*
X127685391Y-78368613D01*
X127884099Y-78483337D01*
X127884103Y-78483338D01*
X127884112Y-78483344D01*
X128096113Y-78571158D01*
X128317762Y-78630548D01*
X128317766Y-78630548D01*
X128317768Y-78630549D01*
X128376398Y-78638267D01*
X128545266Y-78660500D01*
X128545273Y-78660500D01*
X128774727Y-78660500D01*
X128774734Y-78660500D01*
X128980345Y-78633430D01*
X129002231Y-78630549D01*
X129002231Y-78630548D01*
X129002238Y-78630548D01*
X129223887Y-78571158D01*
X129435888Y-78483344D01*
X129634612Y-78368611D01*
X129816661Y-78228919D01*
X129978919Y-78066661D01*
X130066617Y-77952372D01*
X133331838Y-77952372D01*
X133331838Y-77952374D01*
X133365116Y-77968400D01*
X133365144Y-77968411D01*
X133651359Y-78068563D01*
X133947016Y-78136045D01*
X134248369Y-78170000D01*
X134551631Y-78170000D01*
X134852983Y-78136045D01*
X135148640Y-78068563D01*
X135434872Y-77968405D01*
X135434873Y-77968405D01*
X135468160Y-77952374D01*
X135468161Y-77952373D01*
X134400001Y-76884213D01*
X134399999Y-76884213D01*
X133331838Y-77952372D01*
X130066617Y-77952372D01*
X130118611Y-77884612D01*
X130233344Y-77685888D01*
X130321158Y-77473887D01*
X130380548Y-77252238D01*
X130410500Y-77024734D01*
X130410500Y-76795266D01*
X130380548Y-76567762D01*
X130321158Y-76346113D01*
X130233344Y-76134112D01*
X130233338Y-76134103D01*
X130233337Y-76134099D01*
X130118613Y-75935391D01*
X130118608Y-75935384D01*
X129978926Y-75753347D01*
X129978907Y-75753326D01*
X129816673Y-75591092D01*
X129816652Y-75591073D01*
X129634615Y-75451391D01*
X129634608Y-75451386D01*
X129587095Y-75423955D01*
X129435900Y-75336662D01*
X129435892Y-75336658D01*
X129435888Y-75336656D01*
X129391739Y-75318369D01*
X131700000Y-75318369D01*
X131700000Y-75621630D01*
X131733954Y-75922983D01*
X131801437Y-76218640D01*
X131801436Y-76218640D01*
X131901593Y-76504869D01*
X131917625Y-76538161D01*
X132985786Y-75470001D01*
X132985786Y-75469998D01*
X132887411Y-75371623D01*
X133150000Y-75371623D01*
X133150000Y-75568377D01*
X133180779Y-75762709D01*
X133241580Y-75949833D01*
X133330904Y-76125143D01*
X133446554Y-76284320D01*
X133585680Y-76423446D01*
X133744857Y-76539096D01*
X133920167Y-76628420D01*
X134107291Y-76689221D01*
X134301623Y-76720000D01*
X134498377Y-76720000D01*
X134692709Y-76689221D01*
X134879833Y-76628420D01*
X135055143Y-76539096D01*
X135214320Y-76423446D01*
X135353446Y-76284320D01*
X135469096Y-76125143D01*
X135558420Y-75949833D01*
X135619221Y-75762709D01*
X135650000Y-75568377D01*
X135650000Y-75469998D01*
X135814213Y-75469998D01*
X135814213Y-75470001D01*
X136882373Y-76538161D01*
X136882374Y-76538160D01*
X136898405Y-76504873D01*
X136898405Y-76504872D01*
X136998563Y-76218640D01*
X137066045Y-75922983D01*
X137100000Y-75621630D01*
X137100000Y-75318369D01*
X137066045Y-75017016D01*
X136998562Y-74721359D01*
X136998563Y-74721359D01*
X136898411Y-74435144D01*
X136898400Y-74435116D01*
X136882374Y-74401838D01*
X136882372Y-74401838D01*
X135814213Y-75469998D01*
X135650000Y-75469998D01*
X135650000Y-75371623D01*
X135619221Y-75177291D01*
X135558420Y-74990167D01*
X135469096Y-74814857D01*
X135353446Y-74655680D01*
X135214320Y-74516554D01*
X135055143Y-74400904D01*
X134879833Y-74311580D01*
X134692709Y-74250779D01*
X134498377Y-74220000D01*
X134301623Y-74220000D01*
X134107291Y-74250779D01*
X133920167Y-74311580D01*
X133744857Y-74400904D01*
X133585680Y-74516554D01*
X133446554Y-74655680D01*
X133330904Y-74814857D01*
X133241580Y-74990167D01*
X133180779Y-75177291D01*
X133150000Y-75371623D01*
X132887411Y-75371623D01*
X131917625Y-74401837D01*
X131901593Y-74435131D01*
X131801436Y-74721359D01*
X131733954Y-75017016D01*
X131700000Y-75318369D01*
X129391739Y-75318369D01*
X129223887Y-75248842D01*
X129002238Y-75189452D01*
X129002231Y-75189450D01*
X128774736Y-75159500D01*
X128774734Y-75159500D01*
X128545266Y-75159500D01*
X128545263Y-75159500D01*
X128317768Y-75189450D01*
X128096113Y-75248842D01*
X127884110Y-75336657D01*
X127884099Y-75336662D01*
X127685391Y-75451386D01*
X127685384Y-75451391D01*
X127503347Y-75591073D01*
X127503326Y-75591092D01*
X127341092Y-75753326D01*
X127341073Y-75753347D01*
X127201391Y-75935384D01*
X127201386Y-75935391D01*
X127086662Y-76134099D01*
X127086657Y-76134110D01*
X127086656Y-76134112D01*
X127081551Y-76146436D01*
X126998842Y-76346113D01*
X126939450Y-76567768D01*
X126909500Y-76795263D01*
X114770500Y-76795263D01*
X114770500Y-71905263D01*
X116299500Y-71905263D01*
X116299500Y-72134736D01*
X116329450Y-72362231D01*
X116331186Y-72368709D01*
X116388842Y-72583887D01*
X116476656Y-72795888D01*
X116476657Y-72795889D01*
X116476662Y-72795900D01*
X116591386Y-72994608D01*
X116591391Y-72994615D01*
X116731073Y-73176652D01*
X116731092Y-73176673D01*
X116893326Y-73338907D01*
X116893347Y-73338926D01*
X117075384Y-73478608D01*
X117075391Y-73478613D01*
X117274099Y-73593337D01*
X117274103Y-73593338D01*
X117274112Y-73593344D01*
X117486113Y-73681158D01*
X117707762Y-73740548D01*
X117707766Y-73740548D01*
X117707768Y-73740549D01*
X117766398Y-73748267D01*
X117935266Y-73770500D01*
X117935273Y-73770500D01*
X118164727Y-73770500D01*
X118164734Y-73770500D01*
X118370345Y-73743430D01*
X118392231Y-73740549D01*
X118392231Y-73740548D01*
X118392238Y-73740548D01*
X118613887Y-73681158D01*
X118825888Y-73593344D01*
X119024612Y-73478611D01*
X119206661Y-73338919D01*
X119368919Y-73176661D01*
X119508611Y-72994612D01*
X119512645Y-72987625D01*
X133331837Y-72987625D01*
X134399999Y-74055786D01*
X134400001Y-74055786D01*
X135468161Y-72987625D01*
X135434869Y-72971593D01*
X135148640Y-72871436D01*
X134852983Y-72803954D01*
X134551631Y-72770000D01*
X134248369Y-72770000D01*
X133947016Y-72803954D01*
X133651359Y-72871436D01*
X133365131Y-72971593D01*
X133331837Y-72987625D01*
X119512645Y-72987625D01*
X119623344Y-72795888D01*
X119711158Y-72583887D01*
X119770548Y-72362238D01*
X119800500Y-72134734D01*
X119800500Y-71905266D01*
X119770548Y-71677762D01*
X119711158Y-71456113D01*
X119623344Y-71244112D01*
X119623338Y-71244103D01*
X119623337Y-71244099D01*
X119508613Y-71045391D01*
X119508608Y-71045384D01*
X119368926Y-70863347D01*
X119368907Y-70863326D01*
X119206673Y-70701092D01*
X119206652Y-70701073D01*
X119024615Y-70561391D01*
X119024608Y-70561386D01*
X118825900Y-70446662D01*
X118825892Y-70446658D01*
X118825888Y-70446656D01*
X118613887Y-70358842D01*
X118392238Y-70299452D01*
X118392231Y-70299450D01*
X118164736Y-70269500D01*
X118164734Y-70269500D01*
X117935266Y-70269500D01*
X117935263Y-70269500D01*
X117707768Y-70299450D01*
X117486113Y-70358842D01*
X117274110Y-70446657D01*
X117274099Y-70446662D01*
X117075391Y-70561386D01*
X117075384Y-70561391D01*
X116893347Y-70701073D01*
X116893326Y-70701092D01*
X116731092Y-70863326D01*
X116731073Y-70863347D01*
X116591391Y-71045384D01*
X116591386Y-71045391D01*
X116476662Y-71244099D01*
X116476657Y-71244110D01*
X116476656Y-71244112D01*
X116411518Y-71401368D01*
X116388842Y-71456113D01*
X116329450Y-71677768D01*
X116299500Y-71905263D01*
X114770500Y-71905263D01*
X114770500Y-70586610D01*
X114790502Y-70518489D01*
X114807405Y-70497515D01*
X116541583Y-68763337D01*
X118229657Y-67075263D01*
X121219500Y-67075263D01*
X121219500Y-67304736D01*
X121249450Y-67532231D01*
X121249452Y-67532238D01*
X121308842Y-67753887D01*
X121396656Y-67965888D01*
X121396657Y-67965889D01*
X121396662Y-67965900D01*
X121511386Y-68164608D01*
X121511391Y-68164615D01*
X121651073Y-68346652D01*
X121651092Y-68346673D01*
X121813326Y-68508907D01*
X121813347Y-68508926D01*
X121995384Y-68648608D01*
X121995391Y-68648613D01*
X122194099Y-68763337D01*
X122194103Y-68763338D01*
X122194112Y-68763344D01*
X122406113Y-68851158D01*
X122627762Y-68910548D01*
X122627766Y-68910548D01*
X122627768Y-68910549D01*
X122686398Y-68918267D01*
X122855266Y-68940500D01*
X122855273Y-68940500D01*
X123084727Y-68940500D01*
X123084734Y-68940500D01*
X123290345Y-68913430D01*
X123312231Y-68910549D01*
X123312231Y-68910548D01*
X123312238Y-68910548D01*
X123533887Y-68851158D01*
X123745888Y-68763344D01*
X123944612Y-68648611D01*
X124126661Y-68508919D01*
X124288919Y-68346661D01*
X124428611Y-68164612D01*
X124543344Y-67965888D01*
X124631158Y-67753887D01*
X124690548Y-67532238D01*
X124720500Y-67304734D01*
X124720500Y-67075266D01*
X124690548Y-66847762D01*
X124631158Y-66626113D01*
X124543344Y-66414112D01*
X124543338Y-66414103D01*
X124543337Y-66414099D01*
X124428613Y-66215391D01*
X124428608Y-66215384D01*
X124288926Y-66033347D01*
X124288907Y-66033326D01*
X124126673Y-65871092D01*
X124126652Y-65871073D01*
X124046106Y-65809268D01*
X123971958Y-65752372D01*
X125641838Y-65752372D01*
X125641838Y-65752374D01*
X125675116Y-65768400D01*
X125675144Y-65768411D01*
X125961359Y-65868563D01*
X126257016Y-65936045D01*
X126558369Y-65970000D01*
X126861631Y-65970000D01*
X127162983Y-65936045D01*
X127458640Y-65868563D01*
X127744872Y-65768405D01*
X127744873Y-65768405D01*
X127778160Y-65752374D01*
X127778161Y-65752373D01*
X126710001Y-64684213D01*
X126709999Y-64684213D01*
X125641838Y-65752372D01*
X123971958Y-65752372D01*
X123944615Y-65731391D01*
X123944608Y-65731386D01*
X123745900Y-65616662D01*
X123745892Y-65616658D01*
X123745888Y-65616656D01*
X123533887Y-65528842D01*
X123312238Y-65469452D01*
X123312231Y-65469450D01*
X123084736Y-65439500D01*
X123084734Y-65439500D01*
X122855266Y-65439500D01*
X122855263Y-65439500D01*
X122627768Y-65469450D01*
X122406113Y-65528842D01*
X122194110Y-65616657D01*
X122194099Y-65616662D01*
X121995391Y-65731386D01*
X121995384Y-65731391D01*
X121813347Y-65871073D01*
X121813326Y-65871092D01*
X121651092Y-66033326D01*
X121651073Y-66033347D01*
X121511391Y-66215384D01*
X121511386Y-66215391D01*
X121396662Y-66414099D01*
X121396657Y-66414110D01*
X121308842Y-66626113D01*
X121249450Y-66847768D01*
X121219500Y-67075263D01*
X118229657Y-67075263D01*
X120143958Y-65160961D01*
X120206268Y-65126937D01*
X120265661Y-65128351D01*
X120307986Y-65139693D01*
X120541989Y-65170500D01*
X120541996Y-65170500D01*
X120778004Y-65170500D01*
X120778011Y-65170500D01*
X120989491Y-65142658D01*
X121012007Y-65139694D01*
X121012007Y-65139693D01*
X121012014Y-65139693D01*
X121239993Y-65078606D01*
X121458049Y-64988284D01*
X121662450Y-64870273D01*
X121849699Y-64726592D01*
X122016592Y-64559699D01*
X122160273Y-64372450D01*
X122278284Y-64168049D01*
X122368606Y-63949993D01*
X122429693Y-63722014D01*
X122460500Y-63488011D01*
X122460500Y-63251989D01*
X122449920Y-63171623D01*
X122444609Y-63131282D01*
X122442909Y-63118369D01*
X124010000Y-63118369D01*
X124010000Y-63421630D01*
X124043954Y-63722983D01*
X124111437Y-64018640D01*
X124111436Y-64018640D01*
X124211593Y-64304869D01*
X124227625Y-64338161D01*
X125295786Y-63270001D01*
X125295786Y-63269998D01*
X125197411Y-63171623D01*
X125460000Y-63171623D01*
X125460000Y-63368377D01*
X125490779Y-63562709D01*
X125551580Y-63749833D01*
X125640904Y-63925143D01*
X125756554Y-64084320D01*
X125895680Y-64223446D01*
X126054857Y-64339096D01*
X126230167Y-64428420D01*
X126417291Y-64489221D01*
X126611623Y-64520000D01*
X126808377Y-64520000D01*
X127002709Y-64489221D01*
X127189833Y-64428420D01*
X127365143Y-64339096D01*
X127524320Y-64223446D01*
X127663446Y-64084320D01*
X127779096Y-63925143D01*
X127868420Y-63749833D01*
X127929221Y-63562709D01*
X127960000Y-63368377D01*
X127960000Y-63269998D01*
X128124213Y-63269998D01*
X128124213Y-63270001D01*
X129192373Y-64338161D01*
X129192374Y-64338160D01*
X129208405Y-64304873D01*
X129208405Y-64304872D01*
X129308563Y-64018640D01*
X129376045Y-63722983D01*
X129410000Y-63421630D01*
X129410000Y-63118369D01*
X129376045Y-62817016D01*
X129308562Y-62521359D01*
X129308563Y-62521359D01*
X129208411Y-62235144D01*
X129208400Y-62235116D01*
X129192374Y-62201838D01*
X129192372Y-62201838D01*
X128124213Y-63269998D01*
X127960000Y-63269998D01*
X127960000Y-63171623D01*
X127929221Y-62977291D01*
X127868420Y-62790167D01*
X127779096Y-62614857D01*
X127663446Y-62455680D01*
X127524320Y-62316554D01*
X127365143Y-62200904D01*
X127189833Y-62111580D01*
X127002709Y-62050779D01*
X126808377Y-62020000D01*
X126611623Y-62020000D01*
X126417291Y-62050779D01*
X126230167Y-62111580D01*
X126054857Y-62200904D01*
X125895680Y-62316554D01*
X125756554Y-62455680D01*
X125640904Y-62614857D01*
X125551580Y-62790167D01*
X125490779Y-62977291D01*
X125460000Y-63171623D01*
X125197411Y-63171623D01*
X124227625Y-62201837D01*
X124211593Y-62235131D01*
X124111436Y-62521359D01*
X124043954Y-62817016D01*
X124010000Y-63118369D01*
X122442909Y-63118369D01*
X122429694Y-63017993D01*
X122429693Y-63017992D01*
X122429693Y-63017986D01*
X122368606Y-62790007D01*
X122278284Y-62571951D01*
X122278278Y-62571942D01*
X122278277Y-62571938D01*
X122160275Y-62367553D01*
X122160273Y-62367550D01*
X122016592Y-62180301D01*
X122016586Y-62180295D01*
X122016582Y-62180290D01*
X121849709Y-62013417D01*
X121849703Y-62013412D01*
X121849699Y-62013408D01*
X121662450Y-61869727D01*
X121662449Y-61869726D01*
X121662446Y-61869724D01*
X121458061Y-61751722D01*
X121458053Y-61751718D01*
X121458049Y-61751716D01*
X121239993Y-61661394D01*
X121012014Y-61600307D01*
X121012007Y-61600305D01*
X120778013Y-61569500D01*
X120778011Y-61569500D01*
X120541989Y-61569500D01*
X120541986Y-61569500D01*
X120307992Y-61600305D01*
X120080011Y-61661393D01*
X120080007Y-61661394D01*
X119861949Y-61751717D01*
X119861938Y-61751722D01*
X119657553Y-61869724D01*
X119470303Y-62013406D01*
X119413111Y-62070597D01*
X119350798Y-62104621D01*
X119324017Y-62107500D01*
X116552135Y-62107500D01*
X116552114Y-62107502D01*
X116492519Y-62113908D01*
X116492518Y-62113908D01*
X116357673Y-62164201D01*
X116357670Y-62164203D01*
X116242453Y-62250453D01*
X116156203Y-62365670D01*
X116156201Y-62365673D01*
X116105909Y-62500515D01*
X116099500Y-62560121D01*
X116099500Y-64179864D01*
X116099502Y-64179885D01*
X116105908Y-64239480D01*
X116105908Y-64239481D01*
X116156201Y-64374326D01*
X116156203Y-64374329D01*
X116242453Y-64489546D01*
X116283135Y-64520000D01*
X116357669Y-64575796D01*
X116357671Y-64575796D01*
X116357673Y-64575798D01*
X116418030Y-64598309D01*
X116492514Y-64626090D01*
X116492517Y-64626091D01*
X116552127Y-64632500D01*
X117538388Y-64632499D01*
X117606509Y-64652501D01*
X117653002Y-64706157D01*
X117663106Y-64776431D01*
X117633613Y-64841011D01*
X117627483Y-64847594D01*
X113132220Y-69342859D01*
X112992863Y-69482215D01*
X112992858Y-69482222D01*
X112883368Y-69646085D01*
X112807950Y-69828161D01*
X112807949Y-69828164D01*
X112769500Y-70021455D01*
X97223483Y-70021455D01*
X97107512Y-69905484D01*
X96916436Y-69766659D01*
X96916435Y-69766658D01*
X96916433Y-69766657D01*
X96705992Y-69659432D01*
X96481368Y-69586447D01*
X96248092Y-69549500D01*
X96011908Y-69549500D01*
X95778632Y-69586447D01*
X95778629Y-69586447D01*
X95778628Y-69586448D01*
X95554008Y-69659432D01*
X95554006Y-69659433D01*
X95343563Y-69766659D01*
X95152487Y-69905484D01*
X94985484Y-70072487D01*
X94846659Y-70263563D01*
X94739433Y-70474006D01*
X94739432Y-70474008D01*
X94684689Y-70642490D01*
X94666447Y-70698632D01*
X94629500Y-70931908D01*
X76213450Y-70931908D01*
X76163343Y-70833567D01*
X76024517Y-70642490D01*
X76024515Y-70642487D01*
X75857512Y-70475484D01*
X75666436Y-70336659D01*
X75666435Y-70336658D01*
X75666433Y-70336657D01*
X75455992Y-70229432D01*
X75231368Y-70156447D01*
X74998092Y-70119500D01*
X74761908Y-70119500D01*
X74528632Y-70156447D01*
X74528629Y-70156447D01*
X74528628Y-70156448D01*
X74304008Y-70229432D01*
X74304006Y-70229433D01*
X74093563Y-70336659D01*
X73902487Y-70475484D01*
X73735484Y-70642487D01*
X73596659Y-70833563D01*
X73489433Y-71044006D01*
X73489432Y-71044008D01*
X73424415Y-71244110D01*
X73416447Y-71268632D01*
X73379500Y-71501908D01*
X40498016Y-71501908D01*
X40498005Y-71497242D01*
X40490345Y-68112400D01*
X40490285Y-68086035D01*
X40510133Y-68017870D01*
X40563683Y-67971256D01*
X40616034Y-67959751D01*
X49410000Y-67942400D01*
X49404988Y-63371908D01*
X68399500Y-63371908D01*
X68399500Y-63608092D01*
X68436447Y-63841368D01*
X68509432Y-64065992D01*
X68616657Y-64276433D01*
X68616659Y-64276436D01*
X68755484Y-64467512D01*
X68922487Y-64634515D01*
X68922490Y-64634517D01*
X69113567Y-64773343D01*
X69324008Y-64880568D01*
X69548632Y-64953553D01*
X69781908Y-64990500D01*
X69781911Y-64990500D01*
X70018089Y-64990500D01*
X70018092Y-64990500D01*
X70251368Y-64953553D01*
X70475992Y-64880568D01*
X70686433Y-64773343D01*
X70877510Y-64634517D01*
X71044517Y-64467510D01*
X71183343Y-64276433D01*
X71290568Y-64065992D01*
X71363553Y-63841368D01*
X71400500Y-63608092D01*
X71400500Y-63371908D01*
X71363553Y-63138632D01*
X71290568Y-62914008D01*
X71183343Y-62703567D01*
X71087709Y-62571938D01*
X71044515Y-62512487D01*
X70877512Y-62345484D01*
X70686436Y-62206659D01*
X70686435Y-62206658D01*
X70686433Y-62206657D01*
X70475992Y-62099432D01*
X70251368Y-62026447D01*
X70018092Y-61989500D01*
X69781908Y-61989500D01*
X69548632Y-62026447D01*
X69548629Y-62026447D01*
X69548628Y-62026448D01*
X69324008Y-62099432D01*
X69324006Y-62099433D01*
X69113563Y-62206659D01*
X68922487Y-62345484D01*
X68755484Y-62512487D01*
X68616659Y-62703563D01*
X68616657Y-62703567D01*
X68509432Y-62914008D01*
X68436447Y-63138632D01*
X68399500Y-63371908D01*
X49404988Y-63371908D01*
X49402154Y-60787625D01*
X125641837Y-60787625D01*
X126709999Y-61855786D01*
X126710001Y-61855786D01*
X127778161Y-60787625D01*
X127744869Y-60771593D01*
X127458640Y-60671436D01*
X127162983Y-60603954D01*
X126861631Y-60570000D01*
X126558369Y-60570000D01*
X126257016Y-60603954D01*
X125961359Y-60671436D01*
X125675131Y-60771593D01*
X125641837Y-60787625D01*
X49402154Y-60787625D01*
X49400138Y-58948536D01*
X49420065Y-58880396D01*
X49473670Y-58833844D01*
X49526138Y-58822400D01*
X130603590Y-58822400D01*
X130671711Y-58842402D01*
G37*
G04 #@! TD.AperFunction*
M02*
