G04 #@! TF.GenerationSoftware,KiCad,Pcbnew,9.0.4*
G04 #@! TF.CreationDate,2026-01-10T10:25:12-05:00*
G04 #@! TF.ProjectId,SignalStreamer,5369676e-616c-4537-9472-65616d65722e,rev?*
G04 #@! TF.SameCoordinates,Original*
G04 #@! TF.FileFunction,Legend,Bot*
G04 #@! TF.FilePolarity,Positive*
%FSLAX46Y46*%
G04 Gerber Fmt 4.6, Leading zero omitted, Abs format (unit mm)*
G04 Created by KiCad (PCBNEW 9.0.4) date 2026-01-10 10:25:12*
%MOMM*%
%LPD*%
G01*
G04 APERTURE LIST*
G04 Aperture macros list*
%AMRoundRect*
0 Rectangle with rounded corners*
0 $1 Rounding radius*
0 $2 $3 $4 $5 $6 $7 $8 $9 X,Y pos of 4 corners*
0 Add a 4 corners polygon primitive as box body*
4,1,4,$2,$3,$4,$5,$6,$7,$8,$9,$2,$3,0*
0 Add four circle primitives for the rounded corners*
1,1,$1+$1,$2,$3*
1,1,$1+$1,$4,$5*
1,1,$1+$1,$6,$7*
1,1,$1+$1,$8,$9*
0 Add four rect primitives between the rounded corners*
20,1,$1+$1,$2,$3,$4,$5,0*
20,1,$1+$1,$4,$5,$6,$7,0*
20,1,$1+$1,$6,$7,$8,$9,0*
20,1,$1+$1,$8,$9,$2,$3,0*%
G04 Aperture macros list end*
%ADD10C,0.150000*%
%ADD11C,0.400000*%
%ADD12C,0.120000*%
%ADD13R,1.524000X5.000000*%
%ADD14C,2.600000*%
%ADD15C,5.000000*%
%ADD16RoundRect,0.250000X-0.550000X0.550000X-0.550000X-0.550000X0.550000X-0.550000X0.550000X0.550000X0*%
%ADD17C,1.600000*%
%ADD18C,2.500000*%
%ADD19C,3.000000*%
%ADD20R,1.800000X1.800000*%
%ADD21C,1.800000*%
%ADD22O,2.500000X1.600000*%
%ADD23C,3.500000*%
%ADD24RoundRect,0.250000X-1.000000X0.550000X-1.000000X-0.550000X1.000000X-0.550000X1.000000X0.550000X0*%
%ADD25RoundRect,0.250000X0.550000X0.550000X-0.550000X0.550000X-0.550000X-0.550000X0.550000X-0.550000X0*%
%ADD26C,7.000000*%
%ADD27R,5.000000X1.524000*%
%ADD28RoundRect,0.250000X-0.550000X-0.550000X0.550000X-0.550000X0.550000X0.550000X-0.550000X0.550000X0*%
%ADD29C,1.440000*%
G04 APERTURE END LIST*
D10*
X81940475Y-114774819D02*
X81940475Y-113774819D01*
X81940475Y-113774819D02*
X81702380Y-113774819D01*
X81702380Y-113774819D02*
X81559523Y-113822438D01*
X81559523Y-113822438D02*
X81464285Y-113917676D01*
X81464285Y-113917676D02*
X81416666Y-114012914D01*
X81416666Y-114012914D02*
X81369047Y-114203390D01*
X81369047Y-114203390D02*
X81369047Y-114346247D01*
X81369047Y-114346247D02*
X81416666Y-114536723D01*
X81416666Y-114536723D02*
X81464285Y-114631961D01*
X81464285Y-114631961D02*
X81559523Y-114727200D01*
X81559523Y-114727200D02*
X81702380Y-114774819D01*
X81702380Y-114774819D02*
X81940475Y-114774819D01*
X80416666Y-114774819D02*
X80988094Y-114774819D01*
X80702380Y-114774819D02*
X80702380Y-113774819D01*
X80702380Y-113774819D02*
X80797618Y-113917676D01*
X80797618Y-113917676D02*
X80892856Y-114012914D01*
X80892856Y-114012914D02*
X80988094Y-114060533D01*
X79797618Y-113774819D02*
X79702380Y-113774819D01*
X79702380Y-113774819D02*
X79607142Y-113822438D01*
X79607142Y-113822438D02*
X79559523Y-113870057D01*
X79559523Y-113870057D02*
X79511904Y-113965295D01*
X79511904Y-113965295D02*
X79464285Y-114155771D01*
X79464285Y-114155771D02*
X79464285Y-114393866D01*
X79464285Y-114393866D02*
X79511904Y-114584342D01*
X79511904Y-114584342D02*
X79559523Y-114679580D01*
X79559523Y-114679580D02*
X79607142Y-114727200D01*
X79607142Y-114727200D02*
X79702380Y-114774819D01*
X79702380Y-114774819D02*
X79797618Y-114774819D01*
X79797618Y-114774819D02*
X79892856Y-114727200D01*
X79892856Y-114727200D02*
X79940475Y-114679580D01*
X79940475Y-114679580D02*
X79988094Y-114584342D01*
X79988094Y-114584342D02*
X80035713Y-114393866D01*
X80035713Y-114393866D02*
X80035713Y-114155771D01*
X80035713Y-114155771D02*
X79988094Y-113965295D01*
X79988094Y-113965295D02*
X79940475Y-113870057D01*
X79940475Y-113870057D02*
X79892856Y-113822438D01*
X79892856Y-113822438D02*
X79797618Y-113774819D01*
X78559523Y-113774819D02*
X79035713Y-113774819D01*
X79035713Y-113774819D02*
X79083332Y-114251009D01*
X79083332Y-114251009D02*
X79035713Y-114203390D01*
X79035713Y-114203390D02*
X78940475Y-114155771D01*
X78940475Y-114155771D02*
X78702380Y-114155771D01*
X78702380Y-114155771D02*
X78607142Y-114203390D01*
X78607142Y-114203390D02*
X78559523Y-114251009D01*
X78559523Y-114251009D02*
X78511904Y-114346247D01*
X78511904Y-114346247D02*
X78511904Y-114584342D01*
X78511904Y-114584342D02*
X78559523Y-114679580D01*
X78559523Y-114679580D02*
X78607142Y-114727200D01*
X78607142Y-114727200D02*
X78702380Y-114774819D01*
X78702380Y-114774819D02*
X78940475Y-114774819D01*
X78940475Y-114774819D02*
X79035713Y-114727200D01*
X79035713Y-114727200D02*
X79083332Y-114679580D01*
D11*
X122724938Y-113724438D02*
X122724938Y-114200628D01*
X123201128Y-114010152D02*
X122724938Y-114200628D01*
X122724938Y-114200628D02*
X122248747Y-114010152D01*
X123010652Y-114581580D02*
X122724938Y-114200628D01*
X122724938Y-114200628D02*
X122439223Y-114581580D01*
D10*
X75640363Y-76272424D02*
X75354649Y-76367662D01*
X75354649Y-76367662D02*
X74878458Y-76367662D01*
X74878458Y-76367662D02*
X74687982Y-76272424D01*
X74687982Y-76272424D02*
X74592744Y-76177185D01*
X74592744Y-76177185D02*
X74497506Y-75986709D01*
X74497506Y-75986709D02*
X74497506Y-75796233D01*
X74497506Y-75796233D02*
X74592744Y-75605757D01*
X74592744Y-75605757D02*
X74687982Y-75510519D01*
X74687982Y-75510519D02*
X74878458Y-75415281D01*
X74878458Y-75415281D02*
X75259411Y-75320043D01*
X75259411Y-75320043D02*
X75449887Y-75224804D01*
X75449887Y-75224804D02*
X75545125Y-75129566D01*
X75545125Y-75129566D02*
X75640363Y-74939090D01*
X75640363Y-74939090D02*
X75640363Y-74748614D01*
X75640363Y-74748614D02*
X75545125Y-74558138D01*
X75545125Y-74558138D02*
X75449887Y-74462900D01*
X75449887Y-74462900D02*
X75259411Y-74367662D01*
X75259411Y-74367662D02*
X74783220Y-74367662D01*
X74783220Y-74367662D02*
X74497506Y-74462900D01*
X73640363Y-76367662D02*
X73640363Y-75034328D01*
X73640363Y-74367662D02*
X73735601Y-74462900D01*
X73735601Y-74462900D02*
X73640363Y-74558138D01*
X73640363Y-74558138D02*
X73545125Y-74462900D01*
X73545125Y-74462900D02*
X73640363Y-74367662D01*
X73640363Y-74367662D02*
X73640363Y-74558138D01*
X71830839Y-75034328D02*
X71830839Y-76653376D01*
X71830839Y-76653376D02*
X71926077Y-76843852D01*
X71926077Y-76843852D02*
X72021315Y-76939090D01*
X72021315Y-76939090D02*
X72211792Y-77034328D01*
X72211792Y-77034328D02*
X72497506Y-77034328D01*
X72497506Y-77034328D02*
X72687982Y-76939090D01*
X71830839Y-76272424D02*
X72021315Y-76367662D01*
X72021315Y-76367662D02*
X72402268Y-76367662D01*
X72402268Y-76367662D02*
X72592744Y-76272424D01*
X72592744Y-76272424D02*
X72687982Y-76177185D01*
X72687982Y-76177185D02*
X72783220Y-75986709D01*
X72783220Y-75986709D02*
X72783220Y-75415281D01*
X72783220Y-75415281D02*
X72687982Y-75224804D01*
X72687982Y-75224804D02*
X72592744Y-75129566D01*
X72592744Y-75129566D02*
X72402268Y-75034328D01*
X72402268Y-75034328D02*
X72021315Y-75034328D01*
X72021315Y-75034328D02*
X71830839Y-75129566D01*
X70878458Y-75034328D02*
X70878458Y-76367662D01*
X70878458Y-75224804D02*
X70783220Y-75129566D01*
X70783220Y-75129566D02*
X70592744Y-75034328D01*
X70592744Y-75034328D02*
X70307029Y-75034328D01*
X70307029Y-75034328D02*
X70116553Y-75129566D01*
X70116553Y-75129566D02*
X70021315Y-75320043D01*
X70021315Y-75320043D02*
X70021315Y-76367662D01*
X68211791Y-76367662D02*
X68211791Y-75320043D01*
X68211791Y-75320043D02*
X68307029Y-75129566D01*
X68307029Y-75129566D02*
X68497505Y-75034328D01*
X68497505Y-75034328D02*
X68878458Y-75034328D01*
X68878458Y-75034328D02*
X69068934Y-75129566D01*
X68211791Y-76272424D02*
X68402267Y-76367662D01*
X68402267Y-76367662D02*
X68878458Y-76367662D01*
X68878458Y-76367662D02*
X69068934Y-76272424D01*
X69068934Y-76272424D02*
X69164172Y-76081947D01*
X69164172Y-76081947D02*
X69164172Y-75891471D01*
X69164172Y-75891471D02*
X69068934Y-75700995D01*
X69068934Y-75700995D02*
X68878458Y-75605757D01*
X68878458Y-75605757D02*
X68402267Y-75605757D01*
X68402267Y-75605757D02*
X68211791Y-75510519D01*
X66973696Y-76367662D02*
X67164172Y-76272424D01*
X67164172Y-76272424D02*
X67259410Y-76081947D01*
X67259410Y-76081947D02*
X67259410Y-74367662D01*
X66307029Y-76272424D02*
X66021315Y-76367662D01*
X66021315Y-76367662D02*
X65545124Y-76367662D01*
X65545124Y-76367662D02*
X65354648Y-76272424D01*
X65354648Y-76272424D02*
X65259410Y-76177185D01*
X65259410Y-76177185D02*
X65164172Y-75986709D01*
X65164172Y-75986709D02*
X65164172Y-75796233D01*
X65164172Y-75796233D02*
X65259410Y-75605757D01*
X65259410Y-75605757D02*
X65354648Y-75510519D01*
X65354648Y-75510519D02*
X65545124Y-75415281D01*
X65545124Y-75415281D02*
X65926077Y-75320043D01*
X65926077Y-75320043D02*
X66116553Y-75224804D01*
X66116553Y-75224804D02*
X66211791Y-75129566D01*
X66211791Y-75129566D02*
X66307029Y-74939090D01*
X66307029Y-74939090D02*
X66307029Y-74748614D01*
X66307029Y-74748614D02*
X66211791Y-74558138D01*
X66211791Y-74558138D02*
X66116553Y-74462900D01*
X66116553Y-74462900D02*
X65926077Y-74367662D01*
X65926077Y-74367662D02*
X65449886Y-74367662D01*
X65449886Y-74367662D02*
X65164172Y-74462900D01*
X64592743Y-75034328D02*
X63830839Y-75034328D01*
X64307029Y-74367662D02*
X64307029Y-76081947D01*
X64307029Y-76081947D02*
X64211791Y-76272424D01*
X64211791Y-76272424D02*
X64021315Y-76367662D01*
X64021315Y-76367662D02*
X63830839Y-76367662D01*
X63164172Y-76367662D02*
X63164172Y-75034328D01*
X63164172Y-75415281D02*
X63068934Y-75224804D01*
X63068934Y-75224804D02*
X62973696Y-75129566D01*
X62973696Y-75129566D02*
X62783220Y-75034328D01*
X62783220Y-75034328D02*
X62592743Y-75034328D01*
X61164172Y-76272424D02*
X61354648Y-76367662D01*
X61354648Y-76367662D02*
X61735601Y-76367662D01*
X61735601Y-76367662D02*
X61926077Y-76272424D01*
X61926077Y-76272424D02*
X62021315Y-76081947D01*
X62021315Y-76081947D02*
X62021315Y-75320043D01*
X62021315Y-75320043D02*
X61926077Y-75129566D01*
X61926077Y-75129566D02*
X61735601Y-75034328D01*
X61735601Y-75034328D02*
X61354648Y-75034328D01*
X61354648Y-75034328D02*
X61164172Y-75129566D01*
X61164172Y-75129566D02*
X61068934Y-75320043D01*
X61068934Y-75320043D02*
X61068934Y-75510519D01*
X61068934Y-75510519D02*
X62021315Y-75700995D01*
X59354648Y-76367662D02*
X59354648Y-75320043D01*
X59354648Y-75320043D02*
X59449886Y-75129566D01*
X59449886Y-75129566D02*
X59640362Y-75034328D01*
X59640362Y-75034328D02*
X60021315Y-75034328D01*
X60021315Y-75034328D02*
X60211791Y-75129566D01*
X59354648Y-76272424D02*
X59545124Y-76367662D01*
X59545124Y-76367662D02*
X60021315Y-76367662D01*
X60021315Y-76367662D02*
X60211791Y-76272424D01*
X60211791Y-76272424D02*
X60307029Y-76081947D01*
X60307029Y-76081947D02*
X60307029Y-75891471D01*
X60307029Y-75891471D02*
X60211791Y-75700995D01*
X60211791Y-75700995D02*
X60021315Y-75605757D01*
X60021315Y-75605757D02*
X59545124Y-75605757D01*
X59545124Y-75605757D02*
X59354648Y-75510519D01*
X58402267Y-76367662D02*
X58402267Y-75034328D01*
X58402267Y-75224804D02*
X58307029Y-75129566D01*
X58307029Y-75129566D02*
X58116553Y-75034328D01*
X58116553Y-75034328D02*
X57830838Y-75034328D01*
X57830838Y-75034328D02*
X57640362Y-75129566D01*
X57640362Y-75129566D02*
X57545124Y-75320043D01*
X57545124Y-75320043D02*
X57545124Y-76367662D01*
X57545124Y-75320043D02*
X57449886Y-75129566D01*
X57449886Y-75129566D02*
X57259410Y-75034328D01*
X57259410Y-75034328D02*
X56973696Y-75034328D01*
X56973696Y-75034328D02*
X56783219Y-75129566D01*
X56783219Y-75129566D02*
X56687981Y-75320043D01*
X56687981Y-75320043D02*
X56687981Y-76367662D01*
X54973695Y-76272424D02*
X55164171Y-76367662D01*
X55164171Y-76367662D02*
X55545124Y-76367662D01*
X55545124Y-76367662D02*
X55735600Y-76272424D01*
X55735600Y-76272424D02*
X55830838Y-76081947D01*
X55830838Y-76081947D02*
X55830838Y-75320043D01*
X55830838Y-75320043D02*
X55735600Y-75129566D01*
X55735600Y-75129566D02*
X55545124Y-75034328D01*
X55545124Y-75034328D02*
X55164171Y-75034328D01*
X55164171Y-75034328D02*
X54973695Y-75129566D01*
X54973695Y-75129566D02*
X54878457Y-75320043D01*
X54878457Y-75320043D02*
X54878457Y-75510519D01*
X54878457Y-75510519D02*
X55830838Y-75700995D01*
X54021314Y-76367662D02*
X54021314Y-75034328D01*
X54021314Y-75415281D02*
X53926076Y-75224804D01*
X53926076Y-75224804D02*
X53830838Y-75129566D01*
X53830838Y-75129566D02*
X53640362Y-75034328D01*
X53640362Y-75034328D02*
X53449885Y-75034328D01*
X75830839Y-77587550D02*
X75164173Y-79587550D01*
X75164173Y-79587550D02*
X74497506Y-77587550D01*
X73068934Y-79492312D02*
X73259410Y-79587550D01*
X73259410Y-79587550D02*
X73640363Y-79587550D01*
X73640363Y-79587550D02*
X73830839Y-79492312D01*
X73830839Y-79492312D02*
X73926077Y-79301835D01*
X73926077Y-79301835D02*
X73926077Y-78539931D01*
X73926077Y-78539931D02*
X73830839Y-78349454D01*
X73830839Y-78349454D02*
X73640363Y-78254216D01*
X73640363Y-78254216D02*
X73259410Y-78254216D01*
X73259410Y-78254216D02*
X73068934Y-78349454D01*
X73068934Y-78349454D02*
X72973696Y-78539931D01*
X72973696Y-78539931D02*
X72973696Y-78730407D01*
X72973696Y-78730407D02*
X73926077Y-78920883D01*
X72116553Y-79587550D02*
X72116553Y-78254216D01*
X72116553Y-78635169D02*
X72021315Y-78444692D01*
X72021315Y-78444692D02*
X71926077Y-78349454D01*
X71926077Y-78349454D02*
X71735601Y-78254216D01*
X71735601Y-78254216D02*
X71545124Y-78254216D01*
X68307029Y-79587550D02*
X69449886Y-79587550D01*
X68878458Y-79587550D02*
X68878458Y-77587550D01*
X68878458Y-77587550D02*
X69068934Y-77873264D01*
X69068934Y-77873264D02*
X69259410Y-78063740D01*
X69259410Y-78063740D02*
X69449886Y-78158978D01*
X67449886Y-79397073D02*
X67354648Y-79492312D01*
X67354648Y-79492312D02*
X67449886Y-79587550D01*
X67449886Y-79587550D02*
X67545124Y-79492312D01*
X67545124Y-79492312D02*
X67449886Y-79397073D01*
X67449886Y-79397073D02*
X67449886Y-79587550D01*
X66116553Y-77587550D02*
X65926076Y-77587550D01*
X65926076Y-77587550D02*
X65735600Y-77682788D01*
X65735600Y-77682788D02*
X65640362Y-77778026D01*
X65640362Y-77778026D02*
X65545124Y-77968502D01*
X65545124Y-77968502D02*
X65449886Y-78349454D01*
X65449886Y-78349454D02*
X65449886Y-78825645D01*
X65449886Y-78825645D02*
X65545124Y-79206597D01*
X65545124Y-79206597D02*
X65640362Y-79397073D01*
X65640362Y-79397073D02*
X65735600Y-79492312D01*
X65735600Y-79492312D02*
X65926076Y-79587550D01*
X65926076Y-79587550D02*
X66116553Y-79587550D01*
X66116553Y-79587550D02*
X66307029Y-79492312D01*
X66307029Y-79492312D02*
X66402267Y-79397073D01*
X66402267Y-79397073D02*
X66497505Y-79206597D01*
X66497505Y-79206597D02*
X66592743Y-78825645D01*
X66592743Y-78825645D02*
X66592743Y-78349454D01*
X66592743Y-78349454D02*
X66497505Y-77968502D01*
X66497505Y-77968502D02*
X66402267Y-77778026D01*
X66402267Y-77778026D02*
X66307029Y-77682788D01*
X66307029Y-77682788D02*
X66116553Y-77587550D01*
X74497506Y-82807438D02*
X75640363Y-82807438D01*
X75068935Y-82807438D02*
X75068935Y-80807438D01*
X75068935Y-80807438D02*
X75259411Y-81093152D01*
X75259411Y-81093152D02*
X75449887Y-81283628D01*
X75449887Y-81283628D02*
X75640363Y-81378866D01*
X71545124Y-80807438D02*
X71545124Y-82236009D01*
X71545124Y-82236009D02*
X71640363Y-82521723D01*
X71640363Y-82521723D02*
X71830839Y-82712200D01*
X71830839Y-82712200D02*
X72116553Y-82807438D01*
X72116553Y-82807438D02*
X72307029Y-82807438D01*
X69735600Y-82807438D02*
X69735600Y-81759819D01*
X69735600Y-81759819D02*
X69830838Y-81569342D01*
X69830838Y-81569342D02*
X70021314Y-81474104D01*
X70021314Y-81474104D02*
X70402267Y-81474104D01*
X70402267Y-81474104D02*
X70592743Y-81569342D01*
X69735600Y-82712200D02*
X69926076Y-82807438D01*
X69926076Y-82807438D02*
X70402267Y-82807438D01*
X70402267Y-82807438D02*
X70592743Y-82712200D01*
X70592743Y-82712200D02*
X70687981Y-82521723D01*
X70687981Y-82521723D02*
X70687981Y-82331247D01*
X70687981Y-82331247D02*
X70592743Y-82140771D01*
X70592743Y-82140771D02*
X70402267Y-82045533D01*
X70402267Y-82045533D02*
X69926076Y-82045533D01*
X69926076Y-82045533D02*
X69735600Y-81950295D01*
X68783219Y-81474104D02*
X68783219Y-82807438D01*
X68783219Y-81664580D02*
X68687981Y-81569342D01*
X68687981Y-81569342D02*
X68497505Y-81474104D01*
X68497505Y-81474104D02*
X68211790Y-81474104D01*
X68211790Y-81474104D02*
X68021314Y-81569342D01*
X68021314Y-81569342D02*
X67926076Y-81759819D01*
X67926076Y-81759819D02*
X67926076Y-82807438D01*
X65545123Y-80997914D02*
X65449885Y-80902676D01*
X65449885Y-80902676D02*
X65259409Y-80807438D01*
X65259409Y-80807438D02*
X64783218Y-80807438D01*
X64783218Y-80807438D02*
X64592742Y-80902676D01*
X64592742Y-80902676D02*
X64497504Y-80997914D01*
X64497504Y-80997914D02*
X64402266Y-81188390D01*
X64402266Y-81188390D02*
X64402266Y-81378866D01*
X64402266Y-81378866D02*
X64497504Y-81664580D01*
X64497504Y-81664580D02*
X65640361Y-82807438D01*
X65640361Y-82807438D02*
X64402266Y-82807438D01*
X63164171Y-80807438D02*
X62973694Y-80807438D01*
X62973694Y-80807438D02*
X62783218Y-80902676D01*
X62783218Y-80902676D02*
X62687980Y-80997914D01*
X62687980Y-80997914D02*
X62592742Y-81188390D01*
X62592742Y-81188390D02*
X62497504Y-81569342D01*
X62497504Y-81569342D02*
X62497504Y-82045533D01*
X62497504Y-82045533D02*
X62592742Y-82426485D01*
X62592742Y-82426485D02*
X62687980Y-82616961D01*
X62687980Y-82616961D02*
X62783218Y-82712200D01*
X62783218Y-82712200D02*
X62973694Y-82807438D01*
X62973694Y-82807438D02*
X63164171Y-82807438D01*
X63164171Y-82807438D02*
X63354647Y-82712200D01*
X63354647Y-82712200D02*
X63449885Y-82616961D01*
X63449885Y-82616961D02*
X63545123Y-82426485D01*
X63545123Y-82426485D02*
X63640361Y-82045533D01*
X63640361Y-82045533D02*
X63640361Y-81569342D01*
X63640361Y-81569342D02*
X63545123Y-81188390D01*
X63545123Y-81188390D02*
X63449885Y-80997914D01*
X63449885Y-80997914D02*
X63354647Y-80902676D01*
X63354647Y-80902676D02*
X63164171Y-80807438D01*
X61735599Y-80997914D02*
X61640361Y-80902676D01*
X61640361Y-80902676D02*
X61449885Y-80807438D01*
X61449885Y-80807438D02*
X60973694Y-80807438D01*
X60973694Y-80807438D02*
X60783218Y-80902676D01*
X60783218Y-80902676D02*
X60687980Y-80997914D01*
X60687980Y-80997914D02*
X60592742Y-81188390D01*
X60592742Y-81188390D02*
X60592742Y-81378866D01*
X60592742Y-81378866D02*
X60687980Y-81664580D01*
X60687980Y-81664580D02*
X61830837Y-82807438D01*
X61830837Y-82807438D02*
X60592742Y-82807438D01*
X58878456Y-80807438D02*
X59259409Y-80807438D01*
X59259409Y-80807438D02*
X59449885Y-80902676D01*
X59449885Y-80902676D02*
X59545123Y-80997914D01*
X59545123Y-80997914D02*
X59735599Y-81283628D01*
X59735599Y-81283628D02*
X59830837Y-81664580D01*
X59830837Y-81664580D02*
X59830837Y-82426485D01*
X59830837Y-82426485D02*
X59735599Y-82616961D01*
X59735599Y-82616961D02*
X59640361Y-82712200D01*
X59640361Y-82712200D02*
X59449885Y-82807438D01*
X59449885Y-82807438D02*
X59068932Y-82807438D01*
X59068932Y-82807438D02*
X58878456Y-82712200D01*
X58878456Y-82712200D02*
X58783218Y-82616961D01*
X58783218Y-82616961D02*
X58687980Y-82426485D01*
X58687980Y-82426485D02*
X58687980Y-81950295D01*
X58687980Y-81950295D02*
X58783218Y-81759819D01*
X58783218Y-81759819D02*
X58878456Y-81664580D01*
X58878456Y-81664580D02*
X59068932Y-81569342D01*
X59068932Y-81569342D02*
X59449885Y-81569342D01*
X59449885Y-81569342D02*
X59640361Y-81664580D01*
X59640361Y-81664580D02*
X59735599Y-81759819D01*
X59735599Y-81759819D02*
X59830837Y-81950295D01*
X68290475Y-114814819D02*
X68290475Y-113814819D01*
X68290475Y-113814819D02*
X68052380Y-113814819D01*
X68052380Y-113814819D02*
X67909523Y-113862438D01*
X67909523Y-113862438D02*
X67814285Y-113957676D01*
X67814285Y-113957676D02*
X67766666Y-114052914D01*
X67766666Y-114052914D02*
X67719047Y-114243390D01*
X67719047Y-114243390D02*
X67719047Y-114386247D01*
X67719047Y-114386247D02*
X67766666Y-114576723D01*
X67766666Y-114576723D02*
X67814285Y-114671961D01*
X67814285Y-114671961D02*
X67909523Y-114767200D01*
X67909523Y-114767200D02*
X68052380Y-114814819D01*
X68052380Y-114814819D02*
X68290475Y-114814819D01*
X66766666Y-114814819D02*
X67338094Y-114814819D01*
X67052380Y-114814819D02*
X67052380Y-113814819D01*
X67052380Y-113814819D02*
X67147618Y-113957676D01*
X67147618Y-113957676D02*
X67242856Y-114052914D01*
X67242856Y-114052914D02*
X67338094Y-114100533D01*
X66147618Y-113814819D02*
X66052380Y-113814819D01*
X66052380Y-113814819D02*
X65957142Y-113862438D01*
X65957142Y-113862438D02*
X65909523Y-113910057D01*
X65909523Y-113910057D02*
X65861904Y-114005295D01*
X65861904Y-114005295D02*
X65814285Y-114195771D01*
X65814285Y-114195771D02*
X65814285Y-114433866D01*
X65814285Y-114433866D02*
X65861904Y-114624342D01*
X65861904Y-114624342D02*
X65909523Y-114719580D01*
X65909523Y-114719580D02*
X65957142Y-114767200D01*
X65957142Y-114767200D02*
X66052380Y-114814819D01*
X66052380Y-114814819D02*
X66147618Y-114814819D01*
X66147618Y-114814819D02*
X66242856Y-114767200D01*
X66242856Y-114767200D02*
X66290475Y-114719580D01*
X66290475Y-114719580D02*
X66338094Y-114624342D01*
X66338094Y-114624342D02*
X66385713Y-114433866D01*
X66385713Y-114433866D02*
X66385713Y-114195771D01*
X66385713Y-114195771D02*
X66338094Y-114005295D01*
X66338094Y-114005295D02*
X66290475Y-113910057D01*
X66290475Y-113910057D02*
X66242856Y-113862438D01*
X66242856Y-113862438D02*
X66147618Y-113814819D01*
X65338094Y-114814819D02*
X65147618Y-114814819D01*
X65147618Y-114814819D02*
X65052380Y-114767200D01*
X65052380Y-114767200D02*
X65004761Y-114719580D01*
X65004761Y-114719580D02*
X64909523Y-114576723D01*
X64909523Y-114576723D02*
X64861904Y-114386247D01*
X64861904Y-114386247D02*
X64861904Y-114005295D01*
X64861904Y-114005295D02*
X64909523Y-113910057D01*
X64909523Y-113910057D02*
X64957142Y-113862438D01*
X64957142Y-113862438D02*
X65052380Y-113814819D01*
X65052380Y-113814819D02*
X65242856Y-113814819D01*
X65242856Y-113814819D02*
X65338094Y-113862438D01*
X65338094Y-113862438D02*
X65385713Y-113910057D01*
X65385713Y-113910057D02*
X65433332Y-114005295D01*
X65433332Y-114005295D02*
X65433332Y-114243390D01*
X65433332Y-114243390D02*
X65385713Y-114338628D01*
X65385713Y-114338628D02*
X65338094Y-114386247D01*
X65338094Y-114386247D02*
X65242856Y-114433866D01*
X65242856Y-114433866D02*
X65052380Y-114433866D01*
X65052380Y-114433866D02*
X64957142Y-114386247D01*
X64957142Y-114386247D02*
X64909523Y-114338628D01*
X64909523Y-114338628D02*
X64861904Y-114243390D01*
X75160475Y-114774819D02*
X75160475Y-113774819D01*
X75160475Y-113774819D02*
X74922380Y-113774819D01*
X74922380Y-113774819D02*
X74779523Y-113822438D01*
X74779523Y-113822438D02*
X74684285Y-113917676D01*
X74684285Y-113917676D02*
X74636666Y-114012914D01*
X74636666Y-114012914D02*
X74589047Y-114203390D01*
X74589047Y-114203390D02*
X74589047Y-114346247D01*
X74589047Y-114346247D02*
X74636666Y-114536723D01*
X74636666Y-114536723D02*
X74684285Y-114631961D01*
X74684285Y-114631961D02*
X74779523Y-114727200D01*
X74779523Y-114727200D02*
X74922380Y-114774819D01*
X74922380Y-114774819D02*
X75160475Y-114774819D01*
X73636666Y-114774819D02*
X74208094Y-114774819D01*
X73922380Y-114774819D02*
X73922380Y-113774819D01*
X73922380Y-113774819D02*
X74017618Y-113917676D01*
X74017618Y-113917676D02*
X74112856Y-114012914D01*
X74112856Y-114012914D02*
X74208094Y-114060533D01*
X73017618Y-113774819D02*
X72922380Y-113774819D01*
X72922380Y-113774819D02*
X72827142Y-113822438D01*
X72827142Y-113822438D02*
X72779523Y-113870057D01*
X72779523Y-113870057D02*
X72731904Y-113965295D01*
X72731904Y-113965295D02*
X72684285Y-114155771D01*
X72684285Y-114155771D02*
X72684285Y-114393866D01*
X72684285Y-114393866D02*
X72731904Y-114584342D01*
X72731904Y-114584342D02*
X72779523Y-114679580D01*
X72779523Y-114679580D02*
X72827142Y-114727200D01*
X72827142Y-114727200D02*
X72922380Y-114774819D01*
X72922380Y-114774819D02*
X73017618Y-114774819D01*
X73017618Y-114774819D02*
X73112856Y-114727200D01*
X73112856Y-114727200D02*
X73160475Y-114679580D01*
X73160475Y-114679580D02*
X73208094Y-114584342D01*
X73208094Y-114584342D02*
X73255713Y-114393866D01*
X73255713Y-114393866D02*
X73255713Y-114155771D01*
X73255713Y-114155771D02*
X73208094Y-113965295D01*
X73208094Y-113965295D02*
X73160475Y-113870057D01*
X73160475Y-113870057D02*
X73112856Y-113822438D01*
X73112856Y-113822438D02*
X73017618Y-113774819D01*
X72350951Y-113774819D02*
X71684285Y-113774819D01*
X71684285Y-113774819D02*
X72112856Y-114774819D01*
X88690475Y-114844819D02*
X88690475Y-113844819D01*
X88690475Y-113844819D02*
X88452380Y-113844819D01*
X88452380Y-113844819D02*
X88309523Y-113892438D01*
X88309523Y-113892438D02*
X88214285Y-113987676D01*
X88214285Y-113987676D02*
X88166666Y-114082914D01*
X88166666Y-114082914D02*
X88119047Y-114273390D01*
X88119047Y-114273390D02*
X88119047Y-114416247D01*
X88119047Y-114416247D02*
X88166666Y-114606723D01*
X88166666Y-114606723D02*
X88214285Y-114701961D01*
X88214285Y-114701961D02*
X88309523Y-114797200D01*
X88309523Y-114797200D02*
X88452380Y-114844819D01*
X88452380Y-114844819D02*
X88690475Y-114844819D01*
X87166666Y-114844819D02*
X87738094Y-114844819D01*
X87452380Y-114844819D02*
X87452380Y-113844819D01*
X87452380Y-113844819D02*
X87547618Y-113987676D01*
X87547618Y-113987676D02*
X87642856Y-114082914D01*
X87642856Y-114082914D02*
X87738094Y-114130533D01*
X86547618Y-113844819D02*
X86452380Y-113844819D01*
X86452380Y-113844819D02*
X86357142Y-113892438D01*
X86357142Y-113892438D02*
X86309523Y-113940057D01*
X86309523Y-113940057D02*
X86261904Y-114035295D01*
X86261904Y-114035295D02*
X86214285Y-114225771D01*
X86214285Y-114225771D02*
X86214285Y-114463866D01*
X86214285Y-114463866D02*
X86261904Y-114654342D01*
X86261904Y-114654342D02*
X86309523Y-114749580D01*
X86309523Y-114749580D02*
X86357142Y-114797200D01*
X86357142Y-114797200D02*
X86452380Y-114844819D01*
X86452380Y-114844819D02*
X86547618Y-114844819D01*
X86547618Y-114844819D02*
X86642856Y-114797200D01*
X86642856Y-114797200D02*
X86690475Y-114749580D01*
X86690475Y-114749580D02*
X86738094Y-114654342D01*
X86738094Y-114654342D02*
X86785713Y-114463866D01*
X86785713Y-114463866D02*
X86785713Y-114225771D01*
X86785713Y-114225771D02*
X86738094Y-114035295D01*
X86738094Y-114035295D02*
X86690475Y-113940057D01*
X86690475Y-113940057D02*
X86642856Y-113892438D01*
X86642856Y-113892438D02*
X86547618Y-113844819D01*
X85880951Y-113844819D02*
X85261904Y-113844819D01*
X85261904Y-113844819D02*
X85595237Y-114225771D01*
X85595237Y-114225771D02*
X85452380Y-114225771D01*
X85452380Y-114225771D02*
X85357142Y-114273390D01*
X85357142Y-114273390D02*
X85309523Y-114321009D01*
X85309523Y-114321009D02*
X85261904Y-114416247D01*
X85261904Y-114416247D02*
X85261904Y-114654342D01*
X85261904Y-114654342D02*
X85309523Y-114749580D01*
X85309523Y-114749580D02*
X85357142Y-114797200D01*
X85357142Y-114797200D02*
X85452380Y-114844819D01*
X85452380Y-114844819D02*
X85738094Y-114844819D01*
X85738094Y-114844819D02*
X85833332Y-114797200D01*
X85833332Y-114797200D02*
X85880951Y-114749580D01*
X115597073Y-80727731D02*
X115692312Y-80632493D01*
X115692312Y-80632493D02*
X115787550Y-80346779D01*
X115787550Y-80346779D02*
X115787550Y-80156303D01*
X115787550Y-80156303D02*
X115692312Y-79870588D01*
X115692312Y-79870588D02*
X115501835Y-79680112D01*
X115501835Y-79680112D02*
X115311359Y-79584874D01*
X115311359Y-79584874D02*
X114930407Y-79489636D01*
X114930407Y-79489636D02*
X114644692Y-79489636D01*
X114644692Y-79489636D02*
X114263740Y-79584874D01*
X114263740Y-79584874D02*
X114073264Y-79680112D01*
X114073264Y-79680112D02*
X113882788Y-79870588D01*
X113882788Y-79870588D02*
X113787550Y-80156303D01*
X113787550Y-80156303D02*
X113787550Y-80346779D01*
X113787550Y-80346779D02*
X113882788Y-80632493D01*
X113882788Y-80632493D02*
X113978026Y-80727731D01*
X115787550Y-81870588D02*
X115692312Y-81680112D01*
X115692312Y-81680112D02*
X115597073Y-81584874D01*
X115597073Y-81584874D02*
X115406597Y-81489636D01*
X115406597Y-81489636D02*
X114835169Y-81489636D01*
X114835169Y-81489636D02*
X114644692Y-81584874D01*
X114644692Y-81584874D02*
X114549454Y-81680112D01*
X114549454Y-81680112D02*
X114454216Y-81870588D01*
X114454216Y-81870588D02*
X114454216Y-82156303D01*
X114454216Y-82156303D02*
X114549454Y-82346779D01*
X114549454Y-82346779D02*
X114644692Y-82442017D01*
X114644692Y-82442017D02*
X114835169Y-82537255D01*
X114835169Y-82537255D02*
X115406597Y-82537255D01*
X115406597Y-82537255D02*
X115597073Y-82442017D01*
X115597073Y-82442017D02*
X115692312Y-82346779D01*
X115692312Y-82346779D02*
X115787550Y-82156303D01*
X115787550Y-82156303D02*
X115787550Y-81870588D01*
X114454216Y-84251541D02*
X115787550Y-84251541D01*
X114454216Y-83394398D02*
X115501835Y-83394398D01*
X115501835Y-83394398D02*
X115692312Y-83489636D01*
X115692312Y-83489636D02*
X115787550Y-83680112D01*
X115787550Y-83680112D02*
X115787550Y-83965827D01*
X115787550Y-83965827D02*
X115692312Y-84156303D01*
X115692312Y-84156303D02*
X115597073Y-84251541D01*
X114454216Y-85203922D02*
X115787550Y-85203922D01*
X114644692Y-85203922D02*
X114549454Y-85299160D01*
X114549454Y-85299160D02*
X114454216Y-85489636D01*
X114454216Y-85489636D02*
X114454216Y-85775351D01*
X114454216Y-85775351D02*
X114549454Y-85965827D01*
X114549454Y-85965827D02*
X114739931Y-86061065D01*
X114739931Y-86061065D02*
X115787550Y-86061065D01*
X114454216Y-86727732D02*
X114454216Y-87489636D01*
X113787550Y-87013446D02*
X115501835Y-87013446D01*
X115501835Y-87013446D02*
X115692312Y-87108684D01*
X115692312Y-87108684D02*
X115787550Y-87299160D01*
X115787550Y-87299160D02*
X115787550Y-87489636D01*
X115692312Y-88918208D02*
X115787550Y-88727732D01*
X115787550Y-88727732D02*
X115787550Y-88346779D01*
X115787550Y-88346779D02*
X115692312Y-88156303D01*
X115692312Y-88156303D02*
X115501835Y-88061065D01*
X115501835Y-88061065D02*
X114739931Y-88061065D01*
X114739931Y-88061065D02*
X114549454Y-88156303D01*
X114549454Y-88156303D02*
X114454216Y-88346779D01*
X114454216Y-88346779D02*
X114454216Y-88727732D01*
X114454216Y-88727732D02*
X114549454Y-88918208D01*
X114549454Y-88918208D02*
X114739931Y-89013446D01*
X114739931Y-89013446D02*
X114930407Y-89013446D01*
X114930407Y-89013446D02*
X115120883Y-88061065D01*
X115787550Y-89870589D02*
X114454216Y-89870589D01*
X114835169Y-89870589D02*
X114644692Y-89965827D01*
X114644692Y-89965827D02*
X114549454Y-90061065D01*
X114549454Y-90061065D02*
X114454216Y-90251541D01*
X114454216Y-90251541D02*
X114454216Y-90442018D01*
X114454216Y-91108684D02*
X116454216Y-91108684D01*
X114549454Y-91108684D02*
X114454216Y-91299160D01*
X114454216Y-91299160D02*
X114454216Y-91680113D01*
X114454216Y-91680113D02*
X114549454Y-91870589D01*
X114549454Y-91870589D02*
X114644692Y-91965827D01*
X114644692Y-91965827D02*
X114835169Y-92061065D01*
X114835169Y-92061065D02*
X115406597Y-92061065D01*
X115406597Y-92061065D02*
X115597073Y-91965827D01*
X115597073Y-91965827D02*
X115692312Y-91870589D01*
X115692312Y-91870589D02*
X115787550Y-91680113D01*
X115787550Y-91680113D02*
X115787550Y-91299160D01*
X115787550Y-91299160D02*
X115692312Y-91108684D01*
X115787550Y-93203922D02*
X115692312Y-93013446D01*
X115692312Y-93013446D02*
X115597073Y-92918208D01*
X115597073Y-92918208D02*
X115406597Y-92822970D01*
X115406597Y-92822970D02*
X114835169Y-92822970D01*
X114835169Y-92822970D02*
X114644692Y-92918208D01*
X114644692Y-92918208D02*
X114549454Y-93013446D01*
X114549454Y-93013446D02*
X114454216Y-93203922D01*
X114454216Y-93203922D02*
X114454216Y-93489637D01*
X114454216Y-93489637D02*
X114549454Y-93680113D01*
X114549454Y-93680113D02*
X114644692Y-93775351D01*
X114644692Y-93775351D02*
X114835169Y-93870589D01*
X114835169Y-93870589D02*
X115406597Y-93870589D01*
X115406597Y-93870589D02*
X115597073Y-93775351D01*
X115597073Y-93775351D02*
X115692312Y-93680113D01*
X115692312Y-93680113D02*
X115787550Y-93489637D01*
X115787550Y-93489637D02*
X115787550Y-93203922D01*
X115787550Y-94727732D02*
X114454216Y-94727732D01*
X113787550Y-94727732D02*
X113882788Y-94632494D01*
X113882788Y-94632494D02*
X113978026Y-94727732D01*
X113978026Y-94727732D02*
X113882788Y-94822970D01*
X113882788Y-94822970D02*
X113787550Y-94727732D01*
X113787550Y-94727732D02*
X113978026Y-94727732D01*
X115692312Y-95584875D02*
X115787550Y-95775351D01*
X115787550Y-95775351D02*
X115787550Y-96156303D01*
X115787550Y-96156303D02*
X115692312Y-96346780D01*
X115692312Y-96346780D02*
X115501835Y-96442018D01*
X115501835Y-96442018D02*
X115406597Y-96442018D01*
X115406597Y-96442018D02*
X115216121Y-96346780D01*
X115216121Y-96346780D02*
X115120883Y-96156303D01*
X115120883Y-96156303D02*
X115120883Y-95870589D01*
X115120883Y-95870589D02*
X115025645Y-95680113D01*
X115025645Y-95680113D02*
X114835169Y-95584875D01*
X114835169Y-95584875D02*
X114739931Y-95584875D01*
X114739931Y-95584875D02*
X114549454Y-95680113D01*
X114549454Y-95680113D02*
X114454216Y-95870589D01*
X114454216Y-95870589D02*
X114454216Y-96156303D01*
X114454216Y-96156303D02*
X114549454Y-96346780D01*
X115692312Y-98061066D02*
X115787550Y-97870590D01*
X115787550Y-97870590D02*
X115787550Y-97489637D01*
X115787550Y-97489637D02*
X115692312Y-97299161D01*
X115692312Y-97299161D02*
X115501835Y-97203923D01*
X115501835Y-97203923D02*
X114739931Y-97203923D01*
X114739931Y-97203923D02*
X114549454Y-97299161D01*
X114549454Y-97299161D02*
X114454216Y-97489637D01*
X114454216Y-97489637D02*
X114454216Y-97870590D01*
X114454216Y-97870590D02*
X114549454Y-98061066D01*
X114549454Y-98061066D02*
X114739931Y-98156304D01*
X114739931Y-98156304D02*
X114930407Y-98156304D01*
X114930407Y-98156304D02*
X115120883Y-97203923D01*
X117959819Y-79584874D02*
X117959819Y-80251541D01*
X119007438Y-80537255D02*
X119007438Y-79584874D01*
X119007438Y-79584874D02*
X117007438Y-79584874D01*
X117007438Y-79584874D02*
X117007438Y-80537255D01*
X119007438Y-81680112D02*
X118912200Y-81489636D01*
X118912200Y-81489636D02*
X118721723Y-81394398D01*
X118721723Y-81394398D02*
X117007438Y-81394398D01*
X118912200Y-83203922D02*
X119007438Y-83013446D01*
X119007438Y-83013446D02*
X119007438Y-82632493D01*
X119007438Y-82632493D02*
X118912200Y-82442017D01*
X118912200Y-82442017D02*
X118721723Y-82346779D01*
X118721723Y-82346779D02*
X117959819Y-82346779D01*
X117959819Y-82346779D02*
X117769342Y-82442017D01*
X117769342Y-82442017D02*
X117674104Y-82632493D01*
X117674104Y-82632493D02*
X117674104Y-83013446D01*
X117674104Y-83013446D02*
X117769342Y-83203922D01*
X117769342Y-83203922D02*
X117959819Y-83299160D01*
X117959819Y-83299160D02*
X118150295Y-83299160D01*
X118150295Y-83299160D02*
X118340771Y-82346779D01*
X119007438Y-84156303D02*
X117674104Y-84156303D01*
X117864580Y-84156303D02*
X117769342Y-84251541D01*
X117769342Y-84251541D02*
X117674104Y-84442017D01*
X117674104Y-84442017D02*
X117674104Y-84727732D01*
X117674104Y-84727732D02*
X117769342Y-84918208D01*
X117769342Y-84918208D02*
X117959819Y-85013446D01*
X117959819Y-85013446D02*
X119007438Y-85013446D01*
X117959819Y-85013446D02*
X117769342Y-85108684D01*
X117769342Y-85108684D02*
X117674104Y-85299160D01*
X117674104Y-85299160D02*
X117674104Y-85584874D01*
X117674104Y-85584874D02*
X117769342Y-85775351D01*
X117769342Y-85775351D02*
X117959819Y-85870589D01*
X117959819Y-85870589D02*
X119007438Y-85870589D01*
X118912200Y-87584875D02*
X119007438Y-87394399D01*
X119007438Y-87394399D02*
X119007438Y-87013446D01*
X119007438Y-87013446D02*
X118912200Y-86822970D01*
X118912200Y-86822970D02*
X118721723Y-86727732D01*
X118721723Y-86727732D02*
X117959819Y-86727732D01*
X117959819Y-86727732D02*
X117769342Y-86822970D01*
X117769342Y-86822970D02*
X117674104Y-87013446D01*
X117674104Y-87013446D02*
X117674104Y-87394399D01*
X117674104Y-87394399D02*
X117769342Y-87584875D01*
X117769342Y-87584875D02*
X117959819Y-87680113D01*
X117959819Y-87680113D02*
X118150295Y-87680113D01*
X118150295Y-87680113D02*
X118340771Y-86727732D01*
X117674104Y-88537256D02*
X119007438Y-88537256D01*
X117864580Y-88537256D02*
X117769342Y-88632494D01*
X117769342Y-88632494D02*
X117674104Y-88822970D01*
X117674104Y-88822970D02*
X117674104Y-89108685D01*
X117674104Y-89108685D02*
X117769342Y-89299161D01*
X117769342Y-89299161D02*
X117959819Y-89394399D01*
X117959819Y-89394399D02*
X119007438Y-89394399D01*
X117674104Y-90061066D02*
X117674104Y-90822970D01*
X117007438Y-90346780D02*
X118721723Y-90346780D01*
X118721723Y-90346780D02*
X118912200Y-90442018D01*
X118912200Y-90442018D02*
X119007438Y-90632494D01*
X119007438Y-90632494D02*
X119007438Y-90822970D01*
X118912200Y-91394399D02*
X119007438Y-91584875D01*
X119007438Y-91584875D02*
X119007438Y-91965827D01*
X119007438Y-91965827D02*
X118912200Y-92156304D01*
X118912200Y-92156304D02*
X118721723Y-92251542D01*
X118721723Y-92251542D02*
X118626485Y-92251542D01*
X118626485Y-92251542D02*
X118436009Y-92156304D01*
X118436009Y-92156304D02*
X118340771Y-91965827D01*
X118340771Y-91965827D02*
X118340771Y-91680113D01*
X118340771Y-91680113D02*
X118245533Y-91489637D01*
X118245533Y-91489637D02*
X118055057Y-91394399D01*
X118055057Y-91394399D02*
X117959819Y-91394399D01*
X117959819Y-91394399D02*
X117769342Y-91489637D01*
X117769342Y-91489637D02*
X117674104Y-91680113D01*
X117674104Y-91680113D02*
X117674104Y-91965827D01*
X117674104Y-91965827D02*
X117769342Y-92156304D01*
X117007438Y-93394399D02*
X117483628Y-93394399D01*
X117293152Y-92918209D02*
X117483628Y-93394399D01*
X117483628Y-93394399D02*
X117293152Y-93870590D01*
X117864580Y-93108685D02*
X117483628Y-93394399D01*
X117483628Y-93394399D02*
X117864580Y-93680114D01*
D11*
X135874938Y-71484438D02*
X135874938Y-71960628D01*
X136351128Y-71770152D02*
X135874938Y-71960628D01*
X135874938Y-71960628D02*
X135398747Y-71770152D01*
X136160652Y-72341580D02*
X135874938Y-71960628D01*
X135874938Y-71960628D02*
X135589223Y-72341580D01*
X123024938Y-60654438D02*
X123024938Y-61130628D01*
X123501128Y-60940152D02*
X123024938Y-61130628D01*
X123024938Y-61130628D02*
X122548747Y-60940152D01*
X123310652Y-61511580D02*
X123024938Y-61130628D01*
X123024938Y-61130628D02*
X122739223Y-61511580D01*
D10*
X61510475Y-114814819D02*
X61510475Y-113814819D01*
X61510475Y-113814819D02*
X61272380Y-113814819D01*
X61272380Y-113814819D02*
X61129523Y-113862438D01*
X61129523Y-113862438D02*
X61034285Y-113957676D01*
X61034285Y-113957676D02*
X60986666Y-114052914D01*
X60986666Y-114052914D02*
X60939047Y-114243390D01*
X60939047Y-114243390D02*
X60939047Y-114386247D01*
X60939047Y-114386247D02*
X60986666Y-114576723D01*
X60986666Y-114576723D02*
X61034285Y-114671961D01*
X61034285Y-114671961D02*
X61129523Y-114767200D01*
X61129523Y-114767200D02*
X61272380Y-114814819D01*
X61272380Y-114814819D02*
X61510475Y-114814819D01*
X59986666Y-114814819D02*
X60558094Y-114814819D01*
X60272380Y-114814819D02*
X60272380Y-113814819D01*
X60272380Y-113814819D02*
X60367618Y-113957676D01*
X60367618Y-113957676D02*
X60462856Y-114052914D01*
X60462856Y-114052914D02*
X60558094Y-114100533D01*
X59034285Y-114814819D02*
X59605713Y-114814819D01*
X59319999Y-114814819D02*
X59319999Y-113814819D01*
X59319999Y-113814819D02*
X59415237Y-113957676D01*
X59415237Y-113957676D02*
X59510475Y-114052914D01*
X59510475Y-114052914D02*
X59605713Y-114100533D01*
X58081904Y-114814819D02*
X58653332Y-114814819D01*
X58367618Y-114814819D02*
X58367618Y-113814819D01*
X58367618Y-113814819D02*
X58462856Y-113957676D01*
X58462856Y-113957676D02*
X58558094Y-114052914D01*
X58558094Y-114052914D02*
X58653332Y-114100533D01*
D12*
X62265000Y-111825000D02*
X62265000Y-108735000D01*
X56715000Y-110280000D02*
G75*
G02*
X62265000Y-108735170I2990000J0D01*
G01*
X62265000Y-111824830D02*
G75*
G02*
X56715000Y-110280000I-2560000J1544830D01*
G01*
X62205000Y-110280000D02*
G75*
G02*
X57205000Y-110280000I-2500000J0D01*
G01*
X57205000Y-110280000D02*
G75*
G02*
X62205000Y-110280000I2500000J0D01*
G01*
X82840000Y-111895001D02*
X82840000Y-108805001D01*
X77290000Y-110350001D02*
G75*
G02*
X82840000Y-108805171I2990000J0D01*
G01*
X82840000Y-111894831D02*
G75*
G02*
X77290000Y-110350001I-2560000J1544831D01*
G01*
X82780000Y-110350001D02*
G75*
G02*
X77780000Y-110350001I-2500000J0D01*
G01*
X77780000Y-110350001D02*
G75*
G02*
X82780000Y-110350001I2500000J0D01*
G01*
X76025001Y-111905000D02*
X76025001Y-108815000D01*
X70475001Y-110360000D02*
G75*
G02*
X76025001Y-108815170I2990000J0D01*
G01*
X76025001Y-111904830D02*
G75*
G02*
X70475001Y-110360000I-2560000J1544830D01*
G01*
X75965001Y-110360000D02*
G75*
G02*
X70965001Y-110360000I-2500000J0D01*
G01*
X70965001Y-110360000D02*
G75*
G02*
X75965001Y-110360000I2500000J0D01*
G01*
X69165000Y-111865001D02*
X69165000Y-108775001D01*
X63615000Y-110320001D02*
G75*
G02*
X69165000Y-108775171I2990000J0D01*
G01*
X69165000Y-111864831D02*
G75*
G02*
X63615000Y-110320001I-2560000J1544831D01*
G01*
X69105000Y-110320001D02*
G75*
G02*
X64105000Y-110320001I-2500000J0D01*
G01*
X64105000Y-110320001D02*
G75*
G02*
X69105000Y-110320001I2500000J0D01*
G01*
X89625000Y-111895000D02*
X89625000Y-108805000D01*
X84075000Y-110350000D02*
G75*
G02*
X89625000Y-108805170I2990000J0D01*
G01*
X89625000Y-111894830D02*
G75*
G02*
X84075000Y-110350000I-2560000J1544830D01*
G01*
X89565000Y-110350000D02*
G75*
G02*
X84565000Y-110350000I-2500000J0D01*
G01*
X84565000Y-110350000D02*
G75*
G02*
X89565000Y-110350000I2500000J0D01*
G01*
%LPC*%
D13*
X88535900Y-82062800D03*
D14*
X88535900Y-83862800D03*
X91405900Y-90872800D03*
D13*
X91405900Y-92672800D03*
D14*
X84175900Y-87892800D03*
D13*
X84175900Y-89692800D03*
X96825900Y-75362800D03*
D14*
X96825900Y-77162800D03*
D15*
X126710000Y-63270000D03*
X134760000Y-101730000D03*
X134400000Y-75470000D03*
D16*
X82280000Y-103014315D03*
D17*
X82280000Y-105554315D03*
D18*
X87610000Y-75360000D03*
X69900000Y-63490000D03*
D19*
X128460000Y-98850000D03*
D20*
X61065000Y-110280000D03*
D21*
X58525000Y-110280000D03*
D17*
X85390000Y-100695000D03*
X85390000Y-105775000D03*
D16*
X61550000Y-103000000D03*
D17*
X61550000Y-105540000D03*
D22*
X126980000Y-88034900D03*
D23*
X132060000Y-82954900D03*
D24*
X126980000Y-85494900D03*
D23*
X132060000Y-93114900D03*
D18*
X74880000Y-71620000D03*
D25*
X95566369Y-104570000D03*
D17*
X93066369Y-104570000D03*
D15*
X126710000Y-112680000D03*
D26*
X128125000Y-70572400D03*
D16*
X75380000Y-103134315D03*
D17*
X75380000Y-105674315D03*
D23*
X121330000Y-88034900D03*
D16*
X68360000Y-103000000D03*
D17*
X68360000Y-105540000D03*
D19*
X122970000Y-67190000D03*
X128660000Y-76910000D03*
D26*
X51925000Y-105497400D03*
D19*
X53600000Y-88034900D03*
D18*
X70290000Y-94590000D03*
D17*
X71700000Y-100730000D03*
X71700000Y-105810000D03*
D15*
X60790000Y-88034900D03*
D26*
X128125000Y-105497400D03*
D19*
X122650000Y-108300000D03*
D17*
X91010000Y-99000000D03*
X91010000Y-96500000D03*
D20*
X81550000Y-110350000D03*
D21*
X79010000Y-110350000D03*
D19*
X104010000Y-72020000D03*
X104010000Y-99760000D03*
X104010000Y-106310000D03*
X104010000Y-112890000D03*
X118050000Y-72020000D03*
X118050000Y-99760000D03*
X118050000Y-106310000D03*
X118050000Y-112890000D03*
D14*
X101230000Y-79560000D03*
D27*
X102730000Y-79560000D03*
X119100000Y-63370000D03*
D14*
X120660000Y-63370000D03*
D28*
X94170000Y-99240000D03*
D17*
X97980000Y-99240000D03*
D26*
X51925000Y-70572400D03*
D17*
X78640000Y-100675000D03*
X78640000Y-105755000D03*
D18*
X75170000Y-86270000D03*
D25*
X98160686Y-96170000D03*
D17*
X94350686Y-96170000D03*
D20*
X74735000Y-110360000D03*
D21*
X72195000Y-110360000D03*
D29*
X98250000Y-110300000D03*
X95710000Y-110300000D03*
X93170000Y-110300000D03*
D17*
X97150000Y-91800000D03*
X94650000Y-91800000D03*
X58040000Y-100745000D03*
X58040000Y-105825000D03*
D19*
X126800000Y-93660000D03*
X136120000Y-93610000D03*
X126850000Y-82390000D03*
D17*
X64770000Y-100730000D03*
X64770000Y-105810000D03*
D19*
X136120000Y-82440000D03*
D20*
X67875000Y-110320000D03*
D21*
X65335000Y-110320000D03*
D18*
X96130000Y-71050000D03*
D20*
X88335000Y-110350000D03*
D21*
X85795000Y-110350000D03*
D19*
X46410000Y-88034900D03*
%LPD*%
M02*
