G04 #@! TF.GenerationSoftware,KiCad,Pcbnew,9.0.4*
G04 #@! TF.CreationDate,2025-12-30T20:19:11-05:00*
G04 #@! TF.ProjectId,SignalStreamer,5369676e-616c-4537-9472-65616d65722e,rev?*
G04 #@! TF.SameCoordinates,Original*
G04 #@! TF.FileFunction,Legend,Top*
G04 #@! TF.FilePolarity,Positive*
%FSLAX46Y46*%
G04 Gerber Fmt 4.6, Leading zero omitted, Abs format (unit mm)*
G04 Created by KiCad (PCBNEW 9.0.4) date 2025-12-30 20:19:11*
%MOMM*%
%LPD*%
G01*
G04 APERTURE LIST*
G04 Aperture macros list*
%AMRoundRect*
0 Rectangle with rounded corners*
0 $1 Rounding radius*
0 $2 $3 $4 $5 $6 $7 $8 $9 X,Y pos of 4 corners*
0 Add a 4 corners polygon primitive as box body*
4,1,4,$2,$3,$4,$5,$6,$7,$8,$9,$2,$3,0*
0 Add four circle primitives for the rounded corners*
1,1,$1+$1,$2,$3*
1,1,$1+$1,$4,$5*
1,1,$1+$1,$6,$7*
1,1,$1+$1,$8,$9*
0 Add four rect primitives between the rounded corners*
20,1,$1+$1,$2,$3,$4,$5,0*
20,1,$1+$1,$4,$5,$6,$7,0*
20,1,$1+$1,$6,$7,$8,$9,0*
20,1,$1+$1,$8,$9,$2,$3,0*%
G04 Aperture macros list end*
%ADD10C,0.150000*%
%ADD11C,0.250000*%
%ADD12C,0.120000*%
%ADD13C,2.600000*%
%ADD14C,5.000000*%
%ADD15RoundRect,0.250000X-0.550000X-0.550000X0.550000X-0.550000X0.550000X0.550000X-0.550000X0.550000X0*%
%ADD16C,1.600000*%
%ADD17C,3.000000*%
%ADD18R,1.800000X1.800000*%
%ADD19C,1.800000*%
%ADD20O,2.500000X1.600000*%
%ADD21C,3.500000*%
%ADD22RoundRect,0.250000X-1.000000X0.550000X-1.000000X-0.550000X1.000000X-0.550000X1.000000X0.550000X0*%
%ADD23C,7.000000*%
%ADD24RoundRect,0.250000X0.550000X-0.550000X0.550000X0.550000X-0.550000X0.550000X-0.550000X-0.550000X0*%
%ADD25RoundRect,0.250000X0.550000X0.550000X-0.550000X0.550000X-0.550000X-0.550000X0.550000X-0.550000X0*%
%ADD26C,1.440000*%
G04 APERTURE END LIST*
D10*
X80801614Y-71457619D02*
X81373042Y-71457619D01*
X81087328Y-72457619D02*
X81087328Y-71457619D01*
X82230185Y-72457619D02*
X81658757Y-72457619D01*
X81944471Y-72457619D02*
X81944471Y-71457619D01*
X81944471Y-71457619D02*
X81849233Y-71600476D01*
X81849233Y-71600476D02*
X81753995Y-71695714D01*
X81753995Y-71695714D02*
X81658757Y-71743333D01*
X82849233Y-71457619D02*
X82944471Y-71457619D01*
X82944471Y-71457619D02*
X83039709Y-71505238D01*
X83039709Y-71505238D02*
X83087328Y-71552857D01*
X83087328Y-71552857D02*
X83134947Y-71648095D01*
X83134947Y-71648095D02*
X83182566Y-71838571D01*
X83182566Y-71838571D02*
X83182566Y-72076666D01*
X83182566Y-72076666D02*
X83134947Y-72267142D01*
X83134947Y-72267142D02*
X83087328Y-72362380D01*
X83087328Y-72362380D02*
X83039709Y-72410000D01*
X83039709Y-72410000D02*
X82944471Y-72457619D01*
X82944471Y-72457619D02*
X82849233Y-72457619D01*
X82849233Y-72457619D02*
X82753995Y-72410000D01*
X82753995Y-72410000D02*
X82706376Y-72362380D01*
X82706376Y-72362380D02*
X82658757Y-72267142D01*
X82658757Y-72267142D02*
X82611138Y-72076666D01*
X82611138Y-72076666D02*
X82611138Y-71838571D01*
X82611138Y-71838571D02*
X82658757Y-71648095D01*
X82658757Y-71648095D02*
X82706376Y-71552857D01*
X82706376Y-71552857D02*
X82753995Y-71505238D01*
X82753995Y-71505238D02*
X82849233Y-71457619D01*
X84134947Y-72457619D02*
X83563519Y-72457619D01*
X83849233Y-72457619D02*
X83849233Y-71457619D01*
X83849233Y-71457619D02*
X83753995Y-71600476D01*
X83753995Y-71600476D02*
X83658757Y-71695714D01*
X83658757Y-71695714D02*
X83563519Y-71743333D01*
X82780000Y-88732295D02*
X82780000Y-87932295D01*
X82780000Y-87932295D02*
X83084762Y-87932295D01*
X83084762Y-87932295D02*
X83160952Y-87970390D01*
X83160952Y-87970390D02*
X83199047Y-88008485D01*
X83199047Y-88008485D02*
X83237143Y-88084676D01*
X83237143Y-88084676D02*
X83237143Y-88198961D01*
X83237143Y-88198961D02*
X83199047Y-88275152D01*
X83199047Y-88275152D02*
X83160952Y-88313247D01*
X83160952Y-88313247D02*
X83084762Y-88351342D01*
X83084762Y-88351342D02*
X82780000Y-88351342D01*
X83618095Y-87932295D02*
X83541904Y-88084676D01*
X86580475Y-83344200D02*
X86694761Y-83382295D01*
X86694761Y-83382295D02*
X86885237Y-83382295D01*
X86885237Y-83382295D02*
X86961428Y-83344200D01*
X86961428Y-83344200D02*
X86999523Y-83306104D01*
X86999523Y-83306104D02*
X87037618Y-83229914D01*
X87037618Y-83229914D02*
X87037618Y-83153723D01*
X87037618Y-83153723D02*
X86999523Y-83077533D01*
X86999523Y-83077533D02*
X86961428Y-83039438D01*
X86961428Y-83039438D02*
X86885237Y-83001342D01*
X86885237Y-83001342D02*
X86732856Y-82963247D01*
X86732856Y-82963247D02*
X86656666Y-82925152D01*
X86656666Y-82925152D02*
X86618571Y-82887057D01*
X86618571Y-82887057D02*
X86580475Y-82810866D01*
X86580475Y-82810866D02*
X86580475Y-82734676D01*
X86580475Y-82734676D02*
X86618571Y-82658485D01*
X86618571Y-82658485D02*
X86656666Y-82620390D01*
X86656666Y-82620390D02*
X86732856Y-82582295D01*
X86732856Y-82582295D02*
X86923333Y-82582295D01*
X86923333Y-82582295D02*
X87037618Y-82620390D01*
X87799523Y-83382295D02*
X87342380Y-83382295D01*
X87570952Y-83382295D02*
X87570952Y-82582295D01*
X87570952Y-82582295D02*
X87494761Y-82696580D01*
X87494761Y-82696580D02*
X87418571Y-82772771D01*
X87418571Y-82772771D02*
X87342380Y-82810866D01*
X98509999Y-93574200D02*
X98624285Y-93612295D01*
X98624285Y-93612295D02*
X98814761Y-93612295D01*
X98814761Y-93612295D02*
X98890952Y-93574200D01*
X98890952Y-93574200D02*
X98929047Y-93536104D01*
X98929047Y-93536104D02*
X98967142Y-93459914D01*
X98967142Y-93459914D02*
X98967142Y-93383723D01*
X98967142Y-93383723D02*
X98929047Y-93307533D01*
X98929047Y-93307533D02*
X98890952Y-93269438D01*
X98890952Y-93269438D02*
X98814761Y-93231342D01*
X98814761Y-93231342D02*
X98662380Y-93193247D01*
X98662380Y-93193247D02*
X98586190Y-93155152D01*
X98586190Y-93155152D02*
X98548095Y-93117057D01*
X98548095Y-93117057D02*
X98509999Y-93040866D01*
X98509999Y-93040866D02*
X98509999Y-92964676D01*
X98509999Y-92964676D02*
X98548095Y-92888485D01*
X98548095Y-92888485D02*
X98586190Y-92850390D01*
X98586190Y-92850390D02*
X98662380Y-92812295D01*
X98662380Y-92812295D02*
X98852857Y-92812295D01*
X98852857Y-92812295D02*
X98967142Y-92850390D01*
X99729047Y-93612295D02*
X99271904Y-93612295D01*
X99500476Y-93612295D02*
X99500476Y-92812295D01*
X99500476Y-92812295D02*
X99424285Y-92926580D01*
X99424285Y-92926580D02*
X99348095Y-93002771D01*
X99348095Y-93002771D02*
X99271904Y-93040866D01*
X100110000Y-92812295D02*
X100033809Y-92964676D01*
X102440476Y-80932295D02*
X102440476Y-80132295D01*
X102440476Y-80132295D02*
X102745238Y-80132295D01*
X102745238Y-80132295D02*
X102821428Y-80170390D01*
X102821428Y-80170390D02*
X102859523Y-80208485D01*
X102859523Y-80208485D02*
X102897619Y-80284676D01*
X102897619Y-80284676D02*
X102897619Y-80398961D01*
X102897619Y-80398961D02*
X102859523Y-80475152D01*
X102859523Y-80475152D02*
X102821428Y-80513247D01*
X102821428Y-80513247D02*
X102745238Y-80551342D01*
X102745238Y-80551342D02*
X102440476Y-80551342D01*
X78189524Y-101224819D02*
X78189524Y-100224819D01*
X78189524Y-100224819D02*
X78427619Y-100224819D01*
X78427619Y-100224819D02*
X78570476Y-100272438D01*
X78570476Y-100272438D02*
X78665714Y-100367676D01*
X78665714Y-100367676D02*
X78713333Y-100462914D01*
X78713333Y-100462914D02*
X78760952Y-100653390D01*
X78760952Y-100653390D02*
X78760952Y-100796247D01*
X78760952Y-100796247D02*
X78713333Y-100986723D01*
X78713333Y-100986723D02*
X78665714Y-101081961D01*
X78665714Y-101081961D02*
X78570476Y-101177200D01*
X78570476Y-101177200D02*
X78427619Y-101224819D01*
X78427619Y-101224819D02*
X78189524Y-101224819D01*
X79713333Y-101224819D02*
X79141905Y-101224819D01*
X79427619Y-101224819D02*
X79427619Y-100224819D01*
X79427619Y-100224819D02*
X79332381Y-100367676D01*
X79332381Y-100367676D02*
X79237143Y-100462914D01*
X79237143Y-100462914D02*
X79141905Y-100510533D01*
X80332381Y-100224819D02*
X80427619Y-100224819D01*
X80427619Y-100224819D02*
X80522857Y-100272438D01*
X80522857Y-100272438D02*
X80570476Y-100320057D01*
X80570476Y-100320057D02*
X80618095Y-100415295D01*
X80618095Y-100415295D02*
X80665714Y-100605771D01*
X80665714Y-100605771D02*
X80665714Y-100843866D01*
X80665714Y-100843866D02*
X80618095Y-101034342D01*
X80618095Y-101034342D02*
X80570476Y-101129580D01*
X80570476Y-101129580D02*
X80522857Y-101177200D01*
X80522857Y-101177200D02*
X80427619Y-101224819D01*
X80427619Y-101224819D02*
X80332381Y-101224819D01*
X80332381Y-101224819D02*
X80237143Y-101177200D01*
X80237143Y-101177200D02*
X80189524Y-101129580D01*
X80189524Y-101129580D02*
X80141905Y-101034342D01*
X80141905Y-101034342D02*
X80094286Y-100843866D01*
X80094286Y-100843866D02*
X80094286Y-100605771D01*
X80094286Y-100605771D02*
X80141905Y-100415295D01*
X80141905Y-100415295D02*
X80189524Y-100320057D01*
X80189524Y-100320057D02*
X80237143Y-100272438D01*
X80237143Y-100272438D02*
X80332381Y-100224819D01*
X81522857Y-100558152D02*
X81522857Y-101224819D01*
X81284762Y-100177200D02*
X81046667Y-100891485D01*
X81046667Y-100891485D02*
X81665714Y-100891485D01*
X76978095Y-101554819D02*
X76978095Y-100554819D01*
X77549523Y-101554819D02*
X77120952Y-100983390D01*
X77549523Y-100554819D02*
X76978095Y-101126247D01*
X57839524Y-114684819D02*
X57839524Y-113684819D01*
X57839524Y-113684819D02*
X58077619Y-113684819D01*
X58077619Y-113684819D02*
X58220476Y-113732438D01*
X58220476Y-113732438D02*
X58315714Y-113827676D01*
X58315714Y-113827676D02*
X58363333Y-113922914D01*
X58363333Y-113922914D02*
X58410952Y-114113390D01*
X58410952Y-114113390D02*
X58410952Y-114256247D01*
X58410952Y-114256247D02*
X58363333Y-114446723D01*
X58363333Y-114446723D02*
X58315714Y-114541961D01*
X58315714Y-114541961D02*
X58220476Y-114637200D01*
X58220476Y-114637200D02*
X58077619Y-114684819D01*
X58077619Y-114684819D02*
X57839524Y-114684819D01*
X59363333Y-114684819D02*
X58791905Y-114684819D01*
X59077619Y-114684819D02*
X59077619Y-113684819D01*
X59077619Y-113684819D02*
X58982381Y-113827676D01*
X58982381Y-113827676D02*
X58887143Y-113922914D01*
X58887143Y-113922914D02*
X58791905Y-113970533D01*
X60315714Y-114684819D02*
X59744286Y-114684819D01*
X60030000Y-114684819D02*
X60030000Y-113684819D01*
X60030000Y-113684819D02*
X59934762Y-113827676D01*
X59934762Y-113827676D02*
X59839524Y-113922914D01*
X59839524Y-113922914D02*
X59744286Y-113970533D01*
X60934762Y-113684819D02*
X61030000Y-113684819D01*
X61030000Y-113684819D02*
X61125238Y-113732438D01*
X61125238Y-113732438D02*
X61172857Y-113780057D01*
X61172857Y-113780057D02*
X61220476Y-113875295D01*
X61220476Y-113875295D02*
X61268095Y-114065771D01*
X61268095Y-114065771D02*
X61268095Y-114303866D01*
X61268095Y-114303866D02*
X61220476Y-114494342D01*
X61220476Y-114494342D02*
X61172857Y-114589580D01*
X61172857Y-114589580D02*
X61125238Y-114637200D01*
X61125238Y-114637200D02*
X61030000Y-114684819D01*
X61030000Y-114684819D02*
X60934762Y-114684819D01*
X60934762Y-114684819D02*
X60839524Y-114637200D01*
X60839524Y-114637200D02*
X60791905Y-114589580D01*
X60791905Y-114589580D02*
X60744286Y-114494342D01*
X60744286Y-114494342D02*
X60696667Y-114303866D01*
X60696667Y-114303866D02*
X60696667Y-114065771D01*
X60696667Y-114065771D02*
X60744286Y-113875295D01*
X60744286Y-113875295D02*
X60791905Y-113780057D01*
X60791905Y-113780057D02*
X60839524Y-113732438D01*
X60839524Y-113732438D02*
X60934762Y-113684819D01*
X94760952Y-105864819D02*
X94427619Y-105388628D01*
X94189524Y-105864819D02*
X94189524Y-104864819D01*
X94189524Y-104864819D02*
X94570476Y-104864819D01*
X94570476Y-104864819D02*
X94665714Y-104912438D01*
X94665714Y-104912438D02*
X94713333Y-104960057D01*
X94713333Y-104960057D02*
X94760952Y-105055295D01*
X94760952Y-105055295D02*
X94760952Y-105198152D01*
X94760952Y-105198152D02*
X94713333Y-105293390D01*
X94713333Y-105293390D02*
X94665714Y-105341009D01*
X94665714Y-105341009D02*
X94570476Y-105388628D01*
X94570476Y-105388628D02*
X94189524Y-105388628D01*
X95713333Y-105864819D02*
X95141905Y-105864819D01*
X95427619Y-105864819D02*
X95427619Y-104864819D01*
X95427619Y-104864819D02*
X95332381Y-105007676D01*
X95332381Y-105007676D02*
X95237143Y-105102914D01*
X95237143Y-105102914D02*
X95141905Y-105150533D01*
X96332381Y-104864819D02*
X96427619Y-104864819D01*
X96427619Y-104864819D02*
X96522857Y-104912438D01*
X96522857Y-104912438D02*
X96570476Y-104960057D01*
X96570476Y-104960057D02*
X96618095Y-105055295D01*
X96618095Y-105055295D02*
X96665714Y-105245771D01*
X96665714Y-105245771D02*
X96665714Y-105483866D01*
X96665714Y-105483866D02*
X96618095Y-105674342D01*
X96618095Y-105674342D02*
X96570476Y-105769580D01*
X96570476Y-105769580D02*
X96522857Y-105817200D01*
X96522857Y-105817200D02*
X96427619Y-105864819D01*
X96427619Y-105864819D02*
X96332381Y-105864819D01*
X96332381Y-105864819D02*
X96237143Y-105817200D01*
X96237143Y-105817200D02*
X96189524Y-105769580D01*
X96189524Y-105769580D02*
X96141905Y-105674342D01*
X96141905Y-105674342D02*
X96094286Y-105483866D01*
X96094286Y-105483866D02*
X96094286Y-105245771D01*
X96094286Y-105245771D02*
X96141905Y-105055295D01*
X96141905Y-105055295D02*
X96189524Y-104960057D01*
X96189524Y-104960057D02*
X96237143Y-104912438D01*
X96237143Y-104912438D02*
X96332381Y-104864819D01*
X97618095Y-105864819D02*
X97046667Y-105864819D01*
X97332381Y-105864819D02*
X97332381Y-104864819D01*
X97332381Y-104864819D02*
X97237143Y-105007676D01*
X97237143Y-105007676D02*
X97141905Y-105102914D01*
X97141905Y-105102914D02*
X97046667Y-105150533D01*
X130619819Y-88913214D02*
X131334104Y-88913214D01*
X131334104Y-88913214D02*
X131476961Y-88960833D01*
X131476961Y-88960833D02*
X131572200Y-89056071D01*
X131572200Y-89056071D02*
X131619819Y-89198928D01*
X131619819Y-89198928D02*
X131619819Y-89294166D01*
X131619819Y-87913214D02*
X131619819Y-88484642D01*
X131619819Y-88198928D02*
X130619819Y-88198928D01*
X130619819Y-88198928D02*
X130762676Y-88294166D01*
X130762676Y-88294166D02*
X130857914Y-88389404D01*
X130857914Y-88389404D02*
X130905533Y-88484642D01*
X130619819Y-87294166D02*
X130619819Y-87198928D01*
X130619819Y-87198928D02*
X130667438Y-87103690D01*
X130667438Y-87103690D02*
X130715057Y-87056071D01*
X130715057Y-87056071D02*
X130810295Y-87008452D01*
X130810295Y-87008452D02*
X131000771Y-86960833D01*
X131000771Y-86960833D02*
X131238866Y-86960833D01*
X131238866Y-86960833D02*
X131429342Y-87008452D01*
X131429342Y-87008452D02*
X131524580Y-87056071D01*
X131524580Y-87056071D02*
X131572200Y-87103690D01*
X131572200Y-87103690D02*
X131619819Y-87198928D01*
X131619819Y-87198928D02*
X131619819Y-87294166D01*
X131619819Y-87294166D02*
X131572200Y-87389404D01*
X131572200Y-87389404D02*
X131524580Y-87437023D01*
X131524580Y-87437023D02*
X131429342Y-87484642D01*
X131429342Y-87484642D02*
X131238866Y-87532261D01*
X131238866Y-87532261D02*
X131000771Y-87532261D01*
X131000771Y-87532261D02*
X130810295Y-87484642D01*
X130810295Y-87484642D02*
X130715057Y-87437023D01*
X130715057Y-87437023D02*
X130667438Y-87389404D01*
X130667438Y-87389404D02*
X130619819Y-87294166D01*
X130619819Y-86056071D02*
X130619819Y-86532261D01*
X130619819Y-86532261D02*
X131096009Y-86579880D01*
X131096009Y-86579880D02*
X131048390Y-86532261D01*
X131048390Y-86532261D02*
X131000771Y-86437023D01*
X131000771Y-86437023D02*
X131000771Y-86198928D01*
X131000771Y-86198928D02*
X131048390Y-86103690D01*
X131048390Y-86103690D02*
X131096009Y-86056071D01*
X131096009Y-86056071D02*
X131191247Y-86008452D01*
X131191247Y-86008452D02*
X131429342Y-86008452D01*
X131429342Y-86008452D02*
X131524580Y-86056071D01*
X131524580Y-86056071D02*
X131572200Y-86103690D01*
X131572200Y-86103690D02*
X131619819Y-86198928D01*
X131619819Y-86198928D02*
X131619819Y-86437023D01*
X131619819Y-86437023D02*
X131572200Y-86532261D01*
X131572200Y-86532261D02*
X131524580Y-86579880D01*
X67829524Y-103964819D02*
X67829524Y-102964819D01*
X67829524Y-102964819D02*
X68067619Y-102964819D01*
X68067619Y-102964819D02*
X68210476Y-103012438D01*
X68210476Y-103012438D02*
X68305714Y-103107676D01*
X68305714Y-103107676D02*
X68353333Y-103202914D01*
X68353333Y-103202914D02*
X68400952Y-103393390D01*
X68400952Y-103393390D02*
X68400952Y-103536247D01*
X68400952Y-103536247D02*
X68353333Y-103726723D01*
X68353333Y-103726723D02*
X68305714Y-103821961D01*
X68305714Y-103821961D02*
X68210476Y-103917200D01*
X68210476Y-103917200D02*
X68067619Y-103964819D01*
X68067619Y-103964819D02*
X67829524Y-103964819D01*
X69353333Y-103964819D02*
X68781905Y-103964819D01*
X69067619Y-103964819D02*
X69067619Y-102964819D01*
X69067619Y-102964819D02*
X68972381Y-103107676D01*
X68972381Y-103107676D02*
X68877143Y-103202914D01*
X68877143Y-103202914D02*
X68781905Y-103250533D01*
X70305714Y-103964819D02*
X69734286Y-103964819D01*
X70020000Y-103964819D02*
X70020000Y-102964819D01*
X70020000Y-102964819D02*
X69924762Y-103107676D01*
X69924762Y-103107676D02*
X69829524Y-103202914D01*
X69829524Y-103202914D02*
X69734286Y-103250533D01*
X70686667Y-103060057D02*
X70734286Y-103012438D01*
X70734286Y-103012438D02*
X70829524Y-102964819D01*
X70829524Y-102964819D02*
X71067619Y-102964819D01*
X71067619Y-102964819D02*
X71162857Y-103012438D01*
X71162857Y-103012438D02*
X71210476Y-103060057D01*
X71210476Y-103060057D02*
X71258095Y-103155295D01*
X71258095Y-103155295D02*
X71258095Y-103250533D01*
X71258095Y-103250533D02*
X71210476Y-103393390D01*
X71210476Y-103393390D02*
X70639048Y-103964819D01*
X70639048Y-103964819D02*
X71258095Y-103964819D01*
X66098095Y-104374819D02*
X66098095Y-103374819D01*
X66669523Y-104374819D02*
X66240952Y-103803390D01*
X66669523Y-103374819D02*
X66098095Y-103946247D01*
X73024819Y-106476161D02*
X72024819Y-106476161D01*
X72024819Y-106476161D02*
X72024819Y-106238066D01*
X72024819Y-106238066D02*
X72072438Y-106095209D01*
X72072438Y-106095209D02*
X72167676Y-105999971D01*
X72167676Y-105999971D02*
X72262914Y-105952352D01*
X72262914Y-105952352D02*
X72453390Y-105904733D01*
X72453390Y-105904733D02*
X72596247Y-105904733D01*
X72596247Y-105904733D02*
X72786723Y-105952352D01*
X72786723Y-105952352D02*
X72881961Y-105999971D01*
X72881961Y-105999971D02*
X72977200Y-106095209D01*
X72977200Y-106095209D02*
X73024819Y-106238066D01*
X73024819Y-106238066D02*
X73024819Y-106476161D01*
X73024819Y-104952352D02*
X73024819Y-105523780D01*
X73024819Y-105238066D02*
X72024819Y-105238066D01*
X72024819Y-105238066D02*
X72167676Y-105333304D01*
X72167676Y-105333304D02*
X72262914Y-105428542D01*
X72262914Y-105428542D02*
X72310533Y-105523780D01*
X72024819Y-104333304D02*
X72024819Y-104238066D01*
X72024819Y-104238066D02*
X72072438Y-104142828D01*
X72072438Y-104142828D02*
X72120057Y-104095209D01*
X72120057Y-104095209D02*
X72215295Y-104047590D01*
X72215295Y-104047590D02*
X72405771Y-103999971D01*
X72405771Y-103999971D02*
X72643866Y-103999971D01*
X72643866Y-103999971D02*
X72834342Y-104047590D01*
X72834342Y-104047590D02*
X72929580Y-104095209D01*
X72929580Y-104095209D02*
X72977200Y-104142828D01*
X72977200Y-104142828D02*
X73024819Y-104238066D01*
X73024819Y-104238066D02*
X73024819Y-104333304D01*
X73024819Y-104333304D02*
X72977200Y-104428542D01*
X72977200Y-104428542D02*
X72929580Y-104476161D01*
X72929580Y-104476161D02*
X72834342Y-104523780D01*
X72834342Y-104523780D02*
X72643866Y-104571399D01*
X72643866Y-104571399D02*
X72405771Y-104571399D01*
X72405771Y-104571399D02*
X72215295Y-104523780D01*
X72215295Y-104523780D02*
X72120057Y-104476161D01*
X72120057Y-104476161D02*
X72072438Y-104428542D01*
X72072438Y-104428542D02*
X72024819Y-104333304D01*
X72024819Y-103142828D02*
X72024819Y-103333304D01*
X72024819Y-103333304D02*
X72072438Y-103428542D01*
X72072438Y-103428542D02*
X72120057Y-103476161D01*
X72120057Y-103476161D02*
X72262914Y-103571399D01*
X72262914Y-103571399D02*
X72453390Y-103619018D01*
X72453390Y-103619018D02*
X72834342Y-103619018D01*
X72834342Y-103619018D02*
X72929580Y-103571399D01*
X72929580Y-103571399D02*
X72977200Y-103523780D01*
X72977200Y-103523780D02*
X73024819Y-103428542D01*
X73024819Y-103428542D02*
X73024819Y-103238066D01*
X73024819Y-103238066D02*
X72977200Y-103142828D01*
X72977200Y-103142828D02*
X72929580Y-103095209D01*
X72929580Y-103095209D02*
X72834342Y-103047590D01*
X72834342Y-103047590D02*
X72596247Y-103047590D01*
X72596247Y-103047590D02*
X72501009Y-103095209D01*
X72501009Y-103095209D02*
X72453390Y-103142828D01*
X72453390Y-103142828D02*
X72405771Y-103238066D01*
X72405771Y-103238066D02*
X72405771Y-103428542D01*
X72405771Y-103428542D02*
X72453390Y-103523780D01*
X72453390Y-103523780D02*
X72501009Y-103571399D01*
X72501009Y-103571399D02*
X72596247Y-103619018D01*
X76754819Y-106721904D02*
X75754819Y-106721904D01*
X76754819Y-106150476D02*
X76183390Y-106579047D01*
X75754819Y-106150476D02*
X76326247Y-106721904D01*
X78679524Y-114714819D02*
X78679524Y-113714819D01*
X78679524Y-113714819D02*
X78917619Y-113714819D01*
X78917619Y-113714819D02*
X79060476Y-113762438D01*
X79060476Y-113762438D02*
X79155714Y-113857676D01*
X79155714Y-113857676D02*
X79203333Y-113952914D01*
X79203333Y-113952914D02*
X79250952Y-114143390D01*
X79250952Y-114143390D02*
X79250952Y-114286247D01*
X79250952Y-114286247D02*
X79203333Y-114476723D01*
X79203333Y-114476723D02*
X79155714Y-114571961D01*
X79155714Y-114571961D02*
X79060476Y-114667200D01*
X79060476Y-114667200D02*
X78917619Y-114714819D01*
X78917619Y-114714819D02*
X78679524Y-114714819D01*
X80203333Y-114714819D02*
X79631905Y-114714819D01*
X79917619Y-114714819D02*
X79917619Y-113714819D01*
X79917619Y-113714819D02*
X79822381Y-113857676D01*
X79822381Y-113857676D02*
X79727143Y-113952914D01*
X79727143Y-113952914D02*
X79631905Y-114000533D01*
X80822381Y-113714819D02*
X80917619Y-113714819D01*
X80917619Y-113714819D02*
X81012857Y-113762438D01*
X81012857Y-113762438D02*
X81060476Y-113810057D01*
X81060476Y-113810057D02*
X81108095Y-113905295D01*
X81108095Y-113905295D02*
X81155714Y-114095771D01*
X81155714Y-114095771D02*
X81155714Y-114333866D01*
X81155714Y-114333866D02*
X81108095Y-114524342D01*
X81108095Y-114524342D02*
X81060476Y-114619580D01*
X81060476Y-114619580D02*
X81012857Y-114667200D01*
X81012857Y-114667200D02*
X80917619Y-114714819D01*
X80917619Y-114714819D02*
X80822381Y-114714819D01*
X80822381Y-114714819D02*
X80727143Y-114667200D01*
X80727143Y-114667200D02*
X80679524Y-114619580D01*
X80679524Y-114619580D02*
X80631905Y-114524342D01*
X80631905Y-114524342D02*
X80584286Y-114333866D01*
X80584286Y-114333866D02*
X80584286Y-114095771D01*
X80584286Y-114095771D02*
X80631905Y-113905295D01*
X80631905Y-113905295D02*
X80679524Y-113810057D01*
X80679524Y-113810057D02*
X80727143Y-113762438D01*
X80727143Y-113762438D02*
X80822381Y-113714819D01*
X82060476Y-113714819D02*
X81584286Y-113714819D01*
X81584286Y-113714819D02*
X81536667Y-114191009D01*
X81536667Y-114191009D02*
X81584286Y-114143390D01*
X81584286Y-114143390D02*
X81679524Y-114095771D01*
X81679524Y-114095771D02*
X81917619Y-114095771D01*
X81917619Y-114095771D02*
X82012857Y-114143390D01*
X82012857Y-114143390D02*
X82060476Y-114191009D01*
X82060476Y-114191009D02*
X82108095Y-114286247D01*
X82108095Y-114286247D02*
X82108095Y-114524342D01*
X82108095Y-114524342D02*
X82060476Y-114619580D01*
X82060476Y-114619580D02*
X82012857Y-114667200D01*
X82012857Y-114667200D02*
X81917619Y-114714819D01*
X81917619Y-114714819D02*
X81679524Y-114714819D01*
X81679524Y-114714819D02*
X81584286Y-114667200D01*
X81584286Y-114667200D02*
X81536667Y-114619580D01*
X82223781Y-104549133D02*
X82223781Y-103549133D01*
X82795209Y-104549133D02*
X82366638Y-103977704D01*
X82795209Y-103549133D02*
X82223781Y-104120561D01*
X90669580Y-105689047D02*
X90717200Y-105736666D01*
X90717200Y-105736666D02*
X90764819Y-105879523D01*
X90764819Y-105879523D02*
X90764819Y-105974761D01*
X90764819Y-105974761D02*
X90717200Y-106117618D01*
X90717200Y-106117618D02*
X90621961Y-106212856D01*
X90621961Y-106212856D02*
X90526723Y-106260475D01*
X90526723Y-106260475D02*
X90336247Y-106308094D01*
X90336247Y-106308094D02*
X90193390Y-106308094D01*
X90193390Y-106308094D02*
X90002914Y-106260475D01*
X90002914Y-106260475D02*
X89907676Y-106212856D01*
X89907676Y-106212856D02*
X89812438Y-106117618D01*
X89812438Y-106117618D02*
X89764819Y-105974761D01*
X89764819Y-105974761D02*
X89764819Y-105879523D01*
X89764819Y-105879523D02*
X89812438Y-105736666D01*
X89812438Y-105736666D02*
X89860057Y-105689047D01*
X90764819Y-104736666D02*
X90764819Y-105308094D01*
X90764819Y-105022380D02*
X89764819Y-105022380D01*
X89764819Y-105022380D02*
X89907676Y-105117618D01*
X89907676Y-105117618D02*
X90002914Y-105212856D01*
X90002914Y-105212856D02*
X90050533Y-105308094D01*
X89764819Y-104117618D02*
X89764819Y-104022380D01*
X89764819Y-104022380D02*
X89812438Y-103927142D01*
X89812438Y-103927142D02*
X89860057Y-103879523D01*
X89860057Y-103879523D02*
X89955295Y-103831904D01*
X89955295Y-103831904D02*
X90145771Y-103784285D01*
X90145771Y-103784285D02*
X90383866Y-103784285D01*
X90383866Y-103784285D02*
X90574342Y-103831904D01*
X90574342Y-103831904D02*
X90669580Y-103879523D01*
X90669580Y-103879523D02*
X90717200Y-103927142D01*
X90717200Y-103927142D02*
X90764819Y-104022380D01*
X90764819Y-104022380D02*
X90764819Y-104117618D01*
X90764819Y-104117618D02*
X90717200Y-104212856D01*
X90717200Y-104212856D02*
X90669580Y-104260475D01*
X90669580Y-104260475D02*
X90574342Y-104308094D01*
X90574342Y-104308094D02*
X90383866Y-104355713D01*
X90383866Y-104355713D02*
X90145771Y-104355713D01*
X90145771Y-104355713D02*
X89955295Y-104308094D01*
X89955295Y-104308094D02*
X89860057Y-104260475D01*
X89860057Y-104260475D02*
X89812438Y-104212856D01*
X89812438Y-104212856D02*
X89764819Y-104117618D01*
X89860057Y-103403332D02*
X89812438Y-103355713D01*
X89812438Y-103355713D02*
X89764819Y-103260475D01*
X89764819Y-103260475D02*
X89764819Y-103022380D01*
X89764819Y-103022380D02*
X89812438Y-102927142D01*
X89812438Y-102927142D02*
X89860057Y-102879523D01*
X89860057Y-102879523D02*
X89955295Y-102831904D01*
X89955295Y-102831904D02*
X90050533Y-102831904D01*
X90050533Y-102831904D02*
X90193390Y-102879523D01*
X90193390Y-102879523D02*
X90764819Y-103450951D01*
X90764819Y-103450951D02*
X90764819Y-102831904D01*
X82689524Y-106034819D02*
X82689524Y-105034819D01*
X82689524Y-105034819D02*
X82927619Y-105034819D01*
X82927619Y-105034819D02*
X83070476Y-105082438D01*
X83070476Y-105082438D02*
X83165714Y-105177676D01*
X83165714Y-105177676D02*
X83213333Y-105272914D01*
X83213333Y-105272914D02*
X83260952Y-105463390D01*
X83260952Y-105463390D02*
X83260952Y-105606247D01*
X83260952Y-105606247D02*
X83213333Y-105796723D01*
X83213333Y-105796723D02*
X83165714Y-105891961D01*
X83165714Y-105891961D02*
X83070476Y-105987200D01*
X83070476Y-105987200D02*
X82927619Y-106034819D01*
X82927619Y-106034819D02*
X82689524Y-106034819D01*
X84213333Y-106034819D02*
X83641905Y-106034819D01*
X83927619Y-106034819D02*
X83927619Y-105034819D01*
X83927619Y-105034819D02*
X83832381Y-105177676D01*
X83832381Y-105177676D02*
X83737143Y-105272914D01*
X83737143Y-105272914D02*
X83641905Y-105320533D01*
X84832381Y-105034819D02*
X84927619Y-105034819D01*
X84927619Y-105034819D02*
X85022857Y-105082438D01*
X85022857Y-105082438D02*
X85070476Y-105130057D01*
X85070476Y-105130057D02*
X85118095Y-105225295D01*
X85118095Y-105225295D02*
X85165714Y-105415771D01*
X85165714Y-105415771D02*
X85165714Y-105653866D01*
X85165714Y-105653866D02*
X85118095Y-105844342D01*
X85118095Y-105844342D02*
X85070476Y-105939580D01*
X85070476Y-105939580D02*
X85022857Y-105987200D01*
X85022857Y-105987200D02*
X84927619Y-106034819D01*
X84927619Y-106034819D02*
X84832381Y-106034819D01*
X84832381Y-106034819D02*
X84737143Y-105987200D01*
X84737143Y-105987200D02*
X84689524Y-105939580D01*
X84689524Y-105939580D02*
X84641905Y-105844342D01*
X84641905Y-105844342D02*
X84594286Y-105653866D01*
X84594286Y-105653866D02*
X84594286Y-105415771D01*
X84594286Y-105415771D02*
X84641905Y-105225295D01*
X84641905Y-105225295D02*
X84689524Y-105130057D01*
X84689524Y-105130057D02*
X84737143Y-105082438D01*
X84737143Y-105082438D02*
X84832381Y-105034819D01*
X85499048Y-105034819D02*
X86165714Y-105034819D01*
X86165714Y-105034819D02*
X85737143Y-106034819D01*
X99259524Y-101384819D02*
X99259524Y-100384819D01*
X99259524Y-100384819D02*
X99497619Y-100384819D01*
X99497619Y-100384819D02*
X99640476Y-100432438D01*
X99640476Y-100432438D02*
X99735714Y-100527676D01*
X99735714Y-100527676D02*
X99783333Y-100622914D01*
X99783333Y-100622914D02*
X99830952Y-100813390D01*
X99830952Y-100813390D02*
X99830952Y-100956247D01*
X99830952Y-100956247D02*
X99783333Y-101146723D01*
X99783333Y-101146723D02*
X99735714Y-101241961D01*
X99735714Y-101241961D02*
X99640476Y-101337200D01*
X99640476Y-101337200D02*
X99497619Y-101384819D01*
X99497619Y-101384819D02*
X99259524Y-101384819D01*
X100783333Y-101384819D02*
X100211905Y-101384819D01*
X100497619Y-101384819D02*
X100497619Y-100384819D01*
X100497619Y-100384819D02*
X100402381Y-100527676D01*
X100402381Y-100527676D02*
X100307143Y-100622914D01*
X100307143Y-100622914D02*
X100211905Y-100670533D01*
X101402381Y-100384819D02*
X101497619Y-100384819D01*
X101497619Y-100384819D02*
X101592857Y-100432438D01*
X101592857Y-100432438D02*
X101640476Y-100480057D01*
X101640476Y-100480057D02*
X101688095Y-100575295D01*
X101688095Y-100575295D02*
X101735714Y-100765771D01*
X101735714Y-100765771D02*
X101735714Y-101003866D01*
X101735714Y-101003866D02*
X101688095Y-101194342D01*
X101688095Y-101194342D02*
X101640476Y-101289580D01*
X101640476Y-101289580D02*
X101592857Y-101337200D01*
X101592857Y-101337200D02*
X101497619Y-101384819D01*
X101497619Y-101384819D02*
X101402381Y-101384819D01*
X101402381Y-101384819D02*
X101307143Y-101337200D01*
X101307143Y-101337200D02*
X101259524Y-101289580D01*
X101259524Y-101289580D02*
X101211905Y-101194342D01*
X101211905Y-101194342D02*
X101164286Y-101003866D01*
X101164286Y-101003866D02*
X101164286Y-100765771D01*
X101164286Y-100765771D02*
X101211905Y-100575295D01*
X101211905Y-100575295D02*
X101259524Y-100480057D01*
X101259524Y-100480057D02*
X101307143Y-100432438D01*
X101307143Y-100432438D02*
X101402381Y-100384819D01*
X102116667Y-100480057D02*
X102164286Y-100432438D01*
X102164286Y-100432438D02*
X102259524Y-100384819D01*
X102259524Y-100384819D02*
X102497619Y-100384819D01*
X102497619Y-100384819D02*
X102592857Y-100432438D01*
X102592857Y-100432438D02*
X102640476Y-100480057D01*
X102640476Y-100480057D02*
X102688095Y-100575295D01*
X102688095Y-100575295D02*
X102688095Y-100670533D01*
X102688095Y-100670533D02*
X102640476Y-100813390D01*
X102640476Y-100813390D02*
X102069048Y-101384819D01*
X102069048Y-101384819D02*
X102688095Y-101384819D01*
X94947410Y-102284819D02*
X94947410Y-101284819D01*
X95518838Y-102284819D02*
X95090267Y-101713390D01*
X95518838Y-101284819D02*
X94947410Y-101856247D01*
X89259524Y-99154819D02*
X89259524Y-98154819D01*
X89259524Y-98154819D02*
X89497619Y-98154819D01*
X89497619Y-98154819D02*
X89640476Y-98202438D01*
X89640476Y-98202438D02*
X89735714Y-98297676D01*
X89735714Y-98297676D02*
X89783333Y-98392914D01*
X89783333Y-98392914D02*
X89830952Y-98583390D01*
X89830952Y-98583390D02*
X89830952Y-98726247D01*
X89830952Y-98726247D02*
X89783333Y-98916723D01*
X89783333Y-98916723D02*
X89735714Y-99011961D01*
X89735714Y-99011961D02*
X89640476Y-99107200D01*
X89640476Y-99107200D02*
X89497619Y-99154819D01*
X89497619Y-99154819D02*
X89259524Y-99154819D01*
X90783333Y-99154819D02*
X90211905Y-99154819D01*
X90497619Y-99154819D02*
X90497619Y-98154819D01*
X90497619Y-98154819D02*
X90402381Y-98297676D01*
X90402381Y-98297676D02*
X90307143Y-98392914D01*
X90307143Y-98392914D02*
X90211905Y-98440533D01*
X91402381Y-98154819D02*
X91497619Y-98154819D01*
X91497619Y-98154819D02*
X91592857Y-98202438D01*
X91592857Y-98202438D02*
X91640476Y-98250057D01*
X91640476Y-98250057D02*
X91688095Y-98345295D01*
X91688095Y-98345295D02*
X91735714Y-98535771D01*
X91735714Y-98535771D02*
X91735714Y-98773866D01*
X91735714Y-98773866D02*
X91688095Y-98964342D01*
X91688095Y-98964342D02*
X91640476Y-99059580D01*
X91640476Y-99059580D02*
X91592857Y-99107200D01*
X91592857Y-99107200D02*
X91497619Y-99154819D01*
X91497619Y-99154819D02*
X91402381Y-99154819D01*
X91402381Y-99154819D02*
X91307143Y-99107200D01*
X91307143Y-99107200D02*
X91259524Y-99059580D01*
X91259524Y-99059580D02*
X91211905Y-98964342D01*
X91211905Y-98964342D02*
X91164286Y-98773866D01*
X91164286Y-98773866D02*
X91164286Y-98535771D01*
X91164286Y-98535771D02*
X91211905Y-98345295D01*
X91211905Y-98345295D02*
X91259524Y-98250057D01*
X91259524Y-98250057D02*
X91307143Y-98202438D01*
X91307143Y-98202438D02*
X91402381Y-98154819D01*
X92688095Y-99154819D02*
X92116667Y-99154819D01*
X92402381Y-99154819D02*
X92402381Y-98154819D01*
X92402381Y-98154819D02*
X92307143Y-98297676D01*
X92307143Y-98297676D02*
X92211905Y-98392914D01*
X92211905Y-98392914D02*
X92116667Y-98440533D01*
X87918781Y-100494819D02*
X87918781Y-99494819D01*
X88490209Y-100494819D02*
X88061638Y-99923390D01*
X88490209Y-99494819D02*
X87918781Y-100066247D01*
X71559524Y-114684819D02*
X71559524Y-113684819D01*
X71559524Y-113684819D02*
X71797619Y-113684819D01*
X71797619Y-113684819D02*
X71940476Y-113732438D01*
X71940476Y-113732438D02*
X72035714Y-113827676D01*
X72035714Y-113827676D02*
X72083333Y-113922914D01*
X72083333Y-113922914D02*
X72130952Y-114113390D01*
X72130952Y-114113390D02*
X72130952Y-114256247D01*
X72130952Y-114256247D02*
X72083333Y-114446723D01*
X72083333Y-114446723D02*
X72035714Y-114541961D01*
X72035714Y-114541961D02*
X71940476Y-114637200D01*
X71940476Y-114637200D02*
X71797619Y-114684819D01*
X71797619Y-114684819D02*
X71559524Y-114684819D01*
X73083333Y-114684819D02*
X72511905Y-114684819D01*
X72797619Y-114684819D02*
X72797619Y-113684819D01*
X72797619Y-113684819D02*
X72702381Y-113827676D01*
X72702381Y-113827676D02*
X72607143Y-113922914D01*
X72607143Y-113922914D02*
X72511905Y-113970533D01*
X73702381Y-113684819D02*
X73797619Y-113684819D01*
X73797619Y-113684819D02*
X73892857Y-113732438D01*
X73892857Y-113732438D02*
X73940476Y-113780057D01*
X73940476Y-113780057D02*
X73988095Y-113875295D01*
X73988095Y-113875295D02*
X74035714Y-114065771D01*
X74035714Y-114065771D02*
X74035714Y-114303866D01*
X74035714Y-114303866D02*
X73988095Y-114494342D01*
X73988095Y-114494342D02*
X73940476Y-114589580D01*
X73940476Y-114589580D02*
X73892857Y-114637200D01*
X73892857Y-114637200D02*
X73797619Y-114684819D01*
X73797619Y-114684819D02*
X73702381Y-114684819D01*
X73702381Y-114684819D02*
X73607143Y-114637200D01*
X73607143Y-114637200D02*
X73559524Y-114589580D01*
X73559524Y-114589580D02*
X73511905Y-114494342D01*
X73511905Y-114494342D02*
X73464286Y-114303866D01*
X73464286Y-114303866D02*
X73464286Y-114065771D01*
X73464286Y-114065771D02*
X73511905Y-113875295D01*
X73511905Y-113875295D02*
X73559524Y-113780057D01*
X73559524Y-113780057D02*
X73607143Y-113732438D01*
X73607143Y-113732438D02*
X73702381Y-113684819D01*
X74607143Y-114113390D02*
X74511905Y-114065771D01*
X74511905Y-114065771D02*
X74464286Y-114018152D01*
X74464286Y-114018152D02*
X74416667Y-113922914D01*
X74416667Y-113922914D02*
X74416667Y-113875295D01*
X74416667Y-113875295D02*
X74464286Y-113780057D01*
X74464286Y-113780057D02*
X74511905Y-113732438D01*
X74511905Y-113732438D02*
X74607143Y-113684819D01*
X74607143Y-113684819D02*
X74797619Y-113684819D01*
X74797619Y-113684819D02*
X74892857Y-113732438D01*
X74892857Y-113732438D02*
X74940476Y-113780057D01*
X74940476Y-113780057D02*
X74988095Y-113875295D01*
X74988095Y-113875295D02*
X74988095Y-113922914D01*
X74988095Y-113922914D02*
X74940476Y-114018152D01*
X74940476Y-114018152D02*
X74892857Y-114065771D01*
X74892857Y-114065771D02*
X74797619Y-114113390D01*
X74797619Y-114113390D02*
X74607143Y-114113390D01*
X74607143Y-114113390D02*
X74511905Y-114161009D01*
X74511905Y-114161009D02*
X74464286Y-114208628D01*
X74464286Y-114208628D02*
X74416667Y-114303866D01*
X74416667Y-114303866D02*
X74416667Y-114494342D01*
X74416667Y-114494342D02*
X74464286Y-114589580D01*
X74464286Y-114589580D02*
X74511905Y-114637200D01*
X74511905Y-114637200D02*
X74607143Y-114684819D01*
X74607143Y-114684819D02*
X74797619Y-114684819D01*
X74797619Y-114684819D02*
X74892857Y-114637200D01*
X74892857Y-114637200D02*
X74940476Y-114589580D01*
X74940476Y-114589580D02*
X74988095Y-114494342D01*
X74988095Y-114494342D02*
X74988095Y-114303866D01*
X74988095Y-114303866D02*
X74940476Y-114208628D01*
X74940476Y-114208628D02*
X74892857Y-114161009D01*
X74892857Y-114161009D02*
X74797619Y-114113390D01*
X60609524Y-103658448D02*
X60609524Y-102658448D01*
X60609524Y-102658448D02*
X60847619Y-102658448D01*
X60847619Y-102658448D02*
X60990476Y-102706067D01*
X60990476Y-102706067D02*
X61085714Y-102801305D01*
X61085714Y-102801305D02*
X61133333Y-102896543D01*
X61133333Y-102896543D02*
X61180952Y-103087019D01*
X61180952Y-103087019D02*
X61180952Y-103229876D01*
X61180952Y-103229876D02*
X61133333Y-103420352D01*
X61133333Y-103420352D02*
X61085714Y-103515590D01*
X61085714Y-103515590D02*
X60990476Y-103610829D01*
X60990476Y-103610829D02*
X60847619Y-103658448D01*
X60847619Y-103658448D02*
X60609524Y-103658448D01*
X62133333Y-103658448D02*
X61561905Y-103658448D01*
X61847619Y-103658448D02*
X61847619Y-102658448D01*
X61847619Y-102658448D02*
X61752381Y-102801305D01*
X61752381Y-102801305D02*
X61657143Y-102896543D01*
X61657143Y-102896543D02*
X61561905Y-102944162D01*
X63085714Y-103658448D02*
X62514286Y-103658448D01*
X62800000Y-103658448D02*
X62800000Y-102658448D01*
X62800000Y-102658448D02*
X62704762Y-102801305D01*
X62704762Y-102801305D02*
X62609524Y-102896543D01*
X62609524Y-102896543D02*
X62514286Y-102944162D01*
X64038095Y-103658448D02*
X63466667Y-103658448D01*
X63752381Y-103658448D02*
X63752381Y-102658448D01*
X63752381Y-102658448D02*
X63657143Y-102801305D01*
X63657143Y-102801305D02*
X63561905Y-102896543D01*
X63561905Y-102896543D02*
X63466667Y-102944162D01*
X59418095Y-104374819D02*
X59418095Y-103374819D01*
X59989523Y-104374819D02*
X59560952Y-103803390D01*
X59989523Y-103374819D02*
X59418095Y-103946247D01*
X94812380Y-115034819D02*
X94479047Y-114558628D01*
X94240952Y-115034819D02*
X94240952Y-114034819D01*
X94240952Y-114034819D02*
X94621904Y-114034819D01*
X94621904Y-114034819D02*
X94717142Y-114082438D01*
X94717142Y-114082438D02*
X94764761Y-114130057D01*
X94764761Y-114130057D02*
X94812380Y-114225295D01*
X94812380Y-114225295D02*
X94812380Y-114368152D01*
X94812380Y-114368152D02*
X94764761Y-114463390D01*
X94764761Y-114463390D02*
X94717142Y-114511009D01*
X94717142Y-114511009D02*
X94621904Y-114558628D01*
X94621904Y-114558628D02*
X94240952Y-114558628D01*
X95098095Y-114034819D02*
X95431428Y-115034819D01*
X95431428Y-115034819D02*
X95764761Y-114034819D01*
X96621904Y-115034819D02*
X96050476Y-115034819D01*
X96336190Y-115034819D02*
X96336190Y-114034819D01*
X96336190Y-114034819D02*
X96240952Y-114177676D01*
X96240952Y-114177676D02*
X96145714Y-114272914D01*
X96145714Y-114272914D02*
X96050476Y-114320533D01*
X97240952Y-114034819D02*
X97336190Y-114034819D01*
X97336190Y-114034819D02*
X97431428Y-114082438D01*
X97431428Y-114082438D02*
X97479047Y-114130057D01*
X97479047Y-114130057D02*
X97526666Y-114225295D01*
X97526666Y-114225295D02*
X97574285Y-114415771D01*
X97574285Y-114415771D02*
X97574285Y-114653866D01*
X97574285Y-114653866D02*
X97526666Y-114844342D01*
X97526666Y-114844342D02*
X97479047Y-114939580D01*
X97479047Y-114939580D02*
X97431428Y-114987200D01*
X97431428Y-114987200D02*
X97336190Y-115034819D01*
X97336190Y-115034819D02*
X97240952Y-115034819D01*
X97240952Y-115034819D02*
X97145714Y-114987200D01*
X97145714Y-114987200D02*
X97098095Y-114939580D01*
X97098095Y-114939580D02*
X97050476Y-114844342D01*
X97050476Y-114844342D02*
X97002857Y-114653866D01*
X97002857Y-114653866D02*
X97002857Y-114415771D01*
X97002857Y-114415771D02*
X97050476Y-114225295D01*
X97050476Y-114225295D02*
X97098095Y-114130057D01*
X97098095Y-114130057D02*
X97145714Y-114082438D01*
X97145714Y-114082438D02*
X97240952Y-114034819D01*
X98526666Y-115034819D02*
X97955238Y-115034819D01*
X98240952Y-115034819D02*
X98240952Y-114034819D01*
X98240952Y-114034819D02*
X98145714Y-114177676D01*
X98145714Y-114177676D02*
X98050476Y-114272914D01*
X98050476Y-114272914D02*
X97955238Y-114320533D01*
X102309580Y-98159047D02*
X102357200Y-98206666D01*
X102357200Y-98206666D02*
X102404819Y-98349523D01*
X102404819Y-98349523D02*
X102404819Y-98444761D01*
X102404819Y-98444761D02*
X102357200Y-98587618D01*
X102357200Y-98587618D02*
X102261961Y-98682856D01*
X102261961Y-98682856D02*
X102166723Y-98730475D01*
X102166723Y-98730475D02*
X101976247Y-98778094D01*
X101976247Y-98778094D02*
X101833390Y-98778094D01*
X101833390Y-98778094D02*
X101642914Y-98730475D01*
X101642914Y-98730475D02*
X101547676Y-98682856D01*
X101547676Y-98682856D02*
X101452438Y-98587618D01*
X101452438Y-98587618D02*
X101404819Y-98444761D01*
X101404819Y-98444761D02*
X101404819Y-98349523D01*
X101404819Y-98349523D02*
X101452438Y-98206666D01*
X101452438Y-98206666D02*
X101500057Y-98159047D01*
X102404819Y-97206666D02*
X102404819Y-97778094D01*
X102404819Y-97492380D02*
X101404819Y-97492380D01*
X101404819Y-97492380D02*
X101547676Y-97587618D01*
X101547676Y-97587618D02*
X101642914Y-97682856D01*
X101642914Y-97682856D02*
X101690533Y-97778094D01*
X101404819Y-96587618D02*
X101404819Y-96492380D01*
X101404819Y-96492380D02*
X101452438Y-96397142D01*
X101452438Y-96397142D02*
X101500057Y-96349523D01*
X101500057Y-96349523D02*
X101595295Y-96301904D01*
X101595295Y-96301904D02*
X101785771Y-96254285D01*
X101785771Y-96254285D02*
X102023866Y-96254285D01*
X102023866Y-96254285D02*
X102214342Y-96301904D01*
X102214342Y-96301904D02*
X102309580Y-96349523D01*
X102309580Y-96349523D02*
X102357200Y-96397142D01*
X102357200Y-96397142D02*
X102404819Y-96492380D01*
X102404819Y-96492380D02*
X102404819Y-96587618D01*
X102404819Y-96587618D02*
X102357200Y-96682856D01*
X102357200Y-96682856D02*
X102309580Y-96730475D01*
X102309580Y-96730475D02*
X102214342Y-96778094D01*
X102214342Y-96778094D02*
X102023866Y-96825713D01*
X102023866Y-96825713D02*
X101785771Y-96825713D01*
X101785771Y-96825713D02*
X101595295Y-96778094D01*
X101595295Y-96778094D02*
X101500057Y-96730475D01*
X101500057Y-96730475D02*
X101452438Y-96682856D01*
X101452438Y-96682856D02*
X101404819Y-96587618D01*
X102404819Y-95301904D02*
X102404819Y-95873332D01*
X102404819Y-95587618D02*
X101404819Y-95587618D01*
X101404819Y-95587618D02*
X101547676Y-95682856D01*
X101547676Y-95682856D02*
X101642914Y-95778094D01*
X101642914Y-95778094D02*
X101690533Y-95873332D01*
X112648809Y-77339726D02*
X112044047Y-77339726D01*
X112044047Y-77339726D02*
X112044047Y-76069726D01*
X113737381Y-77339726D02*
X113011666Y-77339726D01*
X113374523Y-77339726D02*
X113374523Y-76069726D01*
X113374523Y-76069726D02*
X113253571Y-76251154D01*
X113253571Y-76251154D02*
X113132619Y-76372107D01*
X113132619Y-76372107D02*
X113011666Y-76432583D01*
X114523571Y-76069726D02*
X114644524Y-76069726D01*
X114644524Y-76069726D02*
X114765476Y-76130202D01*
X114765476Y-76130202D02*
X114825952Y-76190678D01*
X114825952Y-76190678D02*
X114886428Y-76311630D01*
X114886428Y-76311630D02*
X114946905Y-76553535D01*
X114946905Y-76553535D02*
X114946905Y-76855916D01*
X114946905Y-76855916D02*
X114886428Y-77097821D01*
X114886428Y-77097821D02*
X114825952Y-77218773D01*
X114825952Y-77218773D02*
X114765476Y-77279250D01*
X114765476Y-77279250D02*
X114644524Y-77339726D01*
X114644524Y-77339726D02*
X114523571Y-77339726D01*
X114523571Y-77339726D02*
X114402619Y-77279250D01*
X114402619Y-77279250D02*
X114342143Y-77218773D01*
X114342143Y-77218773D02*
X114281666Y-77097821D01*
X114281666Y-77097821D02*
X114221190Y-76855916D01*
X114221190Y-76855916D02*
X114221190Y-76553535D01*
X114221190Y-76553535D02*
X114281666Y-76311630D01*
X114281666Y-76311630D02*
X114342143Y-76190678D01*
X114342143Y-76190678D02*
X114402619Y-76130202D01*
X114402619Y-76130202D02*
X114523571Y-76069726D01*
X116156429Y-77339726D02*
X115430714Y-77339726D01*
X115793571Y-77339726D02*
X115793571Y-76069726D01*
X115793571Y-76069726D02*
X115672619Y-76251154D01*
X115672619Y-76251154D02*
X115551667Y-76372107D01*
X115551667Y-76372107D02*
X115430714Y-76432583D01*
X64669524Y-114734819D02*
X64669524Y-113734819D01*
X64669524Y-113734819D02*
X64907619Y-113734819D01*
X64907619Y-113734819D02*
X65050476Y-113782438D01*
X65050476Y-113782438D02*
X65145714Y-113877676D01*
X65145714Y-113877676D02*
X65193333Y-113972914D01*
X65193333Y-113972914D02*
X65240952Y-114163390D01*
X65240952Y-114163390D02*
X65240952Y-114306247D01*
X65240952Y-114306247D02*
X65193333Y-114496723D01*
X65193333Y-114496723D02*
X65145714Y-114591961D01*
X65145714Y-114591961D02*
X65050476Y-114687200D01*
X65050476Y-114687200D02*
X64907619Y-114734819D01*
X64907619Y-114734819D02*
X64669524Y-114734819D01*
X66193333Y-114734819D02*
X65621905Y-114734819D01*
X65907619Y-114734819D02*
X65907619Y-113734819D01*
X65907619Y-113734819D02*
X65812381Y-113877676D01*
X65812381Y-113877676D02*
X65717143Y-113972914D01*
X65717143Y-113972914D02*
X65621905Y-114020533D01*
X66812381Y-113734819D02*
X66907619Y-113734819D01*
X66907619Y-113734819D02*
X67002857Y-113782438D01*
X67002857Y-113782438D02*
X67050476Y-113830057D01*
X67050476Y-113830057D02*
X67098095Y-113925295D01*
X67098095Y-113925295D02*
X67145714Y-114115771D01*
X67145714Y-114115771D02*
X67145714Y-114353866D01*
X67145714Y-114353866D02*
X67098095Y-114544342D01*
X67098095Y-114544342D02*
X67050476Y-114639580D01*
X67050476Y-114639580D02*
X67002857Y-114687200D01*
X67002857Y-114687200D02*
X66907619Y-114734819D01*
X66907619Y-114734819D02*
X66812381Y-114734819D01*
X66812381Y-114734819D02*
X66717143Y-114687200D01*
X66717143Y-114687200D02*
X66669524Y-114639580D01*
X66669524Y-114639580D02*
X66621905Y-114544342D01*
X66621905Y-114544342D02*
X66574286Y-114353866D01*
X66574286Y-114353866D02*
X66574286Y-114115771D01*
X66574286Y-114115771D02*
X66621905Y-113925295D01*
X66621905Y-113925295D02*
X66669524Y-113830057D01*
X66669524Y-113830057D02*
X66717143Y-113782438D01*
X66717143Y-113782438D02*
X66812381Y-113734819D01*
X67621905Y-114734819D02*
X67812381Y-114734819D01*
X67812381Y-114734819D02*
X67907619Y-114687200D01*
X67907619Y-114687200D02*
X67955238Y-114639580D01*
X67955238Y-114639580D02*
X68050476Y-114496723D01*
X68050476Y-114496723D02*
X68098095Y-114306247D01*
X68098095Y-114306247D02*
X68098095Y-113925295D01*
X68098095Y-113925295D02*
X68050476Y-113830057D01*
X68050476Y-113830057D02*
X68002857Y-113782438D01*
X68002857Y-113782438D02*
X67907619Y-113734819D01*
X67907619Y-113734819D02*
X67717143Y-113734819D01*
X67717143Y-113734819D02*
X67621905Y-113782438D01*
X67621905Y-113782438D02*
X67574286Y-113830057D01*
X67574286Y-113830057D02*
X67526667Y-113925295D01*
X67526667Y-113925295D02*
X67526667Y-114163390D01*
X67526667Y-114163390D02*
X67574286Y-114258628D01*
X67574286Y-114258628D02*
X67621905Y-114306247D01*
X67621905Y-114306247D02*
X67717143Y-114353866D01*
X67717143Y-114353866D02*
X67907619Y-114353866D01*
X67907619Y-114353866D02*
X68002857Y-114306247D01*
X68002857Y-114306247D02*
X68050476Y-114258628D01*
X68050476Y-114258628D02*
X68098095Y-114163390D01*
X85179524Y-114734819D02*
X85179524Y-113734819D01*
X85179524Y-113734819D02*
X85417619Y-113734819D01*
X85417619Y-113734819D02*
X85560476Y-113782438D01*
X85560476Y-113782438D02*
X85655714Y-113877676D01*
X85655714Y-113877676D02*
X85703333Y-113972914D01*
X85703333Y-113972914D02*
X85750952Y-114163390D01*
X85750952Y-114163390D02*
X85750952Y-114306247D01*
X85750952Y-114306247D02*
X85703333Y-114496723D01*
X85703333Y-114496723D02*
X85655714Y-114591961D01*
X85655714Y-114591961D02*
X85560476Y-114687200D01*
X85560476Y-114687200D02*
X85417619Y-114734819D01*
X85417619Y-114734819D02*
X85179524Y-114734819D01*
X86703333Y-114734819D02*
X86131905Y-114734819D01*
X86417619Y-114734819D02*
X86417619Y-113734819D01*
X86417619Y-113734819D02*
X86322381Y-113877676D01*
X86322381Y-113877676D02*
X86227143Y-113972914D01*
X86227143Y-113972914D02*
X86131905Y-114020533D01*
X87322381Y-113734819D02*
X87417619Y-113734819D01*
X87417619Y-113734819D02*
X87512857Y-113782438D01*
X87512857Y-113782438D02*
X87560476Y-113830057D01*
X87560476Y-113830057D02*
X87608095Y-113925295D01*
X87608095Y-113925295D02*
X87655714Y-114115771D01*
X87655714Y-114115771D02*
X87655714Y-114353866D01*
X87655714Y-114353866D02*
X87608095Y-114544342D01*
X87608095Y-114544342D02*
X87560476Y-114639580D01*
X87560476Y-114639580D02*
X87512857Y-114687200D01*
X87512857Y-114687200D02*
X87417619Y-114734819D01*
X87417619Y-114734819D02*
X87322381Y-114734819D01*
X87322381Y-114734819D02*
X87227143Y-114687200D01*
X87227143Y-114687200D02*
X87179524Y-114639580D01*
X87179524Y-114639580D02*
X87131905Y-114544342D01*
X87131905Y-114544342D02*
X87084286Y-114353866D01*
X87084286Y-114353866D02*
X87084286Y-114115771D01*
X87084286Y-114115771D02*
X87131905Y-113925295D01*
X87131905Y-113925295D02*
X87179524Y-113830057D01*
X87179524Y-113830057D02*
X87227143Y-113782438D01*
X87227143Y-113782438D02*
X87322381Y-113734819D01*
X87989048Y-113734819D02*
X88608095Y-113734819D01*
X88608095Y-113734819D02*
X88274762Y-114115771D01*
X88274762Y-114115771D02*
X88417619Y-114115771D01*
X88417619Y-114115771D02*
X88512857Y-114163390D01*
X88512857Y-114163390D02*
X88560476Y-114211009D01*
X88560476Y-114211009D02*
X88608095Y-114306247D01*
X88608095Y-114306247D02*
X88608095Y-114544342D01*
X88608095Y-114544342D02*
X88560476Y-114639580D01*
X88560476Y-114639580D02*
X88512857Y-114687200D01*
X88512857Y-114687200D02*
X88417619Y-114734819D01*
X88417619Y-114734819D02*
X88131905Y-114734819D01*
X88131905Y-114734819D02*
X88036667Y-114687200D01*
X88036667Y-114687200D02*
X87989048Y-114639580D01*
D11*
X92150900Y-79862800D02*
G75*
G02*
X73100900Y-79862800I-9525000J0D01*
G01*
X73100900Y-79862800D02*
G75*
G02*
X92150900Y-79862800I9525000J0D01*
G01*
X101675900Y-79862800D02*
G75*
G02*
X63575900Y-79862800I-19050000J0D01*
G01*
X63575900Y-79862800D02*
G75*
G02*
X101675900Y-79862800I19050000J0D01*
G01*
D12*
X78527944Y-102790000D02*
X78414315Y-102790000D01*
X81180686Y-102790000D02*
G75*
G02*
X78527944Y-102790000I-1326371J0D01*
G01*
X78527944Y-102790000D02*
G75*
G02*
X81180686Y-102790000I1326371J0D01*
G01*
X57205000Y-108725000D02*
X57205000Y-111815000D01*
X57205000Y-108725170D02*
G75*
G02*
X62755000Y-110270000I2560000J-1544830D01*
G01*
X62755000Y-110270000D02*
G75*
G02*
X57205000Y-111814830I-2990000J0D01*
G01*
X62265000Y-110270000D02*
G75*
G02*
X57265000Y-110270000I-2500000J0D01*
G01*
X57265000Y-110270000D02*
G75*
G02*
X62265000Y-110270000I2500000J0D01*
G01*
X92640000Y-104040000D02*
X99180000Y-104040000D01*
X92640000Y-104370000D02*
X92640000Y-104040000D01*
X92640000Y-106450000D02*
X92640000Y-106780000D01*
X92640000Y-106780000D02*
X99180000Y-106780000D01*
X99180000Y-104040000D02*
X99180000Y-104370000D01*
X99180000Y-106780000D02*
X99180000Y-106450000D01*
X124680000Y-80550000D02*
X139680000Y-80550000D01*
X124680000Y-95550000D02*
X124680000Y-80550000D01*
X139480000Y-88050000D02*
X138480000Y-87050000D01*
X139480000Y-88050000D02*
X138480000Y-89050000D01*
X139680000Y-80550000D02*
X139680000Y-95550000D01*
X139680000Y-95550000D02*
X124680000Y-95550000D01*
X68687944Y-105530000D02*
X68574315Y-105530000D01*
X71340686Y-105530000D02*
G75*
G02*
X68687944Y-105530000I-1326371J0D01*
G01*
X68687944Y-105530000D02*
G75*
G02*
X71340686Y-105530000I1326371J0D01*
G01*
X74650000Y-104602057D02*
X74650000Y-104715686D01*
X75976371Y-103275686D02*
G75*
G02*
X73323629Y-103275686I-1326371J0D01*
G01*
X73323629Y-103275686D02*
G75*
G02*
X75976371Y-103275686I1326371J0D01*
G01*
X80192057Y-105580000D02*
X80305686Y-105580000D01*
X80192057Y-105580000D02*
G75*
G02*
X77539315Y-105580000I-1326371J0D01*
G01*
X77539315Y-105580000D02*
G75*
G02*
X80192057Y-105580000I1326371J0D01*
G01*
X86940000Y-102950000D02*
X87088000Y-102950000D01*
X86940000Y-106190000D02*
X86940000Y-102950000D01*
X87088000Y-106190000D02*
X86940000Y-106190000D01*
X89032000Y-102950000D02*
X89180000Y-102950000D01*
X89180000Y-102950000D02*
X89180000Y-106190000D01*
X89180000Y-106190000D02*
X89032000Y-106190000D01*
X77715000Y-108725000D02*
X77715000Y-111815000D01*
X77715000Y-108725170D02*
G75*
G02*
X83265000Y-110270000I2560000J-1544830D01*
G01*
X83265000Y-110270000D02*
G75*
G02*
X77715000Y-111814830I-2990000J0D01*
G01*
X82775000Y-110270000D02*
G75*
G02*
X77775000Y-110270000I-2500000J0D01*
G01*
X77775000Y-110270000D02*
G75*
G02*
X82775000Y-110270000I2500000J0D01*
G01*
X96192944Y-101030000D02*
X94809315Y-101030000D01*
X98845686Y-101030000D02*
G75*
G02*
X96192944Y-101030000I-1326371J0D01*
G01*
X96192944Y-101030000D02*
G75*
G02*
X98845686Y-101030000I1326371J0D01*
G01*
X87197057Y-100840000D02*
X88580686Y-100840000D01*
X87197057Y-100840000D02*
G75*
G02*
X84544315Y-100840000I-1326371J0D01*
G01*
X84544315Y-100840000D02*
G75*
G02*
X87197057Y-100840000I1326371J0D01*
G01*
X70875000Y-108725000D02*
X70875000Y-111815000D01*
X70875000Y-108725170D02*
G75*
G02*
X76425000Y-110270000I2560000J-1544830D01*
G01*
X76425000Y-110270000D02*
G75*
G02*
X70875000Y-111814830I-2990000J0D01*
G01*
X75935000Y-110270000D02*
G75*
G02*
X70935000Y-110270000I-2500000J0D01*
G01*
X70935000Y-110270000D02*
G75*
G02*
X75935000Y-110270000I2500000J0D01*
G01*
X62243629Y-105530000D02*
X62130000Y-105530000D01*
X64896371Y-105530000D02*
G75*
G02*
X62243629Y-105530000I-1326371J0D01*
G01*
X62243629Y-105530000D02*
G75*
G02*
X64896371Y-105530000I1326371J0D01*
G01*
X91735000Y-108500000D02*
X101485000Y-108500000D01*
X91735000Y-113550000D02*
X91735000Y-108500000D01*
X101485000Y-108500000D02*
X101485000Y-113550000D01*
X101485000Y-113550000D02*
X91735000Y-113550000D01*
X98720000Y-95630000D02*
X98868000Y-95630000D01*
X98720000Y-98870000D02*
X98720000Y-95630000D01*
X98868000Y-98870000D02*
X98720000Y-98870000D01*
X100812000Y-95630000D02*
X100960000Y-95630000D01*
X100960000Y-95630000D02*
X100960000Y-98870000D01*
X100960000Y-98870000D02*
X100812000Y-98870000D01*
X64045000Y-108725000D02*
X64045000Y-111815000D01*
X64045000Y-108725170D02*
G75*
G02*
X69595000Y-110270000I2560000J-1544830D01*
G01*
X69595000Y-110270000D02*
G75*
G02*
X64045000Y-111814830I-2990000J0D01*
G01*
X69105000Y-110270000D02*
G75*
G02*
X64105000Y-110270000I-2500000J0D01*
G01*
X64105000Y-110270000D02*
G75*
G02*
X69105000Y-110270000I2500000J0D01*
G01*
X84425000Y-108725000D02*
X84425000Y-111815000D01*
X84425000Y-108725170D02*
G75*
G02*
X89975000Y-110270000I2560000J-1544830D01*
G01*
X89975000Y-110270000D02*
G75*
G02*
X84425000Y-111814830I-2990000J0D01*
G01*
X89485000Y-110270000D02*
G75*
G02*
X84485000Y-110270000I-2500000J0D01*
G01*
X84485000Y-110270000D02*
G75*
G02*
X89485000Y-110270000I2500000J0D01*
G01*
%LPC*%
D13*
X88885900Y-84522800D03*
X96985900Y-95092800D03*
X85495900Y-87342800D03*
X103445900Y-78182800D03*
D14*
X121860000Y-63980000D03*
X123690000Y-98880000D03*
X122150000Y-75800000D03*
D15*
X77314315Y-102790000D03*
D16*
X79854315Y-102790000D03*
D17*
X129910000Y-98710000D03*
D18*
X58495000Y-110270000D03*
D19*
X61035000Y-110270000D03*
D16*
X92100000Y-105410000D03*
X99720000Y-105410000D03*
D13*
X109030000Y-72130000D03*
D20*
X126980000Y-88050000D03*
D21*
X132060000Y-82970000D03*
D22*
X126980000Y-85510000D03*
D21*
X132060000Y-93130000D03*
D17*
X117470000Y-99700000D03*
D14*
X123980000Y-111680000D03*
D23*
X128125000Y-70572400D03*
D15*
X67474315Y-105530000D03*
D16*
X70014315Y-105530000D03*
D24*
X74650000Y-105815686D03*
D16*
X74650000Y-103275686D03*
D21*
X121330000Y-87640000D03*
D17*
X107930000Y-106250000D03*
D13*
X118310000Y-81760000D03*
D17*
X115330000Y-63870000D03*
X128660000Y-76910000D03*
D23*
X51925000Y-105497400D03*
D17*
X107930000Y-112830000D03*
D25*
X81405686Y-105580000D03*
D16*
X78865686Y-105580000D03*
D17*
X53600000Y-87610000D03*
D14*
X60790000Y-87610000D03*
D23*
X128125000Y-105497400D03*
D17*
X122130000Y-105100000D03*
D16*
X88060000Y-103320000D03*
X88060000Y-105820000D03*
D18*
X79005000Y-110270000D03*
D19*
X81545000Y-110270000D03*
D15*
X93709315Y-101030000D03*
D16*
X97519315Y-101030000D03*
D23*
X51925000Y-70572400D03*
D25*
X89680686Y-100840000D03*
D16*
X85870686Y-100840000D03*
D18*
X72165000Y-110270000D03*
D19*
X74705000Y-110270000D03*
D15*
X61030000Y-105530000D03*
D16*
X63570000Y-105530000D03*
D26*
X99150000Y-111020000D03*
X96610000Y-111020000D03*
X94070000Y-111020000D03*
D16*
X99840000Y-98500000D03*
X99840000Y-96000000D03*
D17*
X126800000Y-93660000D03*
X136120000Y-93610000D03*
X126850000Y-82390000D03*
X136120000Y-82440000D03*
X117470000Y-106250000D03*
D18*
X65335000Y-110270000D03*
D19*
X67875000Y-110270000D03*
D18*
X85715000Y-110270000D03*
D19*
X88255000Y-110270000D03*
D17*
X107930000Y-99700000D03*
X46410000Y-87610000D03*
X117470000Y-112830000D03*
%LPD*%
M02*
