M48
; DRILL file {KiCad 9.0.4} date 2026-01-10T10:25:17-0500
; FORMAT={-:-/ absolute / inch / decimal}
; #@! TF.CreationDate,2026-01-10T10:25:17-05:00
; #@! TF.GenerationSoftware,Kicad,Pcbnew,9.0.4
; #@! TF.FileFunction,Plated,1,2,PTH
FMAT,2
INCH
; #@! TA.AperFunction,Plated,PTH,ViaDrill
T1C0.0157
; #@! TA.AperFunction,Plated,PTH,ComponentDrill
T2C0.0315
; #@! TA.AperFunction,Plated,PTH,ComponentDrill
T3C0.0350
; #@! TA.AperFunction,Plated,PTH,ComponentDrill
T4C0.0354
; #@! TA.AperFunction,Plated,PTH,ComponentDrill
T5C0.0433
; #@! TA.AperFunction,Plated,PTH,ComponentDrill
T6C0.0791
; #@! TA.AperFunction,Plated,PTH,ComponentDrill
T7C0.0965
; #@! TA.AperFunction,Plated,PTH,ComponentDrill
T8C0.0984
; #@! TA.AperFunction,Plated,PTH,ComponentDrill
T9C0.1378
%
G90
G05
T1
X1.6201Y-2.7654
X1.6205Y-2.8343
X1.6205Y-3.2256
X1.6205Y-3.3098
X1.6213Y-2.6941
X1.6213Y-2.9063
X1.6213Y-2.9913
X1.6213Y-3.1472
X1.6213Y-3.4795
X1.622Y-3.0654
X1.622Y-3.3906
X1.622Y-3.5559
X1.6228Y-3.6386
X1.6228Y-3.722
X1.6228Y-3.8079
X1.6228Y-3.8882
X1.6248Y-3.9622
X1.6264Y-4.0386
X1.628Y-4.1228
X1.6295Y-4.213
X1.6882Y-2.6933
X1.7059Y-4.2142
X1.7579Y-2.6933
X1.7906Y-4.215
X1.835Y-2.6933
X1.8657Y-4.2142
X1.9138Y-2.6937
X1.9268Y-4.2142
X1.9705Y-4.3938
X1.9705Y-4.48
X1.9713Y-4.5769
X1.9717Y-4.2997
X1.9756Y-2.6273
X1.9772Y-2.3552
X1.9772Y-2.48
X2.0598Y-4.5769
X2.0846Y-2.3552
X2.1587Y-4.5757
X2.1988Y-2.3552
X2.2571Y-4.5749
X2.3134Y-2.3552
X2.365Y-4.5749
X2.4276Y-2.354
X2.4713Y-4.5741
X2.5402Y-2.354
X2.5858Y-4.5745
X2.6433Y-2.3529
X2.6992Y-4.5745
X2.7492Y-2.3469
X2.8197Y-4.5745
X2.8598Y-2.3469
X2.9406Y-4.5729
X2.9583Y-2.3449
X3.0335Y-4.5721
X3.076Y-2.3492
X3.137Y-4.5713
X3.1815Y-2.3529
X3.226Y-4.574
X3.2772Y-2.3525
X3.3102Y-4.5772
X3.3976Y-4.5787
X3.4012Y-2.3525
X3.4878Y-4.5815
X3.5279Y-2.3483
X3.5783Y-4.5815
X3.6449Y-2.3497
X3.6642Y-4.5846
X3.7535Y-2.3489
X3.7579Y-4.5867
X3.8524Y-4.5867
X3.8602Y-2.3517
X3.9459Y-4.5874
X3.9791Y-2.3486
X4.0244Y-4.5871
X4.0886Y-2.3489
X4.1276Y-4.5871
X4.202Y-2.3489
X4.2213Y-4.5871
X4.3106Y-2.3477
X4.3177Y-4.5859
X4.4319Y-2.3493
X4.4437Y-4.5847
X4.5421Y-2.3505
X4.5803Y-4.5824
X4.6701Y-2.3505
X4.7165Y-4.5804
X4.7917Y-2.3505
X4.8681Y-4.5824
X4.9059Y-2.3505
X4.9961Y-4.5804
X5.0224Y-2.3481
X5.1157Y-2.5351
X5.1169Y-2.3493
X5.1169Y-2.6221
X5.1173Y-4.4828
X5.1173Y-4.5824
X5.1181Y-2.4426
X5.1193Y-4.3572
X5.2236Y-2.7021
X5.2394Y-4.2115
X5.3378Y-2.7021
X5.3571Y-4.2135
X5.4693Y-3.945
X5.4728Y-2.7103
X5.4732Y-3.5332
X5.4732Y-3.8056
X5.4744Y-3.1484
X5.4752Y-3.3958
X5.4752Y-4.0859
X5.4756Y-3.0614
X5.476Y-3.2867
X5.476Y-3.6717
X5.4768Y-2.8988
X5.4768Y-2.9827
X5.4772Y-4.2154
X5.478Y-2.8091
T2
X2.285Y-3.9663
X2.285Y-4.1663
X2.4232Y-4.0551
X2.4232Y-4.1551
X2.55Y-3.9657
X2.55Y-4.1657
X2.6913Y-4.0551
X2.6913Y-4.1551
X2.8228Y-3.9657
X2.8228Y-4.1657
X2.9677Y-4.0604
X2.9677Y-4.1604
X3.0961Y-3.9636
X3.0961Y-4.1636
X3.2394Y-4.0557
X3.2394Y-4.1557
X3.3618Y-3.9644
X3.3618Y-4.1644
X3.5831Y-3.7992
X3.5831Y-3.8976
X3.664Y-4.1169
X3.6681Y-4.3425
X3.7075Y-3.9071
X3.7146Y-3.7862
X3.7264Y-3.6142
X3.7625Y-4.1169
X3.7681Y-4.3425
X3.8248Y-3.6142
X3.8575Y-3.9071
X3.8646Y-3.7862
X3.8681Y-4.3425
T3
X4.9992Y-3.3659
X4.9992Y-3.4659
T4
X2.3041Y-4.3417
X2.4041Y-4.3417
X2.5722Y-4.3433
X2.6722Y-4.3433
X2.8423Y-4.3449
X2.9423Y-4.3449
X3.1106Y-4.3445
X3.2106Y-4.3445
X3.3778Y-4.3445
X3.4778Y-4.3445
T5
X3.314Y-3.4603
X3.4857Y-3.3017
X3.5987Y-3.5777
X3.812Y-3.0379
X3.9854Y-3.1323
X4.7504Y-2.4949
T6
X4.7768Y-3.4659
X5.1992Y-3.2659
X5.1992Y-3.6659
T7
X2.3933Y-3.4659
T8
X4.9886Y-2.4909
X4.9886Y-4.4362
X5.2913Y-2.9713
X5.3055Y-4.0051
T9
X2.0443Y-2.7784
X2.0443Y-4.1534
X5.0443Y-2.7784
X5.0443Y-4.1534
M30
